<svg id="Layer_1" data-name="Layer 1" xmlns="http://www.w3.org/2000/svg" viewBox="0 0 22 21.77"><defs><style>.cls-1{fill:#fff;}</style></defs><title>icon1</title><circle class="cls-1" cx="11.28" cy="10.91" r="4.96"/><circle class="cls-1" cx="11.21" cy="2.75" r="1.49"/><path class="cls-1" d="M228,15.66a.46.46,0,0,1,.46-.46h0a.46.46,0,0,1,.46.46h0a.46.46,0,0,1-.46.46h0A.46.46,0,0,1,228,15.66Zm-1.48-.34a.46.46,0,0,1,0-.65h0a.46.46,0,0,1,.65,0h0a.46.46,0,0,1,0,.65h0a.46.46,0,0,1-.33.14h0A.46.46,0,0,1,226.54,15.31Zm3.24,0a.46.46,0,0,1,0-.65h0a.46.46,0,0,1,.65,0h0a.46.46,0,0,1,0,.65h0a.46.46,0,0,1-.33.13h0A.46.46,0,0,1,229.78,15.31Zm-4-1.94a.46.46,0,0,1,.46-.46h0a.46.46,0,0,1,.46.46h0a.46.46,0,0,1-.46.46h0A.46.46,0,0,1,225.73,13.37Zm4.58,0h0a.46.46,0,0,1,.46-.46h0a.46.46,0,0,1,.46.46h0a.46.46,0,0,1-.46.46h0A.46.46,0,0,1,230.31,13.37Zm-4.58,0Zm.8-1.29a.46.46,0,0,1,0-.65h0a.46.46,0,0,1,.65,0h0a.46.46,0,0,1,0,.65h0a.46.46,0,0,1-.33.14h0A.46.46,0,0,1,226.54,12.07Zm3.24,0h0a.46.46,0,0,1,0-.65h0a.46.46,0,0,1,.65,0h0a.46.46,0,0,1,0,.65h0a.46.46,0,0,1-.33.14h0A.46.46,0,0,1,229.78,12.07Zm-1.76-1a.46.46,0,0,1,.46-.46h0a.46.46,0,0,1,.46.46h0a.46.46,0,0,1-.46.46h0A.46.46,0,0,1,228,11.08Z" transform="translate(-217.27 -10.62)"/><circle class="cls-1" cx="16.92" cy="5.24" r="1.49"/><path class="cls-1" d="M233.73,18.15a.46.46,0,0,1,.46-.46h0a.46.46,0,0,1,.46.46h0a.46.46,0,0,1-.46.46h0A.46.46,0,0,1,233.73,18.15Zm-1.48-.34a.46.46,0,0,1,0-.65h0a.46.46,0,0,1,.65,0h0a.46.46,0,0,1,0,.65h0a.46.46,0,0,1-.33.14h0A.46.46,0,0,1,232.25,17.81Zm3.24,0a.46.46,0,0,1,0-.65h0a.46.46,0,0,1,.65,0h0a.46.46,0,0,1,0,.65h0a.46.46,0,0,1-.33.13h0A.46.46,0,0,1,235.49,17.8Zm-4-1.94a.46.46,0,0,1,.46-.46h0a.46.46,0,0,1,.46.46h0a.46.46,0,0,1-.46.46h0A.46.46,0,0,1,231.44,15.86Zm4.58,0h0a.46.46,0,0,1,.46-.46h0a.46.46,0,0,1,.46.46h0a.46.46,0,0,1-.46.46h0A.46.46,0,0,1,236,15.86Zm-4.58,0Zm.8-1.29a.46.46,0,0,1,0-.65h0a.46.46,0,0,1,.65,0h0a.46.46,0,0,1,0,.65h0a.46.46,0,0,1-.33.14h0A.46.46,0,0,1,232.25,14.57Zm3.24,0h0a.46.46,0,0,1,0-.65h0a.46.46,0,0,1,.65,0h0a.46.46,0,0,1,0,.65h0a.46.46,0,0,1-.33.14h0A.46.46,0,0,1,235.48,14.56Zm-1.76-1a.46.46,0,0,1,.46-.46h0a.46.46,0,0,1,.46.46h0a.46.46,0,0,1-.46.46h0A.46.46,0,0,1,233.73,13.57Z" transform="translate(-217.27 -10.62)"/><circle class="cls-1" cx="19.25" cy="10.92" r="1.49"/><path class="cls-1" d="M236.06,23.83a.46.46,0,0,1,.46-.46h0a.46.46,0,0,1,.46.46h0a.46.46,0,0,1-.46.46h0A.46.46,0,0,1,236.06,23.83Zm-1.48-.34a.46.46,0,0,1,0-.65h0a.46.46,0,0,1,.65,0h0a.46.46,0,0,1,0,.65h0a.46.46,0,0,1-.33.14h0A.46.46,0,0,1,234.58,23.48Zm3.24,0a.46.46,0,0,1,0-.65h0a.46.46,0,0,1,.65,0h0a.46.46,0,0,1,0,.65h0a.46.46,0,0,1-.33.13h0A.46.46,0,0,1,237.82,23.48Zm-4-1.94a.46.46,0,0,1,.46-.46h0a.46.46,0,0,1,.46.46h0a.46.46,0,0,1-.46.46h0A.46.46,0,0,1,233.77,21.54Zm4.58,0h0a.46.46,0,0,1,.46-.46h0a.46.46,0,0,1,.46.46h0a.46.46,0,0,1-.46.46h0A.46.46,0,0,1,238.35,21.54Zm-4.58,0Zm.8-1.29a.46.46,0,0,1,0-.65h0a.46.46,0,0,1,.65,0h0a.46.46,0,0,1,0,.65h0a.46.46,0,0,1-.33.14h0A.46.46,0,0,1,234.58,20.24Zm3.24,0h0a.46.46,0,0,1,0-.65h0a.46.46,0,0,1,.65,0h0a.46.46,0,0,1,0,.65h0a.46.46,0,0,1-.33.14h0A.46.46,0,0,1,237.81,20.24Zm-1.76-1a.46.46,0,0,1,.46-.46h0a.46.46,0,0,1,.46.46h0a.46.46,0,0,1-.46.46h0A.46.46,0,0,1,236.06,19.25Z" transform="translate(-217.27 -10.62)"/><circle class="cls-1" cx="11.41" cy="19.02" r="1.49"/><path class="cls-1" d="M228.22,31.93a.46.46,0,0,1,.46-.46h0a.46.46,0,0,1,.46.46h0a.46.46,0,0,1-.46.46h0A.46.46,0,0,1,228.22,31.93Zm-1.48-.34a.46.46,0,0,1,0-.65h0a.46.46,0,0,1,.65,0h0a.46.46,0,0,1,0,.65h0a.46.46,0,0,1-.33.14h0A.46.46,0,0,1,226.74,31.58Zm3.24,0a.46.46,0,0,1,0-.65h0a.46.46,0,0,1,.65,0h0a.46.46,0,0,1,0,.65h0a.46.46,0,0,1-.33.13h0A.46.46,0,0,1,230,31.58Zm-4-1.94a.46.46,0,0,1,.46-.46h0a.46.46,0,0,1,.46.46h0a.46.46,0,0,1-.46.46h0A.46.46,0,0,1,225.93,29.64Zm4.58,0h0a.46.46,0,0,1,.46-.46h0a.46.46,0,0,1,.46.46h0a.46.46,0,0,1-.46.46h0A.46.46,0,0,1,230.51,29.64Zm-4.58,0Zm.8-1.29a.46.46,0,0,1,0-.65h0a.46.46,0,0,1,.65,0h0a.46.46,0,0,1,0,.65h0a.46.46,0,0,1-.33.14h0A.46.46,0,0,1,226.73,28.35Zm3.24,0h0a.46.46,0,0,1,0-.65h0a.46.46,0,0,1,.65,0h0a.46.46,0,0,1,0,.65h0a.46.46,0,0,1-.33.14h0A.46.46,0,0,1,230,28.34Zm-1.76-1a.46.46,0,0,1,.46-.46h0a.46.46,0,0,1,.46.46h0a.46.46,0,0,1-.46.46h0A.46.46,0,0,1,228.22,27.35Z" transform="translate(-217.27 -10.62)"/><circle class="cls-1" cx="2.75" cy="10.95" r="1.49"/><path class="cls-1" d="M219.56,23.86a.46.46,0,0,1,.46-.46h0a.46.46,0,0,1,.46.46h0a.46.46,0,0,1-.46.46h0A.46.46,0,0,1,219.56,23.86Zm-1.48-.34a.46.46,0,0,1,0-.65h0a.46.46,0,0,1,.65,0h0a.46.46,0,0,1,0,.65h0a.46.46,0,0,1-.33.14h0A.46.46,0,0,1,218.08,23.51Zm3.24,0a.46.46,0,0,1,0-.65h0a.46.46,0,0,1,.65,0h0a.46.46,0,0,1,0,.65h0a.46.46,0,0,1-.33.13h0A.46.46,0,0,1,221.31,23.51Zm-4-1.94a.46.46,0,0,1,.46-.46h0a.46.46,0,0,1,.46.46h0a.46.46,0,0,1-.46.46h0A.46.46,0,0,1,217.27,21.57Zm4.58,0h0a.46.46,0,0,1,.46-.46h0a.46.46,0,0,1,.46.46h0a.46.46,0,0,1-.46.46h0A.46.46,0,0,1,221.85,21.57Zm-4.58,0Zm.8-1.29a.46.46,0,0,1,0-.65h0a.46.46,0,0,1,.65,0h0a.46.46,0,0,1,0,.65h0a.46.46,0,0,1-.33.14h0A.46.46,0,0,1,218.07,20.28Zm3.24,0h0a.46.46,0,0,1,0-.65h0a.46.46,0,0,1,.65,0h0a.46.46,0,0,1,0,.65h0a.46.46,0,0,1-.33.14h0A.46.46,0,0,1,221.31,20.27Zm-1.76-1a.46.46,0,0,1,.46-.46h0a.46.46,0,0,1,.46.46h0a.46.46,0,0,1-.46.46h0A.46.46,0,0,1,219.56,19.28Z" transform="translate(-217.27 -10.62)"/><circle class="cls-1" cx="5.41" cy="4.98" r="1.49"/><path class="cls-1" d="M222.22,17.89a.46.46,0,0,1,.46-.46h0a.46.46,0,0,1,.46.46h0a.46.46,0,0,1-.46.46h0A.46.46,0,0,1,222.22,17.89Zm-1.48-.34a.46.46,0,0,1,0-.65h0a.46.46,0,0,1,.65,0h0a.46.46,0,0,1,0,.65h0a.46.46,0,0,1-.33.14h0A.46.46,0,0,1,220.73,17.54Zm3.24,0a.46.46,0,0,1,0-.65h0a.46.46,0,0,1,.65,0h0a.46.46,0,0,1,0,.65h0a.46.46,0,0,1-.33.13h0A.46.46,0,0,1,224,17.54Zm-4-1.94a.46.46,0,0,1,.46-.46h0a.46.46,0,0,1,.46.46h0a.46.46,0,0,1-.46.46h0A.46.46,0,0,1,219.93,15.6Zm4.58,0h0a.46.46,0,0,1,.46-.46h0a.46.46,0,0,1,.46.46h0a.46.46,0,0,1-.46.46h0A.46.46,0,0,1,224.51,15.6Zm-4.58,0Zm.8-1.29a.46.46,0,0,1,0-.65h0a.46.46,0,0,1,.65,0h0a.46.46,0,0,1,0,.65h0a.46.46,0,0,1-.33.14h0A.46.46,0,0,1,220.73,14.31Zm3.24,0h0a.46.46,0,0,1,0-.65h0a.46.46,0,0,1,.65,0h0a.46.46,0,0,1,0,.65h0a.46.46,0,0,1-.33.14h0A.46.46,0,0,1,224,14.3Zm-1.76-1a.46.46,0,0,1,.46-.46h0a.46.46,0,0,1,.46.46h0a.46.46,0,0,1-.46.46h0A.46.46,0,0,1,222.21,13.31Z" transform="translate(-217.27 -10.62)"/><circle class="cls-1" cx="17.02" cy="16.66" r="1.49"/><path class="cls-1" d="M233.83,29.57a.46.46,0,0,1,.46-.46h0a.46.46,0,0,1,.46.46h0a.46.46,0,0,1-.46.46h0A.46.46,0,0,1,233.83,29.57Zm-1.48-.34a.46.46,0,0,1,0-.65h0a.46.46,0,0,1,.65,0h0a.46.46,0,0,1,0,.65h0a.46.46,0,0,1-.33.14h0A.46.46,0,0,1,232.35,29.22Zm3.24,0a.46.46,0,0,1,0-.65h0a.46.46,0,0,1,.65,0h0a.46.46,0,0,1,0,.65h0a.46.46,0,0,1-.33.13h0A.46.46,0,0,1,235.59,29.22Zm-4-1.94a.46.46,0,0,1,.46-.46h0a.46.46,0,0,1,.46.46h0a.46.46,0,0,1-.46.46h0A.46.46,0,0,1,231.54,27.28Zm4.58,0h0a.46.46,0,0,1,.46-.46h0a.46.46,0,0,1,.46.46h0a.46.46,0,0,1-.46.46h0A.46.46,0,0,1,236.12,27.28Zm-4.58,0Zm.8-1.29a.46.46,0,0,1,0-.65h0a.46.46,0,0,1,.65,0h0a.46.46,0,0,1,0,.65h0a.46.46,0,0,1-.33.14h0A.46.46,0,0,1,232.34,26Zm3.24,0h0a.46.46,0,0,1,0-.65h0a.46.46,0,0,1,.65,0h0a.46.46,0,0,1,0,.65h0a.46.46,0,0,1-.33.14h0A.46.46,0,0,1,235.58,26Zm-1.76-1a.46.46,0,0,1,.46-.46h0a.46.46,0,0,1,.46.46h0a.46.46,0,0,1-.46.46h0A.46.46,0,0,1,233.83,25Z" transform="translate(-217.27 -10.62)"/><circle class="cls-1" cx="5.41" cy="16.86" r="1.49"/><path class="cls-1" d="M222.22,29.76a.46.46,0,0,1,.46-.46h0a.46.46,0,0,1,.46.46h0a.46.46,0,0,1-.46.46h0A.46.46,0,0,1,222.22,29.76Zm-1.48-.34a.46.46,0,0,1,0-.65h0a.46.46,0,0,1,.65,0h0a.46.46,0,0,1,0,.65h0a.46.46,0,0,1-.33.14h0A.46.46,0,0,1,220.73,29.42Zm3.24,0a.46.46,0,0,1,0-.65h0a.46.46,0,0,1,.65,0h0a.46.46,0,0,1,0,.65h0a.46.46,0,0,1-.33.13h0A.46.46,0,0,1,224,29.42Zm-4-1.94a.46.46,0,0,1,.46-.46h0a.46.46,0,0,1,.46.46h0a.46.46,0,0,1-.46.46h0A.46.46,0,0,1,219.93,27.48Zm4.58,0h0A.46.46,0,0,1,225,27h0a.46.46,0,0,1,.46.46h0a.46.46,0,0,1-.46.46h0A.46.46,0,0,1,224.51,27.47Zm-4.58,0Zm.8-1.29a.46.46,0,0,1,0-.65h0a.46.46,0,0,1,.65,0h0a.46.46,0,0,1,0,.65h0a.46.46,0,0,1-.33.14h0A.46.46,0,0,1,220.73,26.18Zm3.24,0h0a.46.46,0,0,1,0-.65h0a.46.46,0,0,1,.65,0h0a.46.46,0,0,1,0,.65h0a.46.46,0,0,1-.33.14h0A.46.46,0,0,1,224,26.18Zm-1.76-1a.46.46,0,0,1,.46-.46h0a.46.46,0,0,1,.46.46h0a.46.46,0,0,1-.46.46h0A.46.46,0,0,1,222.21,25.18Z" transform="translate(-217.27 -10.62)"/></svg>