<?xml version="1.0" encoding="utf-8"?>
<!-- Generator: Adobe Illustrator 21.1.0, SVG Export Plug-In . SVG Version: 6.00 Build 0)  -->
<svg version="1.1" id="Layer_1" xmlns="http://www.w3.org/2000/svg" xmlns:xlink="http://www.w3.org/1999/xlink" x="0px" y="0px"
	 viewBox="0 0 127.3 124.7" style="enable-background:new 0 0 127.3 124.7;" xml:space="preserve">
<style type="text/css">
	.st0{fill:#FFFFFF;}
</style>
<title>Asset 1</title>
<g id="Layer_2">
	<g id="Layer_2-2">
		<path class="st0" d="M63.7,80.3c14,0,25.4-14.1,28.4-24c3.6-11.7,6.6-20.8,2.9-33.8S84.8,0,63.7,0S36,9.5,32.3,22.5
			s-0.7,22.2,2.9,33.9C38.3,66.2,49.7,80.3,63.7,80.3z"/>
		<path class="st0" d="M63.7,124.7h63.7c0-4.8-5.2-26.7-9.7-30.7S96,83,96,83S85.7,94.7,63.7,94.7S31.3,83,31.3,83S14.2,90,9.7,94
			S0,119.8,0,124.7H63.7z"/>
	</g>
</g>
</svg>
