<svg xmlns="http://www.w3.org/2000/svg" viewBox="0 0 127.33 124.67"><defs><style>.cls-1{fill:#fff;}</style></defs><title>Asset 1</title><g id="Layer_2" data-name="Layer 2"><g id="Layer_2-2" data-name="Layer 2"><path class="cls-1" d="M63.67,80.33c14,0,25.36-14.1,28.4-24C95.67,44.67,98.67,35.5,95,22.5S84.83,0,63.67,0,36,9.5,32.33,22.5s-.67,22.17,2.93,33.86C38.3,66.24,49.67,80.33,63.67,80.33Z"/><path class="cls-1" d="M63.67,124.67h63.67c0-4.83-5.17-26.67-9.67-30.67S96,83,96,83s-10.33,7.67-32.33,7.67S31.33,83,31.33,83,14.17,90,9.67,94,0,119.83,0,124.67Z"/></g></g></svg>