<svg xmlns="http://www.w3.org/2000/svg" viewBox="0 0 45 43.2">
    <g id="icon_antibiotica">
        <ellipse cx="23.02" cy="21.64" rx="10.12" ry="9.85"/>
        <ellipse cx="22.88" cy="5.44" rx="3.04" ry="2.96"/>
        <path d="M21.9,10a.93.93,0,0,1,.94-.91h0a.93.93,0,0,1,.94.91h0a.93.93,0,0,1-.94.91h0A.93.93,0,0,1,21.9,10Zm-3-.68a.9.9,0,0,1,0-1.29h0A1,1,0,0,1,20.2,8h0a.9.9,0,0,1,0,1.29h0a1,1,0,0,1-.67.28h0a1,1,0,0,1-.61-.3Zm6.61,0a.9.9,0,0,1,0-1.29h0a1,1,0,0,1,1.33,0h0a.9.9,0,0,1,0,1.29h0a1,1,0,0,1-.67.26h0a1,1,0,0,1-.61-.28ZM17.33,5.46a.93.93,0,0,1,.94-.91h0a.93.93,0,0,1,.94.91h0a.93.93,0,0,1-.94.91h0a.93.93,0,0,1-1-.85s0-.05,0-.08Zm9.35,0h0a.93.93,0,0,1,.94-.91h0a.93.93,0,0,1,.94.91h0a.93.93,0,0,1-.94.91h0a.93.93,0,0,1-1-.85s0-.05,0-.08ZM19,2.9a.9.9,0,0,1,0-1.29h0a1,1,0,0,1,1.33,0h0a.9.9,0,0,1,0,1.29h0a1,1,0,0,1-.67.28h0a1,1,0,0,1-.69-.32Zm6.61,0h0a.9.9,0,0,1,0-1.29h0a1,1,0,0,1,1.33,0h0a.9.9,0,0,1,0,1.29h0a1,1,0,0,1-.67.28h0a1,1,0,0,1-.69-.32ZM22,.91A.93.93,0,0,1,22.92,0h0a.93.93,0,0,1,.94.91h0a.93.93,0,0,1-.94.91h0a.93.93,0,0,1-1-.83.89.89,0,0,1,0-.1Z"/>
        <ellipse cx="34.53" cy="10.38" rx="3.04" ry="2.96"/>
        <path d="M33.59,14.93a.93.93,0,0,1,.94-.91h0a.93.93,0,0,1,.94.91h0a.93.93,0,0,1-.94.91h0a.93.93,0,0,1-.94-.91Zm-3-.68a.9.9,0,0,1,0-1.29h0a1,1,0,0,1,1.33,0h0a.9.9,0,0,1,0,1.29h0a1,1,0,0,1-.67.28h0A1,1,0,0,1,30.57,14.25Zm6.61,0a.9.9,0,0,1,0-1.29h0a1,1,0,0,1,1.33,0h0a.9.9,0,0,1,0,1.29h0a1,1,0,0,1-.67.26h0a1,1,0,0,1-.65-.28ZM29,10.4A.93.93,0,0,1,30,9.49h0a.93.93,0,0,1,.94.91h0a.93.93,0,0,1-.94.91h0a.93.93,0,0,1-1-.81.89.89,0,0,1,0-.12Zm9.35,0h0a.93.93,0,0,1,.94-.91h0a.93.93,0,0,1,.94.91h0a.93.93,0,0,1-.94.91h0a.94.94,0,0,1-1.07-.76.89.89,0,0,1,0-.17ZM30.65,7.84a.9.9,0,0,1,0-1.29h0a1,1,0,0,1,1.33,0h0a.9.9,0,0,1,0,1.29h0a1,1,0,0,1-.67.28h0a1,1,0,0,1-.73-.3Zm6.61,0h0a.9.9,0,0,1,0-1.29h0a1,1,0,0,1,1.33,0h0a.9.9,0,0,1,0,1.29h0a1,1,0,0,1-.67.28h0a1,1,0,0,1-.76-.32Zm-3.59-2a.93.93,0,0,1,.94-.91h0a.93.93,0,0,1,.94.91h0a.93.93,0,0,1-.94.91h0a.93.93,0,0,1-1-.83.89.89,0,0,1,0-.1Z"/>
        <ellipse cx="39.29" cy="21.66" rx="3.04" ry="2.96"/>
        <path d="M38.35,26.21a.93.93,0,0,1,.94-.91h0a.93.93,0,0,1,.94.91h0a.93.93,0,0,1-.94.91h0a.93.93,0,0,1-.94-.91Zm-3-.68a.9.9,0,0,1,0-1.29h0a1,1,0,0,1,1.33,0h0a.9.9,0,0,1,0,1.29h0a1,1,0,0,1-.67.28h0a1,1,0,0,1-.65-.3Zm6.61,0a.9.9,0,0,1,0-1.29h0a1,1,0,0,1,1.33,0h0a.9.9,0,0,1,0,1.29h0a1,1,0,0,1-.67.26h0a1,1,0,0,1-.65-.28Zm-8.16-3.85a.93.93,0,0,1,.94-.91h0a.93.93,0,0,1,.94.91h0a.93.93,0,0,1-.94.91h0a.93.93,0,0,1-1-.81.89.89,0,0,1,0-.12Zm9.35,0h0a.93.93,0,0,1,.94-.91h0a.93.93,0,0,1,.94.91h0a.93.93,0,0,1-.94.91h0a.93.93,0,0,1-1-.81.89.89,0,0,1,0-.12Zm-7.71-2.56a.9.9,0,0,1,0-1.29h0a1,1,0,0,1,1.33,0h0a.9.9,0,0,1,0,1.29h0a1,1,0,0,1-.67.28h0a1,1,0,0,1-.73-.32Zm6.61,0h0a.9.9,0,0,1,0-1.29h0a1,1,0,0,1,1.33,0h0a.9.9,0,0,1,0,1.29h0a1,1,0,0,1-.67.28h0a1,1,0,0,1-.76-.32Zm-3.59-2a.93.93,0,0,1,.94-.91h0a.93.93,0,0,1,.94.91h0a.93.93,0,0,1-.94.91h0a.93.93,0,0,1-1-.83.89.89,0,0,1,0-.1Z"/>
        <ellipse cx="23.29" cy="37.74" rx="3.04" ry="2.96"/>
        <path d="M22.35,42.29a.93.93,0,0,1,.94-.91h0a.93.93,0,0,1,.94.91h0a.93.93,0,0,1-.94.91h0a.93.93,0,0,1-.94-.91Zm-3-.68a.9.9,0,0,1,0-1.29h0a1,1,0,0,1,1.33,0h0a.9.9,0,0,1,0,1.29h0a1,1,0,0,1-.67.28h0a1,1,0,0,1-.65-.3Zm6.61,0a.9.9,0,0,1,0-1.29h0a1,1,0,0,1,1.33,0h0a.9.9,0,0,1,0,1.29h0a1,1,0,0,1-.67.26h0a1,1,0,0,1-.61-.28Zm-8.16-3.85a.93.93,0,0,1,.94-.91h0a.93.93,0,0,1,.94.91h0a.93.93,0,0,1-.94.91h0a.93.93,0,0,1-1-.81.89.89,0,0,1,0-.12Zm9.35,0h0a.93.93,0,0,1,.94-.91h0a.93.93,0,0,1,.94.91h0a.93.93,0,0,1-.94.91h0a.93.93,0,0,1-1-.81.89.89,0,0,1,0-.12ZM19.41,35.2a.9.9,0,0,1,0-1.29h0a1,1,0,0,1,1.33,0h0a.9.9,0,0,1,0,1.29h0a1,1,0,0,1-.67.28h0a1,1,0,0,1-.76-.3Zm6.61,0h0a.9.9,0,0,1,0-1.29h0a1,1,0,0,1,1.33,0h0a.9.9,0,0,1,0,1.29h0a1,1,0,0,1-.67.28h0a1,1,0,0,1-.69-.32Zm-3.59-2a.93.93,0,0,1,.94-.91h0a.93.93,0,0,1,.94.91h0a.93.93,0,0,1-.94.91h0a.93.93,0,0,1-1-.83.89.89,0,0,1,0-.1Z"/>
        <ellipse cx="5.61" cy="21.72" rx="3.04" ry="2.96"/>
        <path d="M4.67,26.27a.93.93,0,0,1,.94-.91h0a.93.93,0,0,1,.94.91h0a.93.93,0,0,1-.94.91h0a.93.93,0,0,1-.94-.91Zm-3-.68a.9.9,0,0,1,0-1.29h0A1,1,0,0,1,3,24.3H3a.9.9,0,0,1,0,1.29H3a1,1,0,0,1-.67.28h0a1,1,0,0,1-.65-.3Zm6.61,0a.9.9,0,0,1,0-1.29h0a1,1,0,0,1,1.33,0h0a.9.9,0,0,1,0,1.29h0a1,1,0,0,1-.67.26h0a1,1,0,0,1-.67-.28ZM.1,21.74A.93.93,0,0,1,1,20.83H1a.93.93,0,0,1,.94.91H2a.93.93,0,0,1-.94.91H1a.93.93,0,0,1-1-.81.89.89,0,0,1,0-.12Zm9.35,0h0a.93.93,0,0,1,.94-.91h0a.93.93,0,0,1,.94.91h0a.93.93,0,0,1-.94.91h0a.93.93,0,0,1-1-.81.89.89,0,0,1,0-.12ZM1.74,19.18a.9.9,0,0,1,0-1.29h0a1,1,0,0,1,1.33,0h0a.9.9,0,0,1,0,1.29h0a1,1,0,0,1-.67.28h0a1,1,0,0,1-.76-.3Zm6.61,0h0a.9.9,0,0,1,0-1.29h0a1,1,0,0,1,1.33,0h0a.9.9,0,0,1,0,1.29h0a1,1,0,0,1-.67.28H9a1,1,0,0,1-.76-.32Zm-3.59-2a.93.93,0,0,1,.94-.91h0a.93.93,0,0,1,.94.91h0a.93.93,0,0,1-.94.91h0a.93.93,0,0,1-1-.83.89.89,0,0,1,0-.1Z"/>
        <ellipse cx="11.04" cy="9.87" rx="3.04" ry="2.96"/>
        <path d="M10.1,14.41A.93.93,0,0,1,11,13.5h0a.93.93,0,0,1,.94.91h0a.93.93,0,0,1-.94.91h0a.93.93,0,0,1-.94-.91Zm-3-.68a.9.9,0,0,1,0-1.29h0a1,1,0,0,1,1.33,0h0a.9.9,0,0,1,0,1.29h0a1,1,0,0,1-.67.28h0a1,1,0,0,1-.67-.3Zm6.61,0a.9.9,0,0,1,0-1.29h0a1,1,0,0,1,1.33,0h0a.9.9,0,0,1,0,1.29h0a1,1,0,0,1-.67.26h0a1,1,0,0,1-.61-.28ZM5.53,9.89A.93.93,0,0,1,6.47,9h0a.93.93,0,0,1,.94.91h0a.93.93,0,0,1-.94.91h0a.93.93,0,0,1-1-.81.89.89,0,0,1,0-.12Zm9.35,0h0A.93.93,0,0,1,15.82,9h0a.93.93,0,0,1,.94.91h0a.93.93,0,0,1-.94.91h0a.93.93,0,0,1-1-.81.89.89,0,0,1,0-.12ZM7.16,7.33A.9.9,0,0,1,7.16,6h0A1,1,0,0,1,8.49,6h0a.9.9,0,0,1,0,1.29h0a1,1,0,0,1-.67.28h0a1,1,0,0,1-.76-.3Zm6.61,0h0a.9.9,0,0,1,0-1.29h0A1,1,0,0,1,15.1,6h0a.9.9,0,0,1,0,1.29h0a1,1,0,0,1-.67.28h0a1,1,0,0,1-.69-.32Zm-3.59-2a.93.93,0,0,1,.94-.91h0a.93.93,0,0,1,.94.91h0a.93.93,0,0,1-.94.91h0a.93.93,0,0,1-1-.81.89.89,0,0,1,0-.12Z"/>
        <ellipse cx="34.73" cy="33.06" rx="3.04" ry="2.96"/>
        <path d="M33.8,37.6a.93.93,0,0,1,.94-.91h0a.93.93,0,0,1,.94.91h0a.93.93,0,0,1-.94.91h0a.93.93,0,0,1-.94-.91Zm-3-.68a.9.9,0,0,1,0-1.29h0a1,1,0,0,1,1.33,0h0a.9.9,0,0,1,0,1.29h0a1,1,0,0,1-.67.28h0a1,1,0,0,1-.65-.3Zm6.61,0a.9.9,0,0,1,0-1.29h0a1,1,0,0,1,1.33,0h0a.9.9,0,0,1,0,1.29h0a1,1,0,0,1-.67.26h0a1,1,0,0,1-.65-.28Zm-8.16-3.85a.93.93,0,0,1,.94-.91h0a.93.93,0,0,1,.94.91h0a.93.93,0,0,1-.94.91h0a.93.93,0,0,1-1-.81.89.89,0,0,1,0-.12Zm9.35,0h0a.93.93,0,0,1,.94-.91h0a.93.93,0,0,1,.94.91h0a.93.93,0,0,1-.94.91h0a.93.93,0,0,1-1-.81.89.89,0,0,1,0-.12Zm-7.71-2.56a.9.9,0,0,1,0-1.29h0a1,1,0,0,1,1.33,0h0a.9.9,0,0,1,0,1.29h0a1,1,0,0,1-.67.28h0a1,1,0,0,1-.76-.28Zm6.61,0h0a.9.9,0,0,1,0-1.29h0a1,1,0,0,1,1.33,0h0a.9.9,0,0,1,0,1.29h0a1,1,0,0,1-.67.28h0a1,1,0,0,1-.76-.28Zm-3.59-2a.93.93,0,0,1,.94-.91h0a.93.93,0,0,1,.94.91h0a.93.93,0,0,1-.94.91h0a.93.93,0,0,1-1-.83s0-.06,0-.08Z"/>
        <ellipse cx="11.04" cy="33.45" rx="3.04" ry="2.96"/>
        <path d="M10.1,38a.93.93,0,0,1,.94-.91h0A.93.93,0,0,1,12,38h0a.93.93,0,0,1-.94.91h0A.93.93,0,0,1,10.1,38Zm-3-.68a.9.9,0,0,1,0-1.29h0a1,1,0,0,1,1.33,0h0a.9.9,0,0,1,0,1.29h0a1,1,0,0,1-.67.28h0a1,1,0,0,1-.67-.28Zm6.61,0a.9.9,0,0,1,0-1.29h0A1,1,0,0,1,15,36h0a.9.9,0,0,1,0,1.29h0a1,1,0,0,1-.67.26h0a1,1,0,0,1-.61-.26ZM5.53,33.45a.93.93,0,0,1,.94-.91h0a.93.93,0,0,1,.94.91h0a.93.93,0,0,1-.94.91h0a.93.93,0,0,1-1-.81.89.89,0,0,1,0-.1Zm9.35,0h0a.92.92,0,0,1,.9-1h0a.93.93,0,0,1,.94.91h0a.93.93,0,0,1-.94.91h0a.93.93,0,0,1-1-.85v0ZM7.16,30.89a.9.9,0,0,1,0-1.29h0a1,1,0,0,1,1.33,0h0a.9.9,0,0,1,0,1.29h0a1,1,0,0,1-.67.28h0a1,1,0,0,1-.76-.3Zm6.61,0h0a.9.9,0,0,1,0-1.29h0a1,1,0,0,1,1.33,0h0a.9.9,0,0,1,0,1.29h0a1,1,0,0,1-.67.28h0a1,1,0,0,1-.69-.3Zm-3.59-2a.93.93,0,0,1,.94-.91h0a.93.93,0,0,1,.94.91h0a.93.93,0,0,1-.94.91h0a.93.93,0,0,1-1-.81.89.89,0,0,1,0-.12Z"/>
    </g>
</svg>