<svg xmlns="http://www.w3.org/2000/svg" viewBox="0 0 22 21.77"><defs><style>.cls-1{fill:#c9d969;}</style></defs><title>Asset 1</title><g id="Layer_2" data-name="Layer 2"><g id="Layer_1-2" data-name="Layer 1"><circle class="cls-1" cx="11.28" cy="10.91" r="4.96"/><circle class="cls-1" cx="11.21" cy="2.75" r="1.49"/><path class="cls-1" d="M10.76,5a.46.46,0,0,1,.46-.46h0a.46.46,0,0,1,.46.46h0a.46.46,0,0,1-.46.46h0A.46.46,0,0,1,10.76,5ZM9.27,4.7a.46.46,0,0,1,0-.65h0a.46.46,0,0,1,.65,0h0a.46.46,0,0,1,0,.65h0a.46.46,0,0,1-.33.14h0A.46.46,0,0,1,9.27,4.7Zm3.24,0a.46.46,0,0,1,0-.65h0a.46.46,0,0,1,.65,0h0a.46.46,0,0,1,0,.65h0a.46.46,0,0,1-.33.13h0A.46.46,0,0,1,12.51,4.69Zm-4-1.94a.46.46,0,0,1,.46-.46h0a.46.46,0,0,1,.46.46h0a.46.46,0,0,1-.46.46h0A.46.46,0,0,1,8.46,2.75Zm4.58,0h0a.46.46,0,0,1,.46-.46h0a.46.46,0,0,1,.46.46h0a.46.46,0,0,1-.46.46h0A.46.46,0,0,1,13,2.75Zm-4.58,0Zm.8-1.29a.46.46,0,0,1,0-.65h0a.46.46,0,0,1,.65,0h0a.46.46,0,0,1,0,.65h0a.46.46,0,0,1-.33.14h0A.46.46,0,0,1,9.27,1.46Zm3.24,0h0a.46.46,0,0,1,0-.65h0a.46.46,0,0,1,.65,0h0a.46.46,0,0,1,0,.65h0a.46.46,0,0,1-.33.14h0A.46.46,0,0,1,12.51,1.45Zm-1.76-1A.46.46,0,0,1,11.21,0h0a.46.46,0,0,1,.46.46h0a.46.46,0,0,1-.46.46h0A.46.46,0,0,1,10.75.46Z"/><circle class="cls-1" cx="16.92" cy="5.24" r="1.49"/><path class="cls-1" d="M16.46,7.53a.46.46,0,0,1,.46-.46h0a.46.46,0,0,1,.46.46h0a.46.46,0,0,1-.46.46h0A.46.46,0,0,1,16.46,7.53ZM15,7.19a.46.46,0,0,1,0-.65h0a.46.46,0,0,1,.65,0h0a.46.46,0,0,1,0,.65h0a.46.46,0,0,1-.33.14h0A.46.46,0,0,1,15,7.19Zm3.24,0a.46.46,0,0,1,0-.65h0a.46.46,0,0,1,.65,0h0a.46.46,0,0,1,0,.65h0a.46.46,0,0,1-.33.13h0A.46.46,0,0,1,18.22,7.19Zm-4-1.94a.46.46,0,0,1,.46-.46h0a.46.46,0,0,1,.46.46h0a.46.46,0,0,1-.46.46h0A.46.46,0,0,1,14.17,5.25Zm4.58,0h0a.46.46,0,0,1,.46-.46h0a.46.46,0,0,1,.46.46h0a.46.46,0,0,1-.46.46h0A.46.46,0,0,1,18.75,5.24Zm-4.58,0ZM15,4a.46.46,0,0,1,0-.65h0a.46.46,0,0,1,.65,0h0a.46.46,0,0,1,0,.65h0a.46.46,0,0,1-.33.14h0A.46.46,0,0,1,15,4Zm3.24,0h0a.46.46,0,0,1,0-.65h0a.46.46,0,0,1,.65,0h0a.46.46,0,0,1,0,.65h0a.46.46,0,0,1-.33.14h0A.46.46,0,0,1,18.21,3.95ZM16.46,3a.46.46,0,0,1,.46-.46h0a.46.46,0,0,1,.46.46h0a.46.46,0,0,1-.46.46h0A.46.46,0,0,1,16.46,3Z"/><circle class="cls-1" cx="19.25" cy="10.92" r="1.49"/><path class="cls-1" d="M18.79,13.21a.46.46,0,0,1,.46-.46h0a.46.46,0,0,1,.46.46h0a.46.46,0,0,1-.46.46h0A.46.46,0,0,1,18.79,13.21Zm-1.48-.34a.46.46,0,0,1,0-.65h0a.46.46,0,0,1,.65,0h0a.46.46,0,0,1,0,.65h0a.46.46,0,0,1-.33.14h0A.46.46,0,0,1,17.31,12.87Zm3.24,0a.46.46,0,0,1,0-.65h0a.46.46,0,0,1,.65,0h0a.46.46,0,0,1,0,.65h0a.46.46,0,0,1-.33.13h0A.46.46,0,0,1,20.55,12.86Zm-4-1.94a.46.46,0,0,1,.46-.46h0a.46.46,0,0,1,.46.46h0a.46.46,0,0,1-.46.46h0A.46.46,0,0,1,16.5,10.92Zm4.58,0h0a.46.46,0,0,1,.46-.46h0a.46.46,0,0,1,.46.46h0a.46.46,0,0,1-.46.46h0A.46.46,0,0,1,21.08,10.92Zm-4.58,0Zm.8-1.29a.46.46,0,0,1,0-.65h0A.46.46,0,0,1,18,9h0a.46.46,0,0,1,0,.65h0a.46.46,0,0,1-.33.14h0A.46.46,0,0,1,17.31,9.63Zm3.24,0h0a.46.46,0,0,1,0-.65h0a.46.46,0,0,1,.65,0h0a.46.46,0,0,1,0,.65h0a.46.46,0,0,1-.33.14h0A.46.46,0,0,1,20.54,9.62Zm-1.76-1a.46.46,0,0,1,.46-.46h0a.46.46,0,0,1,.46.46h0a.46.46,0,0,1-.46.46h0A.46.46,0,0,1,18.79,8.63Z"/><circle class="cls-1" cx="11.41" cy="19.02" r="1.49"/><path class="cls-1" d="M11,21.31a.46.46,0,0,1,.46-.46h0a.46.46,0,0,1,.46.46h0a.46.46,0,0,1-.46.46h0A.46.46,0,0,1,11,21.31ZM9.47,21a.46.46,0,0,1,0-.65h0a.46.46,0,0,1,.65,0h0a.46.46,0,0,1,0,.65h0a.46.46,0,0,1-.33.14h0A.46.46,0,0,1,9.47,21Zm3.24,0a.46.46,0,0,1,0-.65h0a.46.46,0,0,1,.65,0h0a.46.46,0,0,1,0,.65h0a.46.46,0,0,1-.33.13h0A.46.46,0,0,1,12.71,21ZM8.66,19a.46.46,0,0,1,.46-.46h0a.46.46,0,0,1,.46.46h0a.46.46,0,0,1-.46.46h0A.46.46,0,0,1,8.66,19Zm4.58,0h0a.46.46,0,0,1,.46-.46h0a.46.46,0,0,1,.46.46h0a.46.46,0,0,1-.46.46h0A.46.46,0,0,1,13.24,19ZM8.66,19Zm.8-1.29a.46.46,0,0,1,0-.65h0a.46.46,0,0,1,.65,0h0a.46.46,0,0,1,0,.65h0a.46.46,0,0,1-.33.14h0A.46.46,0,0,1,9.46,17.73Zm3.24,0h0a.46.46,0,0,1,0-.65h0a.46.46,0,0,1,.65,0h0a.46.46,0,0,1,0,.65h0a.46.46,0,0,1-.33.14h0A.46.46,0,0,1,12.7,17.73Zm-1.76-1a.46.46,0,0,1,.46-.46h0a.46.46,0,0,1,.46.46h0a.46.46,0,0,1-.46.46h0A.46.46,0,0,1,10.95,16.73Z"/><circle class="cls-1" cx="2.75" cy="10.95" r="1.49"/><path class="cls-1" d="M2.29,13.24a.46.46,0,0,1,.46-.46h0a.46.46,0,0,1,.46.46h0a.46.46,0,0,1-.46.46h0A.46.46,0,0,1,2.29,13.24ZM.81,12.9a.46.46,0,0,1,0-.65h0a.46.46,0,0,1,.65,0h0a.46.46,0,0,1,0,.65h0a.46.46,0,0,1-.33.14h0A.46.46,0,0,1,.81,12.9ZM4,12.9a.46.46,0,0,1,0-.65H4a.46.46,0,0,1,.65,0h0a.46.46,0,0,1,0,.65h0a.46.46,0,0,1-.33.13h0A.46.46,0,0,1,4,12.9ZM0,11a.46.46,0,0,1,.46-.46h0A.46.46,0,0,1,.92,11h0a.46.46,0,0,1-.46.46h0A.46.46,0,0,1,0,11Zm4.58,0h0A.46.46,0,0,1,5,10.49H5a.46.46,0,0,1,.46.46h0a.46.46,0,0,1-.46.46H5A.46.46,0,0,1,4.58,11ZM0,11ZM.8,9.66A.46.46,0,0,1,.8,9h0a.46.46,0,0,1,.65,0h0a.46.46,0,0,1,0,.65h0a.46.46,0,0,1-.33.14h0A.46.46,0,0,1,.8,9.66ZM4,9.66H4A.46.46,0,0,1,4,9H4a.46.46,0,0,1,.65,0h0a.46.46,0,0,1,0,.65h0a.46.46,0,0,1-.33.14h0A.46.46,0,0,1,4,9.66Zm-1.76-1a.46.46,0,0,1,.46-.46h0a.46.46,0,0,1,.46.46h0a.46.46,0,0,1-.46.46h0A.46.46,0,0,1,2.29,8.66Z"/><circle class="cls-1" cx="5.41" cy="4.98" r="1.49"/><path class="cls-1" d="M4.95,7.27a.46.46,0,0,1,.46-.46h0a.46.46,0,0,1,.46.46h0a.46.46,0,0,1-.46.46h0A.46.46,0,0,1,4.95,7.27ZM3.46,6.93a.46.46,0,0,1,0-.65h0a.46.46,0,0,1,.65,0h0a.46.46,0,0,1,0,.65h0a.46.46,0,0,1-.33.14h0A.46.46,0,0,1,3.46,6.93Zm3.24,0a.46.46,0,0,1,0-.65h0a.46.46,0,0,1,.65,0h0a.46.46,0,0,1,0,.65h0A.46.46,0,0,1,7,7.06H7A.46.46,0,0,1,6.7,6.93ZM2.66,5a.46.46,0,0,1,.46-.46h0A.46.46,0,0,1,3.58,5h0a.46.46,0,0,1-.46.46h0A.46.46,0,0,1,2.66,5ZM7.24,5h0a.46.46,0,0,1,.46-.46h0A.46.46,0,0,1,8.16,5h0a.46.46,0,0,1-.46.46h0A.46.46,0,0,1,7.24,5ZM2.66,5Zm.8-1.29a.46.46,0,0,1,0-.65h0a.46.46,0,0,1,.65,0h0a.46.46,0,0,1,0,.65h0a.46.46,0,0,1-.33.14h0A.46.46,0,0,1,3.46,3.69Zm3.24,0h0A.46.46,0,0,1,6.7,3h0a.46.46,0,0,1,.65,0h0a.46.46,0,0,1,0,.65h0A.46.46,0,0,1,7,3.82H7A.46.46,0,0,1,6.7,3.68Zm-1.76-1a.46.46,0,0,1,.46-.46h0a.46.46,0,0,1,.46.46h0a.46.46,0,0,1-.46.46h0A.46.46,0,0,1,4.94,2.69Z"/><circle class="cls-1" cx="17.02" cy="16.66" r="1.49"/><path class="cls-1" d="M16.56,19a.46.46,0,0,1,.46-.46h0a.46.46,0,0,1,.46.46h0a.46.46,0,0,1-.46.46h0A.46.46,0,0,1,16.56,19Zm-1.48-.34a.46.46,0,0,1,0-.65h0a.46.46,0,0,1,.65,0h0a.46.46,0,0,1,0,.65h0a.46.46,0,0,1-.33.14h0A.46.46,0,0,1,15.08,18.61Zm3.24,0a.46.46,0,0,1,0-.65h0A.46.46,0,0,1,19,18h0a.46.46,0,0,1,0,.65h0a.46.46,0,0,1-.33.13h0A.46.46,0,0,1,18.32,18.61Zm-4-1.94a.46.46,0,0,1,.46-.46h0a.46.46,0,0,1,.46.46h0a.46.46,0,0,1-.46.46h0A.46.46,0,0,1,14.27,16.66Zm4.58,0h0a.46.46,0,0,1,.46-.46h0a.46.46,0,0,1,.46.46h0a.46.46,0,0,1-.46.46h0A.46.46,0,0,1,18.85,16.66Zm-4.58,0Zm.8-1.29a.46.46,0,0,1,0-.65h0a.46.46,0,0,1,.65,0h0a.46.46,0,0,1,0,.65h0a.46.46,0,0,1-.33.14h0A.46.46,0,0,1,15.08,15.37Zm3.24,0h0a.46.46,0,0,1,0-.65h0a.46.46,0,0,1,.65,0h0a.46.46,0,0,1,0,.65h0a.46.46,0,0,1-.33.14h0A.46.46,0,0,1,18.31,15.36Zm-1.76-1a.46.46,0,0,1,.46-.46h0a.46.46,0,0,1,.46.46h0a.46.46,0,0,1-.46.46h0A.46.46,0,0,1,16.56,14.37Z"/><circle class="cls-1" cx="5.41" cy="16.86" r="1.49"/><path class="cls-1" d="M4.95,19.15a.46.46,0,0,1,.46-.46h0a.46.46,0,0,1,.46.46h0a.46.46,0,0,1-.46.46h0A.46.46,0,0,1,4.95,19.15ZM3.46,18.8a.46.46,0,0,1,0-.65h0a.46.46,0,0,1,.65,0h0a.46.46,0,0,1,0,.65h0a.46.46,0,0,1-.33.14h0A.46.46,0,0,1,3.46,18.8Zm3.24,0a.46.46,0,0,1,0-.65h0a.46.46,0,0,1,.65,0h0a.46.46,0,0,1,0,.65h0a.46.46,0,0,1-.33.13H7A.46.46,0,0,1,6.7,18.8Zm-4-1.94a.46.46,0,0,1,.46-.46h0a.46.46,0,0,1,.46.46h0a.46.46,0,0,1-.46.46h0A.46.46,0,0,1,2.66,16.86Zm4.58,0h0a.46.46,0,0,1,.46-.46h0a.46.46,0,0,1,.46.46h0a.46.46,0,0,1-.46.46h0A.46.46,0,0,1,7.24,16.86Zm-4.58,0Zm.8-1.29a.46.46,0,0,1,0-.65h0a.46.46,0,0,1,.65,0h0a.46.46,0,0,1,0,.65h0a.46.46,0,0,1-.33.14h0A.46.46,0,0,1,3.46,15.57Zm3.24,0h0a.46.46,0,0,1,0-.65h0a.46.46,0,0,1,.65,0h0a.46.46,0,0,1,0,.65h0A.46.46,0,0,1,7,15.7H7A.46.46,0,0,1,6.7,15.56Zm-1.76-1a.46.46,0,0,1,.46-.46h0a.46.46,0,0,1,.46.46h0A.46.46,0,0,1,5.4,15h0A.46.46,0,0,1,4.94,14.57Z"/></g></g></svg>