<svg xmlns="http://www.w3.org/2000/svg" xmlns:xlink="http://www.w3.org/1999/xlink" viewBox="0 0 800 500">
        <defs>
            <style>.color{fill:#ffffff;}.nocolor{fill:none;}</style>
        </defs>
        <title>loading-spinner</title>
        <g id="Layer_2" data-name="Layer 2">
            <g id="suns">
                <g id="sun7">
                    <circle class="color" cx="0" cy="0" r="28.62"/>
                    <path class="color" d="M330.28,410.14a8.86,8.86,0,0,1,8.85-8.86h0a8.86,8.86,0,0,1,8.86,8.85h0a8.86,8.86,0,0,1-8.85,8.86h0A8.86,8.86,0,0,1,330.28,410.14Zm-28.56-6.62a8.85,8.85,0,0,1,0-12.52h0a8.85,8.85,0,0,1,12.53,0h0a8.85,8.85,0,0,1,0,12.52h0a8.82,8.82,0,0,1-6.27,2.6h0A8.83,8.83,0,0,1,301.73,403.52Zm62.3,0A8.85,8.85,0,0,1,364,391h0a8.86,8.86,0,0,1,12.53,0h0a8.85,8.85,0,0,1,0,12.53h0a8.83,8.83,0,0,1-6.27,2.59h0A8.83,8.83,0,0,1,364,403.48Zm-77.83-37.36a8.85,8.85,0,0,1,8.85-8.87h0a8.86,8.86,0,0,1,8.87,8.85h0a8.86,8.86,0,0,1-8.85,8.87h0A8.85,8.85,0,0,1,286.19,366.13Zm88.13-.06h0s0-.05,0-.08h0a8.86,8.86,0,0,1,8.84-8.88h0a8.86,8.86,0,0,1,8.87,8.84h0V366h0v0h0a8.86,8.86,0,0,1-8.85,8.86h0A8.86,8.86,0,0,1,374.32,366.07Zm-88.13.06Zm15.46-24.9a8.86,8.86,0,0,1,0-12.53h0a8.86,8.86,0,0,1,12.53,0h0a8.86,8.86,0,0,1,0,12.53h0a8.83,8.83,0,0,1-6.27,2.6h0A8.83,8.83,0,0,1,301.66,341.22Zm62.31-.1h0a8.85,8.85,0,0,1,0-12.53h0a8.86,8.86,0,0,1,12.52,0h0a8.85,8.85,0,0,1,0,12.53h0a8.81,8.81,0,0,1-6.27,2.61h0A8.82,8.82,0,0,1,364,341.12ZM330.18,322a8.86,8.86,0,0,1,8.84-8.87h0A8.86,8.86,0,0,1,347.9,322h0a8.87,8.87,0,0,1-8.84,8.87h0A8.86,8.86,0,0,1,330.18,322Z" transform="translate(-339.12,-366.07)"/>
                    <animateMotion dur="1250ms" begin="600ms" repeatCount="indefinite">
                    <mpath xlink:href="#animationpath"/>
                </animateMotion>
            </g>
            <g id="sun6">
                <circle class="color" cx="0" cy="0" r="28.62"/>
                <path class="color" d="M210.76,410.14a8.86,8.86,0,0,1,8.85-8.86h0a8.86,8.86,0,0,1,8.86,8.85h0a8.86,8.86,0,0,1-8.85,8.86h0A8.86,8.86,0,0,1,210.76,410.14Zm-28.56-6.62a8.85,8.85,0,0,1,0-12.52h0a8.85,8.85,0,0,1,12.53,0h0a8.85,8.85,0,0,1,0,12.52h0a8.82,8.82,0,0,1-6.27,2.6h0A8.83,8.83,0,0,1,182.21,403.52Zm62.3,0a8.85,8.85,0,0,1,0-12.53h0A8.86,8.86,0,0,1,257,391h0a8.85,8.85,0,0,1,0,12.53h0a8.83,8.83,0,0,1-6.27,2.59h0A8.83,8.83,0,0,1,244.5,403.48Zm-77.83-37.36a8.85,8.85,0,0,1,8.85-8.87h0a8.86,8.86,0,0,1,8.87,8.85h0a8.86,8.86,0,0,1-8.85,8.87h0A8.85,8.85,0,0,1,166.67,366.13Zm88.13-.06h0s0-.05,0-.08h0a8.86,8.86,0,0,1,8.84-8.88h0a8.86,8.86,0,0,1,8.87,8.84h0V366h0v0h0a8.86,8.86,0,0,1-8.85,8.86h0A8.86,8.86,0,0,1,254.8,366.07Zm-88.13.06Zm15.46-24.9a8.86,8.86,0,0,1,0-12.53h0a8.86,8.86,0,0,1,12.53,0h0a8.86,8.86,0,0,1,0,12.53h0a8.83,8.83,0,0,1-6.27,2.6h0A8.83,8.83,0,0,1,182.14,341.22Zm62.31-.1h0a8.85,8.85,0,0,1,0-12.53h0a8.86,8.86,0,0,1,12.52,0h0a8.85,8.85,0,0,1,0,12.53h0a8.81,8.81,0,0,1-6.27,2.61h0A8.82,8.82,0,0,1,244.44,341.12ZM210.66,322a8.86,8.86,0,0,1,8.84-8.87h0a8.86,8.86,0,0,1,8.87,8.84h0a8.87,8.87,0,0,1-8.84,8.87h0A8.86,8.86,0,0,1,210.66,322Z" transform="translate(-219.6,-366.07)"/>
                <animateMotion dur="1250ms" begin="500ms" repeatCount="indefinite">
                    <mpath xlink:href="#animationpath"/>
                </animateMotion>
            </g>
            <g id="sun5">
                <circle class="color" cx="0" cy="0" r="28.62"/>
                <path class="color" d="M95.23,368.47a8.86,8.86,0,0,1,8.85-8.86h0a8.86,8.86,0,0,1,8.86,8.85h0a8.86,8.86,0,0,1-8.85,8.86h0A8.86,8.86,0,0,1,95.23,368.47Zm-28.56-6.62a8.85,8.85,0,0,1,0-12.52h0a8.85,8.85,0,0,1,12.53,0h0a8.85,8.85,0,0,1,0,12.52h0a8.82,8.82,0,0,1-6.27,2.6h0A8.83,8.83,0,0,1,66.67,361.85Zm62.3,0a8.85,8.85,0,0,1,0-12.53h0a8.86,8.86,0,0,1,12.53,0h0a8.85,8.85,0,0,1,0,12.53h0a8.83,8.83,0,0,1-6.27,2.6h0A8.83,8.83,0,0,1,129,361.82ZM51.14,324.46A8.85,8.85,0,0,1,60,315.59h0a8.86,8.86,0,0,1,8.87,8.85h0A8.86,8.86,0,0,1,60,333.31h0A8.85,8.85,0,0,1,51.14,324.46Zm88.13-.06h0s0-.05,0-.08h0a8.86,8.86,0,0,1,8.84-8.88h0a8.86,8.86,0,0,1,8.87,8.84h0v.07h0v.05h0a8.86,8.86,0,0,1-8.85,8.86h0A8.86,8.86,0,0,1,139.27,324.4Zm-88.13.06Zm15.46-24.9a8.86,8.86,0,0,1,0-12.53h0a8.86,8.86,0,0,1,12.53,0h0a8.86,8.86,0,0,1,0,12.53h0a8.83,8.83,0,0,1-6.27,2.6h0A8.83,8.83,0,0,1,66.6,299.56Zm62.31-.1h0a8.85,8.85,0,0,1,0-12.53h0a8.86,8.86,0,0,1,12.52,0h0a8.85,8.85,0,0,1,0,12.53h0a8.81,8.81,0,0,1-6.27,2.61h0A8.82,8.82,0,0,1,128.91,299.45ZM95.13,280.35a8.86,8.86,0,0,1,8.84-8.87h0a8.86,8.86,0,0,1,8.87,8.84h0a8.87,8.87,0,0,1-8.84,8.87h0A8.86,8.86,0,0,1,95.13,280.35Z" transform="translate(-104.06,-324.4)"/>
                <animateMotion dur="1250ms" begin="400ms" repeatCount="indefinite">
                    <mpath xlink:href="#animationpath"/>
                </animateMotion>
            </g>
            <g id="sun4">
                <circle class="color" cx="0" cy="0" r="28.62"/>
                <path class="color" d="M44.09,254.83A8.86,8.86,0,0,1,52.94,246h0a8.86,8.86,0,0,1,8.86,8.85h0A8.86,8.86,0,0,1,53,263.68h0A8.86,8.86,0,0,1,44.09,254.83Zm-28.56-6.62a8.85,8.85,0,0,1,0-12.52h0a8.85,8.85,0,0,1,12.53,0h0a8.85,8.85,0,0,1,0,12.52h0a8.82,8.82,0,0,1-6.27,2.6h0A8.83,8.83,0,0,1,15.53,248.21Zm62.3,0a8.85,8.85,0,0,1,0-12.53h0a8.86,8.86,0,0,1,12.53,0h0a8.85,8.85,0,0,1,0,12.53h0a8.83,8.83,0,0,1-6.27,2.6h0A8.83,8.83,0,0,1,77.83,248.18ZM0,210.82A8.85,8.85,0,0,1,8.85,202h0a8.86,8.86,0,0,1,8.87,8.85h0a8.86,8.86,0,0,1-8.85,8.87h0A8.85,8.85,0,0,1,0,210.82Zm88.13-.06h0a.38.38,0,0,1,0-.08h0A8.86,8.86,0,0,1,97,201.8h0a8.86,8.86,0,0,1,8.87,8.84h0v.07h0v.05h0A8.86,8.86,0,0,1,97,219.62h0A8.86,8.86,0,0,1,88.13,210.76ZM0,210.82Zm15.46-24.9a8.86,8.86,0,0,1,0-12.53h0a8.86,8.86,0,0,1,12.53,0h0a8.86,8.86,0,0,1,0,12.53h0a8.83,8.83,0,0,1-6.27,2.6h0A8.83,8.83,0,0,1,15.46,185.92Zm62.31-.1h0a8.85,8.85,0,0,1,0-12.53h0a8.86,8.86,0,0,1,12.52,0h0a8.85,8.85,0,0,1,0,12.53h0A8.81,8.81,0,0,1,84,188.4h0A8.82,8.82,0,0,1,77.77,185.81ZM44,166.71a8.86,8.86,0,0,1,8.84-8.87h0a8.86,8.86,0,0,1,8.87,8.84h0a8.87,8.87,0,0,1-8.84,8.87h0A8.86,8.86,0,0,1,44,166.71Z" transform="translate(-52.92,-210.76)"/>
                <animateMotion dur="1250ms" begin="300ms" repeatCount="indefinite">
                    <mpath xlink:href="#animationpath"/>
                </animateMotion>
            </g>
            <g id="sun3">
                <circle class="color" cx="0" cy="0" r="28.62"/>
                <path class="color" d="M95.23,139.93a8.86,8.86,0,0,1,8.85-8.86h0a8.86,8.86,0,0,1,8.86,8.85h0a8.86,8.86,0,0,1-8.85,8.86h0A8.86,8.86,0,0,1,95.23,139.93Zm-28.56-6.62a8.85,8.85,0,0,1,0-12.52h0a8.85,8.85,0,0,1,12.53,0h0a8.85,8.85,0,0,1,0,12.52h0a8.82,8.82,0,0,1-6.27,2.6h0A8.83,8.83,0,0,1,66.67,133.31Zm62.3,0a8.85,8.85,0,0,1,0-12.53h0a8.86,8.86,0,0,1,12.53,0h0a8.85,8.85,0,0,1,0,12.53h0a8.83,8.83,0,0,1-6.27,2.6h0A8.83,8.83,0,0,1,129,133.27ZM51.14,95.92A8.85,8.85,0,0,1,60,87.05h0a8.86,8.86,0,0,1,8.87,8.85h0A8.86,8.86,0,0,1,60,104.76h0A8.85,8.85,0,0,1,51.14,95.92Zm88.13-.06h0a.37.37,0,0,1,0-.08h0a8.86,8.86,0,0,1,8.84-8.88h0A8.86,8.86,0,0,1,157,95.74h0v.07h0v0h0a8.86,8.86,0,0,1-8.85,8.86h0A8.86,8.86,0,0,1,139.27,95.86Zm-88.13.06ZM66.6,71a8.86,8.86,0,0,1,0-12.53h0a8.86,8.86,0,0,1,12.53,0h0a8.86,8.86,0,0,1,0,12.53h0a8.83,8.83,0,0,1-6.27,2.6h0A8.83,8.83,0,0,1,66.6,71Zm62.31-.1h0a8.85,8.85,0,0,1,0-12.53h0a8.86,8.86,0,0,1,12.52,0h0a8.85,8.85,0,0,1,0,12.53h0a8.81,8.81,0,0,1-6.27,2.61h0A8.82,8.82,0,0,1,128.91,70.91ZM95.13,51.81A8.86,8.86,0,0,1,104,42.93h0a8.86,8.86,0,0,1,8.87,8.84h0A8.87,8.87,0,0,1,104,60.65h0A8.86,8.86,0,0,1,95.13,51.81Z" transform="translate(-104.06,-95.86)"/>
                <animateMotion dur="1250ms" begin="200ms" repeatCount="indefinite">
                    <mpath xlink:href="#animationpath"/>
                </animateMotion>
            </g>
            <g id="sun2">
                <circle class="color" cx="0" cy="0" r="28.62"/>
                <path class="color" d="M207,97a8.86,8.86,0,0,1,8.85-8.86h0A8.86,8.86,0,0,1,224.69,97h0a8.86,8.86,0,0,1-8.85,8.86h0A8.86,8.86,0,0,1,207,97Zm-28.56-6.62a8.85,8.85,0,0,1,0-12.52h0a8.85,8.85,0,0,1,12.53,0h0a8.85,8.85,0,0,1,0,12.52h0a8.82,8.82,0,0,1-6.27,2.6h0A8.83,8.83,0,0,1,178.42,90.38Zm62.3,0a8.85,8.85,0,0,1,0-12.53h0a8.86,8.86,0,0,1,12.53,0h0a8.85,8.85,0,0,1,0,12.53h0a8.83,8.83,0,0,1-6.27,2.6h0A8.83,8.83,0,0,1,240.71,90.34ZM162.88,53a8.85,8.85,0,0,1,8.85-8.87h0A8.86,8.86,0,0,1,180.6,53h0a8.86,8.86,0,0,1-8.85,8.87h0A8.85,8.85,0,0,1,162.88,53ZM251,52.93h0a.37.37,0,0,1,0-.08h0A8.86,8.86,0,0,1,259.86,44h0a8.86,8.86,0,0,1,8.87,8.84h0v.07h0v.05h0a8.86,8.86,0,0,1-8.85,8.86h0A8.86,8.86,0,0,1,251,52.93ZM178.35,28.08a8.86,8.86,0,0,1,0-12.53h0a8.86,8.86,0,0,1,12.53,0h0a8.86,8.86,0,0,1,0,12.53h0a8.83,8.83,0,0,1-6.27,2.6h0A8.83,8.83,0,0,1,178.35,28.08Zm62.31-.1h0a8.86,8.86,0,0,1,0-12.53h0a8.86,8.86,0,0,1,12.52,0h0a8.85,8.85,0,0,1,0,12.53h0a8.81,8.81,0,0,1-6.27,2.61h0A8.82,8.82,0,0,1,240.66,28ZM206.88,8.88A8.85,8.85,0,0,1,215.72,0h0a8.86,8.86,0,0,1,8.87,8.84h0a8.86,8.86,0,0,1-8.84,8.87h0A8.86,8.86,0,0,1,206.88,8.88Z" transform="translate(-215.81,-52.93)"/>
                <animateMotion dur="1250ms" begin="100ms" repeatCount="indefinite">
                    <mpath xlink:href="#animationpath"/>
                </animateMotion>
            </g>
            <g id="sun1">
                <circle class="color" cx="0" cy="0" r="28.62"/>
                <path class="color" d="M314.24,77.84a8.86,8.86,0,1,0-9.58,14.48A8.66,8.66,0,0,0,308,93a8.86,8.86,0,0,0,6.25-15.13ZM295.06,44.12h0a8.86,8.86,0,0,0,0,17.71h0a8.86,8.86,0,0,0,0-17.71ZM348,97a8.88,8.88,0,1,1-2.6-6.26A8.82,8.82,0,0,1,348,97Zm31.15-12.91a8.86,8.86,0,0,1-8.87,8.85,8.74,8.74,0,0,1-3.33-.65A9,9,0,0,1,364,90.34a8.85,8.85,0,0,1,0-12.52h0a8.87,8.87,0,0,1,15.13,6.27ZM392,52.81v.12a8.86,8.86,0,0,1-17.72,0h0a.25.25,0,0,1,0-.08v0A8.87,8.87,0,0,1,383.17,44h0A8.86,8.86,0,0,1,392,52.81Zm-13-31.1a8.85,8.85,0,0,1-5.51,8.2A8.82,8.82,0,0,1,364,28a8.85,8.85,0,1,1,15.1-6.27ZM347.9,8.85v0a8.86,8.86,0,0,1-8.84,8.85h0a8.85,8.85,0,1,1,8.86-8.87Zm-31.13,13A8.85,8.85,0,0,1,311.26,30a9,9,0,0,1-3.35.65,8.65,8.65,0,0,1-3.32-.65,8.86,8.86,0,1,1,12.18-8.21Z" transform="translate(-339.11,-52.93)"/>
                <animateMotion dur="1250ms" begin="0ms" repeatCount="indefinite">
                    <mpath xlink:href="#animationpath"/>
                </animateMotion>
            </g>
        </g>
        <g id="path">
            <path id="animationpath" class="nocolor"
                  d="M700.69,210.23c0,86.92-56.94,157.41-127.15,157.41H183.85c-70.23,0-127.17-70.48-127.17-157.41S113.62,52.81,183.85,52.81H573.53C643.75,52.81,700.69,123.29,700.69,210.23Z"/>
        </g>
        <g id="pill">
            <path class="color" d="M217.07,305.25a95.36,95.36,0,1,1,0-190.72H367.25l-.16,190.72Z"/>
            <path class="color" d="M539.32,305.25a95.36,95.36,0,1,0,0-190.72H392V305.25Z"/>
        </g>
    </g>
</svg>