<svg id="Map_of_swiss_cantons_with_canton_of_Zurich_highlighted" data-name="Map of swiss cantons with canton of Zurich highlighted" xmlns="http://www.w3.org/2000/svg" viewBox="0 0 1051.47 832.39"><defs><style>.cls-1{fill:#fff;}.cls-1,.cls-10,.cls-12,.cls-13,.cls-2,.cls-3,.cls-4,.cls-5,.cls-6,.cls-7,.cls-8,.cls-9{stroke:#000;}.cls-1,.cls-13,.cls-5,.cls-9{stroke-miterlimit:10;}.cls-17,.cls-2,.cls-9{fill:#e5bf77;}.cls-20,.cls-3{fill:#eaf07d;}.cls-18,.cls-4,.cls-5{fill:#aed8ea;}.cls-19,.cls-6{fill:#eaaeae;}.cls-21,.cls-7{fill:#aebbea;}.cls-16,.cls-8{fill:#aeeacb;}.cls-10,.cls-15{fill:#f07dad;}.cls-11,.cls-12{fill:#dbaeea;}.cls-13{fill:none;}.cls-14{isolation:isolate;}</style></defs><title>map</title><rect class="cls-1" x="0.5" y="0.5" width="1050.47" height="831.39"/><path id="BE" class="cls-2" d="M320.3,422.5l2.8-3.6,4.8-3.7,3.5-1.9,5.3.5,3.5-2.1-3.4-5.3.4-6.9.4-5.3.5-2.7,3-1.9,3.7,1.6,1.6-.4,3,.2.5-4.9-.2-8-2.7-2.7-4.2-3.7-2.8-1.8-5-1.8c-.6-.6-2.1-.7-2.5-1.4a4.47,4.47,0,0,1,0-2.8c.3-1,1.5-1.8,1.9-2.8a4.28,4.28,0,0,0,.6-2.2c-.2-.9-1.5-1.7-1.9-2.5a12.81,12.81,0,0,1-1.7-4.2,4.35,4.35,0,0,1,.3-2.5c.5-.9,2.3-1.1,2.8-1.9.4-.6.2-1.7.3-2.5a14.54,14.54,0,0,1,.3-3c.3-.9,1.3-1.9,1.7-2.8s.5-2,.8-2.8a20.58,20.58,0,0,1,1.7-3.3,11.78,11.78,0,0,1,1.9-2.5l-.7-.5-2.3-1.4s-2.7-2.1-2.5-2.8.9-2.3.9-2.3l1.9-2.7.7,1.6,2.5,1.9.9,1.4c.6-1.5,2.9-2.3,3.9-3.6.2-.3.6-.7.6-1.1-.1-.6-1.1-.9-1.4-1.4a10.07,10.07,0,0,1-.3-2.5,7,7,0,0,0,0-2.5,5.81,5.81,0,0,0-2.2-2.2,6.51,6.51,0,0,0-2.8-.8,5.46,5.46,0,0,0-2.8.6c-.4.3-.4,1.2-.8,1.4-.8.2-1.8-.8-2.5-1.1-.5-.2-1.1-.8-1.7-.8a5.42,5.42,0,0,0-2.5.6c-.3.1-.5.5-.8.6a5.25,5.25,0,0,1-3-.6c-1.3-.6-2.5-2.4-3.9-2.8-.5-.1-1.2.4-1.7.3a3.92,3.92,0,0,1-1.4-.8,16.68,16.68,0,0,1-1.4-1.9l-4.2-.3,1.1-8.1-.4-5.8-1.6-5.8,1.8-2.3,4.1-2.7L318,279l-3.5-3.9-2.3,1.4-9,4.2-9.7,1.6-4.4.2-6.9,2-.7-.4-3.9-1.2-5.2-2.7-5.2-4.9s.9-1.9,1.3-2.7.9-1.8,1.3-2.5a13.43,13.43,0,0,1,1.3-2.7,11.38,11.38,0,0,1,1.9-1.9c.7-.6,1.8-1.2,2.5-1.7a20.68,20.68,0,0,1,2.5-1.5,10.5,10.5,0,0,1,2.3-.8,17.85,17.85,0,0,1,2.3-.2c.7-.1,2.3-.4,2.3-.4l2.9-1.4.9-4.8.3-3.7-.9-3.3-6.5-4.4-7-3.7-1.7-1.1-5.9.2-8.4,1.1-5.1,2.5-4.4,2.2-3.4,1.6-3.6,1.6-.6-3.7,2.2-2.8,1.1-4.2-.5-5.9-1.8-3.8,5.8-.7,3.3-2.1,4.8-4.2,2.7-2.6,5.9.6,3.1-.3,1.6-2.5.3-2.5,5.9-.9,3.7-5,3.1-6.9.6-3.4,7.5,1.6,13.1-.9-1.2-6.5,3.7-2.2-.3-4.4,1.6-3.4,3.7-.6h4.1l3.1,3.4,5.9,1.2,7.2-.3,6.2-1.2,5.3-2.8,5.3-4.4,3.7-5,1.6.6.9,5,4.4-.3,9,.9,5.3.6,6.2,2.2,3.4-2.5,3.1-3.7h6.5l1.8.2-2.3,3.5-2,1.8-1.5,2.2-2.3,1.6-6.1,1.7-2.9,1.1-2.5,2.1-.7,2.9-.6,1.1-1.4.5-4.3.9-3.7.5-.1,3.1-3.5,3-4,2.4-6,2.7-5.4,2.2.9,6.9,1.6,1.9,3.3,1,1.3.6,1.2,4.8.9,1.7c.4-.4,1.2-.5,1.7-.8s.7-.8,1.1-1.1c.7-.5,1.8-.6,2.5-1.1a10.08,10.08,0,0,0,1.7-1.9c.3-.6.2-1.6.6-2.2a2.35,2.35,0,0,1,1.1-1.1c.7-.2,1.7.4,2.5.3a8.26,8.26,0,0,0,2.2-.8,21,21,0,0,0,1.7-1.4,12.29,12.29,0,0,1,2.5-1.4c.7-.3,1.8-.1,2.3-.6l.3,4.2.3,4.1,3,4.7-1.9,3.7-1.6.5-2.9-.2-4.1-.2-2,2.6-1.5,2.2v2.9l-.7,2.1-4.6.3-2.3.2-1.4-1.2-2.9-.5-1.1.8-.2,2.3,1,2.4,1.3,2.9,2.3,3.8.5.7.9-.6,3-2.2,2.4-1.3,2.4-.7-.1,2.3-.2,1.8,1.3,1.8,2.8-.2,2.9-1.1,1.7-1.3.4-2.1-1.1-1.6-1-1.9.5-1.1,3.7-1.8,3.1-1.8,3-2,2.1-4,1.1-4.4.5-3.3,3-.9,2.1-.8,2.6.5,2.6,1.6,2.2,2.1,5.4,1,5.4.3,3-.9,3.7-3.1,2.3-3.1.1-2.3-.4-2.9-2.3-2.3-2.5-1.2-1.9-1.9-1.6-2.4-2.6-5.1.2-1.2-.5-2-2.1-1.2-1.4-1.1-1.9.1-1.9-.4v-2.7l-.9-2.6.4-2.3-.1-1.6-.2-1.9,2.4.2,7.6.8,2-.3,3-1.2,3-1,2-1.2,3.4.4,1.1,1.3,2.8,3.9,1.8,4.4,3.4.5,3.5-.4,3.6-1.7,1.3-.9,1.8,2.8c.6-.5,1.3-1.3,1.9-1.8s1.2-.8,1.7-1.2.7-1.1,1.2-1.4a2.45,2.45,0,0,1,1.2-.4c1.1-.1,2.6.4,3.7.4.8,0,1.9-.2,2.7-.2a7,7,0,0,0,2.5,0l-.5,1-.8,3.3.1,5.5.4,3.5v1.1l-.2,2.4,1.1,4.2,2.6,5.5,2,2.6,1.7,2.4.3,1.8-.7,5.1v3.3l2.2,3.3,1,2.5-1,2.5-1.9,2.1-.9,2.5.8,3.7.2,2.1.1,2.9.1,1.8-.4,4.5-1.1,2.8,2.2,2.1,2.3,2.8.9,2,.3,3,.8,3.2,3.2-.4,3.5.2,2.4.8.7,3,1.3,3.7.2,2.3-1.5,3.2-2.1,3.4-.8,3.4-1.1,2.1-2.3,2.4-3.7-.4-2,1.9-2.6,1.4-2.9,2.3,1.8,1.3,1,2.1-.1,5.1-1.2,2.5-3.5-.1.4,7.2,1.3,3.6,1,2.1,5.8,4.2,5.5,3.2,6.3,5.3,4,4.7,3.6,5.7,2.9-1.4,6.6-1.9,4.5-.7,2,.3L509,349l2.8.8,7,5.6,6.2,2.2,5.5-2.3,3-.9,5.6-.2,3.4-.6,4.7,1.9,4.8,3.1,6.4-4.7,3.4-3.1,3.6-1.5,4-1.7.7-1.1,5.7,3.6,1.4,1.4,1.5,1.9,4.1-3.2,5.7,2.7-2.1,4-.2,1.9.5,5.3,1.8,3.3,1.2,3.8.2,3v3l-.9,1.6-1.9,1.2-2.6-.3-2.6-.9-3.1-.5-2.1-.2.2,1.9.6,3.5.9,2.4,2,3.2-3.9,4.4-2.5,3.4-2.3,4.1-1.2,5.6v5.3l-.8,3.1-3.7,3-3.1,2.2-3.6,1.9-1.4,2.3-7.5,4.7-4.8,1.7-10.3,2.6-5.3.9-3.6-3.4-6.4-1.2-5.9-3.9-4.5-1.7-3.9.3-5-2.3-3.7-2-3.1.2-2.8,1.9-3.9,2-4.4,1.7-.8,10-7,3.4-2.2,3-5.3,4.4-5.8.9-9.5.5-12.9,11.2-14.8,12.2-4.5-6.9-7.8-5.6-5.6-1.1-2.6,2.6-2.2,4.1-3,3.7-5-.2h-4.5l-2.3,1.2-1.9,1.9,4.5,3-1.1,1.7-2.6,2.8-4.2,2-4.4,1.4-8.1-2.6-4.8-1.1s-7.9,2-8.6,2.3-6.7,5-6.7,5l-4.5,3.1-4.5,2.8-2.8-1.1-1.4-2.2v-6.4l-4.1-.8-3.9,2.5-2.6,2-.8,4.4-1.2,3.9-3,2-5.9-.1,1.1-2.9-1.4-6.4.2-2.8-3.4-3v-7.4l1.8-3.2-.2-3.4-2.1-3-.2-3.5,1.2-1.6s3,0,3.7-.5a28.53,28.53,0,0,0,2.5-2.5,31.37,31.37,0,0,1,0-4.4,30.58,30.58,0,0,0-.5-5.3l3.2-4.1,2.3-3.4-.4-5.7-.7-6.2Zm97.6-195.8,1.3-1.1,1.6-.9,1.3.2,1.5,1.5-.1,1.1-.9,1.9-1.4,1.4c-.2,0-2.2.9-2.2.9l-1.4-.1-.7-1v-2.1Z" transform="translate(0.36 0.73)"/><path id="GL" class="cls-3" d="M709.1,218.6c.6,2,3,3.7,4.5,5.1,3,2.7,7.7,5.5,11,7.9.7.5,1.5,1.2,2.3,1.7a12,12,0,0,0,3.4,1.7c1.2.2,2.6-.8,3.8-1.1.9-.2,3.2-.9,3.2-.9l12.7,3.9v3l.2,3.4.4,7.7.2,2.7-3.1,4.1-2.5.9-3.5,1.1-1,.6-.3,1.9.7,2,1.3,1.7,2.6.8,5.3.3,2.2-1,2.1-1.1,2.3-.7,2,.7,2.7,1.9,1,5,1.3,7.2.4,10.3-2.2,2.6-.8.9,2.1,1.8,1.8,2.1,1.6,3.6-.7,3.3-3.1.7-2.7,2.8-2.7,3.1-1.6,2.1-1.2,3.4-2.4-.7-5,.2-2.6.8-1.9,1.8-2.6,2.9-2.7,2.3-1.7,1.3-1.8-1-1.3-2.3-2.1-3.3-2.9-1.4-2.9.3-2.8,1.7s-.8,2.7-.8,3.1-2,4-2,4l-1.3,4.9-.7,3.1-2.6,2.8-3.9,1.4-7.1,1.4-3.1.9-4.1,1.8h-3.8l-1.2-2.8-3.8-.8-3.4-.4-.8-3.7L682,330l-.4-1.5v-1.3l3.7-1.1,4.3-1.4,5.1-2.1,3.9-2.7,2.3-2.8.1-2.9-.7-3.6-2.7-4.4-2.1-2.7,3.3-1.6.8-1.3,2.5-1.1-.7-.7-.6-1.6-.3-1.3.2-1.6,1.1-1.9,1.9-1.6-1.7-1.1-3.1-2.8-2.4-3.2-.9-1.5,1.2-1.6-1.3-1.2-2.2-2.6-.4-1.3-.9.3-.6-1.2L690,272l-1.4-1.4-1.2-1.7,1.4-1.1-.3-4.9,1.9-.2,1.9.4,2.6.2,4.3-3.9,2.8-5.1,2.2-6-1.5-.4-1.9-.4-1.4-1.2.4-1.5,2.1-1.9,1.6-.8.6-1.6-.8-2.9-2.1-2.2,7.1-15.4Z" transform="translate(0.36 0.73)"/><path id="LU" class="cls-4" d="M499.2,347.4l1.5-2.9,3.1-2.7-.4-1.6-4.6-7.1v-2.7l1.3-2.9,2.4-1.8,1.5-2.9.7-2.4.5-7.1,1.6-1.5,2.9-3.3,1.5-2,2.9,1.8-.4,2.6,1.8.5,2.2-4.4,1.5-3.5,2.6-2.9,3.1-2.6-2.4-5.1,5.1-4.2,4.2-.4,1.8,1.5,5.7-2.2-2-7.8,6.1-2.8,3.2.5,3.1-1.7,5.8,2.2,4,.1,2.1-.3,1,1,2.2-1.4,3,1.2,3.1-3,2.3-1.3,2.5-.1.4,4.3h3.5l2.9-.6a19.22,19.22,0,0,0,2.4,0c.6,0,1.4-.2,2.1-.2h2.9c.8,0,2-.6,2.6-.1l1.9,1.3,1.8-.9,3.3.4,1.3-.4,1.1-1.1-.2-6.7-1.6-.8-1.6-1-1.6-1.8-3-2.7-1.6-2-1.7-.5-1.4.3-2.6.1-3.1-.6-4-.9-2.3-1.6-.5-.6,1.5-1.6,1.4-1.6,1-2.5.1-.7,3.6-3.3,3.9-4.9,1.7-1.3,1.9-1.2-.3-3-.5-1.6-.9.3-1.5,1.4-2-.6-1.8-2.7-2.8-4.6-4.8,1.5-5.4,1.3-2.3.3-1.5-2.5-2.1-4.2-2-4.2-2.2-5.8-.8-4.5-1.8-5.3L557,200l-1-4.6-.2-3.3-.7-2.1-.7-.4-4.3-1.2-1-1.8-3.4-.8-2.2.1-4.5,5.8-2.5,1.4-1,2.6-.8,4-.3,2.4-1.1,2.2-1.9,1.5-2,.3-2.3-.7-1.8-1.5-.2-1.3v-1.5l2.5-1.2-.3-1.4-1.8.4-5.1.6-5.3.4-2.6-.6-.1-2.9-.9-2.2-.3-.6-1.7-.3-2.5-.6-2.5.8-1.2.9-.6,2.2-.8,2.3-2.6.8-2.5.2-2.8.1h-1.9l.2-1.2.2-3.7v-2.8l-.7-2-1.5-2.9-1.8.7-3,.9h-3.3l-1.3-1.2-1.3-.2-.1,2.1v8.7l-.6,1.1-.9,1-1.3.8-4-.2-1.9-.9-3.3-.4-4.3.6-2,.6-2,1.3-4.2.4v1.1l-.2,2.4,1.1,4.2,2.6,5.5,2,2.6,1.7,2.4.3,1.8-.7,5.1v3.3l2.2,3.3,1,2.5-1,2.5-1.9,2.1-.9,2.5.8,3.7.2,2.1.1,2.9L462,255l-.4,4.5-1.1,2.8,2.2,2.1,2.3,2.8.9,2,.3,3,.8,3.2,3.2-.4,3.5.2,2.4.8.7,3,1.3,3.7.2,2.3-1.5,3.2-2.1,3.4-.8,3.4-1.1,2.1-2.3,2.4-3.7-.4-2,1.9-2.6,1.4-2.9,2.3,1.8,1.3,1,2.1-.1,5.1-1.2,2.5-3.5-.1.4,7.2,1.3,3.6,1,2.1,5.8,4.2,5.5,3.2,6.3,5.3,4,4.7,3.6,5.7,2.9-1.4,6.6-1.9Z" transform="translate(0.36 0.73)"/><path id="UR" class="cls-5" d="M684.4,337.9l-4.1,4.2-2.8.4-2.8,1.3-2.1,1.7,1.3,4.9-1.5,4.3-3.2,3.2-.9,4.3-2.8,2.6-3.6-.2-1.9-3.2-3.4.4-.6,2.6-1.5,5.1-4.1,2.3-3.4,3.6-5.1.2-2.8,1.7-1.7,3.6.4,2.3,2.1,4.5-1.9,1.1-2.4,3.4v6.2l2.8,3.8,3.4,5.1-1.3,6.2-1.5,2.6-3,2.5-4.3.3-1.1-1.7-2.6-1.1-7.4-.8-2.1-1.5-4.3-1-5.3,1-3.3,3.2-1.4,3.4.7,4.2-.3,2.5-1.2,1.5-5,1.6-3.7.2-2.8-.5-2.3-1.2-2.3-1.3-1.3-1.9-1.2-2.7-.9-2.2-2.5-4.1-.9-2,1.7-5,2.2-5.7.5-10.7-.3-2.3-2.3-1.5-1.8-.5-1.9-3.2-.9-2.4-.6-3.5-.2-1.9,2.1.2,3.1.5,2.6.9,2.6.3,1.9-1.2.9-1.6v-3l-.2-3-1.2-3.8-1.8-3.3-.5-5.3.2-1.9,2.1-4,2.8-.3,1.5.2,1.8.5,1.1.7,3-2.8-.2-.9-1.5-2.4-1.5-1.3.4-1.9-4.2-1,.1-1.1,1.8.1,1.2-.5.5-1.6-.9-1.5-1.2-1.1,1.6-4.5,2.6-2.7,3.8-2-.4-2.6-2.1-.6-1.3-.5h-4.3v-6.7l1.6-4.1-.7-1.2-.7.2-.2-1.5-1.8.1,2.4-3.4,2.4-1.2,3.8-1.4,3.3-2,2.2-1.8,1.3-.6,3.1-2.1,2.4-3.1,3.6-2.6,1.2-1.5-.2-2.8.2-2.4,1.6-1.9,1.4-1.4-.2-1.1-.6-2,2.4-.8,2.1,3.2.4,5.4.5,5.8,4.9-.4,3.2,1.2,1.6.2,2.8-.4,5.8-1.5.9,7.1-.4,2.4,1.5,2.7,2.5-1.2,2-.8,3.3-3.2,2.6-1.4,3.6-1.1,1.1.4,2,1.9,1.4-.2,1.9-1.5,1.1-.9,2.5-.4,3.2,1,1.2,2-.4,3.1-.9,3.3,1,2.2,2.8-1.8.7,8.3,1.6-1.2,1.1-1.9,1.5-1.1,5.8-1.8,9.2-5.1,2.1,2.7,2.7,4.4.7,3.6-.1,2.9-2.3,2.8-3.9,2.7L690,325l-4.3,1.4-3.7,1.1v1.3l.4,1.5,1.5,4.1.5,3.5" transform="translate(0.36 0.73)"/><path id="SZ" class="cls-5" d="M695.7,303.7l-9.2,5.1-5.8,1.8-1.5,1.1-1.1,1.9-1.6,1.2-.7-8.3-2.8,1.8-1-2.2.9-3.3.4-3.1-1.2-2-3.2-1-2.5.4-1.1.9-1.9,1.5-1.4.2-2-1.9-1.1-.4-3.6,1.1-2.6,1.4-3.3,3.2-2,.8-2.5,1.2-1.5-2.7.4-2.4-.9-7.1-5.8,1.5-2.8.4-1.6-.2-3.2-1.2-4.9.4-.5-5.8-.4-5.4-2.1-3.2-2.4.8-7.2,2.7-7.7,1.2-9.2-2.8-.5-2.6,1.8-.9,3.3.4,1.3-.4,1.1-1.1-.2-6.7-1.6-.8-1.6-1-1.6-1.8-3-2.7-1.6-2-1.7-.5-1.4.3-2.6.1-3.1-.6-4-.9-2.3-1.6-.5-.6,1.5-1.6,1.4-1.6,1-2.5.1-.7,3.6-3.3,3.9-4.9,1.7-1.3,1.9-1.3,2.6-1.3,2.8-1.6,1.7-.4,1.4,4.9.9,2.2,1.7.6,4,1.6,2.5-1,3-.3,3.6-.1.8,3.4,2.7.1,2.6-1.3,2.1-1.6,2.3-.8,1.4-.9,3.5.9,2.8.5,1.2-.8.1-1.3.3-2.7,1.3-1.7,1.9-1.4,1.3-2.2.8-4.1,1.9-4.8-.3-1.3-.8-2.7-.5-1.6-1.2-2.4.2-1.9,2.1-1.5,2.1-2.6,1.4-2.7.8-1.6,2.2-.2,9.5-3.1,6.7-.4,8.2,3.4H686l7.8-1.4,5.5-2,1.8,1.8,1.6,1,.2,8,.7,2.3,2.5-.4,2.9.7-.9,1.8L701,235.2l2.1,2.2.8,2.9-.6,1.6-1.6.8-2.1,1.9-.4,1.5,1.4,1.2,1.9.4,1.5.4-2.2,6-2.8,5.1-4.3,3.9-2.6-.2-1.9-.4-1.9.2.3,4.9-1.4,1.1,1.2,1.7,1.4,1.4,1.4,2.6.6,1.2.9-.3.4,1.3,2.2,2.6,1.3,1.2-1.2,1.6.9,1.5,2.4,3.2,3.1,2.8,1.7,1.1-1.9,1.6-1.1,1.9-.2,1.6.3,1.3.6,1.6.7.7-2.5,1.1-.8,1.3Z" transform="translate(0.36 0.73)"/><path id="OW" class="cls-5" d="M570.1,346.2l-9.9-8.3,1.3-1.8,1.5-3.5-.4-3.8v-4.6l1.1-8,.7-5.7,1.1-6.8-2.2-.4-2.7,1.1-3.1-1.5-2-.9-.9-2.7-.4-1.6,1.3-2.2,2.6-4.9-.2-2.4-4.2-1.5-7.1-1.5-7.1,2.2-5.7,2.2-1.8-1.5-4.2.4-5.1,4.2,2.4,5.1-3.1,2.6-2.6,2.9-1.5,3.5-2.2,4.4-1.8-.5.4-2.6-2.9-1.8-1.5,2-2.9,3.3-1.6,1.5-.5,7.1-.7,2.4-1.5,2.9-2.4,1.8-1.3,2.9v2.7l4.6,7.1.4,1.6-3.1,2.7-1.5,2.9,2,.3,7.8,1.1,2.8.8,7,5.6,6.2,2.2,5.5-2.3,3-.9,5.6-.2,3.4-.6,4.7,1.9,4.8,3.1,6.4-4.7,3.4-3.1,3.6-1.5,4-1.7Zm23-21.4h4.3l1.3.5,2.1.6.4,2.6-3.8,2-2.6,2.7-1.6,4.5,1.2,1.1.9,1.5-.5,1.6-1.2.5-1.8-.1-.1,1.1,4.2,1-.4,1.9,1.5,1.3,1.5,2.4.2.9-3,2.8-1.1-.7-1.8-.5-1.5-.2-2.8.3-5.7-2.7-4.1,3.2-1.5-1.9,3.1-2.6.6-1.4V346l-1.2-1.3-1.6-.8-2.5-1.8-1.4-2.6-1.7-2.2-.9-2.6-.8-4.4-.3-3.9-.3-3.4.9-1.7h1.7l1.4,1.2.1.9-1.4.6.1,1,1.8.6,1.6-.3,2.2-1.3,1.8-2.2,3.2,3.2Z" transform="translate(0.36 0.73)"/><path id="NW" class="cls-5" d="M593.1,324.8v-6.7l1.6-4.1-.7-1.2-.7.2-.2-1.5-1.8.1,2.4-3.4,2.4-1.2,3.8-1.4,3.3-2,2.2-1.8,1.3-.6,3.1-2.1,2.4-3.1,3.6-2.6,1.2-1.5-.2-2.8.2-2.4,1.6-1.9,1.4-1.4-.2-1.1-.6-2L612,283l-7.7,1.2-9.2-2.8-.5-2.6-1.8-1.3c-.6-.5-1.8.1-2.6.1h-2.9c-.6,0-1.4.2-2.1.2a19.22,19.22,0,0,1-2.4,0l-2.9.6h-3.5l-.4-4.3-2.5.1-2.3,1.3-3.1,3-3-1.2-2.2,1.4-1-1-2.1.3-4-.1-5.8-2.2-3.1,1.7-3.2-.5-6.1,2.8,2,7.8,7.1-2.2,7.1,1.5,4.2,1.5.2,2.4-2.6,4.9-1.3,2.2.4,1.6.9,2.7,2,.9,3.1,1.5,2.7-1.1,2.2.4-1.1,6.8-.7,5.7-1.1,8v4.6l.4,3.8-1.5,3.5-1.3,1.8,9.8,8.3,5.7,3.6,1.4,1.4,3.1-2.6.6-1.4V346l-1.2-1.3-1.6-.8-2.5-1.8-1.4-2.6-1.7-2.2-.9-2.6-.8-4.4-.3-3.9-.3-3.4.9-1.7h1.7l1.4,1.2.1.9-1.4.6.1,1,1.8.6,1.6-.3,2.2-1.3,1.8-2.2,3.2,3.2Z" transform="translate(0.36 0.73)"/><path id="ZG" class="cls-5" d="M642,223.2l-3,1.8-3.1-.3-.8-.9-.8-2.8-.9-.1-3.6-.4-1.3-.5-.8-1.4-.1-2.2-.6-2.1-.5-2.3-.1-2.1-1.3-.5-1.4.3-1-2.5-2.5.4-1.3-1.7-1-1-4.1.3-3.2-.3-2.1.8-2.2,1.9-3.1,1.2-4.7.3-3.1.3-3.9-1.2-1.4-1.2-4.3.1c-.6-1-1.1-2.6-1.7-3.7-.5-.9-1.3-1.9-1.7-2.8a23.28,23.28,0,0,1-1.1-2.8c-.1-.3-.3-.8-.3-.8a12.29,12.29,0,0,1-1.4,2.5,7.45,7.45,0,0,0-1.1,2.8c0,1.2,1.2,2.5,1.7,3.7a9,9,0,0,1,.8,2.3c.2,1.1.2,2.6.3,3.7a25.38,25.38,0,0,0,0,3.9,22.87,22.87,0,0,0,.8,2.8,28,28,0,0,0,.6,2.8c.2.7,1.1,1.5,1.1,2.3s-.9,1.7-1.1,2.5c-.3,1.2-.2,3-.6,4.2l2.7,4.5,1.8,2.7,2,.6,1.5-1.4.9-.3.5,1.6.3,3,2.6-1.4,2.8-1.6,1.7-.4,1.4,4.9.9,2.2,1.7.6,4,1.6,2.5-1,3-.3,3.6-.1.8,3.4,2.7.1,2.6-1.3,2.1-1.6,2.3-.8,1.4-.9,3.5.9,2.8.5,1.2-.8.1-1.3.3-2.7,1.3-1.7,1.9-1.4,1.3-2.2.8-4.1L643,227l-.3-1.3Z" transform="translate(0.36 0.73)"/><path id="SO" class="cls-2" d="M394.4,173.7l-2.3,3.5-2,1.8-1.5,2.2-2.3,1.6-6.1,1.7-2.9,1.1-2.5,2.1-.7,2.9-.6,1.1-1.4.5-4.3.9-3.7.5-.1,3.1-3.5,3-4,2.4-6,2.7-5.4,2.2.9,6.9,1.6,1.9,3.3,1,1.3.6,1.2,4.8.9,1.7c.4-.4,1.2-.5,1.7-.8s.7-.8,1.1-1.1c.7-.5,1.8-.6,2.5-1.1a10.08,10.08,0,0,0,1.7-1.9c.3-.6.2-1.6.6-2.2a2.35,2.35,0,0,1,1.1-1.1c.7-.2,1.7.4,2.5.3a8.26,8.26,0,0,0,2.2-.8,21,21,0,0,0,1.7-1.4,12.29,12.29,0,0,1,2.5-1.4c.7-.3,1.8-.1,2.3-.6l.3,4.2.3,4.1,3,4.7-1.9,3.7-1.6.5-2.9-.2-4.1-.2-2,2.6-1.5,2.2v2.9l-.7,2.1-4.6.3-2.3.2-1.4-1.2-2.9-.5-1.1.8-.2,2.3,1,2.4,1.3,2.9,2.3,3.8.5.7.9-.6,3-2.2L362,246l2.4-.7-.1,2.3-.2,1.8,1.3,1.8,2.8-.2,2.9-1.1,1.7-1.3.4-2.1-1.1-1.6-1-1.9.5-1.1,3.7-1.8,3.1-1.8,3-2,2.1-4,1.1-4.4.5-3.3,3-.9,2.1-.8,2.6.5,2.6,1.6,2.2,2.1,5.4,1,5.4.3,3-.9,3.7-3.1,2.3-3.1.1-2.3-.4-2.9-2.3-2.3-2.5-1.2-1.9-1.9-1.6-2.4-2.6-5.1.2-1.2-.5-2-2.1-1.2-1.4-1.1-1.9.1-1.9-.4v-2.7l-.9-2.6.4-2.3-.1-1.6-.2-1.9,2.4.2,7.6.8,2-.3,3-1.2,3-1,2-1.2,3.4.4,1.1,1.3,2.8,3.9,1.8,4.4,3.4.5,3.5-.4,3.6-1.7,1.3-.9,1.8,2.8c.6-.5,1.3-1.3,1.9-1.8s1.2-.8,1.7-1.2.7-1.1,1.2-1.4a2.45,2.45,0,0,1,1.2-.4c1.1-.1,2.6.4,3.7.4.8,0,1.9-.2,2.7-.2a7,7,0,0,0,2.5,0,6.6,6.6,0,0,0,2.2-2.2,30.67,30.67,0,0,0,2.3-3.9,16.65,16.65,0,0,1,1.2-2.3c.5-.7,1.6-1.4,2.2-2.2a14.17,14.17,0,0,1,.8-1.8c.6-.7,1.8-1.2,2.3-2a7,7,0,0,0,1.4-2.5c.1-1.1-.9-2.4-.8-3.5a12.15,12.15,0,0,1,.9-2l1.9,1.3,1.9,1.5,2.4.9,3,.7,5.8.5,3.8.3,1.7-.3,1.3-.5,1.2-1.8,1-3.5,1.9-5.5,1.9-3.8,1.9-4.5-.4-2.1-2.8-2.6-2.4-.4-1.8-.8-2-1.2-3.2-1.8-1.9-1.8,2.4-1.4-.1-2.6-.7-3-1.6-.4-.7-2.4-.1-1.8-2.1-.2-1.1-.2-.7,2.3-1,2.3-.3,3,1.5,1.9s.9,2.1,1.3,2.1l-.3,2.6-4.1,3-3.4,1.6-4.5-.5-2.8.6-2.6,3.2-3.7,3.7-3,2-3.5,1.5-4.8,1.8-3.1,2.3-.4,2.4v2.3l-2.3.2-2.6-.4-2.5-1.1-1.8-1.5-2.2-2-1.8-2.4-1.1-2.3-2.3-1.4-6.1.9-5.5.3h-3.7l-.9-4.1-.6-3.7-.2-5.1,5.1-.3,1.9-.9,2.3-1.2,1-2.5.2-4.1.5-3.1,2.5-2.5,1.8-2.3,2.2-4.3.5-1.2-2.9-1.3-3.3.3-4.3-.7-2-3-1.2-.5-2.2,2.5-2.6.2-4.8.2-.2,3.6,2,2.6.6,2.6-1.2,3.7-1.7,2.9-.2,3-7.2.5-1.1,3.9-7.6,1.1-1.2,3.4-.5,1.8-3.6,1.1-2.8,2.3-3.3-2.3-.5-2.2-3.6-.1-3.2.2-1.6,1-.9,2-.3,1.6,2.9,4.9,6.2,1.4,5.5-1.4,4.4.5v4.4l.4,3,1.5,3.6.7,1.6,6.8-.1-.4,2.8m-33.9-42.3,1.1.7,1.7-.7,1.1,1.2,2.8,2.1,2.6,2.6,1.2,2.3-.2,2.4-.8,1.9-.9.9-2.3.2-2.8-1.4-3.8-.9-6.8-1-.6-5.1h0l3.7-1.9Zm57.1,95.3,1.3-1.1,1.6-.9,1.3.2,1.5,1.5-.1,1.1-.9,1.9-1.4,1.4c-.2,0-2.2.9-2.2.9l-1.4-.1-.7-1v-2.1ZM379.4,116.4l2,.1,2.1,1.3.2,1.6.2,1.4-1.5,2.3-.8,1.6-1.2,1.3-1.2-.2-2.2.2-1.9-.2-3,1.2-2.1.3-2-.7-1.4-.5-.8-1.4.5-.6,1.7-1.7-2.5-2.3-2.3-1.5-1.9-.6,2.3-2.7,1.9-.2,1.9,1.1,2.5,2.5a3,3,0,0,0,2.1,1.9c1.5.2,5.1-1.3,5.1-1.3Z" transform="translate(0.36 0.73)"/><path id="SG" class="cls-3" d="M818.7,91.5l-11.6,16.1-1.6,1.3-2.9,2.7-3.1,1.3-1,3.4-.7,3.2-1.6-.6-3-.9-.5-2.5-2.6-3.6-2.3-.4L785,109l.3-.3.9-1.9-1.7-.4,1.2-2.4-2.7-1.5-1.1,1.1-2.6.3-2.9.5-2.2.4-1.2,2.1-2.1,1.1-1.1.5-.2,1.2,2.8.6,1.6-.8,2.6-.2,2.5,2.9.9,4.4.4,2.1-2.8,1.2-4.2.5-4.2,1.6-2.8,1.2-3.3-.3-3.8-2.6-2-1.2-4.4.4-1.4-1.5-.7-1.8-1.5-.1-2.2-.6-3.8-3.1-1.1,3.2-3.6,3.4-2.7.9-5.4.5-2.9-1.7-1.9-2-4.5-2.1-2.9-.5-2.8,1.3-3.9.9-1.7,1.8-.1,2.4,1.9,3.3,1.8,1.3,3.9,3,1.5,1-.5,4.1-1.3,2.2h-4l-5.2.6-1.1,1.5-.9,5-2,1.7-1.1,3.2-.6,2.1-1.2.5-1.4,1.8-1.9,1.1,1,2.4,2.6,5.5,3.1,4.9.8,5.8-.9,3.9-4.2.7-2.9,2.7-2,2.3.6,2,1.4-.4.4,1.1-1.7,3.7.1,3-5.7,1.5-4.7,1.6-2.2,1.6-1.6.9h-2.2l-4-.6-2.2-1.2-2.6-.6-2.4.8-1.9,2-1.2,2.1.5,1.7.1,4.5,8.3,3.4h12.4l7.8-1.4,5.5-2,1.8,1.8,1.6,1,.2,8,.7,2.3,2.5-.4,2.9.7c.5,2,3,3.7,4.5,5.1,3,2.7,7.7,5.5,11,7.9.7.5,1.5,1.2,2.3,1.7a12,12,0,0,0,3.4,1.7c1.2.2,2.6-.8,3.8-1.1.9-.2,3.2-.9,3.2-.9l12.7,3.9v3l.2,3.4.4,7.7.2,2.7-3.1,4.1-2.5.9-3.5,1.1-1,.6-.3,1.9.7,2,1.3,1.7,2.6.8,5.3.3,2.2-1,2.1-1.1,2.3-.7,2,.7,2.7,1.9,1,5,1.3,7.2.4,10.3-2.2,2.6-.8.9,2.1,1.8,1.8,2.1,1.6,3.6-.7,3.3,3.9,4.1,1.1-.6,1.8-1.3,2-.3,2.5.1,2.8,1,3.8.9,5.7.7,6.5.4,4.3,1,3.1,1.2,4.9,2.6,3.4,1.7.7-.6.9-1.5.2-1.9-.7-2.4,3.5-.1-.1-2.2-1-2,.3-3,1.7-4.3,3.8-4.2,4-6.9,1.2-2.7,2.1-1,3.4-1.8c-.6-.9-1.8-1.9-2.4-2.8a15.57,15.57,0,0,1-1.6-2.8c-.9-1.8-1.5-4.5-2.4-6.4s-2.8-4.1-3.6-6c-.3-.8-.3-2.1-.8-2.8s-1.7-.9-2-1.6a3.48,3.48,0,0,1,.4-2.2c.5-.7,1.7-.8,2.3-1.4.8-.8,1.3-2.2,2-3.1s2-2,2.5-3.1a14.73,14.73,0,0,0,.8-2.8c.2-.8.5-1.8.6-2.5a10.73,10.73,0,0,0,0-3.1,25.82,25.82,0,0,0-1.4-3.9c-.3-.9-.8-2-1.1-2.8-.4-1.2-.9-2.8-1.4-3.9s-1.3-2.5-1.7-3.7a13.8,13.8,0,0,1-.3-2c-.2-1-.6-2.4-.8-3.4-.2-.8-.4-2-.6-2.8-.2-1-.4-2.4-.6-3.4a23.08,23.08,0,0,1-.3-3.7,7.62,7.62,0,0,1,.6-2,20.11,20.11,0,0,1,2.3-2.8c.6-.8,1.4-2,2-2.8.8-1.2,2-2.7,2.8-3.9a19,19,0,0,0,2-3.7,21.3,21.3,0,0,0,.3-2.5,10.88,10.88,0,0,1,.3-3.1,6.93,6.93,0,0,1,2-2.5,11.92,11.92,0,0,1,2-.8,9.48,9.48,0,0,0,2-2,15.77,15.77,0,0,0,1.1-3.7,15.19,15.19,0,0,1,.6-2,5.79,5.79,0,0,1,1.4-1.7c.4-.3,1.2-.3,1.7-.6a10.12,10.12,0,0,0,3.1-3.4c.6-1,.9-2.6,1.4-3.7s1.4-2.3,2-3.4,1.1-2.8,1.7-3.9c.5-.9,1.4-1.9,2-2.8a19.82,19.82,0,0,0,1.1-2c.4-.7.4-1.9,1.1-2.3.4-.2,1,.2,1.4.3a19.3,19.3,0,0,0,3.4,0,6.93,6.93,0,0,0,2-.3c.7-.3,1.9-.7,2.3-1.4.3-.5-.1-1.4-.3-2a3.88,3.88,0,0,0-.6-1.1,12.21,12.21,0,0,0-2-2.5c-.2-.2-.7-.3-.8-.6a3.4,3.4,0,0,1,0-2c.1-.8.5-1.8.6-2.5a17.06,17.06,0,0,0-.3-4.5c-.3-1.6-1.8-3.5-1.7-5.1.1-1,1.5-2.1,1.4-3.1,0-.5-.6-1-.8-1.4a7.55,7.55,0,0,0-1.1-1.4c-.7-.4-2-.2-2.8-.6a12.42,12.42,0,0,1-2.3-1.7c-.4-.3-.9-1-1.4-1.1a1.91,1.91,0,0,0-.8.3,8.43,8.43,0,0,1-1.4.6H848c-.4,0-1,.2-1.4,0-.6-.3-1-1.4-1.4-2a5.55,5.55,0,0,0-.6-.8c-.5-.9-1.1-2.2-1.7-3.1a18.89,18.89,0,0,0-2-2,16.32,16.32,0,0,1-1.7-2,5.17,5.17,0,0,1-.5-1.9l-7.9-15ZM783.6,194.9l6.2,3.8,2.9,1.1,3.4.1,1.5-.9,4.4-2.6,2.8-2.1,6.3-6.1,3.6-4.9,2.1-5.7,1.3-7.3.1-4.9-.9-4.3L817,159l-1.2-2.5v-2.2l1.6-4.1,1.2-3.2,1.1-.7,2.7.1,2.6.3,2.7.4,1.6-1,1.8-1.9,4-.9,2.6-2,3.6-1.3,1.8-1.5,3.9-4.4-2.1-1.2-5-2.8-4.5-1.5-4.1-2.2-3.2-2.4-3.5-.1-2.8,2.6-3.2,3.6-5,2.2-4.8,1.4-4.4.9-1.4,4.6h-2.4l-3.8,1.8-5,.9h-1.6l-4.5-.1-4.5.8-3.5,2.5-5.4,1.4-5.4.4-4.2.8-2.8,2.8-3,2-.2,1.9-.6,3-2.6,2.8-2.6,1.4.1,1.6,2.2,2.4v2.5l.8.6,2.4-1.8,3,2.5-1.5,1.5-3.2,2.6-.4,2.6,1.1,5.4,1.9.9-2.8,5.9,3.1,1.9,3,1.5,3.4.5,3-.5,2.4-1.5,2.5,2,5,3.2,4.1,2.1Zm33.3-84.7-.4,1.6-1.5,3.1-2.7,2.1-2.5-.5-2.1-1.8.1-2.9,1.7-3.1,2.2-1.6,2.4.9Z" transform="translate(0.36 0.73)"/><path id="AR" class="cls-3" d="M843,138.3l-3-2.5-3.4-2.7-2.8-1.1-3.8,1.1.3,3.2,2.8,1.9,2.2,1.5,2.4,1.4-2.6,2-4,.9-1.8,1.9-1.6,1-.2-2.8,4.8-2.5-2.1-1.8-2.2-3.3-1.1-2-1.6.7-2.8.9-1.3,1-1.2,1.6,2.8,1.9-1.1,1.4-2.4,1.2-1.6,2,.8,1.9-1.2,3.1-1.6,4.1v2.2l1.2,2.5.4,2.3-3.4.8-3.4.1-2.8-1.2-2-4-5.1-2.2-6.2-2.5-3.9-1.6-3.5.8-2.5.8,1.5,3.6,1.1,1.5-1.8,2.8-4.1,3.6-3.1,3.5-.8,5.9-1.1,6.4,2.1,4.2,2.4,2,1.9,4.6.9,4.8-2.7,2.1-4.1-2.1-5-3.2-2.5-2-2.4,1.5-3,.5-3.4-.5-3-1.5-3.1-1.9,2.8-5.9-1.9-.9-1.1-5.4.4-2.6,3.2-2.6,1.5-1.5-3-2.5-2.4,1.8-.8-.6v-2.5l-2.2-2.4-.1-1.6,2.6-1.4,2.6-2.8.6-3,.2-1.9,3-2,2.8-2.8,4.2-.8,5.4-.4,5.4-1.4,3.5-2.5,4.5-.8,4.5.1h1.6l5-.9,3.8-1.8h2.4l1.4-4.6,4.4-.9,4.8-1.4,5-2.2,3.2-3.6,2.8-2.6,3.5.1,3.2,2.4,4.1,2.2,4.5,1.5,5,2.8,2.1,1.2Z" transform="translate(0.36 0.73)"/><path id="AI" class="cls-3" d="M783.6,195l-.8-4.8-1.9-4.6-2.4-2-2.1-4.2,1.1-6.4.8-5.9,3.1-3.5,4.1-3.6,1.8-2.8-1.1-1.5-1.5-3.6,2.5-.8,3.5-.8,3.9,1.6,6.2,2.5,5.1,2.2,2,4,2.8,1.2,3.4-.1,3.4-.8.9,4.3-.1,4.9-1.3,7.3-2.1,5.7-3.6,4.9-6.3,6.1-2.8,2.1-4.4,2.6-1.5.9-3.4-.1-2.9-1.1ZM843,138.3l-3-2.5-3.4-2.7-2.8-1.1-3.8,1.1.3,3.2,2.8,1.9,2.2,1.5,2.4,1.4,3.6-1.3Zm-15.3,8.6-.2-2.8,4.8-2.5-2.1-1.8-2.2-3.3-1.1-2-1.6.7-2.8.9-1.3,1-1.2,1.6,2.8,1.9-1.1,1.4-2.4,1.2-1.6,2,.8,1.9,1.1-.7,2.7.1,2.6.3Z" transform="translate(0.36 0.73)"/><path id="GR" class="cls-3" d="M684.3,337.9l3.4.4,3.8.8,1.2,2.8h3.8l4.1-1.8,3.1-.9,7.1-1.4,3.9-1.4,2.6-2.8.7-3.1,1.3-4.9s1.9-3.6,2-4,.8-3.1.8-3.1l2.8-1.7,2.9-.3,2.9,1.4,2.1,3.3,1.3,2.3,1.8,1,1.7-1.3,2.7-2.3,2.6-2.9,1.9-1.8,2.6-.8,5-.2,2.4.7,1.2-3.4,1.6-2.1,2.7-3.1,2.7-2.8,3.1-.7,3.8,4.1,1.1-.6,1.8-1.3,2-.3,2.5.1,2.8,1,3.8.9,5.7.7,6.5.4,4.3,1,3.1,1.2,4.9,2.6,3.4,1.7.7-.6.9-1.5.2-1.9-.7-2.4,3.5-.1-.1-2.2-1-2,.3-3,1.7-4.3,3.8-4.2,4-6.9,1.2-2.7,2.1-1,3.4-1.8c-.6-.9-1.8-1.9-2.4-2.8a15.57,15.57,0,0,1-1.6-2.8c-.9-1.8-1.5-4.5-2.4-6.4s-2.8-4.1-3.6-6a22.9,22.9,0,0,0-.7-2.8l2.7,1.3,3.6-.1,1.2-1.3,1.2-1.9,3.7.1,2.7,1.9.9,1.8,2.8.3,3.7-1.2,1.3-1.2,1.6-.7,3.7.9,3.7.4,3.4-1.3,8.1,1.8,5.7,3.3,7.2,1.2,5.4.6,5.4,2.7,3.6,3.6,3.9,1.8,3.6.9,6.3-3,.6,3.3,1.5,2.7.9,3.3-1.8,2.4-1.8,6.3.9,2.4.3,4.5-.3,2.1,1.5,1.5,4.2,2.1,6,3.9,3.6,2.1,7.5-.9,4.2,4.5,3.9.6,6,3.6,3,6,2.4,2.7,4.5-.3,2.4,4.2,11.4.6,5.1-2.1,4.2-3.9,3.9-2.1,7.2.3.3-10.5,1.5-3,.6-3.9,2.1-2.1,2.4,1.5,3.3.6h5.1l3-2.1.3-3.6-.6-2.7,2.1-.3,2.4-3.6,1.8-4.8.9-4.8,4.2-1.8,4.5-1.2,2.1.6,5.7,6.3.1,4.2c.5.3,1.4,0,2.1.3,1.3.5,2.1,2.6,3.4,3.1s3-.1,4.2.3a6.78,6.78,0,0,1,2.3,1.4,9.58,9.58,0,0,1,2,2.5,22.65,22.65,0,0,1,.6,2.5c.2.8.6,2.8.6,2.8l.2.2a14.1,14.1,0,0,1-.7,1.5c-.4.5-1.3.9-1.7,1.4a14.65,14.65,0,0,0-1.4,2.8,23.27,23.27,0,0,0-1.1,2.8,20.93,20.93,0,0,0-.8,3.4,9.08,9.08,0,0,1-.3,2.3l1.1,2.5-.4,3.3.6,1.9-.3,2.4-.9,3.9-1.8,3.1-1,3,.1,2.5-1.6,2.2-2.2,1.5-1.8,1.6-.4,2.2.6,3.4,1.6,2.4,1.9,3.1-.1,1.5-3,1.6-3.9,2.4-2.5,2.2-.6,1.6.9,2.2,1.8,1.3.7,2.2-6.6,6.3-1.3,1.6.4,6.3,1.2,1.6,1.5,5.7.9,3.1,1.8,1.2,2.8-.4,4.8-1.2,4.6,1.8,1.9,2.4,3.3,3.6.1,6.9-.9,5.2-1.6,3.4-1,3.7-2.7,3.7-2.7-.3-1.9-1.2-3.6-.9-5.2.4-2.8-.9-6.1-.3-2.8,1-7.5.1-.6-1.9-1.2-2.2-1.3-3-2.8-1.6-4.2-.3-1.6-.6-1.8-1.6.3-2.7,2.4-1.9-.1-3.4-.4-1.6L991,401l-1-2.8-.4-1.3-2.7-.1-.9,1.9v1l-.9,1.6h-1.5l-2.5-1-2.2-.1-3.3.9-.9,2.1-2.5.7-1.6,1.6-3.9,1.2-1,.6-2.7-.6-3.3.6-1.5,3.3.7,4.8-3,1.3-2.2,1.9-.9,3.1-4.6,4.8-.6,2.7v4.6l-.3,3.7-.9,1.6-1.8,3.4.7,5.8.7,2.4-.7,2.4-.3,4.3,2.2,3.3,1.8,3.4,1.9.4,2.8,1.3,2.2-.3,4-.4a17.64,17.64,0,0,0,2.8-.7c1-.4,3.4-1.3,3.4-1.3l.7,1.9,1,2.2,2.7,3,.7,2.2-.6,1.3-3.9,3-2.8,1.2-1.8,1.6-.1.6-.8,3.6-1.1,4-1.3,4,.6,3.4,2.1,4.4,3,4,2.5,2.1,3,3.8,1.9,3.4,2.1,3.8-3.6,3.8-4.4,5.7-1.9.4-3.4-.2-3.8-1.1-3.4.2-1.7,2.3-1.1,1.3-1.3-1.5-2.1-1.5.2-3.8.6-5.3-1.1-3.8-5-2.1-5.5-2.3-1.7-1.1.4-4.2v-3.2l-1.5-1.9-.2-4.2,1.5-.6-.4-4.7-3.8-3.6-1.9-2.7-1.9-2.7-2.1-1.9-2.5,1.3-2.7,1.5-3.6-.8-3.4.8-3,1.5-1.9,1.1-2.5,1.1H899l-4,1.3-1.7,3.2-2.5,1.7-2.3,1.5-2.3.4-4.7-2.3-3.4-2.1-3.4,2.1-1.5,2.3-.4,5.9.2,3.2-1.1,3-1.9,1.5-1.5-.6-4-.8-4.4,1.7-4.7,1.3-3.2.4-2.5-.8-4.9-.2-3.4-1.9-6.1-3-3.2-3.2-2.7-3.8-.8-2.7-1.7-4.9-2.7-1.9-3.6-2.3L817,481l.8-3,.4-4.9-2.7-5.7-1.1-3.6v-4.7l.4-3.4,1.7-4.4,1.1-5.7-.2-3.6-1.9-2.5-4.9-.4-1.7,1.5-2.7,3.2-.4,3.2-1.7,2.5-.4,1.1L801,450l-1.7-1.9-3.8-3.2v-2.7l-.2-3-3.6-1.3-6.1.8-5.1.8-4.7,1.9-3.2,3.4.2,3.6.6,5.3-1.1,2.3-3.4,2.1-2.3,2.1.2,4.9,7.4,6.6v9.1l.6,5.9,1.9,3.4.4,6.6-2.5,5.1-4,8.2-4,4.9-.4,7.2-.2,2.3-2.1,1.1-3.2,2.5-.4,2.3-1.9,3-1.5,1.3-2.3,4L754,542l-.2,2.7-5,.9-3.9-3.7-4.1-5.8-3.6-3.4-4.9-3.6-.8-3.8.8-5.1-1.9-5.1-3-5.1-1.3-3.6,1.7-3,1.7-4.9-.2-5.3,1.1-3,2.3-1.9,2.1-3.4-1.1-5.8.2-4.3,1.5-4,.6-3-2.8-3.4-.8-3.4,1.9-3.8.5-5.3-3.3-3.7-3.5-1.1-2.2-.2-3.3-3.3-2.4-3.7-2.7-6.2-.4-5,.8-7.2,2.2-1.6,3-3.2-.6-2.1-1-.6-3.9-.9-3.1-4-1.9-1.9-4.5,1.3-3.8-.4-.6-2.4-.4-3.2-.5-4.7-.6-3.2-.7.8-1.7,1.2-5.9.5-3.3,2.6-1.1,2.4,2,4,.8,1.7-.1,2.6-2.5,2.4-2.7,1.9-2.7,1.2-3.9.7-3.9,1h-2l-1.5-.8-3.8,2.8-3.4-.6-3.3-1.9-2.3-1.2-4.6-.8-3.6.8-3.6-.2-4.1-1.9-3.9-.9,1.3-6.2-3.4-5.1-2.8-3.8v-6.2l2.4-3.4,1.9-1.1-2.1-4.5-.4-2.3,1.7-3.6,2.8-1.7,5.1-.2,3.4-3.6,4.1-2.3,1.5-5.1.6-2.6,3.4-.4,1.9,3.2,3.6.2,2.8-2.6.9-4.3,3.2-3.2,1.5-4.3-1.3-4.9,2.1-1.7,2.8-1.3,2.8-.4,4.2-3.6" transform="translate(0.36 0.73)"/><path id="ZH" class="cls-6" d="M642,224.1l-.5-2.5-1.2-2.4.2-1.9,2.1-1.5,2.1-2.6,1.4-2.7.8-1.6,2.2-.2,9.5-3.1,6.7-.3h-.1l-.1-4.6-.5-1.7,1.2-2.1,1.9-2,2.4-.8,2.6.6,2.2,1.2,4,.6h2.2l1.6-.9,2.2-1.6,4.7-1.6,5.7-1.5-.1-3,1.7-3.7-.4-1.1-1.4.4-.6-2,2-2.3,2.9-2.7,4.2-.7.9-3.9-.8-5.8-3.1-4.9-2.6-5.5-1.1-2.4c0-2.7-1.2-6.1-2.1-6.5s-2.6-.7-3.6-1.2c-.6-.3-1.4-.9-2-1.2a19.54,19.54,0,0,0-5.2-1.6l1.8-2.8,1.2-3.3,2.7-1-1.4-1.1-1.8-1.6-1.1-2.9.2-2.9-2.6-4.9.6-4.2,1.8-4,1.1-6.4-.6-3.5-4.4-2-2.4-1.2-2,.6-2.6.1-1.6-1-1-2.2-.5-2.6,3.6-.1.2-1L674,93.2l-2.8-2.5-3.8-1.2-2.9-1.9-.3-4.3a14.14,14.14,0,0,0-4.5-1.1,10.1,10.1,0,0,0-1.7.3c-.8.2-1.7.9-2.5.8l-.9-2.5-.4-1.4.2-1.8,1.2-1,2.6-.2,4.7.8-.1.8,2,1.2,3.9-5.4,4.2-7.8-.7-.9-2.8-.8-3.1-1.1L663.8,62v-.9l-3.9-.4-.6-.2-.6,1.1-1,1.5-1,.8-1.6,1.6-2.9,1.9-4.2-.1-4.4-.9-2-1.1-1.8-1-1.9-2.9L636.4,58l.4-1.9,2.1-2.8c-.2,0-.4-.4-.6-.6-.5-.4-1.2-1-1.7-1.4s-1-.8-1.4-1.1a2.84,2.84,0,0,0-1.1-.8,3.53,3.53,0,0,0-1.4-.3,18.1,18.1,0,0,0-2.3.3c-.5.1-1.4-.1-1.7.3-.2.2,0,.6,0,.8a18.11,18.11,0,0,1-.3,2.3,10.1,10.1,0,0,1-.3,1.7c-.2.5-.9.9-1.1,1.4a5.83,5.83,0,0,0-.3,2.3,5.5,5.5,0,0,0,.5,2.6c.4.5,1.4.8,1.7,1.3a6,6,0,0,1,.6,2.3,5.3,5.3,0,0,1-.3,2.8,3.52,3.52,0,0,1-2,1.4c-.3.1-.8-.2-1.1-.3s-.7-.1-.8-.3c-.3-.3-.2-1-.3-1.4s0-1.7-.6-1.7-.7,1.6-.8,2.3a13.81,13.81,0,0,0-.3,2,10.07,10.07,0,0,0,.3,2.5c.1.4.5,1,.6,1.4a10.68,10.68,0,0,1,.3,2.5,8.92,8.92,0,0,1-.3,2.8,9.94,9.94,0,0,1-1.1,2,13.36,13.36,0,0,1-2.1,2,26,26,0,0,0-2.5,3.1c-.5,1-.4,2.8-1.1,3.7-.4.5-1.7.5-2,1.1s.3,1.8.3,2.5a7.62,7.62,0,0,1-.6,2,3.82,3.82,0,0,1-1.1,1.4,1.55,1.55,0,0,1-1.1.3c-.6-.3-.6-1.6-.8-2.3s-.5-1.6-.8-2.3a9.48,9.48,0,0,0-2-2,7,7,0,0,0-2-.8,20.94,20.94,0,0,0-2.3-.8,12.09,12.09,0,0,0-2.5-.8,17.65,17.65,0,0,0-2.3,0c-.6,0-1.4-.5-1.9-.3s-.7,1.1-1.1,1.4c-1.2.8-3.2.8-4.5,1.1a18.73,18.73,0,0,1-3.4.8,30.75,30.75,0,0,1-4.2.3,10.07,10.07,0,0,1-2.5-.3,14,14,0,0,1-1.7-.9l-1.3,2.1.6.7-.3,3.9-2.3,5.9-4.1,4.1-3.4,2.8v4.1l-1.8,3.4-2.1,6.5,1.8,5.4,1.6,1.3.4,1.7.5,2.8.9,5,.3.9,2.2,1,3.6,2.1.6,3.1-.8,1.8-6.1,7.2.4,2.2,6.9,3.6-.6,2.6.5,7.8,1.7,2.1,1.4,1.1,2.7.5,2-2.8,1,.4-1.8,3-1.8,3.2-2.4,2.7-2.4,1.1-3.3.7c.4.7,1.3,1.7,1.6,2.4.4.9.8,2.2,1.1,3.1.2.6.4,1.4.6,2a28.26,28.26,0,0,1,1.1,3.1,8.19,8.19,0,0,1,.3,3.1,8.49,8.49,0,0,1,.3.9,23.29,23.29,0,0,0,1.1,2.8c.4.9,1.2,1.9,1.7,2.8.6,1.1,1,2.6,1.7,3.7l4.3-.1,1.4,1.2,3.9,1.2,3.1-.3,4.7-.3,3.1-1.2,2.2-1.9,2.1-.8,3.2.3,4.1-.3,1,1,1.3,1.7,2.5-.4,1,2.5,1.4-.3,1.3.5.1,2.1.5,2.3.6,2.1.1,2.2.8,1.4,1.3.5,3.6.4.9.1.8,2.8.8.9,3.1.3,3-.8Z" transform="translate(0.36 0.73)"/><path id="SH" class="cls-6" d="M621.6,81.8a22.55,22.55,0,0,0-2.4,3c-.5,1-.4,2.8-1.1,3.7-.4.5-1.7.5-2,1.1s.3,1.8.3,2.5a7.62,7.62,0,0,1-.6,2,3.82,3.82,0,0,1-1.1,1.4,1.55,1.55,0,0,1-1.1.3c-.6-.3-.6-1.6-.8-2.3s-.5-1.6-.8-2.3a9.48,9.48,0,0,0-2-2,7,7,0,0,0-2-.8,20.94,20.94,0,0,0-2.3-.8,12.09,12.09,0,0,0-2.5-.8,17.65,17.65,0,0,0-2.3,0c-.6,0-1.4-.5-1.9-.3l.6-2.3-2.7.4-3-.8-1.1-1.3.6-2.3.4-1.9,1.1-2.3,2.3-1.5,1.9-1.1,2.7-1.5,3.4-1.7,2.7-.2,1.5,1.3,2.1,1.5,1.9.6,2.1,1.1,1.1,1.7.6,1.7-.8,1.5.8,1.3,1.9.8,1.5.2ZM638.8,52l-1.5-1.2c-.4-.3-1-.8-1.4-1.1a2.84,2.84,0,0,0-1.1-.8,3.53,3.53,0,0,0-1.4-.3,18.1,18.1,0,0,0-2.3.3c-.5.1-1.4-.1-1.7.3-.2.2,0,.6,0,.8a18.11,18.11,0,0,1-.3,2.3,10.1,10.1,0,0,1-.3,1.7c-.2.5-.9.9-1.1,1.4a5.83,5.83,0,0,0-.3,2.3,5.5,5.5,0,0,0,.5,2.6l-1.4-1.5-.8-.8-1.6-1-1.5-.5-1.1.3-1.5.7-2.7-.1-3.5-.1-1.6.4-.4.8-1.4.7-.9,1-1.6.6-.6,2.1.6.9-.3.4-6.4-.1-3.3.7-.7,1-.4.7-1-.3-.3-1,.3-1.5-.3-2.1-1-.6h-5.6l-1.6-1.5L585.4,58l-1.8-.4.3-2.4,1.3-2.7.3-1.8-.9-2.8,1.2-2.4,2.2-2.1,2.1-1.9,1.8-1.8,1.2-2.1.6-2.2,1-2.4.9-2.2L597,29l1.6-1.5,1.9-1.5,2.4-1.2,2.7-.6h1.9l1.6-.4,1.8-1.2,1.8-.9,2.7.6,1.9-.1,1.3-1.3-.3-1.9-.6-1.6-1-.9.3-1.9,1.6-.4h2.8l3.4.9,1.6.7,3.3,1.3-.4,1.6-.1,1.5.1,2.1L630,24l.9,2.4,1.5,1.3,2.1.4.9-1,1.3-2.5-1.2-4.2-.3-2.1.3-1.5,2.1,1.8,1.9,1.8,1.6,1.5,1.2,1.2.4,1.2v1.8l-.3,3,.3,1.2,1.9-.1.7-1,1.9-.9,1.9-.1,2.5,1.2.9,2.7-.9.7L650,35.2l-.9,2.2.4,2.2,1.9,1.6,1.3,1.9-.3,2.1-1.6.3-1.5-.3-1.2-1.5-1-.7-2.8-.3-2.1.1-1.9.3-.9.9-1,1.5.3,1.6-.4,1.9-.3,1.6Zm47.5,10.6a14.73,14.73,0,0,0-2.8-.8A18.29,18.29,0,0,1,681,61a11.51,11.51,0,0,1-1.7-1.4l-2-1.7c-.4-.3-1-.8-1.4-1.1a2.84,2.84,0,0,0-1.1-.8,8.65,8.65,0,0,0-2.3-.6,18.1,18.1,0,0,0-2.3.3,13.1,13.1,0,0,1-2.8,0l.9-1.8.6-1.6,1-1.9.4-1.5-1-1.2-1.5-.9-1.8-.3-1.5-.6-.9-1.2.4-1.2-.1-1.5,1.3-1,1.5-1.2,1.2-.7,1-.3,1.5.3.1.7.7,1.6,1,.4,1.8.9,2.5.9,1.2.3,2.4.7,2.1,1.6,1.6.9.4,1.5-.7.6-1.2.3-1.3-.3-1.2,1.2v1.8l1.9,2.2,1.2,2.7.6.9,1.3,1.5.9,1.5Z" transform="translate(0.36 0.73)"/><path id="TG" class="cls-6" d="M696.5,63.9a14.58,14.58,0,0,1-2.3,1,8.92,8.92,0,0,1-2.8.3,7.62,7.62,0,0,1-2-.6c-1-.5-2.1-1.5-3.1-2a14.73,14.73,0,0,0-2.8-.8A18.29,18.29,0,0,1,681,61a11.51,11.51,0,0,1-1.7-1.4l-2-1.7c-.4-.3-1-.8-1.4-1.1a2.84,2.84,0,0,0-1.1-.8,8.65,8.65,0,0,0-2.3-.6,18.1,18.1,0,0,0-2.3.3,13.1,13.1,0,0,1-2.8,0,15.66,15.66,0,0,1-3.1-.8,18.89,18.89,0,0,1-2.5-1.1c-.6-.3-1.1-1.1-1.7-1.4a12,12,0,0,0-2-.3,15.19,15.19,0,0,1-2-.6c-.6-.2-1.4-.6-2-.8-.2-.1-.6-.2-.8-.3a23.08,23.08,0,0,0-3.7.3,6.93,6.93,0,0,1-2,.3c-.5-.1-.9-.7-1.4-.8a4.65,4.65,0,0,0-2-.3c-.7.2-1.3,1.3-2,1.7-.4.2-1,.4-1.4.6s-.9.9-1.4.8l-2.1,2.8-.4,1.9,1.5,3.4,1.9,2.9,1.8,1,2,1.1,4.4.9,4.2.1,2.9-1.9,1.6-1.6,1-.8,1-1.5.6-1.1.6.2,3.9.4v.9l2.5,1.2,3.1,1.1,2.8.8.7.9-4.2,7.8-3.9,5.4-2-1.2.1-.8-4.7-.8-2.6.2-1.2,1-.2,1.8.4,1.4L656,83c.8.1,1.8-.7,2.5-.8a10.11,10.11,0,0,1,1.7-.3,17.43,17.43,0,0,1,4.5,1.1l.3,4.3,2.9,1.9,3.8,1.2,2.8,2.5,1.2,1.6-.2,1-3.6.1.5,2.6,1,2.2,1.6,1,2.6-.1,2-.6,2.4,1.2,4.4,2,.6,3.5-1.1,6.4-1.8,4-.6,4.2,2.6,4.9-.2,2.9,1.1,2.9,1.8,1.6,1.4,1.1-2.7,1-1.2,3.3-1.8,2.8a19.54,19.54,0,0,1,5.2,1.6c.6.3,1.4.9,2,1.2,1,.5,2.6.7,3.6,1.2.8.4,2.1,3.8,2.1,6.5l1.9-1.1,1.4-1.8,1.2-.5.6-2.1,1.1-3.2,2-1.7.9-5,1.1-1.5,5.2-.6h4l1.3-2.2.5-4.1-1.5-1-3.9-3-1.8-1.3-1.9-3.3.1-2.4,1.7-1.8,3.9-.9,2.8-1.3,2.9.5,4.5,2.1,1.9,2,2.9,1.7,5.4-.5,2.7-.9,3.6-3.4,1.1-3.2,3.8,3.1,2.2.6,1.5.1.7,1.8,1.4,1.5,4.4-.4,2,1.2,3.8,2.6,3.3.3,2.8-1.2,4.2-1.6,4.2-.5,2.8-1.2-.4-2.1-.9-4.4-2.5-2.9-2.6.2-1.6.8-2.8-.6.2-1.2,1.1-.5,2.1-1.1,1.2-2.1,2.2-.4,2.9-.5,2.6-.3,1.1-1.1,2.7,1.5-1.2,2.4,1.7.4-.9,1.9-.3.3,2.8,2.5,2.3.4,2.6,3.6.5,2.5,3,.9,1.6.6.7-3.2,1-3.4,3.1-1.3,2.9-2.7,1.6-1.3,11.6-16.1L769,63.4l-14.4-.3-4.5.1-3.4-.9-2.8-.9-.6-1.6-2.1-.7-7-3.3L718,53.5l-5.8,2.1Zm120.4,46.3-.4,1.6-1.5,3.1-2.7,2.1-2.5-.5-2.1-1.8.1-2.9,1.7-3.1,2.2-1.6,2.4.9Z" transform="translate(0.36 0.73)"/><path id="TI" class="cls-7" d="M640.4,413.4l-1.5,2.6-3,2.5-4.3.3-1.1-1.7-2.6-1.1-7.4-.8-2.1-1.5-4.3-1-5.3,1-3.3,3.2-1.4,3.4.7,4.2-.3,2.5-1.2,1.5-5,1.6-3.7.2-1.6,3.4-3.7,3.3-.9,2.6-1.2,2.3-1.6.5-3-.3h-3.9l-2-.5.2,4.3-.1,2.9-1.6,6.3,6.1-3,5.1-.8,4.2,1.5,3.4,6.3.4,2.7-.4,5.5v12.5l.6,7.2-.8,5.5-2.7,5.3-3,3.6-.8,4.9,3.6,4.9,1.3,3.8-.4,2.1.8,3,4.7,4,5.9,3.4,5.9,3.2,3.4,5.1,5.7,8.5,3.4,3.2.4,3.8,4.2,4.5,1.9,4,2.4.3,3,.6,2.1,1.8,2.8,1.6,3.9.4,2.2,1.6,1.7.8,2.9,1.3,5.7-4.9,3.5,2.4,3.1,1.6,3,2.5,1.6-.9,2.2-1.9,1-1.2,1.5.4,5.1,5.2,3.6,4.3,2.1,3,.3,3.1-1.9,2.1-1.6,1.2-.8.2-.2,1.6-.5,3.6-1.6,1.4-4,2.5-2.5,2.2-1,2.6,1.3,2.7h1.4l2.7.4,3.7,1.4,2.4,2.6,3.1,2.6,2.4,2.6,2.2.5,2.3,1.3.4,2.9.4,5.4,2.7,3.9,1.7,2.2,1.3,1.6v2.1l1.7,4.4,3,4.9-.4,2.7-2.7,2.5-2.5,4V652l1.5.2,2.5-2.5,3.4.2,2.5,2.5,3,.6,3.2-.2,1.9.8.4,3.2,2.7.8,3.8-1.9.8-5.1.6-3,1.7-3.6,1.1-4.2,3.2-2.1,2.1-2.3.8-3-.8-.6s-2.3-3-3.2-4a20.65,20.65,0,0,0-3.4-2.5H718l-2.1-1.7-.6-2.3.4-3.2-1.5-2.5-1.7-2.1-1.3-3.6-.4-1.7,1.5-1.9,1.9-1.9,2.3-.6.1-2.2-.3-5.2-1.1-1.3-1.3-2.5.2-4.2,1.7-4.4,2.3-1.5,4-1.5,4.2-1.5,1.9-1.3,1.5-2.3.8-3.2-.2-3.4-1.7-3.6-.6-2.5,1.5-3.6,6.1-2.5,4.2-4,2.5-2.5,1.9-.8,2.1-3.6,2.2-1-3.9-3.7-4.1-5.8-3.6-3.4-4.9-3.6-.8-3.8.8-5.1-1.9-5.1-3-5.1-1.3-3.6,1.7-3,1.7-4.9-.2-5.3,1.1-3,2.3-1.9,2.1-3.4-1.1-5.8.2-4.3,1.5-4,.6-3-2.8-3.4-.8-3.4,1.9-3.8.5-5.3-3.3-3.7-3.5-1.1-2.2-.2-3.3-3.3-2.4-3.7-2.7-6.2-.4-5,.8-7.2,2.2-1.6,3-3.2-.6-2.1-1-.6-3.9-.9-3.1-4-1.9-1.9-4.5,1.3-3.8-.4-.6-2.4-.4-3.2-.5-4.7-.6-3.2-.7.8-1.7,1.2-5.9.5-3.3,2.6-1.1,2.4,2,4,.8,1.7-.1,2.6-2.5,2.4-2.7,1.9-2.7,1.2-3.9.7-3.9,1h-2l-1.5-.8-3.8,2.8-3.4-.6-3.3-1.9-2.3-1.2-4.6-.8-3.6.8-3.6-.2-4.1-1.9Zm66.2,193.8,1.1,1.1,1.1-.2.8-1.1.8-1.3-.2-1.6-.8-.3-1.7,1.7Z" transform="translate(0.36 0.73)"/><path id="VD" class="cls-8" d="M272.3,280.1l5.2,2.6,3.9,1.2.8.4-.9,3.8v5.5l1.2,1.6,4.4,7.8,2.8,5.8-3,2.7-3.7,2.8-.5,5.3-1.6,3.4-3,2.8-1.8,2.1-1.9-1.2,1.6-4.1-.2-4.9-2.5-1.8-2.3-2.5-4.1-3.4-1.6-4.2-1.2-4.8-3.2-1.6-.2-.2-6-5h0Zm-56.8,77.7-1.9,3.2.5,2.8,2.3,1.8,1.8-1.6.9-3.5-.2-3Zm12,1.8,3.9-4.9,2.1-3.7-.7-1.6,1.6-.9,2.3,3,3.2,3.2,1.1,1.6-2.8,5.3-1.9,3-2.1-.4-2.3-2.3Zm-3.2.9,2.7.4,2.3,1.6-1.9,2.8-2.3,1.1-1.1-1.6ZM88.8,490.8l5.9,3.4-6.2,12.2-.7-.3-4.5-2.7-5.1-3L74,497.6H72.8l2.7-4.7,2.5-4,.2-4-1.5-3.4-6.6-6.8-6.8-4.9-4.9-3.2,2.1-3.6.8-4.2-.4-7.4,2.5-4.4,3.6-5.5,3-4.4,2.7-3,3.8-3.2L75.2,425l-2.1-2.7L67.4,416l2.5-3.6,4.9-4.4L85,398.7l12.7-11.6,4.2-4.4,4.4-4,5.1-2.1,10.2-6.8L129,363l.6-2.7,1.9-1.1,4.9-1.1L140,356l3-3.2,3-4.2-1.3-3.2-3.4-1.7-1.5-1.7-.8-2.1,2.1-1.5.4-5.1.2-2.3,2.1-1.9,3.2-3.8,16.4-2.3,9.2-6,5.7-2.7,7.8-2.1,3.7-4.8,6.5-4.2,5.3-4.9,3.2-1.2,2.3,5.5-1.4,4.1,3.2,1.9.7,7.2,2.7,1.9,2.5,7.8.5,11.1,2,1.6,4.1,3-1.6,1.1,4.6,3.4,4.9,2.1,2.1.4,2.3-1.2,2.3-2.5,2.8,1.8,3.9,1.6h3l2.1-2.1,1.1-3.9V338l.9-2.3-1.2-.7-1.8.2-.5,1.8-2.5-.2,1.8-4.8.2-1.9,2.3-5.5,2.7-2.3-3.4-5.1-3.4,1.4-.2-1.1,5.1-2.8-2.5-2.7-2.1.2-5.2-4.7,7.7-6.3,5.3,7.5,4.8,5.3,4.1,3.4,2.1.9v5.3l1.6,3.5-.2,6.2-4.1,3-.9,4.2-1.6,5.7-2.5,2.8-4.4,4.9-.9,2.7,2.7,2.3-.5,3.7L244,372.9l-6.2,6.7-.4,4.6-1.4,2.7-3.4.2-1.6-1.4-2.1-.2-2.7,1.9-3.5,3.4-1.6.5v6.2l.9,5.7V412l.7,2.1,3.2-1.4,1.8-.7,1.4,2.5,3.4-1.8,2.8-.5,3.2,2.8,3.2,1.4,3,.7,1.5,1.1-.9,1.5-3,2.7-1.8,2.5-1.2,1.6-1.6.2-.9,1.8.2,2.7-3.5-1.1-3.2-3-3.9-.2-.9,2.3-.5,3,3,1.9.9,1.9,1.6,3.4,3.5.5,3.9-2.1,1.9-3,3.9-3.4,1.4.5,2.5,2.5,4.4,3.9,4.1,1.9,4.6,1.2.4,3.7,1.6,6.9,1.2,5.1-.7,2.1,4.2-1.4,3.2-2.7s3.2-3.7,3-4.6,3.2-4.4,3.2-4.4l3.4-3.2,3.7-.9,6.2-.7,3.7-2.3,4.1-4.4,2.7-4.2,3.4-1.8,2.8-1.6,3.4-2.8,3.7,1.9,6.6-3.5,1.2,4.2.7,6.2.4,5.7-2.3,3.4-3.2,4.1a30.58,30.58,0,0,1,.5,5.3,31.17,31.17,0,0,0,0,4.4s-1.8,1.9-2.5,2.5-3.7.5-3.7.5l-1.2,1.6.2,3.5,2.1,3,.2,3.4-1.8,3.2V481l3.4,3-.2,2.8,1.4,6.4-1.1,2.9-4.2,3-2.8,2.7,2.1,4.6-1.8,3.2-1.9,3.7-3.9,5.7-4.8,4.4-6,5.8-5.5,4.4-7.2,4.3-5.8,4.1-.7.7c-.7-2-2.2-4.6-2.8-6.6a19,19,0,0,1-.3-2.5c-.2-1.6-.2-3.8-.8-5.3s-2.3-3.3-3.3-4.7a23.22,23.22,0,0,0-2.2-3c-.4-.4-1.3-.7-1.7-1.1a17.1,17.1,0,0,1-1.7-3.3,9.29,9.29,0,0,1-1.1-6.3,20.85,20.85,0,0,0,0-2.5,12.9,12.9,0,0,0-.8-2.8,29.24,29.24,0,0,0-1.7-3.6c-.4-.8-.9-2-1.4-2.8-.4-.6-1.2-1.3-1.7-1.9-.6-1-1-2.6-1.7-3.6a14.84,14.84,0,0,0-2.8-3.3c-.7-.6-1.9-1-2.5-1.7a7.71,7.71,0,0,1-.8-1.9c-.4-1-1-2.3-1.4-3.3a9,9,0,0,0-.6-2.2c-.4-.7-1.4-1.3-1.9-1.9a20,20,0,0,1-1.9-2.2,15.86,15.86,0,0,1-1.1-1.6l-3.3-8.1-13.4-1.1L187.6,458l-34.3,1.7L116.1,473,98.3,487.6l-7.1-3.1-5.3-3-4.8-1.4L80,484.2l2.5,1.1,3.9,1.8-.4,3.2,2.8.5" transform="translate(0.36 0.73)"/><path id="FR" class="cls-2" d="M254.6,294.3l6,5,.2.2,3.2,1.6,1.2,4.8,1.6,4.2,4.1,3.4,2.3,2.5,2.5,1.8.2,4.9-1.6,4.1,1.9,1.2,1.8-2.1,3-2.8,1.6-3.4.5-5.3,3.7-2.8,3-2.7-2.8-5.8-4.4-7.8-1.2-1.6v-5.5l.9-3.8,6.9-2,4.4-.2,9.7-1.6,9-4.2,2.3-1.4,3.5,3.9.7,3.5-4.1,2.7-1.8,2.3,1.6,5.8.4,5.8-1.1,8.1,4.2.3a9.42,9.42,0,0,0,1.4,1.9,3.92,3.92,0,0,0,1.4.8c.5.1,1.2-.4,1.7-.3,1.4.3,2.6,2.2,3.9,2.8a6.45,6.45,0,0,0,3,.6,2.41,2.41,0,0,0,.8-.6,7.05,7.05,0,0,1,2.5-.6,8.87,8.87,0,0,1,1.7.8c.7.3,1.7,1.4,2.5,1.1.5-.1.4-1.1.8-1.4a5.25,5.25,0,0,1,2.8-.6,6.94,6.94,0,0,1,2.8.8,5.19,5.19,0,0,1,2.2,2.2,7,7,0,0,1,0,2.5,6.88,6.88,0,0,0,.3,2.5c.3.5,1.3.8,1.4,1.4.1.4-.3.8-.6,1.1-1,1.3-3.2,2.1-3.9,3.6l-.9-1.4-2.5-1.9-.7-1.6-1.9,2.7s-.7,1.6-.9,2.3,2.5,2.8,2.5,2.8l2.3,1.4.7.5a11.78,11.78,0,0,0-1.9,2.5,34.12,34.12,0,0,0-1.7,3.3c-.3.8-.5,2-.8,2.8s-1.4,1.8-1.7,2.8a15.26,15.26,0,0,0-.3,3,7.15,7.15,0,0,1-.3,2.5c-.5.9-2.3,1.1-2.8,1.9a4.15,4.15,0,0,0-.3,2.5,13.75,13.75,0,0,0,1.7,4.2c.5.8,1.7,1.6,1.9,2.5a4.28,4.28,0,0,1-.6,2.2c-.4.9-1.6,1.8-1.9,2.8a4.47,4.47,0,0,0,0,2.8c.4.7,1.9.8,2.5,1.4l5,1.8,2.8,1.8,4.2,3.7,2.7,2.7.2,8-.5,4.9-3-.2-1.6.4-3.7-1.6-3,1.9-.5,2.7-.4,5.3-.4,6.9,3.4,5.3-3.5,2.1-5.3-.5-3.5,1.9-4.8,3.7-2.8,3.6-6.6,3.5-3.7-1.9-3.4,2.8-2.8,1.6-3.4,1.8-2.7,4.2-4.1,4.4-3.7,2.3-6.2.7-3.7.9-3.4,3.2s-3.4,3.5-3.2,4.4-3,4.6-3,4.6l-3.2,2.7-4.2,1.4.7-2.1-1.2-5.1-1.6-6.9-.4-3.7L256,440l-4.1-1.9-4.4-3.9-2.5-2.5-1.4-.5-3.9,3.4-1.9,3-3.9,2.1-3.5-.5-1.6-3.4-.9-1.9-3-1.9.5-3,.9-2.3,3.9.2,3.2,3,3.5,1.1-.2-2.7.9-1.8,1.6-.2,1.2-1.6,1.8-2.5,3-2.7.9-1.5-1.5-1.1-3-.7-3.2-1.4-3.2-2.8-2.8.5-3.4,1.8-1.4-2.5-1.8.7-3.2,1.4-.7-2.1V403l-.9-5.7v-6.2l1.6-.5,3.5-3.4,2.7-1.9,2.1.2,1.6,1.4,3.4-.2,1.4-2.7.4-4.6,6.2-6.7,8.3-10.3.5-3.7-2.7-2.3.9-2.7,4.4-4.9,2.5-2.8,1.6-5.7.9-4.2,4.1-3,.2-6.2-1.6-3.5v-5.3l-2.1-.9-4.1-3.4-4.8-5.3-5.4-7.5Zm-15.3,12.8,5.2,4.7,2.1-.2,2.5,2.7-5.1,2.8.2,1.1,3.4-1.4,3.4,5.1-2.7,2.3-2.3,5.5-.2,1.9-1.8,4.8,2.5.2.5-1.8,1.8-.2,1.2.7-.9,2.3v3.9l-1.1,3.9-2.1,2.1h-3L239,346l-2.8-1.8-2.3,2.5-2.3,1.2-2.1-.4-4.9-2.1L220,342l1.6-1.1-4.1-3-2-1.6-.5-11.2Zm-23.8,50.7-1.9,3.2.5,2.8,2.3,1.8,1.8-1.6.9-3.5-.2-3Zm8.8,2.7,2.7.4,2.3,1.6-1.9,2.8-2.3,1.1-1.1-1.6Zm3.2-.9,3.9-4.9,2.1-3.7-.7-1.6,1.6-.9,2.3,3,3.2,3.2,1.1,1.6-2.8,5.3-1.9,3-2.1-.4-2.3-2.3Z" transform="translate(0.36 0.73)"/><path id="VS" class="cls-9" d="M575,455.2l1.6-6.3.1-2.9-.2-4.3,2,.5h3.9l3,.3,1.6-.5,1.2-2.3.9-2.6,3.7-3.3,1.6-3.4-2.8-.5-2.3-1.2-2.3-1.3-1.3-1.9-1.2-2.7-.9-2.2-2.5-4.1-.9-2,1.7-5,2.2-5.7.5-10.7-.3-2.3-2.3-1.5-1.8-.5-3.9,4.4-2.5,3.4-2.3,4.1-1.2,5.6v5.3l-.8,3.1L566,418l-3.1,2.2-3.6,1.9-1.4,2.3-7.5,4.7-4.8,1.7-10.3,2.6-5.3.9-3.6-3.4-6.4-1.2-5.9-3.9-4.5-1.7-3.9.3-5-2.3-3.7-2-3.1.2-2.8,1.9-3.9,2-4.4,1.7-.8,10-7,3.4-2.2,3-5.3,4.4-5.8.9-9.5.5-12.9,11.2-14.8,12.2-4.5-6.9-7.8-5.6-5.6-1.1-2.6,2.6-2.2,4.1-3,3.7-5-.2h-4.5l-2.3,1.2-1.9,1.9,4.5,3-1.1,1.7-2.6,2.8-4.2,2-4.4,1.4-8.1-2.6-4.8-1.1s-7.9,2-8.6,2.3-6.7,5-6.7,5l-4.5,3.1-4.5,2.8-2.8-1.1-1.4-2.2v-6.4l-4.1-.8-3.9,2.5-2.6,2-.8,4.4-1.2,3.9-3,2-5.9-.1-4.2,2.9-2.8,2.7,2.1,4.6-1.8,3.2-1.9,3.7-3.9,5.7-4.8,4.4-6,5.8-5.5,4.4-7.2,4.3-5.8,4.1-.7.7c-.7-2-2.2-4.6-2.8-6.6a19,19,0,0,1-.3-2.5c-.2-1.6-.2-3.8-.8-5.3s-2.3-3.3-3.3-4.7a23.22,23.22,0,0,0-2.2-3c-.4-.4-1.3-.7-1.7-1.1a17.1,17.1,0,0,1-1.7-3.3,9.29,9.29,0,0,1-1.1-6.3,20.85,20.85,0,0,0,0-2.5,12.9,12.9,0,0,0-.8-2.8,29.24,29.24,0,0,0-1.7-3.6c-.4-.8-.9-2-1.4-2.8-.4-.6-1.2-1.3-1.7-1.9-.6-1-1-2.6-1.7-3.6a14.84,14.84,0,0,0-2.8-3.3c-.7-.6-1.9-1-2.5-1.7a7.71,7.71,0,0,1-.8-1.9c-.4-1-1-2.3-1.4-3.3a9,9,0,0,0-.6-2.2c-.4-.7-1.4-1.3-1.9-1.9a20,20,0,0,1-1.9-2.2,15.86,15.86,0,0,1-1.1-1.6l-3.3-8.1-13.5-1,.9,8.6.8,5.5-1.5,2.5-2.3,2.3-4,1.3.8,2.1,2.5,3.2,1.7,3.6,1.3,1.9,1.7.4,3.6,2.5,1.5,2.1,1.5,1.9,3,.8,1.9,2.7v5.1l-.8,4.7-2.7,4.7-4.2,5.7-3,5.9.6,5.3.4,5.7-3.6,2.1-3,4.2-.8,2.3,2.1,1.7,2.3,2.7,5.7-.2,3-.4,3-.4,4.2,1.7,5.1,1.3,1.7,3-1.5,2.5.6,6.1-.4,3.2-2.1,1.7-.6,4.7.2,3,2.5-.4,1.5-1.7,1.5-3,.6-1.5,3.6-.2,1.9.6,1.9,3.8,1.9.6,2.7,4,3.6,5.9,4.7,5.7,3.4,6.1,1.1,4.4-1.5,4,3.4.8,3.4.8.4,4.9v4.7l2.7,3s3.4,4.9,4.4,6.1a21.57,21.57,0,0,1,2.3,4l2.3,3.8,1.5,4.2.8,1.9,1.7-.2,2.1-4,2.5-2.7,4.9-.4,4.2,3.4,2.3,3,1.9.4v-4.4l.2-2.7,2.5-2.3h2.7l3.8-.4,2.3-.3,3-.6,1.8-1.8,2.4-3.6,1.2-2.7,4.5.6,5.1,1.1,4-.2,4.4,1.7,3.9,1.8,1.8-1.5,1.8-.9,2.7-.6,1.5-3,3.9-1.8,4.8-2.7,2.1-.9-.6-.9,1.5-4.5,2.1-.3,2.1-1.5,2.1-.9,3.6-.6h2.7l2.7-1.8-.6-2.4,1.8-3.6,1.6-.4,1.9-.8,3.2,1.5,3.4,3.8,3.8.6,6.1-1.1,5.1.6,3,1.9,1.5,1.9,3,2.1,3.4,2.1,1.3,5.3,1.7.8,1.1-.4,4.9-2.3,3.2-.2,4.2,1.3,4.7,4.4,4-2.7,4.4.8,3.8.2,2.7-1.5v-1.1l-.6-7.6,1.3-4.7,4-4.4,4.2-2.7,17.3-1.1,2.7-2.5,2.5-5.3,2.1-4.7,3-2.5-1.9-3.6.2-8,1.3-2.1,3.8-3.6,5.7-3,4.4-.4h3.8l.6-3,2.1-3.6,3.2-2.7,3-.8.2-1.7-.8-4.7,3.2-3-.6-4-2.3-2.3-1.5-5.1L521,529l-3.2-4.4-4-3.4-5.5-2.7.4-3.6,3-2.7,3.6-5.5,3.4-3.4,3.2-1.3,3.8.4,3.8,1.5,4-1.1,4.7-5.9,1.9-3.2V492l1.9-1.5,3.8-1.3,2.3-3.8,3.4-2.1,7.6-3.2,1.7-3.4-1.1-3-3.4-.8-2.5-2.3,1.1-4.2,1.9-2.5,4.4-1.1,4.9-3.4Z" transform="translate(0.36 0.73)"/><path id="NE" class="cls-8" d="M284.9,260.6s-1.6.3-2.3.4-1.6.1-2.3.2a15.55,15.55,0,0,0-2.3.8,20.68,20.68,0,0,0-2.5,1.5,22,22,0,0,0-2.5,1.7,11.38,11.38,0,0,0-1.9,1.9,22.45,22.45,0,0,0-1.3,2.7c-.4.8-.9,1.8-1.3,2.5s-1.3,2.7-1.3,2.7l5.2,4.8-17.7,14.3-7.7,6.6-7.6,6.3L215,325.4l-2.5-7.9-2.7-1.9-.7-7.2-3.2-1.9,1.4-4.1-2.3-5.5-3.2,1.2-5.3,4.9-6.5,4.2-3.7,4.8-7.8,2.1-5.7,2.7-9.2,6-16.4,2.3a20.94,20.94,0,0,0,.1-6.8l.6-6.1-2.5-2.3-2.7-3.8-2.5-3.2,3.8-5.7,5.7-6.3,3.2-3.4,1.7.4,2.7-1.1,4.7-1.7,5.7-2.1,6.1-2.3,2.7-1.5,5.7-.2,1.9-1.3,3-4.7,3-5.9,3.4-1.9,2.5-.2,2.5-1.1.2-1.9-.6-1.9-2.5-.8v-1.9l.8-1.9h3.4l1.1-1.7.8-1.7.4-3,1.1-.8,3.8.2,3.4-.8.8-1.9-1.9-4,.9-.3a13.3,13.3,0,0,0,1.9-1.4c.5-.5.9-1.5,1.4-1.9a3.92,3.92,0,0,1,1.4-.8c1.1-.2,2.6.6,3.6.3s2.1-1.6,3-2.2c1.2-.9,3-1.9,4.2-2.8s2.5-2.1,3.6-3c1.8-1.6,4.9-3.3,5.8-5.5l4.6-.1,2.6,2.8,1.7,3.7.5,5.9-1.1,4.2-2.2,2.8.6,3.7,3.6-1.6,3.4-1.6,4.4-2.2,5.1-2.5,8.4-1.1,5.9-.2,1.7,1.1,7,3.7,6.5,4.4.9,3.3-.3,3.7-.9,4.8Z" transform="translate(0.36 0.73)"/><path id="GE" class="cls-10" d="M91.2,484l7.1,3.1-3.7,7-5.9-3.4L86,489.6l.4-3.2-3.9-1.8L80,483.5l1.1-4.1,4.8,1.4ZM74,497.5H72.8l-2.5,2.3-.6,5.3-1.3,1.5-1.5,3V513l1.7,2.1.2,3.6-1.1,2.1-2.3,1.1-3.6,1.3a23.92,23.92,0,0,0-3.8.6c-1.3.4-1.9.6-1.9.6l-1.9,1.7-2.1.2-3.2-.2-1.5-.2-1.9.6L44,528.2l-1.3,1.9-1.1,1.5-2.7.6-2.1,3.4-.6,1.9,1.9,1.1,1.9.6.6,1.5-.2,3.6-1.3,3.2-1.5,3.4-.4,2.3,4.2-.2,4.2.8,4.2,1.1,1.9-3.2,1.7-1.5,1.5-.2,2.7.8,4.7.2,3.8.8,3.4.4,2.3-1.1,1.9-1.7,3-1.7,2.7-1.3,2.7-1.9,3-3.4,2.5-3,3-3.4,2.1-2.1,3.4-.8,3-1.5,3.6-1.5,3-1.5,1.7-2.5,1.5-1.7-.2-2.5-.2-1.9-1.9-1.1h-1.3l-.4,1.3-1.9.6h-3l-1.9-1.9-3.2-2.3-1.9-4-4.6-5.1-.7-.3-4.5-2.7-5.1-3Z" transform="translate(0.36 0.73)"/><path id="BS" class="cls-11" d="M394.4,95.1l2.9,1.3.5,4.4,2.3-.3,1.9,2.3,3.3-.6,1.7-1.7-.6-4.8,2.6-2,1.6-1.8.8-2.1.6-1.3,2.1.2,1.9-1.5V86.1l-.4-.8-1.7-.6-.2-2.3,1.9-1.9.2-1.3-1.5-.2L412,80.7l-2.1,1.1-2.8,1.1-3.1.3-2.5,1.2-3.4,3.7-.7,4.2Z" transform="translate(0.36 0.73)"/><path id="BL" class="cls-12" d="M353.7,141.9l.4,2,1.1,1.9,5.2,4.7,1.6,2.4,2.9.5,1.9-.3.2-1.7.9-2,1.6-1,3.2-.2,3.6.1.5,2.2,3.3,2.3,2.8-2.3,3.6-1.1.5-1.8,1.2-3.4,7.6-1.1,1.1-3.9,7.2-.5.2-3,1.7-2.9,1.2-3.7-.6-2.6-2-2.6.2-3.6,4.8-.2,2.6-.2,2.2-2.5,1.2.5,2,3,4.3.7,3.3-.3,2.9,1.3-.5,1.2-2.2,4.3-1.8,2.3-2.5,2.5-.5,3.1-.2,4.1-1,2.5-2.3,1.2-1.9.9-5.1.3.2,5.1.6,3.7.9,4.1h3.7l5.5-.3,6.1-.9,2.3,1.4,1.1,2.3,1.8,2.4,2.2,2,1.8,1.5,2.5,1.1,2.6.4,2.3-.2v-2.3l.4-2.4,3.1-2.3,4.8-1.8,3.5-1.5,3-2,3.7-3.7,2.6-3.2,2.8-.6,4.5.5,3.4-1.6,4.1-3,.3-2.6c-.4,0-1.3-2.1-1.3-2.1l-1.5-1.9.3-3,1-2.3.7-2.3-2.7-1.7-.6-3.5.2-2.3-2.9-.3-2.4-.1-1.9-1.1-2.4-3.2-1.1-4.1-3.1-5.5-2.5-3.4-2.1-2.6-1-1.2-1.7-1.1-1.5-.1-1.4.9-.8,1.4-.6,2.4-.6,2-.8,2.4-2.2,2.1-2.3,1.7-3.4.2-.2-2.3.3-1.5-.7-1.2-1.5-.8-3.2-2.9-2.9-1.5-2.9-1-.4-1.6a17.68,17.68,0,0,0-3.1.8c-.6.3-1.1.9-1.7,1.1a22.59,22.59,0,0,1-3.7,1.1,6.94,6.94,0,0,1-2.8.8,7.32,7.32,0,0,1-2.5-.8,12.22,12.22,0,0,1-2.8-1.4,16.32,16.32,0,0,1-1.7-2,24.33,24.33,0,0,1-2-2.5c-.5-.8-.7-2.1-1.2-2.8l-2.6,2,.6,4.8-1.7,1.7-3.3.6-1.9-2.3-2.3.3-.5-4.4-2.9-1.3-2.8,1.4-2.8.3-3.2.7-3.6,1.2-2.7,3.6.6,4.4,1.9,2.3V113l-2.4,3.4a16.67,16.67,0,0,0,1.9.1l2.1,1.3.2,1.6.2,1.4-1.5,2.3-.8,1.6-1.2,1.3-1.2-.2-1.4.2-1.9-.2-3,1.2-2.1.3-2-.7-1.4-.5-.8-1.5-1.6,1.3-1.5,1.5-1.9,4,1.1.7,1.7-.7,1.1,1.2,2.8,2.1,2.6,2.6,1.2,2.3-.2,2.4-.8,1.9-.9.9-2.3.2-2.8-1.4-3.8-.9Zm-.6-5.2.7,5.2-5.6-.5-4.1-3.8.1-2.8a33.74,33.74,0,0,1,3.4,1c1.2.2,3,.1,4.2.4C352.1,136.1,352.7,136.5,353.1,136.7Z" transform="translate(0.36 0.73)"/><path id="AG" class="cls-12" d="M581.5,89.1l-1.3,2.1.6.7-.3,3.9-2.3,5.9-4.1,4.1-3.4,2.8v4.1l-1.8,3.4-2.1,6.5,1.8,5.4,1.6,1.3.4,1.7.5,2.8.9,5,.3.9,2.2,1,3.6,2.1.6,3.1-.8,1.8-6.1,7.2.4,2.2,6.9,3.6-.6,2.6.5,7.8,1.7,2.1,1.4,1.1,2.7.5,2-2.8,1,.4-1.8,3-1.8,3.2-2.4,2.7-2.4,1.1-3.3.7c.4.7,1.3,1.7,1.6,2.4.4.9.8,2.2,1.1,3.1.2.6.4,1.4.6,2a28.26,28.26,0,0,1,1.1,3.1,8.19,8.19,0,0,1,.3,3.1,12.29,12.29,0,0,1-1.4,2.5,7.45,7.45,0,0,0-1.1,2.8c0,1.2,1.2,2.5,1.7,3.7a9,9,0,0,1,.8,2.3c.2,1.1.2,2.6.3,3.7a25.38,25.38,0,0,0,0,3.9,22.87,22.87,0,0,0,.8,2.8,28,28,0,0,0,.6,2.8c.2.7,1.1,1.5,1.1,2.3s-.9,1.7-1.1,2.5c-.3,1.2-.2,3-.6,4.2l-4.9,1.5-5.4,1.3-2.3.3-1.5-2.5-2.1-4.2-2-4.2-2.2-5.8-.8-4.5-1.8-5.3-2.1-6.8-1-4.6-.2-3.3-.7-2.1-.7-.4-4.3-1.2-1-1.8-3.4-.8-2.2.1-4.5,5.8-2.5,1.4-1,2.6-.8,4-.3,2.4-1.1,2.2-1.9,1.5-2,.3-2.3-.7-1.8-1.5-.2-1.3v-1.5l2.5-1.2-.3-1.4-1.8.4-5.1.6-5.3.4-2.6-.6-.1-2.9-.9-2.2-.3-.6-1.7-.3-2.5-.6-2.5.8-1.2.9-.6,2.2-.8,2.3-2.6.8-2.5.2h-4.5l.2-1.2.2-3.7v-2.8l-.7-2-1.5-2.9-1.8.7-3,.9h-3.3l-1.3-1.2-1.3-.2-.1,2.1v8.7l-.6,1.1-.9,1-1.3.8-4-.2-1.9-.9-3.3-.4-4.3.6-2,.6-2,1.3-4.2.3-.4-3.5-.1-5.5.8-3.3.5-1.1a6,6,0,0,0,2.1-2.1,30.67,30.67,0,0,0,2.3-3.9,16.65,16.65,0,0,1,1.2-2.3c.5-.7,1.6-1.4,2.2-2.2a14.17,14.17,0,0,1,.8-1.8c.6-.7,1.8-1.2,2.3-2a7,7,0,0,0,1.4-2.5c.1-1.1-.9-2.4-.8-3.5a12.15,12.15,0,0,1,.9-2l1.9,1.3,1.9,1.5,2.4.9,3,.7,5.8.5,3.8.3,1.7-.3,1.3-.5,1.2-1.8,1-3.5,1.9-5.5,1.9-3.8,1.9-4.5-.4-2.1-2.8-2.6-2.4-.4-1.8-.8-2-1.2-3.2-1.8-1.9-1.8,2.4-1.4-.1-2.6-.7-3-1.6-.4-.7-2.4-.1-1.8-2.1-.2-1.1-.2-2.7-1.8-.6-3.5.2-2.3-2.9-.3-2.4-.1-1.9-1.1-2.4-3.2-1.1-4.1-3.1-5.5-2.5-3.4-2.1-2.6-1-1.2-1.7-1.1-1.5-.1-1.4.9-.8,1.4-.6,2.4-.6,2-.8,2.4-2.2,2.1-2.3,1.7-3.4.2-.2-2.3.3-1.5-.7-1.2-1.5-.8-3.2-2.9-2.9-1.5-2.9-1-.3-1.6a25.58,25.58,0,0,1,2.7-.5c1.1-.2,2.6-.5,3.7-.8.9-.3,2-.8,2.8-1.1,1.2-.4,2.8-.7,3.9-1.1a9.2,9.2,0,0,0,2.8-1.4,13.66,13.66,0,0,0,2.3-2.5,16.29,16.29,0,0,0,1.1-3.1,16.68,16.68,0,0,1,.8-2,2,2,0,0,1,.8-.8,2.23,2.23,0,0,1,1.4,0c.7.2,1.5.9,2.3,1.1a6.93,6.93,0,0,0,2,.3,5.08,5.08,0,0,0,1.7-.3,8.43,8.43,0,0,0,1.4-.6,6.38,6.38,0,0,1,1.4-.8,10.68,10.68,0,0,1,2.5-.3,5.08,5.08,0,0,1,1.7.3,5.64,5.64,0,0,1,2,1.1,7.82,7.82,0,0,1,1.1,2,16.67,16.67,0,0,1,.8,2c.2.4.4,1,.6,1.4a13.8,13.8,0,0,1,.3,2,7.62,7.62,0,0,0,.6,2,3.81,3.81,0,0,0,1.1,1.4c.7.5,2.1.6,2.8,1.1.3.3.4,1,.8,1.1a2.9,2.9,0,0,0,2.5-.6c.5-.3.8-1.2,1.1-1.7a7.18,7.18,0,0,1,1.4-2,7,7,0,0,1,2.5,0c1,0,2.4.2,3.4.3a19.53,19.53,0,0,1,3.4.3,8.87,8.87,0,0,0,1.7.8,18.11,18.11,0,0,0,2.3.3,22.85,22.85,0,0,0,3.7,0,9.77,9.77,0,0,0,2.3-.6,7.55,7.55,0,0,0,1.4-1.1,13.44,13.44,0,0,0,1.4-1.1c.4-.4.7-1.1,1.1-1.4a2.28,2.28,0,0,1,1.1-.3,6.38,6.38,0,0,1,1.4.8c.4.2.7.7,1.1.8a8.77,8.77,0,0,0,2.8,0c.3,0,.8.2,1.1,0s.6-1,.8-1.4a5.31,5.31,0,0,0,.8-1.7,13.36,13.36,0,0,0,0-2c0-.2-.1-.4,0-.6a3.33,3.33,0,0,1,1.4-1.7c.4-.2,1,.1,1.4,0a9.77,9.77,0,0,0,2.3-.6l.6-.3a27.25,27.25,0,0,0,2.5-2.3,7.55,7.55,0,0,1,1.4-1.1c.7-.3,1.8.1,2.5,0a4.51,4.51,0,0,0,1.1-.3c.7-.3,1.6-.8,2.3-1.1.5-.3,1.3-.4,1.7-.8.2-.3.1-.8.3-1.1.6-1.1,2.1-2,3.1-2.8.5-.4,1.2-.7,1.7-1.1s.6-1.2,1.1-1.4a2,2,0,0,1,1.7.3c.3.2.3.8.6,1.1a5.58,5.58,0,0,0,2,1.4c.3.1.8.2,1.1.3h1.1c.9-.1,2.2-.5,3.1-.6a6.7,6.7,0,0,1,2,0c.5.1,1.2.5,1.7.6.8.1,1.8-.1,2.5,0a4.65,4.65,0,0,1,2.3.6,2.48,2.48,0,0,1,.8,1.4c.3.8-.1,2,.3,2.8.5,1,1.8,1.8,2.5,2.5.9.9,1.4,2.8,3.1,3.1s1.4,1,2,1.4c1,.6,2.3,2,3.4,2s2.6.5,3.7.6,2.4,0,3.4,0,2.4.6,3.1,0c.3-.2.1-.8.3-1.1a4.62,4.62,0,0,1,1.7-1.7,2.05,2.05,0,0,1,1.1,0A1.86,1.86,0,0,1,581.5,89.1Z" transform="translate(0.36 0.73)"/><path id="JU" class="cls-12" d="M344.1,134.7a38.8,38.8,0,0,0-5.9.2c-1.1.1-2.5.2-3.6.4a18,18,0,0,0-2.2.6c-.7.2-1.7.4-2.4.6a27.73,27.73,0,0,0-2.6,1,8.17,8.17,0,0,0-2,1.2,10,10,0,0,0-1.3,1.5l-3.3-1.9-1.7-2.3-4.2.4-4.2-1.9-4-1.3-1.3-1.1v-4.2l1.5-3.4,2.1-3.2v-3.4l-3.2,1.3-3.4-1.1-1.7-2.1-3.2-2.3h-3l-3.6,1.5-4,1.9-5.9-1.3-5.3-1.3-3.6-1.7-5.3.4-2.1,1.3-1.1,1.9-.6,2.7,2.5,4,1.5,3.8-1.1,2.1-3,.8-3.6,2.5-1.9,1.7-2.5.6-1.3,1.9-1.1,4.7-1.7.8-2.5,2.1-.6,4-2.7,2.5-1.3,3.2.8,4,9.3.4,4,.2,3.8-1.5,3.2-1.5,4.7-1.3,4.7.4,1.9,1.7,2.3,2.3,2.5,4.7-1.5,1.7-.2,2.1-1.3,2.1-4.4,1.1-2.3,2.1-1.3,3-.5,2.7c-.4.2-2,1.2-2.5,1.5a5.84,5.84,0,0,1-2.2.8,20.85,20.85,0,0,0-2.5,0A11.78,11.78,0,0,0,260,182a5.31,5.31,0,0,1-1.7.8c-.8.2-2.1-.2-2.8.3-.2.2-.2.6-.3.8a2.05,2.05,0,0,0,0,1.1c.2.5,1.2.8,1.4,1.4.5,1.2.1,2.9,0,4.2,0,1-.3,2.3-.3,3.3,0,.7.3,1.5.3,2.2a3.42,3.42,0,0,1-.3,1.7c-.4.6-1.4.9-1.9,1.4s-1.1,1.4-1.7,1.9a49.43,49.43,0,0,1-4.4,3.6c-1.2.9-3,1.8-4.2,2.8a22.65,22.65,0,0,0-3.3,4.2c-.5.7-.9,1.8-1.4,2.5a13.68,13.68,0,0,1-2.2,3,6.5,6.5,0,0,1-2.2,1.1c-.5.1-1.2-.2-1.7,0s-1.4.8-1.4,1.4.8,1.3,1.4,1.4c.4.1,1-.8,1.4-.6s.2,1.2.3,1.7a4.85,4.85,0,0,1,0,1.7l4.6-.1,2.5,2.7,5.8-.7,3.3-2.1,4.8-4.2,2.7-2.6,5.9.6,3.1-.3,1.6-2.5.3-2.5,5.9-.9,3.7-5,3.1-6.9.6-3.4,7.5,1.6,13.1-.9-1.2-6.5L306,188l-.3-4.4,1.6-3.4,3.7-.6h4.1l3.1,3.4,5.9,1.2,7.2-.3,6.2-1.2,5.3-2.8,5.3-4.4,3.7-5,1.6.6.9,5,4.4-.3,9,.9,5.3.6,6.2,2.2,3.4-2.5,3.1-3.7h6.5l2.2.3.3-2.8-6.8.1-.7-1.6-1.5-3.6-.4-3v-4.4l-4.4-.5-5.5,1.4-6.2-1.4-2.9-4.8-1.8.3-2.9-.5-1.6-2.4-5.2-4.7-1.1-1.9-.4-2.1-5.6-.5-4.1-3.8Z" transform="translate(0.36 0.73)"/><g id="International_borders" data-name="International borders"><path id="path3629" class="cls-13" d="M838,113.4l-7.9-15-61.2-35-14.4-.3-4.5.1-3.4-.9-2.8-.9-.6-1.6-2.1-.7-7-3.3L718,53.5l-5.8,2.1-15.7,8.3" transform="translate(0.36 0.73)"/><path id="path3642" class="cls-13" d="M716.6,602.1l-.3-5.2" transform="translate(0.36 0.73)"/><path id="path3640" class="cls-13" d="M716.3,596.9l-1.1-1.3-1.3-2.5.2-4.2,1.7-4.4,2.3-1.5,4-1.5,4.2-1.5,1.9-1.3,1.5-2.3.8-3.2-.2-3.4-1.7-3.6-.6-2.5,1.5-3.6,6.1-2.5,4.2-4,2.5-2.5,1.9-.8,2.1-3.6,2.1-1.1,5.1-.8.2-2.7.6-3.4,2.3-4,1.5-1.3,1.9-3,.4-2.3,3.2-2.5,2.1-1.1.2-2.3.4-7.2,4-4.9,4-8.2,2.5-5.1-.4-6.6-1.9-3.4-.6-5.9v-9.1l-7.4-6.6-.2-4.9,2.3-2.1,3.4-2.1,1.1-2.3-.6-5.3-.2-3.6,3.2-3.4,4.7-1.9,5.1-.8,6.1-.8,3.6,1.3.2,3V445l3.8,3.2,1.7,1.9,2.7.6.4-1.1,1.7-2.5.4-3.2,2.7-3.2,1.7-1.5,4.9.4,1.9,2.5.2,3.6-1.1,5.7-1.7,4.4-.4,3.4v4.7l1.1,3.6,2.7,5.7-.4,4.9-.8,3,3.4,1.9,3.6,2.3,2.7,1.9,1.7,4.9.8,2.7,2.7,3.8,3.2,3.2,6.1,3,3.4,1.9,4.9.2,2.5.8,3.2-.4,4.7-1.3,4.4-1.7,4,.8,1.5.6,1.9-1.5,1.1-3-.2-3.2.4-5.9,1.5-2.3,3.4-2.1,3.4,2.1,4.7,2.3,2.3-.4,2.3-1.5,2.5-1.7,1.7-3.2,4-1.3h6.3l2.5-1.1,1.9-1.1,3-1.5,3.4-.8,3.6.8,2.7-1.5,2.5-1.3,2.1,1.9,1.9,2.7,1.9,2.7,3.8,3.6.4,4.7-1.5.6.2,4.2,1.5,1.9V503l-.4,4.2,1.7,1.1,5.5,2.3,4.7,3.2,1.1,3.8-.6,5.3-.2,3.8,2.1,1.5,1.3,1.5,1.1-1.3,1.7-2.3,3.4-.2,3.8,1.1,3.4.2,1.9-.4,4.4-5.7,3.6-3.8-2.1-3.8-1.9-3.4-3-3.8-2.5-2.1-3-4-2.1-4.4-.6-3.4,1.3-4,1.1-4,.8-3.6.1-.6,1.8-1.6,2.8-1.2,3.9-3,.6-1.3L970,471l-2.7-3-1-2.2-.7-1.9s-2.4.9-3.4,1.3a17.65,17.65,0,0,1-2.8.7l-4,.4-2.2.3-2.8-1.3-1.9-.4-1.8-3.4-2.2-3.3.3-4.3.7-2.4-.7-2.4-.7-5.8,1.8-3.4.9-1.6.3-3.7V430l.6-2.7,4.6-4.8.9-3.1,2.2-1.9,3-1.3-.7-4.8,1.5-3.3,3.3-.6,2.7.6,1-.6,3.9-1.2,1.6-1.6,2.5-.7.9-2.1,3.3-.9,2.2.1,2.5,1h1.5l.9-1.6v-1l.9-1.9,2.7.1.4,1.3,1,2.8,2.1,2.7.4,1.6.1,3.4-2.4,1.9-.3,2.7,1.8,1.6,1.6.6,4.2.3,2.8,1.6,1.3,3,1.2,2.2.6,1.9,7.5-.1,2.8-1,6.1.3,2.8.9,5.2-.4,3.6.9,1.9,1.2,2.7.3,2.7-3.7,1-3.7,1.6-3.4.9-5.2-.1-6.9-3.3-3.6-1.9-2.4-4.6-1.8-4.8,1.2-2.8.4-1.8-1.2-.9-3.1-1.5-5.7-1.2-1.6-.4-6.3,1.3-1.6,6.6-6.3-.7-2.2-1.8-1.3-.9-2.2.6-1.6,2.5-2.2,3.9-2.4,3-1.6.1-1.5-1.9-3.1-1.6-2.4-.6-3.4.4-2.2,1.8-1.6,2.2-1.5,1.6-2.2-.1-2.5,1-3,1.8-3.1.9-3.9.3-2.4-.6-1.9.4-3.3-1.1-2.5a8.53,8.53,0,0,0,.3-2.3c.2-1,.5-2.4.8-3.4s.8-2,1.1-2.8a12.22,12.22,0,0,1,1.4-2.8c.4-.5,1.3-.9,1.7-1.4a4.49,4.49,0,0,0,.7-1.5l-.2-.2s-.4-2-.6-2.8a10.15,10.15,0,0,0-.6-2.5,8.18,8.18,0,0,0-2-2.5,6.77,6.77,0,0,0-2.3-1.4c-1.2-.4-3.1.2-4.2-.3-1.3-.5-2.1-2.6-3.4-3.1-.6-.2-1.6,0-2.1-.3l-.1-4.2-5.7-6.3-2.1-.6-4.5,1.2-4.2,1.8-.9,4.8-1.8,4.8-2.4,3.6-2.1.3.6,2.7-.3,3.6-3,2.1h-5.1l-3.3-.6-2.4-1.5-2.1,2.1-.6,3.9-1.5,3-.3,10.5-7.2-.3-3.9,2.1-4.2,3.9-5.1,2.1-11.4-.6-2.4-4.2-4.5.3-2.4-2.7-3-6-6-3.6-3.9-.6-4.2-4.5-7.5.9-3.6-2.1-6-3.9-4.2-2.1-1.5-1.5.3-2.1-.3-4.5-.9-2.4,1.8-6.3,1.8-2.4-.9-3.3-1.5-2.7-.6-3.3-6.3,3-3.6-.9-3.9-1.8-3.6-3.6-5.4-2.7-5.4-.6-7.2-1.2-5.7-3.3-8.1-1.8-3.4,1.3-3.7-.4-3.7-.9-1.6.7-1.3,1.2-3.7,1.2-2.8-.3-.9-1.8-2.7-1.9-3.7-.1-1.2,1.9-1.2,1.3-3.6.1-2.7-1.3c-.5-.7-1.8-.9-2.1-1.7a3.48,3.48,0,0,1,.4-2.2c.5-.7,1.7-.8,2.3-1.4.8-.8,1.3-2.2,2-3.1s2-2,2.5-3.1a14.73,14.73,0,0,0,.8-2.8c.2-.8.5-1.8.6-2.5a10.73,10.73,0,0,0,0-3.1,25.82,25.82,0,0,0-1.4-3.9c-.3-.9-.8-2-1.1-2.8-.4-1.2-.9-2.8-1.4-3.9s-1.3-2.5-1.7-3.7a13.8,13.8,0,0,1-.3-2c-.2-1-.6-2.4-.8-3.4-.2-.8-.4-2-.6-2.8-.2-1-.4-2.4-.6-3.4a23.08,23.08,0,0,1-.3-3.7,7.62,7.62,0,0,1,.6-2,20.11,20.11,0,0,1,2.3-2.8c.6-.8,1.4-2,2-2.8.8-1.2,2-2.7,2.8-3.9a19,19,0,0,0,2-3.7,21.3,21.3,0,0,0,.3-2.5,10.88,10.88,0,0,1,.3-3.1,6.93,6.93,0,0,1,2-2.5,11.92,11.92,0,0,1,2-.8,9.48,9.48,0,0,0,2-2,15.77,15.77,0,0,0,1.1-3.7,15.19,15.19,0,0,1,.6-2,5.79,5.79,0,0,1,1.4-1.7c.4-.3,1.2-.3,1.7-.6a10.12,10.12,0,0,0,3.1-3.4c.6-1,.9-2.6,1.4-3.7s1.4-2.3,2-3.4,1.1-2.8,1.7-3.9c.5-.9,1.4-1.9,2-2.8a19.82,19.82,0,0,0,1.1-2c.4-.7.4-1.9,1.1-2.3.4-.2,1,.2,1.4.3a19.3,19.3,0,0,0,3.4,0,6.93,6.93,0,0,0,2-.3c.7-.3,1.9-.7,2.3-1.4.3-.5-.1-1.4-.3-2a3.88,3.88,0,0,0-.6-1.1,12.21,12.21,0,0,0-2-2.5c-.2-.2-.7-.3-.8-.6a3.4,3.4,0,0,1,0-2c.1-.8.5-1.8.6-2.5a17.06,17.06,0,0,0-.3-4.5c-.3-1.6-1.8-3.5-1.7-5.1.1-1,1.5-2.1,1.4-3.1,0-.5-.6-1-.8-1.4a7.55,7.55,0,0,0-1.1-1.4c-.7-.4-2-.2-2.8-.6a12.42,12.42,0,0,1-2.3-1.7c-.4-.3-.9-1-1.4-1.1a1.91,1.91,0,0,0-.8.3,8.43,8.43,0,0,1-1.4.6h-.3c-.4,0-1,.2-1.4,0-.6-.3-1-1.4-1.4-2a5.55,5.55,0,0,0-.6-.8c-.5-.9-1.1-2.2-1.7-3.1a18.89,18.89,0,0,0-2-2,16.32,16.32,0,0,1-1.7-2,5.17,5.17,0,0,1-.5-1.9" transform="translate(0.36 0.73)"/><path id="path3649" class="cls-13" d="M694.3,628.1l1.3,1.6v2.1l1.7,4.4,3,4.9-.4,2.7-2.7,2.5-2.5,4v2.1l1.5.2,2.5-2.5,3.4.2,2.5,2.5,3,.6,3.2-.2,1.9.8.4,3.2,2.7.8,3.8-1.9.8-5.1.6-3,1.7-3.6,1.1-4.2,3.2-2.1,2.1-2.3.8-3-.8-.6s-2.3-3-3.2-4a20.65,20.65,0,0,0-3.4-2.5H718l-2.1-1.7-.6-2.3.4-3.2-1.5-2.5-1.7-2.1-1.3-3.6-.4-1.7,1.5-1.9,1.9-1.9,2.3-.6.1-2.2" transform="translate(0.36 0.73)"/><path id="path3655" class="cls-13" d="M686.8,612.4l2.3,1.3.4,2.9.4,5.4,2.7,3.9,1.7,2.2" transform="translate(0.36 0.73)"/><path id="path3660" class="cls-13" d="M658.2,565.7l3.1,1.6,3,2.5,1.6-.9,2.2-1.9,1-1.2,1.5.4,5.1,5.2,3.6,4.3,2.1,3,.3,3.1-1.9,2.1-1.6,1.2-.8.2-.2,1.6-.5,3.6-1.6,1.4-4,2.5-2.5,2.2-1,2.6,1.3,2.7h1.4l2.7.4,3.7,1.4,2.4,2.6,3.1,2.6,2.4,2.6,2.2.5" transform="translate(0.36 0.73)"/><path id="path3665" class="cls-13" d="M646.1,566.9l2.9,1.3,5.7-4.9,3.5,2.4" transform="translate(0.36 0.73)"/><path id="path3670" class="cls-13" d="M222.1,473.6l.8,5.5-1.5,2.5-2.3,2.3-4,1.3.8,2.1,2.5,3.2,1.7,3.6,1.3,1.9,1.7.4,3.6,2.5,1.5,2.1,1.5,1.9,3,.8,1.9,2.7v5.1l-.8,4.7-2.7,4.7-4.2,5.7-3,5.9.6,5.3.4,5.7-3.6,2.1-3,4.2-.8,2.3,2.1,1.7,2.3,2.7,5.7-.2,3-.4,3-.4,4.2,1.7,5.1,1.3,1.7,3-1.5,2.5.6,6.1-.4,3.2-2.1,1.7-.6,4.7.2,3,2.5-.4,1.5-1.7,1.5-3,.6-1.5,3.6-.2,1.9.6,1.9,3.8,1.9.6,2.7,4,3.6,5.9,4.7,5.7,3.4,6.1,1.1,4.4-1.5,4,3.4.8,3.4.8.4,4.9v4.7l2.7,3s3.4,4.9,4.4,6.1a21.57,21.57,0,0,1,2.3,4l2.3,3.8,1.5,4.2.8,1.9,1.7-.2,2.1-4,2.5-2.7,4.9-.4,4.2,3.4,2.3,3,1.9.4v-4.4l.2-2.7,2.5-2.3h2.7l3.8-.4,2.3-.3,3-.6,1.8-1.8,2.4-3.6,1.2-2.7,4.5.6,5.1,1.1,4-.2,4.4,1.7,3.9,1.8,1.8-1.5,1.8-.9,2.7-.6,1.5-3,3.9-1.8,4.8-2.7,2.1-.9-.6-.9,1.5-4.5,2.1-.3,2.1-1.5,2.1-.9,3.6-.6h2.7l2.7-1.8-.6-2.4,1.8-3.6,1.6-.4,1.9-.8,3.2,1.5,3.4,3.8,3.8.6,6.1-1.1,5.1.6,3,1.9,1.5,1.9,3,2.1,3.4,2.1,1.3,5.3,1.7.8,1.1-.4,4.9-2.3,3.2-.2,4.2,1.3,4.7,4.4,4-2.7,4.4.8,3.8.2,2.7-1.5v-1.1l-.6-7.6,1.3-4.7,4-4.4,4.2-2.7,17.3-1.1,2.7-2.5,2.5-5.3,2.1-4.7,3-2.5-1.9-3.6.2-8,1.3-2.1,3.8-3.6,5.7-3,4.4-.4h3.8l.6-3,2.1-3.6,3.2-2.7,3-.8.2-1.7-.8-4.7,3.2-3-.6-4-2.3-2.3-1.5-5.1-.4-3.8-3.2-4.4-4-3.4-5.5-2.7.4-3.6,3-2.7,3.6-5.5,3.4-3.4,3.2-1.3,3.8.4,3.8,1.5,4-1.1,4.7-5.9,1.9-3.2V492l1.9-1.5,3.8-1.3,2.3-3.8,3.4-2.1,7.6-3.2,1.7-3.4-1.1-3-3.4-.8-2.5-2.3,1.1-4.2,1.9-2.5,4.4-1.1,4.9-3.4,8.9-4.2,6.1-3,5.1-.8,4.2,1.5,3.4,6.3.4,2.7-.4,5.5v12.5l.6,7.2-.8,5.5-2.7,5.3-3,3.6-.8,4.9,3.6,4.9,1.3,3.8-.4,2.1.8,3,4.7,4,5.9,3.4,5.9,3.2,3.4,5.1,5.7,8.5,3.4,3.2.4,3.8,4.2,4.5,1.9,4,2.4.3,3,.6,2.1,1.8,2.8,1.6,3.9.4,2.2,1.6,1.7.8" transform="translate(0.36 0.73)"/><path id="path3714" class="cls-13" d="M222.1,473.6l-.8-8.7-33.6-7.4-34.3,1.7-37.2,13.3L98.4,487.1l-9.9,19.2,4.6,5.1h0l1.9,4,3.2,2.3,1.9,1.9h3l1.9-.6.4-1.3h1.3l1.9,1.1.2,1.9.2,2.5-1.5,1.7-1.7,2.5-3,1.5-3.6,1.5-3,1.5-3.4.8-2.1,2.1-3,3.4-2.5,3-3,3.4-2.7,1.9-2.7,1.3-3,1.7-1.9,1.7-2.3,1.1-3.4-.4-3.8-.8-4.7-.2-2.7-.8-1.5.2-1.7,1.5L49.9,555l-4.2-1.1-4.2-.8-4.2.2.4-2.3,1.5-3.4,1.3-3.2.2-3.6-.6-1.5-1.9-.6-1.9-1.1.6-1.9,2.1-3.4,2.7-.6,1.1-1.5,1.3-1.9,1.5-1.7,1.9-.6,1.5.2,3.2.2,2.1-.2,1.9-1.7s.6-.2,1.9-.6a23.92,23.92,0,0,1,3.8-.6l3.6-1.3,2.3-1.1,1.1-2.1-.2-3.6L67,513.1v-3.4l1.5-3,1.3-1.5.6-5.3,2.5-2.3,2.7-4.7,2.5-4,.2-4-1.5-3.4-6.6-6.8-6.8-4.9-4.9-3.2,2.1-3.6.8-4.2-.4-7.4,2.5-4.4,3.6-5.5,3-4.4,2.7-3,3.8-3.2L75.3,425l-2.1-2.7L67.5,416l2.5-3.6,4.9-4.4,10.2-9.3,12.7-11.6,4.2-4.4,4.4-4,5.1-2.1,10.2-6.8,7.4-6.8.6-2.7,1.9-1.1,4.9-1.1,3.6-2.1,3-3.2,3-4.2-1.3-3.2-3.4-1.7-1.5-1.7-.8-2.1,2.1-1.5.4-5.1.2-2.3,2.1-1.9,3.2-3.8.2-6.8.6-6.1-2.5-2.3-2.7-3.8-2.5-3.2,3.8-5.7,5.7-6.3,3.2-3.4,1.7.4,2.7-1.1,4.7-1.7,5.7-2.1,6.1-2.3,2.7-1.5,5.7-.2,1.9-1.3,3-4.7,3-5.9,3.4-1.9,2.5-.2,2.5-1.1.2-1.9-.6-1.9-2.5-.8v-1.9l.8-1.9h3.4l1.1-1.7.8-1.7.4-3,1.1-.8,3.8.2,3.4-.8.8-1.9-1.9-4,.9-.3a13.3,13.3,0,0,0,1.9-1.4c.5-.5.9-1.5,1.4-1.9a3.92,3.92,0,0,1,1.4-.8c1.1-.2,2.6.6,3.6.3s2.1-1.6,3-2.2c1.2-.9,3-1.9,4.2-2.8s2.5-2.1,3.6-3c1.8-1.6,4.9-3.3,5.8-5.5a4.85,4.85,0,0,0,0-1.7c0-.5.2-1.4-.3-1.7s-.9.6-1.4.6-1.4-.8-1.4-1.4.8-1.2,1.4-1.4,1.2.1,1.7,0a6.5,6.5,0,0,0,2.2-1.1,12.88,12.88,0,0,0,2.2-3c.5-.7.9-1.8,1.4-2.5a26.52,26.52,0,0,1,3.3-4.2,43.77,43.77,0,0,1,4.2-2.8,38.33,38.33,0,0,0,4.4-3.6c.5-.5,1.1-1.4,1.7-1.9s1.6-.8,1.9-1.4a3.23,3.23,0,0,0,.3-1.7c0-.7-.3-1.5-.3-2.2,0-1,.2-2.3.3-3.3.1-1.2.5-3,0-4.2-.2-.5-1.2-.8-1.4-1.4a2.05,2.05,0,0,1,0-1.1c0-.3.1-.7.3-.8.7-.5,2,0,2.8-.3a13,13,0,0,0,1.7-.8c.7-.4,1.4-1.4,2.2-1.7a20.85,20.85,0,0,1,2.5,0,5.84,5.84,0,0,0,2.2-.8c.5-.3,2.1-1.3,2.5-1.5l.5-2.7,1.3-3,2.3-2.1,4.4-1.1,1.3-2.1.2-2.1,1.5-1.7-2.5-4.7-2.3-2.3-1.9-1.7-4.7-.4-4.7,1.3-3.2,1.5-3.8,1.5-4-.2-9.3-.4-.8-4,1.3-3.2,2.7-2.5.6-4,2.5-2.1,1.7-.8,1.1-4.7,1.3-1.9,2.5-.6,1.9-1.7,3.6-2.5,3-.8,1.1-2.1-1.5-3.8-2.5-4,.6-2.7,1.1-1.9,2.1-1.3,5.3-.4,3.6,1.7,5.3,1.3,5.9,1.3,4-1.9,3.6-1.5h3l3.2,2.3,1.7,2.1,3.4,1.1,3.2-1.3v3.4L307,125l-1.5,3.4v4.2l1.3,1.1,4,1.3,4.2,1.9,4.2-.4,1.7,2.3,3.3,1.9c.4-.5.9-1.1,1.3-1.5a13.24,13.24,0,0,1,2-1.2,20,20,0,0,1,2.6-1c.7-.2,1.7-.4,2.4-.6a18,18,0,0,1,2.2-.6c1.1-.2,2.5-.3,3.6-.4a40.12,40.12,0,0,1,6-.2c1,.1,2.3.8,3.4,1s3,.1,4.2.4a5.17,5.17,0,0,1,1.3.6l3.7-1.9,4-3.4,1.9-4,1.5-1.5,1.6-1.3.5-.6,1.7-1.7-2.5-2.3-2.3-1.5-1.9-.6,2.3-2.7,1.9-.2,1.9,1.1,2.5,2.5a3,3,0,0,0,2.1,1.9c1.5.2,5.1-1.3,5.1-1.3l2.3-2.7,2.3-3.4v-3.8l-1.9-2.3-.6-4.4,2.7-3.6,3.6-1.2,3.2-.7,2.8-.3,2.8-1.4,2.9-2.9.7-4.2,3.4-3.7,2.5-1.2,3.1-.3,2.8-1.1,2.1-1.1,2.3-1.7,1.5.2-.2,1.3-1.9,1.9.2,2.3,1.7.6.4.8v1.1L414,89.4l-2.1-.2-.6,1.3-.8,2.1-1.6,1.7c.6.6.7,2,1.3,2.8a24.33,24.33,0,0,0,2,2.5,16.32,16.32,0,0,0,1.7,2,12.22,12.22,0,0,0,2.8,1.4,7.32,7.32,0,0,0,2.5.8,12.9,12.9,0,0,0,2.8-.8,25.94,25.94,0,0,0,3.7-1.1c.6-.3,1.1-.9,1.7-1.1a17.68,17.68,0,0,1,3.1-.8c.8-.2,2-.4,2.8-.6,1.1-.2,2.6-.5,3.7-.8.9-.3,2-.8,2.8-1.1,1.2-.4,2.8-.7,3.9-1.1a9.2,9.2,0,0,0,2.8-1.4,13.66,13.66,0,0,0,2.3-2.5,16.29,16.29,0,0,0,1.1-3.1,16.68,16.68,0,0,1,.8-2,2,2,0,0,1,.8-.8,2.23,2.23,0,0,1,1.4,0c.7.2,1.5.9,2.3,1.1a6.93,6.93,0,0,0,2,.3,5.08,5.08,0,0,0,1.7-.3,8.43,8.43,0,0,0,1.4-.6,6.38,6.38,0,0,1,1.4-.8,10.68,10.68,0,0,1,2.5-.3,5.08,5.08,0,0,1,1.7.3,5.64,5.64,0,0,1,2,1.1,7.82,7.82,0,0,1,1.1,2,16.67,16.67,0,0,1,.8,2c.2.4.4,1,.6,1.4a13.8,13.8,0,0,1,.3,2,7.62,7.62,0,0,0,.6,2,3.81,3.81,0,0,0,1.1,1.4c.7.5,2.1.6,2.8,1.1.3.3.4,1,.8,1.1a2.9,2.9,0,0,0,2.5-.6c.5-.3.8-1.2,1.1-1.7a7.18,7.18,0,0,1,1.4-2,7,7,0,0,1,2.5,0c1,0,2.4.2,3.4.3a19.53,19.53,0,0,1,3.4.3,8.87,8.87,0,0,0,1.7.8,18.11,18.11,0,0,0,2.3.3,22.85,22.85,0,0,0,3.7,0,9.77,9.77,0,0,0,2.3-.6,7.55,7.55,0,0,0,1.4-1.1,13.44,13.44,0,0,0,1.4-1.1c.4-.4.7-1.1,1.1-1.4a2.28,2.28,0,0,1,1.1-.3,6.38,6.38,0,0,1,1.4.8c.4.2.7.7,1.1.8a8.77,8.77,0,0,0,2.8,0c.3,0,.8.2,1.1,0s.6-1,.8-1.4a5.31,5.31,0,0,0,.8-1.7,13.36,13.36,0,0,0,0-2c0-.2-.1-.4,0-.6a3.33,3.33,0,0,1,1.4-1.7c.4-.2,1,.1,1.4,0a9.77,9.77,0,0,0,2.3-.6l.6-.3a27.25,27.25,0,0,0,2.5-2.3,7.55,7.55,0,0,1,1.4-1.1c.7-.3,1.8.1,2.5,0a4.51,4.51,0,0,0,1.1-.3c.7-.3,1.6-.8,2.3-1.1.5-.3,1.3-.4,1.7-.8.2-.3.1-.8.3-1.1.6-1.1,2.1-2,3.1-2.8.5-.4,1.2-.7,1.7-1.1s.6-1.2,1.1-1.4a2,2,0,0,1,1.7.3c.3.2.3.8.6,1.1a5.58,5.58,0,0,0,2,1.4c.3.1.8.2,1.1.3h1.1c.9-.1,2.2-.5,3.1-.6a6.7,6.7,0,0,1,2,0c.5.1,1.2.5,1.7.6.8.1,1.8-.1,2.5,0a4.65,4.65,0,0,1,2.3.6,2.48,2.48,0,0,1,.8,1.4c.3.8-.1,2,.3,2.8.5,1,1.8,1.8,2.5,2.5.9.9,1.4,2.8,3.1,3.1s1.4,1,2,1.4c1,.6,2.3,2,3.4,2s2.6.5,3.7.6,2.4,0,3.4,0,2.4.6,3.1,0c.3-.2.1-.8.3-1.1a4.62,4.62,0,0,1,1.7-1.7,2.05,2.05,0,0,1,1.1,0,8.43,8.43,0,0,1,1.4.6,8.86,8.86,0,0,0,1.7.8,10.68,10.68,0,0,0,2.5.3,28.64,28.64,0,0,0,4.2-.3c1-.2,2.4-.6,3.4-.8,1.4-.3,3.3-.4,4.5-1.1.5-.3.6-1.2,1.2-1.4l.5-2.3-2.7.4-3-.8-1.1-1.3.6-2.3.4-1.9,1.1-2.3,2.3-1.5,1.9-1.1,2.7-1.5,3.4-1.7,2.7-.2,1.5,1.3,2.1,1.5,1.9.6,2.1,1.1,1.1,1.7.6,1.7-.8,1.5.8,1.3,1.9.8,1.5.2.9.1c.7-.7,1.6-1.4,2.1-2a6.44,6.44,0,0,0,1.1-2,8.92,8.92,0,0,0,.3-2.8,10.07,10.07,0,0,0-.3-2.5c-.1-.4-.5-1-.6-1.4a10.68,10.68,0,0,1-.3-2.5,6.93,6.93,0,0,1,.3-2c.2-.7.1-2.3.8-2.3.5,0,.4,1.2.6,1.7s0,1.1.3,1.4.6.2.8.3a4.51,4.51,0,0,0,1.1.3,3.52,3.52,0,0,0,2-1.4,6.55,6.55,0,0,0,.3-2.8,6,6,0,0,0-.6-2.3c-.4-.6-1.3-.8-1.7-1.3l-1.4-1.5-.8-.8-1.6-1-1.5-.5-1.1.3-1.5.7-2.7-.1-3.5-.1-1.6.4-.4.8-1.4.7-.9,1-1.6.6-.6,2.1.6.9-.3.4-6.4-.1-3.3.7-.7,1-.4.7-1-.3-.3-1,.3-1.5-.3-2.1-1-.6h-5.6l-1.6-1.5-1.9-1.5-1.8-.4.3-2.4,1.3-2.7.3-1.8-.9-2.8,1.2-2.4,2.2-2.1,2.1-1.9,1.8-1.8,1.2-2.1.6-2.2,1-2.4.9-2.2L597,29l1.6-1.5,1.9-1.5,2.4-1.2,2.7-.6h1.9l1.6-.4,1.8-1.2,1.8-.9,2.7.6,1.9-.1,1.3-1.3-.3-1.9-.6-1.6-1-.9.3-1.9,1.6-.4h2.8l3.4.9,1.6.7,3.3,1.3-.4,1.6-.1,1.5.1,2.1L630,24l.9,2.4,1.5,1.3,2.1.4.9-1,1.3-2.5-1.2-4.2-.3-2.1.3-1.5,2.1,1.8,1.9,1.8,1.6,1.5,1.2,1.2.4,1.2v1.8l-.3,3,.3,1.2,1.9-.1.7-1,1.9-.9,1.9-.1,2.5,1.2.9,2.7-.9.7L650,35.2l-.9,2.2.4,2.2,1.9,1.6,1.3,1.9-.3,2.1-1.6.3-1.5-.3-1.2-1.5-1-.7-2.8-.3-2.1.1-1.9.3-.9.9-1,1.5.3,1.6-.4,1.9-.3,1.6.5,1.2c.5.5.5.7.8.7.5.1,1-.6,1.4-.8a8.43,8.43,0,0,0,1.4-.6c.7-.4,1.2-1.5,2-1.7a3.52,3.52,0,0,1,2,.3c.5.2.9.7,1.4.8a6.93,6.93,0,0,0,2-.3,23.08,23.08,0,0,1,3.7-.3,1.91,1.91,0,0,1,.8.3c.6.2,1.4.6,2,.8s1.4.4,2,.6a6.93,6.93,0,0,1,2,.3c.6.3,1.1,1.1,1.7,1.4a18.89,18.89,0,0,0,2.5,1.1,15.67,15.67,0,0,0,3.1.8l.9-1.8.6-1.6,1-1.9.4-1.5-1-1.2-1.5-.9-1.8-.3-1.5-.6-.9-1.2.4-1.2-.1-1.5,1.3-1,1.5-1.2,1.2-.7,1-.3,1.5.3.1.7.7,1.6,1,.4,1.8.9,2.5.9,1.2.3,2.4.7,2.1,1.6,1.6.9.4,1.5-.7.6-1.2.3-1.3-.3-1.2,1.2v1.8l1.9,2.2,1.2,2.7.6.9,1.3,1.5.9,1.5.1,1.7c1,.5,2.1,1.5,3.1,2a7.62,7.62,0,0,0,2,.6,8.81,8.81,0,0,0,5.1-1.3" transform="translate(0.36 0.73)"/><path id="campione" class="cls-13" d="M706.6,607.2l1.1,1.1,1.1-.2.8-1.1.8-1.3-.2-1.6-.8-.3-1.7,1.7-1.1,1.7" transform="translate(0.36 0.73)"/></g><g class="cls-14"><path d="M399.67,330.89h3.66a3.07,3.07,0,0,1,3.34,3.34c0,1.8-.86,2.6-1.64,2.88a3.22,3.22,0,0,1,2.08,3.38,3.66,3.66,0,0,1-3.88,4h-3.56Zm3.14,5.62c1.66,0,2.24-.72,2.24-2.14a1.88,1.88,0,0,0-2.08-2.1h-1.66v4.24Zm-1.5,6.6h1.76c1.52,0,2.36-.9,2.36-2.62a2.32,2.32,0,0,0-2.64-2.62h-1.48Z" transform="translate(0.36 0.73)"/><path d="M415.13,338.06h-4.5v5h5l-.22,1.46H409V330.89h6.36v1.48h-4.72v4.2h4.5Z" transform="translate(0.36 0.73)"/></g><g class="cls-14"><path d="M616.42,135.49l5.68-10.9h-5.24v-1.48h7.08v1.36l-5.56,10.74h5.72l-.24,1.48h-7.44Z" transform="translate(0.36 0.73)"/><path d="M625.56,123.11h1.66v5.66h4.2v-5.66h1.66v13.58h-1.66v-6.44h-4.2v6.44h-1.66Z" transform="translate(0.36 0.73)"/></g><g class="cls-14"><path d="M500.91,248.78h1.66V260.9h4.82l-.22,1.46h-6.26Z" transform="translate(0.36 0.73)"/><path d="M510,248.78v9.5c0,1.42.4,2.86,2.14,2.86s2.14-1.2,2.14-2.86v-9.5H516v9.52c0,2.46-.9,4.28-3.84,4.28s-3.78-1.7-3.78-4.22v-9.58Z" transform="translate(0.36 0.73)"/></g><g class="cls-14"><path d="M617.38,344v9.5c0,1.42.4,2.86,2.14,2.86s2.14-1.2,2.14-2.86V344h1.66v9.52c0,2.46-.9,4.28-3.84,4.28s-3.78-1.7-3.78-4.22V344Z" transform="translate(0.36 0.73)"/><path d="M627.5,351.44v6.16h-1.66V344h3.66a3.21,3.21,0,0,1,3.54,3.54c0,2-1,2.88-1.8,3.16,1.22.46,1.62,1.54,1.62,3.46v.54a15.1,15.1,0,0,0,.2,2.88H631.4a13.23,13.23,0,0,1-.2-2.92v-.46c0-1.92-.4-2.78-2.18-2.78Zm0-1.4h1.62c1.62,0,2.22-.88,2.22-2.42,0-1.32-.6-2.2-2.06-2.2H627.5Z" transform="translate(0.36 0.73)"/></g><g class="cls-14"><path d="M648.26,258.74c.12,1.36.74,2.44,2.18,2.44s2.06-.76,2.06-2.22-.58-2.12-2.4-3c-2.16-1-3.1-2-3.1-3.94a3.24,3.24,0,0,1,3.5-3.42c2.7,0,3.42,1.92,3.46,3.54h-1.64c-.08-.68-.28-2.16-1.88-2.16a1.67,1.67,0,0,0-1.76,1.88c0,1.24.54,1.84,2.22,2.62,2.38,1.14,3.3,2.26,3.3,4.34a3.47,3.47,0,0,1-3.8,3.74c-2.8,0-3.7-1.82-3.8-3.82Z" transform="translate(0.36 0.73)"/><path d="M655.24,261.16l5.68-10.9h-5.24v-1.48h7.08v1.36l-5.56,10.74h5.72l-.24,1.48h-7.44Z" transform="translate(0.36 0.73)"/></g><g class="cls-14"><path d="M531.37,326.43c0,4.68-1.14,7.1-4.12,7.1-2.82,0-4-2.34-4-7.08s1.42-6.9,4.12-6.9S531.37,321.81,531.37,326.43Zm-6.44,0c0,3.74.74,5.7,2.36,5.7s2.36-1.88,2.36-5.68-.72-5.42-2.36-5.42S524.93,322.85,524.93,326.41Z" transform="translate(0.36 0.73)"/><path d="M535.13,333.33l-2.66-13.58h1.78c.82,4.52,1.64,9.26,1.82,11.26h0c.28-2,1.6-8.08,2.22-11.26h1.58c.6,3,1.92,9.26,2.16,11.18h0c.28-2.46,1.48-8.18,2-11.18h1.66l-2.86,13.58h-1.74c-.6-3-1.8-8.78-2.1-10.92h0c-.34,2.28-1.56,8-2.18,10.92Z" transform="translate(0.36 0.73)"/></g><g class="cls-14"><path d="M568.23,302.21V288.63h2c3.58,9,4.1,10.34,4.28,11h0c-.1-1.8-.12-3.84-.12-6v-4.92H576v13.58H574c-3.7-9.52-4.2-10.8-4.36-11.34h0c.1,1.68.12,3.86.12,6.3v5Z" transform="translate(0.36 0.73)"/><path d="M580.23,302.21l-2.66-13.58h1.78c.82,4.52,1.64,9.26,1.82,11.26h0c.28-2,1.6-8.08,2.22-11.26H585c.6,3,1.92,9.26,2.16,11.18h0c.28-2.46,1.48-8.18,2-11.18h1.66L588,302.21h-1.74c-.6-3-1.8-8.78-2.1-10.92h0c-.34,2.28-1.56,8-2.18,10.92Z" transform="translate(0.36 0.73)"/></g><g class="cls-14"><path d="M722.63,290.4h-1.3a8.47,8.47,0,0,1-.1-1.4,2.69,2.69,0,0,1-2.72,1.6c-2.92,0-3.74-2.92-3.74-7,0-4.72,1.48-7,4.28-7,3.34,0,3.54,2.94,3.58,3.76H721c0-.5-.14-2.3-2-2.3s-2.48,2.22-2.48,5.54.48,5.56,2.34,5.56,2.14-1.44,2.14-4.12v-.68h-2.26v-1.46h3.9Z" transform="translate(0.36 0.73)"/><path d="M725,276.82h1.66v12.12h4.82l-.22,1.46H725Z" transform="translate(0.36 0.73)"/></g><g class="cls-14"><path d="M598.41,235.22l5.68-10.9h-5.24v-1.48h7.08v1.36l-5.56,10.74h5.72l-.24,1.48h-7.44Z" transform="translate(0.36 0.73)"/><path d="M614.73,236.42h-1.3a8.47,8.47,0,0,1-.1-1.4,2.69,2.69,0,0,1-2.72,1.6c-2.92,0-3.74-2.92-3.74-7,0-4.72,1.48-7,4.28-7,3.34,0,3.54,2.94,3.58,3.76h-1.66c0-.5-.14-2.3-2-2.3s-2.48,2.22-2.48,5.54.48,5.56,2.34,5.56,2.14-1.44,2.14-4.12v-.68h-2.26v-1.46h3.9Z" transform="translate(0.36 0.73)"/></g><g class="cls-14"><path d="M282.77,374h6.38v1.48h-4.72v4.34h4.44v1.46h-4.44v6.3h-1.66Z" transform="translate(0.36 0.73)"/><path d="M292.43,381.42v6.16h-1.66V374h3.66a3.21,3.21,0,0,1,3.54,3.54c0,2-1,2.88-1.8,3.16,1.22.46,1.62,1.54,1.62,3.46v.54a15.14,15.14,0,0,0,.2,2.88h-1.66a13.22,13.22,0,0,1-.2-2.92v-.46c0-1.92-.4-2.78-2.18-2.78Zm0-1.4H294c1.62,0,2.22-.88,2.22-2.42,0-1.32-.6-2.2-2.06-2.2h-1.78Z" transform="translate(0.36 0.73)"/></g><g class="cls-14"><path d="M402.79,175.44c.12,1.36.74,2.44,2.18,2.44s2.06-.76,2.06-2.22-.58-2.12-2.4-3c-2.16-1-3.1-2-3.1-3.94a3.24,3.24,0,0,1,3.5-3.42c2.7,0,3.42,1.92,3.46,3.54h-1.64c-.08-.68-.28-2.16-1.88-2.16a1.67,1.67,0,0,0-1.76,1.88c0,1.24.54,1.84,2.22,2.62,2.38,1.14,3.3,2.26,3.3,4.34a3.47,3.47,0,0,1-3.8,3.74c-2.8,0-3.7-1.82-3.8-3.82Z" transform="translate(0.36 0.73)"/><path d="M418.33,172.16c0,4.68-1.14,7.1-4.12,7.1-2.82,0-4-2.34-4-7.08s1.42-6.9,4.12-6.9S418.33,167.53,418.33,172.16Zm-6.44,0c0,3.74.74,5.7,2.36,5.7s2.36-1.88,2.36-5.68-.72-5.42-2.36-5.42S411.89,168.57,411.89,172.14Z" transform="translate(0.36 0.73)"/></g><g class="cls-14"><path d="M400,63.8h3.66A3.07,3.07,0,0,1,407,67.14c0,1.8-.86,2.6-1.64,2.88a3.23,3.23,0,0,1,2.08,3.38,3.66,3.66,0,0,1-3.88,4H400Zm3.14,5.62c1.66,0,2.24-.72,2.24-2.14a1.88,1.88,0,0,0-2.08-2.1h-1.66v4.24Zm-1.5,6.6h1.76c1.52,0,2.36-.9,2.36-2.62a2.32,2.32,0,0,0-2.64-2.62h-1.48Z" transform="translate(0.36 0.73)"/><path d="M410.35,73.76c.12,1.36.74,2.44,2.18,2.44s2.06-.76,2.06-2.22-.58-2.12-2.4-3c-2.16-1-3.1-2-3.1-3.94a3.24,3.24,0,0,1,3.5-3.42c2.7,0,3.42,1.92,3.46,3.54h-1.64c-.08-.68-.28-2.16-1.88-2.16a1.67,1.67,0,0,0-1.76,1.88c0,1.24.54,1.84,2.22,2.62,2.38,1.14,3.3,2.26,3.3,4.34a3.47,3.47,0,0,1-3.8,3.74c-2.8,0-3.7-1.82-3.8-3.82Z" transform="translate(0.36 0.73)"/></g><g class="cls-14"><path d="M431.89,129.53h3.66a3.07,3.07,0,0,1,3.34,3.34c0,1.8-.86,2.6-1.64,2.88a3.22,3.22,0,0,1,2.08,3.38,3.66,3.66,0,0,1-3.88,4h-3.56Zm3.14,5.62c1.66,0,2.24-.72,2.24-2.14a1.88,1.88,0,0,0-2.08-2.1h-1.66v4.24Zm-1.5,6.6h1.76c1.52,0,2.36-.9,2.36-2.62a2.32,2.32,0,0,0-2.64-2.62h-1.48Z" transform="translate(0.36 0.73)"/><path d="M441.21,129.53h1.66v12.12h4.82l-.22,1.46h-6.26Z" transform="translate(0.36 0.73)"/></g><g class="cls-14"><path d="M603.37,44.93c.12,1.36.74,2.44,2.18,2.44s2.06-.76,2.06-2.22-.58-2.12-2.4-3c-2.16-1-3.1-2-3.1-3.94a3.24,3.24,0,0,1,3.5-3.42c2.7,0,3.42,1.92,3.46,3.54h-1.64c-.08-.68-.28-2.16-1.88-2.16A1.67,1.67,0,0,0,603.79,38c0,1.24.54,1.84,2.22,2.62,2.38,1.14,3.3,2.26,3.3,4.34a3.47,3.47,0,0,1-3.8,3.74c-2.8,0-3.7-1.82-3.8-3.82Z" transform="translate(0.36 0.73)"/><path d="M611.21,35h1.66v5.66h4.2V35h1.66V48.55h-1.66V42.11h-4.2v6.44h-1.66Z" transform="translate(0.36 0.73)"/></g><g class="cls-14"><path d="M760.48,161.88l-.94,4.14h-1.66l3.26-13.58h2.16L766.64,166h-1.78l-.94-4.14Zm3.12-1.48c-.74-3.18-1.22-5.26-1.42-6.38h0c-.18,1.18-.72,3.56-1.34,6.38Z" transform="translate(0.36 0.73)"/><path d="M769.74,159.86V166h-1.66V152.44h3.66a3.21,3.21,0,0,1,3.54,3.54c0,2-1,2.88-1.8,3.16,1.22.46,1.62,1.54,1.62,3.46v.54a15.18,15.18,0,0,0,.2,2.88h-1.66a13.22,13.22,0,0,1-.2-2.92v-.46c0-1.92-.4-2.78-2.18-2.78Zm0-1.4h1.62c1.62,0,2.22-.88,2.22-2.42,0-1.32-.6-2.2-2.06-2.2h-1.78Z" transform="translate(0.36 0.73)"/></g><g class="cls-14"><path d="M788.45,178.77l-.94,4.14h-1.66l3.26-13.58h2.16l3.34,13.58h-1.78l-.94-4.14Zm3.12-1.48c-.74-3.18-1.22-5.26-1.42-6.38h0c-.18,1.18-.72,3.56-1.34,6.38Z" transform="translate(0.36 0.73)"/><path d="M797.71,169.33v13.58h-1.66V169.33Z" transform="translate(0.36 0.73)"/></g><g class="cls-14"><path d="M741,215.53c.12,1.36.74,2.44,2.18,2.44s2.06-.76,2.06-2.22-.58-2.12-2.4-3c-2.16-1-3.1-2-3.1-3.94a3.24,3.24,0,0,1,3.5-3.42c2.7,0,3.42,1.92,3.46,3.54h-1.64c-.08-.68-.28-2.16-1.88-2.16a1.67,1.67,0,0,0-1.76,1.88c0,1.24.54,1.84,2.22,2.62,2.38,1.14,3.3,2.26,3.3,4.34a3.47,3.47,0,0,1-3.8,3.74c-2.8,0-3.7-1.82-3.8-3.82Z" transform="translate(0.36 0.73)"/><path d="M756.25,219.15H755a8.35,8.35,0,0,1-.1-1.4,2.69,2.69,0,0,1-2.72,1.6c-2.92,0-3.74-2.92-3.74-7,0-4.72,1.48-7,4.28-7,3.34,0,3.54,2.94,3.58,3.76h-1.66c0-.5-.14-2.3-2-2.3s-2.48,2.22-2.48,5.54.48,5.56,2.34,5.56,2.14-1.44,2.14-4.12v-.68h-2.26v-1.46h3.9Z" transform="translate(0.36 0.73)"/></g><g class="cls-14"><path d="M848.18,391.45h-1.3a8.47,8.47,0,0,1-.1-1.4,2.69,2.69,0,0,1-2.72,1.6c-2.92,0-3.74-2.92-3.74-7,0-4.72,1.48-7,4.28-7,3.34,0,3.54,2.94,3.58,3.76h-1.66c0-.5-.14-2.3-2-2.3s-2.48,2.22-2.48,5.54.48,5.56,2.34,5.56,2.14-1.44,2.14-4.12v-.68h-2.26V384h3.9Z" transform="translate(0.36 0.73)"/><path d="M852.18,385.28v6.16h-1.66V377.86h3.66a3.21,3.21,0,0,1,3.54,3.54c0,2-1,2.88-1.8,3.16,1.22.46,1.62,1.54,1.62,3.46v.54a15.1,15.1,0,0,0,.2,2.88h-1.66a13.23,13.23,0,0,1-.2-2.92v-.46c0-1.92-.4-2.78-2.18-2.78Zm0-1.4h1.62c1.62,0,2.22-.88,2.22-2.42,0-1.32-.6-2.2-2.06-2.2h-1.78Z" transform="translate(0.36 0.73)"/></g><g class="cls-14"><path d="M519.7,130.68l-.94,4.14H517.1l3.26-13.58h2.16l3.34,13.58h-1.78l-.94-4.14Zm3.12-1.48c-.74-3.18-1.22-5.26-1.42-6.38h0c-.18,1.18-.72,3.56-1.34,6.38Z" transform="translate(0.36 0.73)"/><path d="M534.7,134.82h-1.3a8.47,8.47,0,0,1-.1-1.4,2.69,2.69,0,0,1-2.72,1.6c-2.92,0-3.74-2.92-3.74-7,0-4.72,1.48-7,4.28-7,3.34,0,3.54,2.94,3.58,3.76H533c0-.5-.14-2.3-2-2.3s-2.48,2.22-2.48,5.54.48,5.56,2.34,5.56,2.14-1.44,2.14-4.12v-.68H530.8v-1.46h3.9Z" transform="translate(0.36 0.73)"/></g><g class="cls-14"><path d="M722.15,75.39h-3V73.91h7.68v1.48h-3v12.1h-1.66Z" transform="translate(0.36 0.73)"/><path d="M735.16,87.49h-1.3a8.47,8.47,0,0,1-.1-1.4,2.69,2.69,0,0,1-2.72,1.6c-2.92,0-3.74-2.92-3.74-7,0-4.72,1.48-7,4.28-7,3.34,0,3.54,2.94,3.58,3.76H733.5c0-.5-.14-2.3-2-2.3S729,77.39,729,80.71s.48,5.56,2.34,5.56,2.14-1.44,2.14-4.12v-.68h-2.26V80h3.9Z" transform="translate(0.36 0.73)"/></g><g class="cls-14"><path d="M666.63,489.68h-3V488.2h7.68v1.48h-3v12.1h-1.66Z" transform="translate(0.36 0.73)"/><path d="M674.39,488.2v13.58h-1.66V488.2Z" transform="translate(0.36 0.73)"/></g><g class="cls-14"><path d="M159.68,401.61,156.32,388h1.78l1.46,6.32c.44,1.88.92,4.18,1.1,5.5h0c.16-1.22.78-3.6,1.24-5.48l1.48-6.34h1.74l-3.5,13.58Z" transform="translate(0.36 0.73)"/><path d="M166.58,388h3.12c3.2,0,4.58,2.2,4.58,6.46,0,4.6-1.28,7.12-4.8,7.12h-2.9Zm1.68,12.18h1.16c2.38,0,3.14-1.88,3.14-5.68,0-3.52-.86-5.06-3.12-5.06h-1.18Z" transform="translate(0.36 0.73)"/></g><g class="cls-14"><path d="M396,549.33l-3.36-13.58h1.78l1.46,6.32c.44,1.88.92,4.18,1.1,5.5h0c.16-1.22.78-3.6,1.24-5.48l1.48-6.34h1.74L398,549.33Z" transform="translate(0.36 0.73)"/><path d="M403.81,545.71c.12,1.36.74,2.44,2.18,2.44s2.06-.76,2.06-2.22-.58-2.12-2.4-3c-2.16-1-3.1-2-3.1-3.94a3.24,3.24,0,0,1,3.5-3.42c2.7,0,3.42,1.92,3.46,3.54h-1.64c-.08-.68-.28-2.16-1.88-2.16a1.67,1.67,0,0,0-1.76,1.88c0,1.24.54,1.84,2.22,2.62,2.38,1.14,3.3,2.26,3.3,4.34a3.47,3.47,0,0,1-3.8,3.74c-2.8,0-3.7-1.82-3.8-3.82Z" transform="translate(0.36 0.73)"/></g><g class="cls-14"><path d="M107,727.67H104.7a15,15,0,0,1-.18-2.49A4.78,4.78,0,0,1,99.68,728c-5.2,0-6.65-5.2-6.65-12.38,0-8.4,2.63-12.49,7.61-12.49,5.94,0,6.3,5.23,6.37,6.69h-3c-.07-.89-.25-4.09-3.52-4.09s-4.41,4-4.41,9.86.85,9.89,4.16,9.89c3.06,0,3.81-2.56,3.81-7.33V717h-4v-2.6H107Z" transform="translate(0.36 0.73)"/><path d="M113.2,719.2c0,3.31.53,6.33,3.31,6.33a3.16,3.16,0,0,0,3.13-3.1h2.85c-.07.5-.53,5.55-6,5.55s-6.19-4.87-6.19-9.39c0-5.73,2-9.36,6.33-9.36,4.84,0,6,4,6,8.5,0,.39,0,1.07-.07,1.46Zm6.51-2.24c0-2.85-.57-5.23-3.13-5.23-3.13,0-3.27,4-3.31,5.23Z" transform="translate(0.36 0.73)"/><path d="M125.86,715.18c0-3.74,0-4.77,0-5.62h2.81c0,.43.11,1.17.11,2.28a4.27,4.27,0,0,1,4.23-2.6c2.67,0,4.66,1.57,4.66,5.52v12.92h-3V715.35c0-2.14-.64-3.56-2.63-3.56-2.28,0-3.27,1.46-3.27,5v10.85h-2.92Z" transform="translate(0.36 0.73)"/><path d="M143.83,719.2c0,3.31.53,6.33,3.31,6.33a3.16,3.16,0,0,0,3.13-3.1h2.85c-.07.5-.53,5.55-6,5.55s-6.19-4.87-6.19-9.39c0-5.73,2-9.36,6.33-9.36,4.84,0,6,4,6,8.5,0,.39,0,1.07-.07,1.46Zm6.51-2.24c0-2.85-.57-5.23-3.13-5.23-3.13,0-3.27,4-3.31,5.23Z" transform="translate(0.36 0.73)"/><path d="M158,709.55c1.39,5.73,3.1,12.53,3.45,14.91h0c.25-2.17,2.74-10.92,3.67-14.91h3l-5.16,18.11h-3.17l-4.91-18.11Z" transform="translate(0.36 0.73)"/><path d="M180.65,724.32c0,1.1.07,2.74.14,3.34h-2.67a10,10,0,0,1-.18-2c-.68,1.42-2,2.31-4.23,2.31-3.49,0-4.77-2.74-4.77-5.27,0-3.38,2.31-5.84,7-5.84a12.91,12.91,0,0,1,1.81.07v-2.35c0-1.32-.25-3-2.56-3-2.49,0-2.67,1.78-2.78,3h-2.78c.07-2.63,1.28-5.34,5.66-5.34,3.59,0,5.34,1.74,5.34,5.09Zm-2.81-5.12a11.07,11.07,0,0,0-1.71-.07c-3.06,0-4.27,1.46-4.27,3.38,0,1.53.78,3,2.67,3,2.53,0,3.31-1.82,3.31-5.41Z" transform="translate(0.36 0.73)"/></g><g class="cls-14"><path d="M221.24,284.34V270.76h2c3.58,9,4.1,10.34,4.28,11h0c-.1-1.8-.12-3.84-.12-6v-4.92H229v13.58H227c-3.7-9.52-4.2-10.8-4.36-11.34h0c.1,1.68.12,3.86.12,6.3v5Z" transform="translate(0.36 0.73)"/><path d="M237.74,277.92h-4.5v5h5l-.22,1.46H231.6V270.76H238v1.48h-4.72v4.2h4.5Z" transform="translate(0.36 0.73)"/></g><g class="cls-14"><path d="M60.21,542.35h-1.3a8.47,8.47,0,0,1-.1-1.4,2.69,2.69,0,0,1-2.72,1.6c-2.92,0-3.74-2.92-3.74-7,0-4.72,1.48-7,4.28-7,3.34,0,3.54,2.94,3.58,3.76H58.55c0-.5-.14-2.3-2-2.3s-2.48,2.22-2.48,5.54.48,5.56,2.34,5.56,2.14-1.44,2.14-4.12v-.68H56.31v-1.46h3.9Z" transform="translate(0.36 0.73)"/><path d="M68.69,535.93h-4.5v5h5L69,542.35H62.54V528.77h6.36v1.48H64.19v4.2h4.5Z" transform="translate(0.36 0.73)"/></g><g class="cls-14"><path d="M291.6,171c0,1.94-.34,3.5-2.76,3.5a5.69,5.69,0,0,1-1.12-.1V173a5.52,5.52,0,0,0,.88.06c1.14,0,1.32-.66,1.32-1.9v-10.4h1.68Z" transform="translate(0.36 0.73)"/><path d="M295.66,160.77v9.5c0,1.42.4,2.86,2.14,2.86s2.14-1.2,2.14-2.86v-9.5h1.66v9.52c0,2.46-.9,4.28-3.84,4.28s-3.78-1.7-3.78-4.22v-9.58Z" transform="translate(0.36 0.73)"/></g><rect class="cls-15" x="45.46" y="704.43" width="27.4" height="27.4"/><g class="cls-14"><path d="M96.87,771.88l-4.73-24.16h3.17c1.46,8,2.92,16.48,3.24,20h0c.5-3.59,2.85-14.38,3.95-20h2.81c1.07,5.37,3.42,16.48,3.84,19.89h.07c.5-4.38,2.63-14.55,3.56-19.89h3l-5.09,24.16h-3.1c-1.07-5.41-3.2-15.62-3.74-19.43h0c-.6,4.06-2.78,14.16-3.88,19.43Z" transform="translate(0.36 0.73)"/><path d="M119.28,763.41c0,3.31.53,6.33,3.31,6.33a3.16,3.16,0,0,0,3.13-3.1h2.85c-.07.5-.53,5.55-6,5.55s-6.19-4.87-6.19-9.39c0-5.73,2-9.36,6.33-9.36,4.84,0,6,4,6,8.5,0,.39,0,1.07-.07,1.46Zm6.51-2.24c0-2.85-.57-5.23-3.13-5.23-3.13,0-3.27,4-3.31,5.23Z" transform="translate(0.36 0.73)"/><path d="M133.73,766.61c.11,1.82,1.07,3.24,3.06,3.24a2.47,2.47,0,0,0,2.74-2.67c0-1.74-.85-2.6-3.2-3.49-3.84-1.46-4.91-2.85-4.91-5.37s1.49-4.87,5.3-4.87c4.2,0,5.34,2.85,5.37,5.27h-2.85c0-.82-.21-2.92-2.6-2.92a2.15,2.15,0,0,0-2.35,2.35c0,1.39.64,2.06,3.06,3,3.56,1.35,5.12,2.67,5.12,5.76,0,3.34-2.1,5.3-5.84,5.3s-5.73-2.31-5.8-5.59Z" transform="translate(0.36 0.73)"/><path d="M143.65,753.77h2.53V749h2.88v4.77h3.1v2.46h-3.1v11.53c0,1.21.28,1.92,1.64,1.92a6.31,6.31,0,0,0,1.21-.07v2.21a6.9,6.9,0,0,1-2.21.32c-2.28,0-3.52-.89-3.52-3.84V756.22h-2.53Z" transform="translate(0.36 0.73)"/></g><rect class="cls-16" x="45.46" y="748.63" width="27.4" height="27.4"/><g class="cls-14"><path d="M106.8,809.33c-.11,1.39-.68,7.12-6.69,7.12-6.51,0-7.08-6.65-7.08-12.56,0-7.19,2-12.31,7.37-12.31,5.91,0,6.3,5.48,6.33,7h-3c-.07-.82-.18-4.41-3.45-4.41-3.59,0-4.2,4.84-4.2,9.68,0,5,.57,10,4.06,10,3.1,0,3.52-3.38,3.63-4.55Z" transform="translate(0.36 0.73)"/><path d="M112.17,807.63c0,3.31.53,6.33,3.31,6.33a3.16,3.16,0,0,0,3.13-3.1h2.85c-.07.5-.53,5.55-6,5.55s-6.19-4.87-6.19-9.39c0-5.73,2-9.36,6.33-9.36,4.84,0,6,4,6,8.5,0,.39,0,1.07-.07,1.46Zm6.51-2.24c0-2.85-.57-5.23-3.13-5.23-3.13,0-3.27,4-3.31,5.23Z" transform="translate(0.36 0.73)"/><path d="M124.83,803.6c0-3.74,0-4.77,0-5.62h2.81c0,.43.11,1.17.11,2.28a4.27,4.27,0,0,1,4.23-2.6c2.67,0,4.66,1.57,4.66,5.52V816.1h-3V803.78c0-2.14-.64-3.56-2.63-3.56-2.28,0-3.27,1.46-3.27,5V816.1h-2.92Z" transform="translate(0.36 0.73)"/><path d="M138.57,798h2.53v-4.77H144V798h3.1v2.46H144V812c0,1.21.28,1.92,1.64,1.92a6.31,6.31,0,0,0,1.21-.07V816a6.9,6.9,0,0,1-2.21.32c-2.28,0-3.52-.89-3.52-3.84V800.44h-2.53Z" transform="translate(0.36 0.73)"/><path d="M149.49,804.14c0-2.88,0-4.87,0-6.16h2.78c0,.43.11,1.25.11,3.17a4.9,4.9,0,0,1,4.77-3.45v3.24c-3.1.07-4.7,1.81-4.7,5.16v10h-2.92Z" transform="translate(0.36 0.73)"/><path d="M169.88,812.75c0,1.1.07,2.74.14,3.34h-2.67a10,10,0,0,1-.18-2c-.68,1.42-2,2.31-4.23,2.31-3.49,0-4.77-2.74-4.77-5.27,0-3.38,2.31-5.84,7-5.84a12.91,12.91,0,0,1,1.81.07V803c0-1.32-.25-3-2.56-3-2.49,0-2.67,1.78-2.78,3h-2.78c.07-2.63,1.28-5.34,5.66-5.34,3.59,0,5.34,1.74,5.34,5.09Zm-2.81-5.12a11.07,11.07,0,0,0-1.71-.07c-3.06,0-4.27,1.46-4.27,3.38,0,1.53.78,3,2.67,3,2.53,0,3.31-1.82,3.31-5.41Z" transform="translate(0.36 0.73)"/><path d="M174.07,816.1V790.76H177V816.1Z" transform="translate(0.36 0.73)"/><path d="M191.08,816.1l-4.73-24.16h3.17c1.46,8,2.92,16.48,3.24,20h0c.5-3.59,2.85-14.38,3.95-20h2.81c1.07,5.37,3.42,16.48,3.84,19.89h.07c.5-4.38,2.63-14.55,3.56-19.89h3l-5.09,24.16h-3.1c-1.07-5.41-3.2-15.62-3.74-19.43h0c-.6,4.06-2.78,14.16-3.88,19.43Z" transform="translate(0.36 0.73)"/><path d="M213.49,807.63c0,3.31.53,6.33,3.31,6.33a3.16,3.16,0,0,0,3.13-3.1h2.85c-.07.5-.53,5.55-6,5.55s-6.19-4.87-6.19-9.39c0-5.73,2-9.36,6.33-9.36,4.84,0,6,4,6,8.5,0,.39,0,1.07-.07,1.46Zm6.51-2.24c0-2.85-.57-5.23-3.13-5.23-3.13,0-3.27,4-3.31,5.23Z" transform="translate(0.36 0.73)"/><path d="M227.93,810.83c.11,1.82,1.07,3.24,3.06,3.24a2.47,2.47,0,0,0,2.74-2.67c0-1.74-.85-2.6-3.2-3.49-3.84-1.46-4.91-2.85-4.91-5.37s1.49-4.87,5.3-4.87c4.2,0,5.34,2.85,5.37,5.27h-2.85c0-.82-.21-2.92-2.6-2.92a2.15,2.15,0,0,0-2.35,2.35c0,1.39.64,2.06,3.06,3,3.56,1.35,5.12,2.67,5.12,5.76,0,3.34-2.1,5.3-5.84,5.3s-5.73-2.31-5.8-5.59Z" transform="translate(0.36 0.73)"/><path d="M237.86,798h2.53v-4.77h2.88V798h3.1v2.46h-3.1V812c0,1.21.28,1.92,1.64,1.92a6.31,6.31,0,0,0,1.21-.07V816a6.9,6.9,0,0,1-2.21.32c-2.28,0-3.52-.89-3.52-3.84V800.44h-2.53Z" transform="translate(0.36 0.73)"/></g><rect class="cls-17" x="45.46" y="792.83" width="27.4" height="27.4"/><g class="cls-14"><path d="M375.61,727.67V703.5h3.56c6.37,16.08,7.29,18.4,7.61,19.5h0c-.18-3.2-.21-6.83-.21-10.75V703.5h2.74v24.16h-3.42c-6.58-16.94-7.47-19.21-7.76-20.18h0c.18,3,.21,6.87.21,11.21v9Z" transform="translate(0.36 0.73)"/><path d="M405.6,718.41c0,6.41-2.21,9.57-6.37,9.57s-6.33-3.06-6.33-9.5,2.49-9.25,6.48-9.25S405.6,712.33,405.6,718.41Zm-9.71.07c0,4.73,1.1,7,3.38,7s3.35-2.31,3.35-7c0-4.52-1.07-6.73-3.35-6.73S395.89,713.79,395.89,718.48Z" transform="translate(0.36 0.73)"/><path d="M408.91,715.71c0-2.88,0-4.87,0-6.16h2.78c0,.43.11,1.25.11,3.17a4.9,4.9,0,0,1,4.77-3.45v3.24c-3.1.07-4.7,1.81-4.7,5.16v10h-2.92Z" transform="translate(0.36 0.73)"/><path d="M418,709.55h2.53v-4.77h2.88v4.77h3.1V712h-3.1v11.53c0,1.21.28,1.92,1.64,1.92a6.31,6.31,0,0,0,1.21-.07v2.21a6.9,6.9,0,0,1-2.21.32c-2.28,0-3.52-.89-3.52-3.84V712H418Z" transform="translate(0.36 0.73)"/><path d="M431.86,702.33v9.32a4.32,4.32,0,0,1,4.27-2.42c2.74,0,4.55,1.71,4.55,5.55v12.88h-2.92V715.39c0-2.13-.6-3.59-2.74-3.59-2.35,0-3.17,1.92-3.17,4.95v10.92h-3V702.33Z" transform="translate(0.36 0.73)"/><path d="M454.77,727.67,450,703.5h3.17c1.46,8,2.92,16.48,3.24,20h0c.5-3.59,2.85-14.38,4-20h2.81c1.07,5.37,3.42,16.48,3.84,19.89h.07c.5-4.38,2.63-14.55,3.56-19.89h3l-5.09,24.16h-3.1c-1.07-5.41-3.2-15.62-3.74-19.43h0c-.6,4.06-2.78,14.16-3.88,19.43Z" transform="translate(0.36 0.73)"/><path d="M477.18,719.2c0,3.31.53,6.33,3.31,6.33a3.16,3.16,0,0,0,3.13-3.1h2.85c-.07.5-.53,5.55-6,5.55s-6.19-4.87-6.19-9.39c0-5.73,2-9.36,6.33-9.36,4.84,0,6,4,6,8.5,0,.39,0,1.07-.07,1.46Zm6.51-2.24c0-2.85-.57-5.23-3.13-5.23-3.13,0-3.27,4-3.31,5.23Z" transform="translate(0.36 0.73)"/><path d="M491.63,722.4c.11,1.82,1.07,3.24,3.06,3.24a2.47,2.47,0,0,0,2.74-2.67c0-1.74-.85-2.6-3.2-3.49-3.84-1.46-4.91-2.85-4.91-5.37s1.49-4.87,5.3-4.87c4.2,0,5.34,2.85,5.37,5.27h-2.85c0-.82-.21-2.92-2.6-2.92a2.15,2.15,0,0,0-2.35,2.35c0,1.39.64,2.06,3.06,3,3.56,1.35,5.12,2.67,5.12,5.76,0,3.34-2.1,5.3-5.84,5.3s-5.73-2.31-5.8-5.59Z" transform="translate(0.36 0.73)"/><path d="M501.55,709.55h2.53v-4.77H507v4.77h3.1V712H507v11.53c0,1.21.28,1.92,1.64,1.92a6.31,6.31,0,0,0,1.21-.07v2.21a6.9,6.9,0,0,1-2.21.32c-2.28,0-3.52-.89-3.52-3.84V712h-2.53Z" transform="translate(0.36 0.73)"/></g><rect class="cls-11" x="327.16" y="704.43" width="27.4" height="27.4"/><g class="cls-14"><path d="M388.46,765.12c-.11,1.39-.68,7.12-6.69,7.12-6.51,0-7.08-6.65-7.08-12.56,0-7.19,2-12.31,7.37-12.31,5.91,0,6.3,5.48,6.33,7h-3c-.07-.82-.18-4.41-3.45-4.41-3.59,0-4.2,4.84-4.2,9.68,0,5,.57,10,4.06,10,3.1,0,3.52-3.38,3.63-4.55Z" transform="translate(0.36 0.73)"/><path d="M393.83,763.41c0,3.31.53,6.33,3.31,6.33a3.16,3.16,0,0,0,3.13-3.1h2.85c-.07.5-.53,5.55-6,5.55s-6.19-4.87-6.19-9.39c0-5.73,2-9.36,6.33-9.36,4.84,0,6,4,6,8.5,0,.39,0,1.07-.07,1.46Zm6.51-2.24c0-2.85-.57-5.23-3.13-5.23-3.13,0-3.27,4-3.31,5.23Z" transform="translate(0.36 0.73)"/><path d="M406.49,759.39c0-3.74,0-4.77,0-5.62h2.81c0,.43.11,1.17.11,2.28a4.27,4.27,0,0,1,4.23-2.6c2.67,0,4.66,1.57,4.66,5.52v12.92h-3V759.57c0-2.14-.64-3.56-2.63-3.56-2.28,0-3.27,1.46-3.27,5v10.85h-2.92Z" transform="translate(0.36 0.73)"/><path d="M420.22,753.77h2.53V749h2.88v4.77h3.1v2.46h-3.1v11.53c0,1.21.28,1.92,1.64,1.92a6.31,6.31,0,0,0,1.21-.07v2.21a6.9,6.9,0,0,1-2.21.32c-2.28,0-3.52-.89-3.52-3.84V756.22h-2.53Z" transform="translate(0.36 0.73)"/><path d="M431.15,759.92c0-2.88,0-4.87,0-6.16h2.78c0,.43.11,1.25.11,3.17a4.9,4.9,0,0,1,4.77-3.45v3.24c-3.1.07-4.7,1.81-4.7,5.16v10h-2.92Z" transform="translate(0.36 0.73)"/><path d="M451.53,768.54c0,1.1.07,2.74.14,3.34H449a10,10,0,0,1-.18-2c-.68,1.42-2,2.31-4.23,2.31-3.49,0-4.77-2.74-4.77-5.27,0-3.38,2.31-5.84,7-5.84a12.91,12.91,0,0,1,1.81.07v-2.35c0-1.32-.25-3-2.56-3-2.49,0-2.67,1.78-2.78,3h-2.78c.07-2.63,1.28-5.34,5.66-5.34,3.59,0,5.34,1.74,5.34,5.09Zm-2.81-5.12a11.07,11.07,0,0,0-1.71-.07c-3.06,0-4.27,1.46-4.27,3.38,0,1.53.78,3,2.67,3,2.53,0,3.31-1.82,3.31-5.41Z" transform="translate(0.36 0.73)"/><path d="M455.73,771.88V746.54h2.92v25.34Z" transform="translate(0.36 0.73)"/><path d="M480.74,760.46h-8v8.82h8.9l-.39,2.6H469.82V747.72h11.32v2.63h-8.4v7.47h8Z" transform="translate(0.36 0.73)"/><path d="M495.19,768.54c0,1.1.07,2.74.14,3.34h-2.67a10,10,0,0,1-.18-2c-.68,1.42-2,2.31-4.23,2.31-3.49,0-4.77-2.74-4.77-5.27,0-3.38,2.31-5.84,7-5.84a12.91,12.91,0,0,1,1.81.07v-2.35c0-1.32-.25-3-2.56-3-2.49,0-2.67,1.78-2.78,3h-2.78c.07-2.63,1.28-5.34,5.66-5.34,3.59,0,5.34,1.74,5.34,5.09Zm-2.81-5.12a11.07,11.07,0,0,0-1.71-.07c-3.06,0-4.27,1.46-4.27,3.38,0,1.53.78,3,2.67,3,2.53,0,3.31-1.82,3.31-5.41Z" transform="translate(0.36 0.73)"/><path d="M500.73,766.61c.11,1.82,1.07,3.24,3.06,3.24a2.47,2.47,0,0,0,2.74-2.67c0-1.74-.85-2.6-3.2-3.49-3.84-1.46-4.91-2.85-4.91-5.37s1.49-4.87,5.3-4.87c4.2,0,5.34,2.85,5.37,5.27h-2.85c0-.82-.21-2.92-2.6-2.92a2.15,2.15,0,0,0-2.35,2.35c0,1.39.64,2.06,3.06,3,3.56,1.35,5.12,2.67,5.12,5.76,0,3.34-2.1,5.3-5.84,5.3s-5.73-2.31-5.8-5.59Z" transform="translate(0.36 0.73)"/><path d="M510.66,753.77h2.53V749h2.88v4.77h3.1v2.46h-3.1v11.53c0,1.21.28,1.92,1.64,1.92a6.31,6.31,0,0,0,1.21-.07v2.21a6.9,6.9,0,0,1-2.21.32c-2.28,0-3.52-.89-3.52-3.84V756.22h-2.53Z" transform="translate(0.36 0.73)"/></g><rect class="cls-18" x="327.16" y="748.63" width="27.4" height="27.4"/><g class="cls-14"><path d="M663.7,727.67V703.5h3.56c6.37,16.08,7.29,18.4,7.62,19.5h0c-.18-3.2-.21-6.83-.21-10.75V703.5h2.74v24.16H674c-6.58-16.94-7.47-19.21-7.76-20.18h0c.18,3,.21,6.87.21,11.21v9Z" transform="translate(0.36 0.73)"/><path d="M693.69,718.41c0,6.41-2.21,9.57-6.37,9.57s-6.33-3.06-6.33-9.5,2.49-9.25,6.48-9.25S693.69,712.33,693.69,718.41Zm-9.71.07c0,4.73,1.1,7,3.38,7s3.34-2.31,3.34-7c0-4.52-1.07-6.73-3.34-6.73S684,713.79,684,718.48Z" transform="translate(0.36 0.73)"/><path d="M697,715.71c0-2.88,0-4.87,0-6.16h2.78c0,.43.11,1.25.11,3.17a4.9,4.9,0,0,1,4.77-3.45v3.24c-3.1.07-4.7,1.81-4.7,5.16v10H697Z" transform="translate(0.36 0.73)"/><path d="M706.07,709.55h2.53v-4.77h2.88v4.77h3.1V712h-3.1v11.53c0,1.21.29,1.92,1.64,1.92a6.3,6.3,0,0,0,1.21-.07v2.21a6.9,6.9,0,0,1-2.21.32c-2.28,0-3.52-.89-3.52-3.84V712h-2.53Z" transform="translate(0.36 0.73)"/><path d="M719.95,702.33v9.32a4.32,4.32,0,0,1,4.27-2.42c2.74,0,4.55,1.71,4.55,5.55v12.88h-2.92V715.39c0-2.13-.61-3.59-2.74-3.59-2.35,0-3.17,1.92-3.17,4.95v10.92h-3V702.33Z" transform="translate(0.36 0.73)"/><path d="M750.86,716.24h-8v8.82h8.9l-.39,2.6H739.94V703.5h11.32v2.63h-8.4v7.47h8Z" transform="translate(0.36 0.73)"/><path d="M765.31,724.32c0,1.1.07,2.74.14,3.34h-2.67a10.08,10.08,0,0,1-.18-2c-.68,1.42-2,2.31-4.23,2.31-3.49,0-4.77-2.74-4.77-5.27,0-3.38,2.31-5.84,7-5.84a12.92,12.92,0,0,1,1.82.07v-2.35c0-1.32-.25-3-2.56-3-2.49,0-2.67,1.78-2.78,3h-2.78c.07-2.63,1.28-5.34,5.66-5.34,3.59,0,5.34,1.74,5.34,5.09Zm-2.81-5.12a11.07,11.07,0,0,0-1.71-.07c-3.06,0-4.27,1.46-4.27,3.38,0,1.53.78,3,2.67,3,2.53,0,3.31-1.82,3.31-5.41Z" transform="translate(0.36 0.73)"/><path d="M770.86,722.4c.11,1.82,1.07,3.24,3.06,3.24a2.47,2.47,0,0,0,2.74-2.67c0-1.74-.85-2.6-3.2-3.49-3.84-1.46-4.91-2.85-4.91-5.37s1.49-4.87,5.3-4.87c4.2,0,5.34,2.85,5.37,5.27h-2.85c0-.82-.21-2.92-2.6-2.92a2.15,2.15,0,0,0-2.35,2.35c0,1.39.64,2.06,3.06,3,3.56,1.35,5.12,2.67,5.12,5.76,0,3.34-2.1,5.3-5.84,5.3s-5.73-2.31-5.8-5.59Z" transform="translate(0.36 0.73)"/><path d="M780.78,709.55h2.53v-4.77h2.88v4.77h3.1V712h-3.1v11.53c0,1.21.29,1.92,1.64,1.92a6.3,6.3,0,0,0,1.21-.07v2.21a6.9,6.9,0,0,1-2.21.32c-2.28,0-3.52-.89-3.52-3.84V712h-2.53Z" transform="translate(0.36 0.73)"/></g><rect class="cls-19" x="615.26" y="704.43" width="27.4" height="27.4"/><g class="cls-14"><path d="M674.63,760.46h-8v8.82h8.9l-.39,2.6H663.7V747.72H675v2.63h-8.4v7.47h8Z" transform="translate(0.36 0.73)"/><path d="M689.07,768.54c0,1.1.07,2.74.14,3.34h-2.67a10,10,0,0,1-.18-2c-.68,1.42-2,2.31-4.23,2.31-3.49,0-4.77-2.74-4.77-5.27,0-3.38,2.31-5.84,7-5.84a12.91,12.91,0,0,1,1.81.07v-2.35c0-1.32-.25-3-2.56-3-2.49,0-2.67,1.78-2.78,3h-2.78c.07-2.63,1.28-5.34,5.66-5.34,3.59,0,5.34,1.74,5.34,5.09Zm-2.81-5.12a11.06,11.06,0,0,0-1.71-.07c-3.06,0-4.27,1.46-4.27,3.38,0,1.53.78,3,2.67,3,2.53,0,3.31-1.82,3.31-5.41Z" transform="translate(0.36 0.73)"/><path d="M694.62,766.61c.11,1.82,1.07,3.24,3.06,3.24a2.47,2.47,0,0,0,2.74-2.67c0-1.74-.85-2.6-3.2-3.49-3.84-1.46-4.91-2.85-4.91-5.37s1.5-4.87,5.3-4.87c4.2,0,5.34,2.85,5.37,5.27h-2.85c0-.82-.21-2.92-2.6-2.92a2.15,2.15,0,0,0-2.35,2.35c0,1.39.64,2.06,3.06,3,3.56,1.35,5.12,2.67,5.12,5.76,0,3.34-2.1,5.3-5.83,5.3s-5.73-2.31-5.8-5.59Z" transform="translate(0.36 0.73)"/><path d="M704.54,753.77h2.53V749H710v4.77H713v2.46H710v11.53c0,1.21.28,1.92,1.64,1.92a6.31,6.31,0,0,0,1.21-.07v2.21a6.91,6.91,0,0,1-2.21.32c-2.28,0-3.52-.89-3.52-3.84V756.22h-2.53Z" transform="translate(0.36 0.73)"/></g><rect class="cls-20" x="615.26" y="748.63" width="27.4" height="27.4"/><g class="cls-14"><path d="M377.11,809.65c.21,2.42,1.32,4.34,3.88,4.34s3.67-1.35,3.67-3.95-1-3.77-4.27-5.34c-3.84-1.81-5.52-3.52-5.52-7s2.21-6.08,6.23-6.08c4.8,0,6.08,3.42,6.16,6.3h-2.92c-.14-1.21-.5-3.84-3.34-3.84-2.21,0-3.13,1.5-3.13,3.34,0,2.21,1,3.27,3.95,4.66,4.23,2,5.87,4,5.87,7.72s-2.21,6.65-6.76,6.65c-5,0-6.58-3.24-6.76-6.8Z" transform="translate(0.36 0.73)"/><path d="M403,806.84c0,6.41-2.21,9.57-6.37,9.57s-6.33-3.06-6.33-9.5,2.49-9.25,6.48-9.25S403,800.76,403,806.84Zm-9.71.07c0,4.73,1.1,7,3.38,7s3.35-2.31,3.35-7c0-4.52-1.07-6.73-3.35-6.73S393.26,802.22,393.26,806.91Z" transform="translate(0.36 0.73)"/><path d="M417.91,811.08c0,2.35,0,4.13,0,5h-2.81c-.07-.53-.11-1.28-.14-2.31a4.13,4.13,0,0,1-4.23,2.63c-2.21,0-4.52-.92-4.52-5.41V798h2.92v12.35c0,2.21.6,3.52,2.56,3.52S415,812.71,415,809V798h3Z" transform="translate(0.36 0.73)"/><path d="M420.26,798h2.53v-4.77h2.88V798h3.1v2.46h-3.1V812c0,1.21.28,1.92,1.64,1.92a6.31,6.31,0,0,0,1.21-.07V816a6.9,6.9,0,0,1-2.21.32c-2.28,0-3.52-.89-3.52-3.84V800.44h-2.53Z" transform="translate(0.36 0.73)"/><path d="M434.13,790.76v9.32a4.32,4.32,0,0,1,4.27-2.42c2.74,0,4.55,1.71,4.55,5.55V816.1H440V803.82c0-2.13-.6-3.59-2.74-3.59-2.35,0-3.17,1.92-3.17,4.95V816.1h-3V790.76Z" transform="translate(0.36 0.73)"/></g><rect class="cls-21" x="327.16" y="792.83" width="27.4" height="27.4"/></svg>