<svg xmlns="http://www.w3.org/2000/svg" viewBox="0 0 1053.33 836.53"><defs><style>.cls-1{fill:#fff;}.cls-2,.cls-38,.cls-9{fill:#e5bf77;}.cls-10,.cls-12,.cls-13,.cls-2,.cls-3,.cls-4,.cls-5,.cls-6,.cls-7,.cls-8,.cls-9{stroke:#000;}.cls-3,.cls-45{fill:#eaf07d;}.cls-4,.cls-41,.cls-5{fill:#aed8ea;}.cls-13,.cls-5,.cls-9{stroke-miterlimit:10;}.cls-44,.cls-6{fill:#eaaeae;}.cls-48,.cls-7{fill:#aebbea;}.cls-34,.cls-8{fill:#aeeacb;}.cls-10,.cls-30{fill:#f07dad;}.cls-11,.cls-12{fill:#dbaeea;}.cls-13{fill:none;}.cls-14,.cls-21,.cls-24,.cls-26{isolation:isolate;font-family:AcuminProCond-Medium, Acumin Pro Condensed;}.cls-14,.cls-21,.cls-24{font-size:20px;}.cls-15{letter-spacing:-0.01em;}.cls-16{letter-spacing:0em;}.cls-17{letter-spacing:-0.01em;}.cls-18{letter-spacing:0em;}.cls-19{letter-spacing:-0.01em;}.cls-20{letter-spacing:0em;}.cls-21{letter-spacing:-0.02em;}.cls-22{letter-spacing:0em;}.cls-23{letter-spacing:0.01em;}.cls-24{letter-spacing:0em;}.cls-25{letter-spacing:0em;}.cls-26{font-size:35.58px;}.cls-27{letter-spacing:0.01em;}.cls-28{letter-spacing:0em;}.cls-29{letter-spacing:-0.02em;}.cls-31{letter-spacing:-0.03em;}.cls-32{letter-spacing:0.01em;}.cls-33{letter-spacing:0.01em;}.cls-35{letter-spacing:0em;}.cls-36{letter-spacing:-0.01em;}.cls-37{letter-spacing:0.01em;}.cls-39{letter-spacing:0.03em;}.cls-40{letter-spacing:-0.01em;}.cls-42{letter-spacing:0em;}.cls-43{letter-spacing:0.01em;}.cls-46{letter-spacing:0.01em;}.cls-47{letter-spacing:0.01em;}</style></defs><title>Asset 2</title><g id="Layer_2" data-name="Layer 2"><g id="Map_of_swiss_cantons_with_canton_of_Zurich_highlighted" data-name="Map of swiss cantons with canton of Zurich highlighted"><rect class="cls-1" width="1053.33" height="836.53"/><path id="BE" class="cls-2" d="M326.92,425.58l2.78-3.6,4.77-3.7,3.48-1.9,5.27.5,3.48-2.1-3.38-5.3.4-6.9.4-5.3.5-2.7,3-1.9,3.68,1.6,1.59-.4,3,.2.5-4.9-.2-8-2.68-2.7-4.18-3.7L346.5,373l-5-1.8c-.6-.6-2.09-.7-2.49-1.4a4.49,4.49,0,0,1,0-2.8c.3-1,1.49-1.8,1.89-2.8a4.3,4.3,0,0,0,.6-2.2c-.2-.9-1.49-1.7-1.89-2.5a12.85,12.85,0,0,1-1.69-4.2,4.37,4.37,0,0,1,.3-2.5c.5-.9,2.29-1.1,2.78-1.9.4-.6.2-1.7.3-2.5a14.62,14.62,0,0,1,.3-3c.3-.9,1.29-1.9,1.69-2.8s.5-2,.8-2.8a20.63,20.63,0,0,1,1.69-3.3,11.77,11.77,0,0,1,1.89-2.5l-.7-.5-2.29-1.4s-2.68-2.1-2.49-2.8.89-2.3.89-2.3l1.89-2.7.7,1.6,2.49,1.9.89,1.4c.6-1.5,2.88-2.3,3.88-3.6.2-.3.6-.7.6-1.1-.1-.6-1.09-.9-1.39-1.4a10.13,10.13,0,0,1-.3-2.5,7,7,0,0,0,0-2.5,5.79,5.79,0,0,0-2.19-2.2,6.44,6.44,0,0,0-2.78-.8,5.4,5.4,0,0,0-2.78.6c-.4.3-.4,1.2-.8,1.4-.8.2-1.79-.8-2.49-1.1-.5-.2-1.09-.8-1.69-.8a5.36,5.36,0,0,0-2.49.6c-.3.1-.5.5-.8.6a5.19,5.19,0,0,1-3-.6c-1.29-.6-2.49-2.4-3.88-2.8-.5-.1-1.19.4-1.69.3a3.9,3.9,0,0,1-1.39-.8,16.68,16.68,0,0,1-1.39-1.9l-4.18-.3,1.09-8.1-.4-5.8-1.59-5.8,1.79-2.3,4.08-2.7-.7-3.5-3.48-3.9-2.29,1.4-8.95,4.2-9.64,1.6-4.37.2-6.86,2-.7-.4-3.88-1.2-5.17-2.7-5.17-4.9s.89-1.9,1.29-2.7.89-1.8,1.29-2.5a13.47,13.47,0,0,1,1.29-2.7,11.35,11.35,0,0,1,1.89-1.9c.7-.6,1.79-1.2,2.49-1.7a20.53,20.53,0,0,1,2.49-1.5,10.39,10.39,0,0,1,2.29-.8,17.65,17.65,0,0,1,2.29-.2c.7-.1,2.29-.4,2.29-.4l2.88-1.4.89-4.8.3-3.7-.89-3.3-6.46-4.4-7-3.7-1.69-1.1-5.87.2-8.35,1.1-5.07,2.5-4.37,2.2-3.38,1.6-3.58,1.6-.6-3.7,2.19-2.8,1.09-4.2-.5-5.9-1.79-3.8,5.77-.7,3.28-2.1,4.77-4.2,2.68-2.6,5.87.6,3.08-.3,1.59-2.5.3-2.5,5.87-.9,3.68-5,3.08-6.9.6-3.4,7.46,1.6,13-.9-1.19-6.5,3.68-2.2-.3-4.4,1.59-3.4,3.68-.6h4.08l3.08,3.4,5.87,1.2,7.16-.3,6.16-1.2,5.27-2.8,5.27-4.4,3.68-5,1.59.6.89,5,4.37-.3,8.95.9,5.27.6,6.16,2.2,3.38-2.5,3.08-3.7h6.46l1.79.2-2.29,3.5-2,1.8-1.49,2.2-2.29,1.6-6.06,1.7-2.88,1.1-2.49,2.1-.7,2.9-.6,1.1-1.39.5-4.28.9-3.68.5-.1,3.1-3.48,3-4,2.4-6,2.7-5.37,2.2.89,6.9,1.59,1.9,3.28,1,1.29.6,1.19,4.8.89,1.7c.4-.4,1.19-.5,1.69-.8s.7-.8,1.09-1.1c.7-.5,1.79-.6,2.49-1.1a10.06,10.06,0,0,0,1.69-1.9c.3-.6.2-1.6.6-2.2a2.34,2.34,0,0,1,1.09-1.1c.7-.2,1.69.4,2.49.3a8.19,8.19,0,0,0,2.19-.8,20.85,20.85,0,0,0,1.69-1.4,12.2,12.2,0,0,1,2.49-1.4c.7-.3,1.79-.1,2.29-.6l.3,4.2.3,4.1,3,4.7-1.89,3.7-1.59.5-2.88-.2-4.08-.2-2,2.6-1.49,2.2V240l-.7,2.1-4.57.3-2.29.2-1.39-1.2-2.88-.5-1.09.8L357,244l1,2.4,1.29,2.9,2.29,3.8.5.7.89-.6,3-2.2,2.39-1.3,2.39-.7-.1,2.3-.2,1.8,1.29,1.8,2.78-.2,2.88-1.1,1.69-1.3.4-2.1-1.09-1.6-1-1.9.5-1.1,3.68-1.8,3.08-1.8,3-2,2.09-4,1.09-4.4.5-3.3,3-.9,2.09-.8,2.58.5,2.58,1.6,2.19,2.1,5.37,1,5.37.3,3-.9,3.68-3.1,2.29-3.1.1-2.3-.4-2.9-2.29-2.3-2.49-1.2-1.89-1.9-1.59-2.4-2.58-5.1.2-1.2-.5-2-2.09-1.2-1.39-1.1-1.89.1-1.89-.4v-2.7l-.89-2.6.4-2.3-.1-1.6L404,190l2.39.2,7.56.8,2-.3,3-1.2,3-1,2-1.2,3.38.4,1.09,1.3,2.78,3.9,1.79,4.4,3.38.5,3.48-.4,3.58-1.7,1.29-.9,1.79,2.8c.6-.5,1.29-1.3,1.89-1.8s1.19-.8,1.69-1.2.7-1.1,1.19-1.4a2.43,2.43,0,0,1,1.19-.4c1.09-.1,2.58.4,3.68.4.8,0,1.89-.2,2.68-.2a6.91,6.91,0,0,0,2.49,0l-.5,1-.8,3.3.1,5.5.4,3.5v1.1l-.2,2.4,1.09,4.2,2.58,5.5,2,2.6,1.69,2.4.3,1.8-.7,5.1v3.3l2.19,3.3,1,2.5-1,2.5-1.89,2.1-.89,2.5.8,3.7.2,2.1.1,2.9.1,1.8-.4,4.5-1.09,2.8,2.19,2.1,2.29,2.8.89,2,.3,3,.8,3.2,3.18-.4,3.48.2,2.39.8.7,3,1.29,3.7.2,2.3-1.49,3.2-2.09,3.4-.8,3.4-1.09,2.1-2.29,2.4-3.68-.4-2,1.9-2.58,1.4-2.88,2.3,1.79,1.3,1,2.1-.1,5.1-1.19,2.5-3.48-.1.4,7.2,1.29,3.6,1,2.1,5.77,4.2L477,339l6.26,5.3,4,4.7,3.58,5.7,2.88-1.4,6.56-1.9,4.47-.7,2,.3,7.75,1.1,2.78.8,7,5.6,6.16,2.2,5.47-2.3,3-.9,5.57-.2,3.38-.6,4.67,1.9,4.77,3.1,6.36-4.7,3.38-3.1,3.58-1.5,4-1.7.7-1.1,5.67,3.6,1.39,1.4,1.49,1.9,4.08-3.2,5.67,2.7-2.09,4-.2,1.9.5,5.3,1.79,3.3,1.19,3.8.2,3v3l-.89,1.6-1.89,1.2-2.58-.3-2.58-.9-3.08-.5-2.09-.2.2,1.9.6,3.5.89,2.4,2,3.2-3.88,4.4-2.49,3.4-2.29,4.1-1.19,5.6V415l-.8,3.1-3.68,3-3.08,2.2-3.58,1.9-1.39,2.3-7.46,4.7-4.77,1.7-10.24,2.6-5.27.9-3.58-3.4-6.36-1.2-5.87-3.9-4.47-1.7-3.88.3-5-2.3-3.68-2-3.08.2-2.78,1.9-3.88,2-4.37,1.7-.8,10-7,3.4-2.19,3-5.27,4.4-5.77.9-9.44.5-12.83,11.2-14.71,12.2-4.47-6.9-7.75-5.6-5.57-1.1-2.58,2.6-2.19,4.1-3,3.7-5-.2h-4.47l-2.29,1.2-1.89,1.9,4.47,3-1.09,1.7-2.58,2.8-4.18,2-4.37,1.4-8.05-2.6-4.77-1.1s-7.85,2-8.55,2.3-6.66,5-6.66,5l-4.47,3.1-4.47,2.8-2.78-1.1-1.39-2.2V485l-4.08-.8-3.88,2.5-2.58,2-.8,4.4L329.9,497l-3,2-5.87-.1,1.09-2.9-1.39-6.4.2-2.8-3.38-3v-7.4l1.79-3.2-.2-3.4-2.09-3-.2-3.5,1.19-1.6s3,0,3.68-.5a28.45,28.45,0,0,0,2.49-2.5,31.55,31.55,0,0,1,0-4.4,30.75,30.75,0,0,0-.5-5.3l3.18-4.1,2.29-3.4-.4-5.7-.7-6.2Zm97-195.8,1.29-1.1,1.59-.9,1.29.2,1.49,1.5-.1,1.1-.89,1.9-1.39,1.4c-.2,0-2.19.9-2.19.9l-1.39-.1-.7-1v-2.1Z"/><path id="GL" class="cls-3" d="M713.47,221.68c.6,2,3,3.7,4.47,5.1,3,2.7,7.66,5.5,10.94,7.9.7.5,1.49,1.2,2.29,1.7a11.94,11.94,0,0,0,3.38,1.7c1.19.2,2.58-.8,3.78-1.1.89-.2,3.18-.9,3.18-.9l12.63,3.9v3l.2,3.4.4,7.7.2,2.7-3.08,4.1-2.49.9-3.48,1.1-1,.6-.3,1.9.7,2,1.29,1.7,2.58.8,5.27.3,2.19-1,2.09-1.1,2.29-.7,2,.7,2.68,1.9,1,5,1.29,7.2.4,10.3-2.19,2.6-.8.9,2.09,1.8,1.79,2.1,1.59,3.6-.7,3.3-3.08.7-2.68,2.8-2.68,3.1-1.59,2.1-1.19,3.4-2.39-.7-5,.2-2.58.8-1.89,1.8-2.58,2.9-2.68,2.3-1.69,1.3-1.79-1-1.29-2.3-2.09-3.3-2.88-1.4-2.88.3-2.78,1.7s-.8,2.7-.8,3.1-2,4-2,4l-1.29,4.9-.7,3.1-2.58,2.8-3.88,1.4-7.06,1.4-3.08.9-4.08,1.8h-3.78l-1.19-2.8-3.78-.8-3.38-.4-.8-3.7-1.49-4.1-.4-1.5v-1.3l3.68-1.1,4.28-1.4,5.07-2.1L703,323l2.29-2.8.1-2.9-.7-3.6-2.68-4.4-2.09-2.7,3.28-1.6.8-1.3,2.49-1.1-.7-.7-.6-1.6-.3-1.3.2-1.6,1.09-1.9,1.89-1.6-1.69-1.1-3.08-2.8-2.39-3.2-.89-1.5,1.19-1.6-1.29-1.2-2.19-2.6-.4-1.3-.89.3-.6-1.2-1.39-2.6-1.39-1.4-1.19-1.7,1.39-1.1L693,266l1.89-.2,1.89.4,2.58.2,4.28-3.9,2.78-5.1,2.19-6-1.49-.4-1.89-.4-1.39-1.2.4-1.5,2.09-1.9,1.59-.8.6-1.6-.8-2.9-2.09-2.2,7.06-15.4Z"/><path id="LU" class="cls-4" d="M504.78,350.48l1.49-2.9,3.08-2.7-.4-1.6-4.57-7.1v-2.7l1.29-2.9,2.39-1.8,1.49-2.9.7-2.4.5-7.1,1.59-1.5,2.88-3.3,1.49-2,2.88,1.8-.4,2.6,1.79.5,2.19-4.4,1.49-3.5,2.58-2.9,3.08-2.6-2.39-5.1,5.07-4.2,4.18-.4,1.79,1.5,5.67-2.2-2-7.8,6.06-2.8,3.18.5,3.08-1.7,5.77,2.2,4,.1,2.09-.3,1,1,2.19-1.4,3,1.2,3.08-3,2.29-1.3,2.49-.1.4,4.3h3.48l2.88-.6a19,19,0,0,0,2.39,0c.6,0,1.39-.2,2.09-.2H595c.8,0,2-.6,2.58-.1l1.89,1.3,1.79-.9,3.28.4,1.29-.4,1.09-1.1-.2-6.7-1.59-.8-1.59-1-1.59-1.8-3-2.7-1.59-2-1.69-.5-1.39.3-2.58.1-3.08-.6-4-.9-2.29-1.6-.5-.6,1.49-1.6,1.39-1.6,1-2.5.1-.7,3.58-3.3,3.88-4.9,1.69-1.3,1.89-1.2-.3-3-.5-1.6-.89.3-1.49,1.4-2-.6-1.79-2.7-2.78-4.6-4.77,1.5-5.37,1.3-2.29.3-1.49-2.5-2.09-4.2-2-4.2-2.19-5.8-.8-4.5-1.79-5.3-2.09-6.8-1-4.6-.2-3.3-.7-2.1-.7-.4-4.28-1.2-1-1.8-3.38-.8-2.19.1-4.47,5.8-2.49,1.4-1,2.6-.8,4-.3,2.4-1.09,2.2-1.89,1.5-2,.3-2.29-.7-1.79-1.5-.2-1.3v-1.5L533,203l-.3-1.4-1.79.4-5.07.6-5.27.4-2.58-.6-.1-2.9-.89-2.2-.3-.6-1.69-.3-2.49-.6-2.49.8-1.19.9-.6,2.2-.8,2.3-2.58.8-2.49.2-2.78.1h-1.89l.2-1.2.2-3.7v-2.8l-.7-2-1.49-2.9-1.79.7-3,.9h-3.28l-1.29-1.2-1.29-.2-.1,2.1v8.7l-.6,1.1-.89,1-1.29.8-4-.2-1.89-.9-3.28-.4-4.28.6-2,.6-2,1.3-4.18.4v1.1l-.2,2.4,1.09,4.2,2.58,5.5,2,2.6L468,224l.3,1.8-.7,5.1v3.3l2.19,3.3,1,2.5-1,2.5-1.89,2.1-.89,2.5.8,3.7.2,2.1.1,2.9-.3,2.3-.4,4.5-1.09,2.8,2.19,2.1,2.29,2.8.89,2,.3,3,.8,3.2,3.18-.4,3.48.2,2.39.8.7,3,1.29,3.7.2,2.3-1.49,3.2-2.09,3.4-.8,3.4-1.09,2.1-2.29,2.4-3.68-.4-2,1.9-2.58,1.4-2.88,2.3,1.79,1.3,1,2.1-.1,5.1-1.19,2.5-3.48-.1.4,7.2,1.29,3.6,1,2.1,5.77,4.2L477,339l6.26,5.3,4,4.7,3.58,5.7,2.88-1.4,6.56-1.9Z"/><path id="UR" class="cls-5" d="M688.91,341l-4.08,4.2-2.78.4-2.78,1.3-2.09,1.7,1.29,4.9-1.49,4.3L673.8,361l-.89,4.3-2.78,2.6-3.58-.2-1.89-3.2-3.38.4-.6,2.6-1.49,5.1-4.08,2.3-3.38,3.6-5.07.2-2.78,1.7-1.69,3.6.4,2.3,2.09,4.5-1.89,1.1-2.39,3.4v6.2l2.78,3.8,3.38,5.1-1.29,6.2-1.49,2.6-3,2.5-4.28.3-1.09-1.7-2.58-1.1-7.36-.8-2.09-1.5-4.28-1-5.27,1-3.28,3.2-1.39,3.4.7,4.2-.3,2.5-1.19,1.5-5,1.6-3.68.2-2.78-.5-2.29-1.2-2.29-1.3-1.29-1.9-1.19-2.7-.89-2.2-2.49-4.1-.89-2,1.69-5,2.19-5.7.5-10.7-.3-2.3-2.29-1.5-1.79-.5-1.89-3.2-.89-2.4-.6-3.5-.2-1.9,2.09.2,3.08.5,2.58.9,2.58.3,1.89-1.2.89-1.6v-3l-.2-3-1.19-3.8-1.79-3.3-.5-5.3.2-1.9,2.09-4,2.78-.3,1.49.2,1.79.5,1.09.7,3-2.8-.2-.9-1.49-2.4-1.49-1.3.4-1.9-4.18-1,.1-1.1,1.79.1L600,345l.5-1.6-.89-1.5-1.19-1.1,1.59-4.5,2.58-2.7,3.78-2L606,329l-2.09-.6-1.29-.5h-4.28v-6.7l1.59-4.1-.7-1.2-.7.2-.2-1.5-1.79.1,2.39-3.4,2.39-1.2,3.78-1.4,3.28-2,2.19-1.8,1.29-.6,3.08-2.1,2.39-3.1,3.58-2.6,1.19-1.5-.2-2.8.2-2.4,1.59-1.9,1.39-1.4-.2-1.1-.6-2,2.39-.8,2.09,3.2.4,5.4.5,5.8,4.87-.4,3.18,1.2,1.59.2,2.78-.4,5.77-1.5.89,7.1-.4,2.4,1.49,2.7,2.49-1.2,2-.8,3.28-3.2,2.58-1.4,3.58-1.1,1.09.4,2,1.9,1.39-.2,1.89-1.5,1.09-.9,2.49-.4,3.18,1,1.19,2-.4,3.1-.89,3.3,1,2.2,2.78-1.8.7,8.3,1.59-1.2,1.09-1.9,1.49-1.1,5.77-1.8,9.15-5.1,2.09,2.7,2.68,4.4.7,3.6-.1,2.9-2.29,2.8-3.88,2.7-5.07,2.1-4.28,1.4-3.68,1.1v1.3l.4,1.5,1.49,4.1.5,3.5"/><path id="SZ" class="cls-5" d="M700.14,306.78l-9.15,5.1-5.77,1.8-1.49,1.1-1.09,1.9-1.59,1.2-.7-8.3-2.78,1.8-1-2.2.89-3.3.4-3.1-1.19-2-3.18-1-2.49.4-1.09.9-1.89,1.5-1.39.2-2-1.9-1.09-.4-3.58,1.1-2.58,1.4-3.28,3.2-2,.8-2.49,1.2-1.49-2.7.4-2.4-.89-7.1-5.77,1.5-2.78.4-1.59-.2-3.18-1.2-4.87.4-.5-5.8-.4-5.4-2.09-3.2-2.39.8-7.16,2.7-7.66,1.2-9.15-2.8-.5-2.6,1.79-.9,3.28.4,1.29-.4,1.09-1.1-.2-6.7-1.59-.8-1.59-1-1.59-1.8-3-2.7-1.59-2-1.69-.5-1.39.3-2.58.1-3.08-.6-4-.9-2.29-1.6-.5-.6,1.49-1.6,1.39-1.6,1-2.5.1-.7,3.58-3.3,3.88-4.9,1.69-1.3,1.89-1.3,2.58-1.3,2.78-1.6,1.69-.4,1.39,4.9.89,2.2,1.69.6,4,1.6,2.49-1,3-.3,3.58-.1.8,3.4,2.68.1,2.58-1.3,2.09-1.6,2.29-.8,1.39-.9,3.48.9,2.78.5,1.19-.8.1-1.3.3-2.7,1.29-1.7,1.89-1.4,1.29-2.2.8-4.1,1.89-4.8-.3-1.3-.8-2.7-.5-1.6-1.19-2.4.2-1.9,2.09-1.5,2.09-2.6,1.39-2.7.8-1.6,2.19-.2,9.44-3.1,6.66-.4,8.15,3.4H690.5l7.75-1.4,5.47-2,1.79,1.8,1.59,1,.2,8,.7,2.3,2.49-.4,2.88.7-.89,1.8-7.06,15.4,2.09,2.2.8,2.9-.6,1.6-1.59.8-2.09,1.9-.4,1.5,1.39,1.2,1.89.4,1.49.4-2.19,6-2.78,5.1-4.28,3.9-2.58-.2-1.89-.4-1.89.2.3,4.9-1.39,1.1,1.19,1.7,1.39,1.4,1.39,2.6.6,1.2.89-.3.4,1.3,2.19,2.6,1.29,1.2-1.19,1.6.89,1.5,2.39,3.2,3.08,2.8,1.69,1.1-1.89,1.6-1.09,1.9-.2,1.6.3,1.3.6,1.6.7.7-2.49,1.1-.8,1.3Z"/><path id="OW" class="cls-5" d="M575.27,349.28l-9.84-8.3,1.29-1.8,1.49-3.5-.4-3.8v-4.6l1.09-8,.7-5.7,1.09-6.8-2.19-.4-2.68,1.1-3.08-1.5-2-.9-.89-2.7-.4-1.6,1.29-2.2,2.58-4.9-.2-2.4-4.18-1.5-7.06-1.5-7.06,2.2-5.67,2.2-1.79-1.5-4.18.4-5.07,4.2,2.39,5.1-3.08,2.6-2.58,2.9-1.49,3.5-2.19,4.4-1.79-.5.4-2.6-2.88-1.8-1.49,2-2.88,3.3-1.59,1.5-.5,7.1-.7,2.4-1.49,2.9-2.39,1.8-1.29,2.9V336l4.57,7.1.4,1.6-3.08,2.7-1.49,2.9,2,.3,7.75,1.1,2.78.8,7,5.6,6.16,2.2,5.47-2.3,3-.9,5.57-.2,3.38-.6,4.67,1.9,4.77,3.1,6.36-4.7,3.38-3.1,3.58-1.5,4-1.7Zm22.87-21.4h4.28l1.29.5,2.09.6.4,2.6-3.78,2-2.58,2.7-1.59,4.5,1.19,1.1.89,1.5-.5,1.6-1.19.5-1.79-.1-.1,1.1,4.18,1-.4,1.9,1.49,1.3,1.49,2.4.2.9-3,2.8-1.09-.7-1.79-.5-1.49-.2-2.78.3L587.9,353l-4.08,3.2-1.49-1.9,3.08-2.6.6-1.4v-1.2l-1.19-1.3-1.59-.8-2.49-1.8-1.39-2.6-1.69-2.2-.89-2.6-.8-4.4-.3-3.9-.3-3.4.89-1.7H578l1.39,1.2.1.9-1.39.6.1,1,1.79.6,1.59-.3,2.19-1.3,1.79-2.2,3.18,3.2Z"/><path id="NW" class="cls-5" d="M598.14,327.88v-6.7l1.59-4.1-.7-1.2-.7.2-.2-1.5-1.79.1,2.39-3.4,2.39-1.2,3.78-1.4,3.28-2,2.19-1.8,1.29-.6,3.08-2.1,2.39-3.1,3.58-2.6,1.19-1.5-.2-2.8.2-2.4,1.59-1.9,1.39-1.4-.2-1.1-.6-2-7.16,2.7-7.66,1.2-9.15-2.8-.5-2.6-1.79-1.3c-.6-.5-1.79.1-2.58.1h-2.88c-.6,0-1.39.2-2.09.2a19,19,0,0,1-2.39,0l-2.88.6h-3.48l-.4-4.3-2.49.1-2.29,1.3-3.08,3-3-1.2-2.19,1.4-1-1-2.09.3-4-.1-5.77-2.2-3.08,1.7L549,280l-6.06,2.8,2,7.8,7.06-2.2,7.06,1.5,4.18,1.5.2,2.4-2.58,4.9-1.29,2.2.4,1.6.89,2.7,2,.9,3.08,1.5,2.68-1.1,2.19.4-1.09,6.8-.7,5.7-1.09,8V332l.4,3.8-1.49,3.5-1.29,1.8,9.74,8.3,5.67,3.6,1.39,1.4,3.08-2.6.6-1.4v-1.3l-1.19-1.3-1.59-.8-2.49-1.8-1.39-2.6-1.69-2.2-.89-2.6-.8-4.4-.3-3.9-.3-3.4.89-1.7H578l1.39,1.2.1.9-1.39.6.1,1,1.79.6,1.59-.3,2.19-1.3,1.79-2.2,3.18,3.2Z"/><path id="ZG" class="cls-5" d="M646.76,226.28l-3,1.8-3.08-.3-.8-.9-.8-2.8-.89-.1-3.58-.4-1.29-.5-.8-1.4-.1-2.2-.6-2.1-.5-2.3-.1-2.1-1.29-.5-1.39.3-1-2.5-2.49.4-1.29-1.7-1-1-4.08.3-3.18-.3-2.09.8-2.19,1.9-3.08,1.2-4.67.3-3.08.3-3.88-1.2-1.39-1.2-4.28.1c-.6-1-1.09-2.6-1.69-3.7-.5-.9-1.29-1.9-1.69-2.8a23.36,23.36,0,0,1-1.09-2.8c-.1-.3-.3-.8-.3-.8a12.31,12.31,0,0,1-1.39,2.5,7.48,7.48,0,0,0-1.09,2.8c0,1.2,1.19,2.5,1.69,3.7a9,9,0,0,1,.8,2.3c.2,1.1.2,2.6.3,3.7a25.52,25.52,0,0,0,0,3.9,23,23,0,0,0,.8,2.8,28.12,28.12,0,0,0,.6,2.8c.2.7,1.09,1.5,1.09,2.3s-.89,1.7-1.09,2.5c-.3,1.2-.2,3-.6,4.2l2.68,4.5,1.79,2.7,2,.6,1.49-1.4.89-.3.5,1.6.3,3,2.58-1.4,2.78-1.6,1.69-.4,1.39,4.9.89,2.2,1.69.6,4,1.6,2.49-1,3-.3,3.58-.1.8,3.4,2.68.1L627,251l2.09-1.6,2.29-.8,1.39-.9,3.48.9,2.78.5,1.19-.8.1-1.3.3-2.7,1.29-1.7,1.89-1.4,1.29-2.2.8-4.1,1.89-4.8-.3-1.3Z"/><path id="SO" class="cls-2" d="M400.59,176.78l-2.29,3.5-2,1.8-1.49,2.2-2.29,1.6-6.06,1.7-2.88,1.1-2.49,2.1-.7,2.9-.6,1.1-1.39.5-4.28.9-3.68.5-.1,3.1-3.48,3-4,2.4-6,2.7-5.37,2.2.89,6.9,1.59,1.9,3.28,1,1.29.6,1.19,4.8.89,1.7c.4-.4,1.19-.5,1.69-.8s.7-.8,1.09-1.1c.7-.5,1.79-.6,2.49-1.1a10.06,10.06,0,0,0,1.69-1.9c.3-.6.2-1.6.6-2.2a2.34,2.34,0,0,1,1.09-1.1c.7-.2,1.69.4,2.49.3a8.19,8.19,0,0,0,2.19-.8,20.85,20.85,0,0,0,1.69-1.4,12.2,12.2,0,0,1,2.49-1.4c.7-.3,1.79-.1,2.29-.6l.3,4.2.3,4.1,3,4.7-1.89,3.7-1.59.5-2.88-.2-4.08-.2-2,2.6-1.49,2.2v2.9l-.7,2.1-4.57.3-2.29.2-1.39-1.2-2.88-.5-1.09.8-.2,2.3,1,2.4,1.29,2.9,2.29,3.8.5.7.89-.6,3-2.2,2.39-1.3,2.39-.7-.1,2.3-.2,1.8,1.29,1.8,2.78-.2,2.88-1.1,1.69-1.3.4-2.1-1.09-1.6-1-1.9.5-1.1,3.68-1.8,3.08-1.8,3-2,2.09-4,1.09-4.4.5-3.3,3-.9,2.09-.8,2.58.5,2.58,1.6,2.19,2.1,5.37,1,5.37.3,3-.9,3.68-3.1,2.29-3.1.1-2.3-.4-2.9-2.29-2.3-2.49-1.2-1.89-1.9-1.59-2.4-2.58-5.1.2-1.2-.5-2-2.09-1.2-1.39-1.1-1.89.1-1.89-.4v-2.7l-.89-2.6.4-2.3-.1-1.6-.2-1.9,2.39.2,7.56.8,2-.3,3-1.2,3-1,2-1.2,3.38.4,1.09,1.3,2.78,3.9,1.79,4.4,3.38.5,3.48-.4,3.58-1.7,1.29-.9,1.79,2.8c.6-.5,1.29-1.3,1.89-1.8s1.19-.8,1.69-1.2.7-1.1,1.19-1.4a2.43,2.43,0,0,1,1.19-.4c1.09-.1,2.58.4,3.68.4.8,0,1.89-.2,2.68-.2a6.91,6.91,0,0,0,2.49,0,6.58,6.58,0,0,0,2.19-2.2,30.71,30.71,0,0,0,2.29-3.9,16.69,16.69,0,0,1,1.19-2.3c.5-.7,1.59-1.4,2.19-2.2a14.21,14.21,0,0,1,.8-1.8c.6-.7,1.79-1.2,2.29-2a7,7,0,0,0,1.39-2.5c.1-1.1-.89-2.4-.8-3.5a12.18,12.18,0,0,1,.89-2l1.89,1.3,1.89,1.5,2.39.9,3,.7,5.77.5,3.78.3,1.69-.3,1.29-.5,1.19-1.8,1-3.5,1.89-5.5,1.89-3.8,1.89-4.5-.4-2.1-2.78-2.6-2.39-.4-1.79-.8-2-1.2-3.18-1.8-1.89-1.8,2.39-1.4-.1-2.6-.7-3-1.59-.4-.7-2.4L488,133l-2.09-.2-1.09-.2-.7,2.3-1,2.3-.3,3,1.49,1.9s.89,2.1,1.29,2.1l-.3,2.6-4.08,3-3.38,1.6-4.47-.5-2.78.6-2.58,3.2-3.68,3.7-3,2-3.48,1.5-4.77,1.8L450,166l-.4,2.4v2.3l-2.29.2-2.58-.4-2.49-1.1-1.79-1.5-2.19-2-1.79-2.4-1.09-2.3-2.29-1.4-6.06.9-5.47.3h-3.68l-.89-4.1-.6-3.7-.2-5.1,5.07-.3,1.89-.9,2.29-1.2,1-2.5.2-4.1.5-3.1,2.49-2.5,1.79-2.3,2.19-4.3.5-1.2-2.88-1.3-3.28.3-4.28-.7-2-3-1.19-.5-2.19,2.5-2.58.2-4.77.2-.2,3.6,2,2.6.6,2.6-1.19,3.7-1.69,2.9-.2,3-7.16.5-1.09,3.9-7.56,1.1-1.19,3.4-.5,1.8-3.58,1.1-2.78,2.3-3.28-2.3-.5-2.2-3.58-.1-3.18.2-1.59,1-.89,2-.3,1.6,2.88,4.9,6.16,1.4,5.47-1.4,4.37.5v4.4l.4,3,1.49,3.6.7,1.6,6.76-.1-.4,2.8m-33.7-42.3,1.09.7,1.69-.7,1.09,1.2,2.78,2.1,2.58,2.6,1.19,2.3-.2,2.4-.8,1.9-.89.9-2.29.2-2.78-1.4-3.78-.9-6.76-1-.6-5.1h0l3.68-1.9ZM424,229.78l1.29-1.1,1.59-.9,1.29.2,1.49,1.5-.1,1.1-.89,1.9-1.39,1.4c-.2,0-2.19.9-2.19.9l-1.39-.1-.7-1v-2.1Zm-38.28-110.3,2,.1,2.09,1.3.2,1.6.2,1.4-1.49,2.3-.8,1.6-1.19,1.3-1.19-.2-2.19.2-1.89-.2-3,1.2-2.09.3-2-.7-1.39-.5-.8-1.4.5-.6,1.69-1.7-2.49-2.3-2.29-1.5-1.89-.6,2.29-2.7,1.89-.2,1.89,1.1,2.49,2.5a3,3,0,0,0,2.09,1.9c1.49.2,5.07-1.3,5.07-1.3Z"/><path id="SG" class="cls-3" d="M822.43,94.58l-11.53,16.1-1.59,1.3-2.88,2.7-3.08,1.3-1,3.4-.7,3.2-1.59-.6-3-.9-.5-2.5L794,115l-2.29-.4-2.78-2.5.3-.3.89-1.9-1.69-.4,1.19-2.4-2.68-1.5-1.09,1.1-2.58.3-2.88.5-2.19.4L777,110l-2.09,1.1-1.09.5-.2,1.2,2.78.6,1.59-.8,2.58-.2,2.49,2.9.89,4.4.4,2.1-2.78,1.2-4.18.5-4.18,1.6-2.78,1.2-3.28-.3-3.78-2.6-2-1.2-4.37.4-1.39-1.5-.7-1.8-1.49-.1-2.19-.6-3.78-3.1-1.09,3.2-3.58,3.4-2.68.9-5.37.5-2.88-1.7-1.89-2-4.47-2.1-2.88-.5-2.78,1.3-3.88.9-1.69,1.8-.1,2.4,1.89,3.3,1.79,1.3,3.88,3,1.49,1-.5,4.1-1.29,2.2h-4l-5.17.6-1.09,1.5-.89,5-2,1.7-1.09,3.2-.6,2.1-1.19.5-1.39,1.8-1.89,1.1,1,2.4,2.58,5.5,3.08,4.9.8,5.8-.89,3.9-4.18.7-2.88,2.7-2,2.3.6,2,1.39-.4.4,1.1-1.69,3.7.1,3-5.67,1.5-4.67,1.6-2.19,1.6-1.59.9h-2.19l-4-.6-2.19-1.2-2.58-.6-2.39.8-1.89,2-1.19,2.1.5,1.7.1,4.5,8.25,3.4H691.1l7.75-1.4,5.47-2,1.79,1.8,1.59,1,.2,8,.7,2.3,2.49-.4,2.88.7c.5,2,3,3.7,4.47,5.1,3,2.7,7.66,5.5,10.94,7.9.7.5,1.49,1.2,2.29,1.7a11.94,11.94,0,0,0,3.38,1.7c1.19.2,2.58-.8,3.78-1.1.89-.2,3.18-.9,3.18-.9l12.63,3.9v3l.2,3.4.4,7.7.2,2.7-3.08,4.1-2.49.9-3.48,1.1-1,.6-.3,1.9.7,2,1.29,1.7,2.58.8,5.27.3,2.19-1,2.09-1.1,2.29-.7,2,.7,2.68,1.9,1,5,1.29,7.2.4,10.3-2.19,2.6-.8.9,2.09,1.8,1.79,2.1,1.59,3.6-.7,3.3,3.88,4.1,1.09-.6,1.79-1.3,2-.3,2.49.1,2.78,1,3.78.9,5.67.7,6.46.4,4.28,1,3.08,1.2,4.87,2.6,3.38,1.7.7-.6.89-1.5.2-1.9-.7-2.4,3.48-.1-.1-2.2-1-2,.3-3,1.69-4.3,3.78-4.2,4-6.9,1.19-2.7,2.09-1,3.38-1.8c-.6-.9-1.79-1.9-2.39-2.8a15.59,15.59,0,0,1-1.59-2.8c-.89-1.8-1.49-4.5-2.39-6.4s-2.78-4.1-3.58-6c-.3-.8-.3-2.1-.8-2.8s-1.69-.9-2-1.6a3.49,3.49,0,0,1,.4-2.2c.5-.7,1.69-.8,2.29-1.4a32.87,32.87,0,0,0,2-3.1c.7-1,2-2,2.49-3.1a14.8,14.8,0,0,0,.8-2.8c.2-.8.5-1.8.6-2.5a10.8,10.8,0,0,0,0-3.1,25.92,25.92,0,0,0-1.39-3.9c-.3-.9-.8-2-1.09-2.8-.4-1.2-.89-2.8-1.39-3.9s-1.29-2.5-1.69-3.7a13.87,13.87,0,0,1-.3-2c-.2-1-.6-2.4-.8-3.4-.2-.8-.4-2-.6-2.8-.2-1-.4-2.4-.6-3.4a23.21,23.21,0,0,1-.3-3.7,7.65,7.65,0,0,1,.6-2,20.09,20.09,0,0,1,2.29-2.8c.6-.8,1.39-2,2-2.8.8-1.2,2-2.7,2.78-3.9a19,19,0,0,0,2-3.7,21.41,21.41,0,0,0,.3-2.5,11,11,0,0,1,.3-3.1,6.92,6.92,0,0,1,2-2.5,11.81,11.81,0,0,1,2-.8,9.45,9.45,0,0,0,2-2,15.84,15.84,0,0,0,1.09-3.7,15.26,15.26,0,0,1,.6-2,5.79,5.79,0,0,1,1.39-1.7c.4-.3,1.19-.3,1.69-.6a10.1,10.1,0,0,0,3.08-3.4c.6-1,.89-2.6,1.39-3.7s1.39-2.3,2-3.4,1.09-2.8,1.69-3.9c.5-.9,1.39-1.9,2-2.8a19.86,19.86,0,0,0,1.09-2c.4-.7.4-1.9,1.09-2.3.4-.2,1,.2,1.39.3a19.08,19.08,0,0,0,3.38,0,6.85,6.85,0,0,0,2-.3c.7-.3,1.89-.7,2.29-1.4.3-.5-.1-1.4-.3-2a3.89,3.89,0,0,0-.6-1.1,12.19,12.19,0,0,0-2-2.5c-.2-.2-.7-.3-.8-.6a3.42,3.42,0,0,1,0-2c.1-.8.5-1.8.6-2.5a17.16,17.16,0,0,0-.3-4.5c-.3-1.6-1.79-3.5-1.69-5.1.1-1,1.49-2.1,1.39-3.1,0-.5-.6-1-.8-1.4a7.55,7.55,0,0,0-1.09-1.4c-.7-.4-2-.2-2.78-.6a12.35,12.35,0,0,1-2.29-1.7c-.4-.3-.89-1-1.39-1.1a1.89,1.89,0,0,0-.8.3,8.35,8.35,0,0,1-1.39.6h-.3c-.4,0-1,.2-1.39,0-.6-.3-1-1.4-1.39-2a5.55,5.55,0,0,0-.6-.8c-.5-.9-1.09-2.2-1.69-3.1a18.83,18.83,0,0,0-2-2,16.3,16.3,0,0,1-1.69-2,5.2,5.2,0,0,1-.5-1.9l-7.85-15ZM787.54,198l6.16,3.8,2.88,1.1,3.38.1,1.49-.9,4.37-2.6,2.78-2.1,6.26-6.1,3.58-4.9,2.09-5.7,1.29-7.3.1-4.9-.89-4.3-.3-2.1-1.19-2.5v-2.2l1.59-4.1,1.19-3.2,1.09-.7,2.68.1,2.58.3,2.68.4,1.59-1,1.79-1.9,4-.9,2.58-2,3.58-1.3,1.79-1.5,3.88-4.4-2.09-1.2-5-2.8-4.47-1.5-4.08-2.2-3.18-2.4-3.48-.1-2.78,2.6-3.18,3.6-5,2.2-4.77,1.4-4.37.9-1.39,4.6h-2.39l-3.78,1.8-5,.9H794.1l-4.47-.1-4.47.8-3.48,2.5-5.37,1.4-5.37.4-4.18.8-2.78,2.8-3,2-.2,1.9-.6,3-2.58,2.8-2.58,1.4.1,1.6,2.19,2.4v2.5l.8.6,2.39-1.8,3,2.5L762,174l-3.18,2.6-.4,2.6,1.09,5.4,1.89.9-2.78,5.9,3.08,1.9,3,1.5,3.38.5,3-.5,2.39-1.5,2.49,2,5,3.2,4.08,2.1Zm33.11-84.7-.4,1.6-1.49,3.1-2.68,2.1-2.49-.5-2.09-1.8.1-2.9,1.69-3.1,2.19-1.6,2.39.9Z"/><path id="AR" class="cls-3" d="M846.59,141.38l-3-2.5-3.38-2.7-2.78-1.1-3.78,1.1.3,3.2,2.78,1.9,2.19,1.5,2.39,1.4-2.58,2-4,.9L833,149l-1.59,1-.2-2.8,4.77-2.5-2.09-1.8-2.19-3.3-1.09-2-1.59.7-2.78.9-1.29,1-1.19,1.6,2.78,1.9-1.09,1.4-2.39,1.2-1.59,2,.8,1.9-1.19,3.1-1.59,4.1v2.2l1.19,2.5.4,2.3-3.38.8-3.38.1-2.78-1.2-2-4-5.07-2.2-6.16-2.5-3.88-1.6-3.48.8-2.49.8,1.49,3.6,1.09,1.5-1.79,2.8-4.08,3.6-3.08,3.5-.8,5.9-1.09,6.4,2.09,4.2,2.39,2,1.89,4.6.89,4.8-2.68,2.1-4.08-2.1-5-3.2-2.49-2-2.39,1.5-3,.5-3.38-.5-3-1.5-3.08-1.9,2.78-5.9-1.89-.9-1.09-5.4.4-2.6,3.18-2.6,1.49-1.5-3-2.5-2.39,1.8-.8-.6v-2.5l-2.19-2.4-.1-1.6,2.58-1.4,2.58-2.8.6-3,.2-1.9,3-2,2.78-2.8,4.18-.8,5.37-.4,5.37-1.4,3.48-2.5,4.47-.8,4.47.1h1.59l5-.9,3.78-1.8h2.39l1.39-4.6,4.37-.9,4.77-1.4,5-2.2,3.18-3.6,2.78-2.6,3.48.1,3.18,2.4,4.08,2.2,4.47,1.5,5,2.8,2.09,1.2Z"/><path id="AI" class="cls-3" d="M787.54,198.08l-.8-4.8-1.89-4.6-2.39-2-2.09-4.2,1.09-6.4.8-5.9,3.08-3.5,4.08-3.6,1.79-2.8-1.09-1.5-1.49-3.6,2.49-.8,3.48-.8,3.88,1.6,6.16,2.5,5.07,2.2,2,4,2.78,1.2,3.38-.1,3.38-.8.89,4.3-.1,4.9-1.29,7.3-2.09,5.7-3.58,4.9-6.26,6.1-2.78,2.1-4.37,2.6-1.49.9-3.38-.1-2.88-1.1Zm59.06-56.7-3-2.5-3.38-2.7-2.78-1.1-3.78,1.1.3,3.2,2.78,1.9,2.19,1.5,2.39,1.4,3.58-1.3ZM831.38,150l-.2-2.8,4.77-2.5-2.09-1.8-2.19-3.3-1.09-2-1.59.7-2.78.9-1.29,1-1.19,1.6,2.78,1.9-1.09,1.4-2.39,1.2-1.59,2,.8,1.9,1.09-.7,2.68.1,2.58.3Z"/><path id="GR" class="cls-3" d="M688.81,341l3.38.4,3.78.8,1.19,2.8h3.78l4.08-1.8,3.08-.9,7.06-1.4,3.88-1.4,2.58-2.8.7-3.1,1.29-4.9s1.89-3.6,2-4,.8-3.1.8-3.1l2.78-1.7,2.88-.3,2.88,1.4,2.09,3.3,1.29,2.3,1.79,1,1.69-1.3,2.68-2.3,2.58-2.9,1.89-1.8,2.58-.8,5-.2,2.39.7,1.19-3.4,1.59-2.1,2.68-3.1,2.68-2.8,3.08-.7,3.78,4.1,1.09-.6,1.79-1.3,2-.3,2.49.1,2.78,1,3.78.9,5.67.7,6.46.4,4.28,1,3.08,1.2,4.87,2.6,3.38,1.7.7-.6.89-1.5.2-1.9-.7-2.4,3.48-.1-.1-2.2-1-2,.3-3,1.69-4.3,3.78-4.2,4-6.9,1.19-2.7,2.09-1,3.38-1.8c-.6-.9-1.79-1.9-2.39-2.8a15.59,15.59,0,0,1-1.59-2.8c-.89-1.8-1.49-4.5-2.39-6.4s-2.78-4.1-3.58-6a23,23,0,0,0-.7-2.8l2.68,1.3,3.58-.1,1.19-1.3,1.19-1.9,3.68.1,2.68,1.9.89,1.8,2.78.3,3.68-1.2,1.29-1.2,1.59-.7,3.68.9,3.68.4,3.38-1.3,8.05,1.8,5.67,3.3,7.16,1.2,5.37.6,5.37,2.7,3.58,3.6,3.88,1.8,3.58.9,6.26-3,.6,3.3,1.49,2.7.89,3.3-1.79,2.4-1.79,6.3.89,2.4.3,4.5-.3,2.1,1.49,1.5,4.18,2.1,6,3.9,3.58,2.1,7.46-.9,4.18,4.5,3.88.6,6,3.6,3,6,2.39,2.7,4.47-.3,2.39,4.2,11.33.6,5.07-2.1,4.18-3.9,3.88-2.1,7.16.3.3-10.5,1.49-3,.6-3.9,2.09-2.1,2.39,1.5,3.28.6h5.07l3-2.1.3-3.6-.6-2.7,2.09-.3,2.39-3.6,1.79-4.8.89-4.8,4.18-1.8,4.47-1.2,2.09.6,5.67,6.3.1,4.2c.5.3,1.39,0,2.09.3,1.29.5,2.09,2.6,3.38,3.1s3-.1,4.18.3a6.73,6.73,0,0,1,2.29,1.4,9.57,9.57,0,0,1,2,2.5,22.76,22.76,0,0,1,.6,2.5c.2.8.6,2.8.6,2.8l.2.2a14.14,14.14,0,0,1-.7,1.5c-.4.5-1.29.9-1.69,1.4a14.69,14.69,0,0,0-1.39,2.8,23.35,23.35,0,0,0-1.09,2.8,21,21,0,0,0-.8,3.4,9.13,9.13,0,0,1-.3,2.3l1.09,2.5-.4,3.3.6,1.9-.3,2.4-.89,3.9-1.79,3.1-1,3,.1,2.5-1.59,2.2-2.19,1.5-1.79,1.6-.4,2.2.6,3.4,1.59,2.4,1.89,3.1-.1,1.5-3,1.6-3.88,2.4-2.49,2.2-.6,1.6.89,2.2,1.79,1.3.7,2.2-6.56,6.3-1.29,1.6.4,6.3,1.19,1.6,1.49,5.7.89,3.1,1.79,1.2,2.78-.4,4.77-1.2,4.57,1.8,1.89,2.4,3.28,3.6.1,6.9-.89,5.2-1.59,3.4-1,3.7-2.68,3.7-2.68-.3-1.89-1.2-3.58-.9-5.17.4-2.78-.9-6.06-.3-2.78,1-7.46.1-.6-1.9-1.19-2.2-1.29-3-2.78-1.6-4.18-.3-1.59-.6-1.79-1.6.3-2.7,2.39-1.9-.1-3.4-.4-1.6-2.09-2.7-1-2.8-.4-1.3-2.68-.1-.89,1.9v1l-.89,1.6h-1.49l-2.49-1-2.19-.1-3.28.9-.89,2.1L975,407l-1.59,1.6-3.88,1.2-1,.6-2.68-.6-3.28.6-1.49,3.3.7,4.8-3,1.3-2.19,1.9-.89,3.1-4.57,4.8-.6,2.7v4.6l-.3,3.7-.89,1.6-1.79,3.4.7,5.8.7,2.4-.7,2.4-.3,4.3,2.19,3.3,1.79,3.4,1.89.4,2.78,1.3,2.19-.3,4-.4a17.46,17.46,0,0,0,2.78-.7c1-.4,3.38-1.3,3.38-1.3l.7,1.9,1,2.2,2.68,3,.7,2.2-.6,1.3-3.88,3-2.78,1.2-1.79,1.6-.1.6-.8,3.6-1.09,4-1.29,4,.6,3.4,2.09,4.4,3,4,2.49,2.1,3,3.8,1.89,3.4,2.09,3.8-3.58,3.8-4.37,5.7-1.89.4-3.38-.2-3.78-1.1-3.38.2-1.69,2.3-1.09,1.3-1.29-1.5-2.09-1.5.2-3.8.6-5.3-1.09-3.8-5-2.1-5.47-2.3-1.69-1.1.4-4.2v-3.2l-1.49-1.9-.2-4.2,1.49-.6-.4-4.7-3.78-3.6-1.89-2.7-1.89-2.7L928,481l-2.49,1.3-2.68,1.5-3.58-.8-3.38.8-3,1.5-1.89,1.1-2.49,1.1h-6.26l-4,1.3L896.6,492l-2.49,1.7-2.29,1.5-2.29.4-4.67-2.3-3.38-2.1-3.38,2.1-1.49,2.3-.4,5.9.2,3.2-1.09,3-1.89,1.5-1.49-.6-4-.8-4.37,1.7-4.67,1.3-3.18.4-2.49-.8-4.87-.2-3.38-1.9-6.06-3-3.18-3.2-2.68-3.8-.8-2.7-1.69-4.9-2.68-1.9-3.58-2.3-3.58-2.4.8-3,.4-4.9-2.68-5.7-1.09-3.6v-4.7l.4-3.4,1.69-4.4,1.09-5.7-.2-3.6-1.89-2.5-4.87-.4-1.69,1.5-2.68,3.2-.4,3.2-1.69,2.5-.4,1.1-2.68-.6-1.69-1.9-3.78-3.2v-2.7l-.2-3-3.58-1.3-6.06.8-5.07.8-4.67,1.9-3.18,3.4.2,3.6.6,5.3-1.09,2.3-3.38,2.1-2.29,2.1.2,4.9,7.36,6.6v9.1l.6,5.9,1.89,3.4.4,6.6-2.49,5.1-4,8.2-4,4.9-.4,7.2-.2,2.3-2.09,1.1-3.18,2.5-.4,2.3-1.89,3-1.49,1.3-2.29,4-.6,3.4-.2,2.7-5,.9-3.88-3.7-4.08-5.8-3.58-3.4-4.87-3.6-.8-3.8.8-5.1-1.89-5.1-3-5.1-1.29-3.6,1.69-3,1.69-4.9-.2-5.3,1.09-3,2.29-1.9L739,488l-1.09-5.8.2-4.3,1.49-4,.6-3-2.78-3.4-.8-3.4,1.89-3.8.5-5.3-3.28-3.7-3.48-1.1-2.19-.2-3.28-3.3L724.4,443l-2.68-6.2-.4-5,.8-7.2,2.19-1.6,3-3.2-.6-2.1-1-.6-3.88-.9-3.08-4-1.89-1.9-4.47,1.3-3.78-.4-.6-2.4-.4-3.2-.5-4.7-.6-3.2-.7.8-1.69,1.2-5.87.5-3.28,2.6-1.09,2.4,2,4,.8,1.7-.1,2.6-2.49,2.4-2.68,1.9-2.68,1.2-3.88.7-3.88,1h-2l-1.49-.8-3.78,2.8-3.38-.6-3.28-1.9-2.29-1.2-4.57-.8-3.58.8-3.58-.2-4.08-1.9-3.88-.9,1.29-6.2-3.38-5.1-2.78-3.8v-6.2l2.39-3.4,1.89-1.1-2.09-4.5-.4-2.3,1.69-3.6,2.78-1.7,5.07-.2,3.38-3.6L659,372l1.49-5.1.6-2.6,3.38-.4,1.89,3.2,3.58.2,2.78-2.6.89-4.3,3.18-3.2,1.49-4.3L677,348l2.09-1.7,2.78-1.3,2.78-.4,4.18-3.6"/><path id="ZH" class="cls-6" d="M646.76,227.18l-.5-2.5-1.19-2.4.2-1.9,2.09-1.5,2.09-2.6,1.39-2.7.8-1.6,2.19-.2,9.44-3.1,6.66-.3h-.1l-.1-4.6-.5-1.7,1.19-2.1,1.89-2,2.39-.8,2.58.6,2.19,1.2,4,.6h2.19l1.59-.9,2.19-1.6,4.67-1.6,5.67-1.5-.1-3,1.69-3.7-.4-1.1-1.39.4-.6-2,2-2.3,2.88-2.7,4.18-.7.89-3.9-.8-5.8-3.08-4.9-2.58-5.5-1.09-2.4c0-2.7-1.19-6.1-2.09-6.5s-2.58-.7-3.58-1.2c-.6-.3-1.39-.9-2-1.2a19.35,19.35,0,0,0-5.17-1.6l1.79-2.8,1.19-3.3,2.68-1-1.39-1.1-1.79-1.6-1.09-2.9.2-2.9-2.58-4.9.6-4.2,1.79-4,1.09-6.4-.6-3.5-4.37-2-2.39-1.2-2,.6-2.58.1-1.59-1-1-2.2L676,99l3.58-.1.2-1-1.19-1.6-2.78-2.5L672,92.58l-2.88-1.9-.3-4.3a14,14,0,0,0-4.47-1.1,10,10,0,0,0-1.69.3c-.8.2-1.69.9-2.49.8l-.89-2.5-.4-1.4.2-1.8,1.19-1,2.58-.2,4.67.8-.1.8,2,1.2,3.88-5.4,4.18-7.8-.7-.9-2.78-.8-3.08-1.1-2.49-1.2v-.9l-3.88-.4-.6-.2-.6,1.1-1,1.5-1,.8-1.59,1.6-2.88,1.9-4.18-.1-4.37-.9-2-1.1-1.79-1-1.89-2.9-1.49-3.4.4-1.9,2.09-2.8c-.2,0-.4-.4-.6-.6-.5-.4-1.19-1-1.69-1.4s-1-.8-1.39-1.1a2.82,2.82,0,0,0-1.09-.8,3.49,3.49,0,0,0-1.39-.3,17.9,17.9,0,0,0-2.29.3c-.5.1-1.39-.1-1.69.3-.2.2,0,.6,0,.8a18.21,18.21,0,0,1-.3,2.3,10.15,10.15,0,0,1-.3,1.7c-.2.5-.89.9-1.09,1.4a5.87,5.87,0,0,0-.3,2.3,5.53,5.53,0,0,0,.5,2.6c.4.5,1.39.8,1.69,1.3a6.05,6.05,0,0,1,.6,2.3,5.33,5.33,0,0,1-.3,2.8,3.5,3.5,0,0,1-2,1.4c-.3.1-.8-.2-1.09-.3s-.7-.1-.8-.3c-.3-.3-.2-1-.3-1.4s0-1.7-.6-1.7-.7,1.6-.8,2.3a13.88,13.88,0,0,0-.3,2,10.13,10.13,0,0,0,.3,2.5c.1.4.5,1,.6,1.4a10.74,10.74,0,0,1,.3,2.5,9,9,0,0,1-.3,2.8,10,10,0,0,1-1.09,2,13.32,13.32,0,0,1-2.09,2,26,26,0,0,0-2.49,3.1c-.5,1-.4,2.8-1.09,3.7-.4.5-1.69.5-2,1.1s.3,1.8.3,2.5a7.65,7.65,0,0,1-.6,2,3.81,3.81,0,0,1-1.09,1.4,1.53,1.53,0,0,1-1.09.3c-.6-.3-.6-1.6-.8-2.3s-.5-1.6-.8-2.3a9.45,9.45,0,0,0-2-2,6.92,6.92,0,0,0-2-.8,20.74,20.74,0,0,0-2.29-.8,12,12,0,0,0-2.49-.8,17.45,17.45,0,0,0-2.29,0c-.6,0-1.39-.5-1.89-.3s-.7,1.1-1.09,1.4c-1.19.8-3.18.8-4.47,1.1a18.53,18.53,0,0,1-3.38.8,30.39,30.39,0,0,1-4.18.3,10,10,0,0,1-2.49-.3,13.86,13.86,0,0,1-1.69-.9l-1.29,2.1.6.7-.3,3.9-2.29,5.9-4.08,4.1-3.38,2.8v4.1l-1.79,3.4-2.09,6.5,1.79,5.4,1.59,1.3.4,1.7.5,2.8.89,5,.3.9,2.19,1,3.58,2.1.6,3.1-.8,1.8-6.06,7.2.4,2.2,6.86,3.6-.6,2.6.5,7.8,1.69,2.1,1.39,1.1,2.68.5,2-2.8,1,.4-1.79,3-1.79,3.2-2.39,2.7-2.39,1.1-3.28.7c.4.7,1.29,1.7,1.59,2.4.4.9.8,2.2,1.09,3.1.2.6.4,1.4.6,2a28.37,28.37,0,0,1,1.09,3.1,8.24,8.24,0,0,1,.3,3.1,8.52,8.52,0,0,1,.3.9,23.38,23.38,0,0,0,1.09,2.8c.4.9,1.19,1.9,1.69,2.8.6,1.1,1,2.6,1.69,3.7l4.28-.1,1.39,1.2,3.88,1.2,3.08-.3,4.67-.3,3.08-1.2,2.19-1.9,2.09-.8,3.18.3,4.08-.3,1,1,1.29,1.7,2.49-.4,1,2.5,1.39-.3,1.29.5.1,2.1.5,2.3.6,2.1.1,2.2.8,1.4,1.29.5,3.58.4.89.1.8,2.8.8.9,3.08.3,3-.8Z"/><path id="SH" class="cls-6" d="M626.47,84.88a22.52,22.52,0,0,0-2.39,3c-.5,1-.4,2.8-1.09,3.7-.4.5-1.69.5-2,1.1s.3,1.8.3,2.5a7.65,7.65,0,0,1-.6,2,3.81,3.81,0,0,1-1.09,1.4,1.53,1.53,0,0,1-1.09.3c-.6-.3-.6-1.6-.8-2.3s-.5-1.6-.8-2.3a9.45,9.45,0,0,0-2-2,6.92,6.92,0,0,0-2-.8,20.74,20.74,0,0,0-2.29-.8,12,12,0,0,0-2.49-.8,17.45,17.45,0,0,0-2.29,0c-.6,0-1.39-.5-1.89-.3l.6-2.3-2.68.4-3-.8-1.09-1.3.6-2.3.4-1.9,1.09-2.3,2.29-1.5,1.89-1.1,2.68-1.5,3.38-1.7,2.68-.2,1.49,1.3,2.09,1.5,1.89.6,2.09,1.1,1.09,1.7.6,1.7-.8,1.5.8,1.3,1.89.8,1.49.2Zm17.1-29.8-1.49-1.2c-.4-.3-1-.8-1.39-1.1a2.82,2.82,0,0,0-1.09-.8,3.49,3.49,0,0,0-1.39-.3,17.9,17.9,0,0,0-2.29.3c-.5.1-1.39-.1-1.69.3-.2.2,0,.6,0,.8a18.21,18.21,0,0,1-.3,2.3,10.15,10.15,0,0,1-.3,1.7c-.2.5-.89.9-1.09,1.4a5.87,5.87,0,0,0-.3,2.3,5.53,5.53,0,0,0,.5,2.6l-1.39-1.5-.8-.8-1.59-1-1.49-.5-1.09.3-1.49.7-2.68-.1-3.48-.1-1.59.4-.4.8-1.39.7-.89,1-1.59.6-.6,2.1.6.9-.3.4-6.36-.1-3.28.7-.7,1-.4.7-1-.3-.3-1,.3-1.5-.3-2.1-1-.6H594l-1.59-1.5-1.89-1.5-1.79-.4.3-2.4,1.29-2.7.3-1.8-.89-2.8,1.19-2.4,2.19-2.1,2.09-1.9,1.79-1.8,1.19-2.1.6-2.2,1-2.4.89-2.2,1.39-1.8,1.59-1.5,1.89-1.5,2.39-1.2,2.68-.6h1.89l1.59-.4,1.79-1.2,1.79-.9,2.68.6,1.89-.1,1.29-1.3-.3-1.9-.6-1.6-1-.9.3-1.9,1.59-.4h2.78l3.38.9,1.59.7,3.28,1.3-.4,1.6-.1,1.5.1,2.1.7,1.7.89,2.4,1.49,1.3,2.09.4.89-1,1.29-2.5-1.19-4.2-.3-2.1.3-1.5,2.09,1.8,1.89,1.8,1.59,1.5,1.19,1.2.4,1.2v1.8l-.3,3,.3,1.2,1.89-.1.7-1,1.89-.9,1.89-.1,2.49,1.2.89,2.7-.89.7-1.59,2.4-.89,2.2.4,2.2,1.89,1.6,1.29,1.9-.3,2.1-1.59.3-1.49-.3-1.19-1.5-1-.7-2.78-.3-2.09.1-1.89.3-.89.9-1,1.5.3,1.6-.4,1.9-.3,1.6Zm47.22,10.6a14.58,14.58,0,0,0-2.78-.8,18.11,18.11,0,0,1-2.49-.8,11.46,11.46,0,0,1-1.69-1.4l-2-1.7c-.4-.3-1-.8-1.39-1.1a2.82,2.82,0,0,0-1.09-.8,8.56,8.56,0,0,0-2.29-.6,17.9,17.9,0,0,0-2.29.3,13,13,0,0,1-2.78,0l.89-1.8.6-1.6,1-1.9.4-1.5-1-1.2-1.49-.9-1.79-.3-1.49-.6-.89-1.2.4-1.2-.1-1.5,1.29-1,1.49-1.2,1.19-.7,1-.3,1.49.3.1.7.7,1.6,1,.4,1.79.9,2.49.9,1.19.3,2.39.7,2.09,1.6,1.59.9.4,1.5-.7.6-1.19.3-1.29-.3-1.19,1.2v1.8l1.89,2.2,1.19,2.7.6.9,1.29,1.5.89,1.5Z"/><path id="TG" class="cls-6" d="M700.94,67a14.45,14.45,0,0,1-2.29,1,8.82,8.82,0,0,1-2.78.3,7.54,7.54,0,0,1-2-.6c-1-.5-2.09-1.5-3.08-2a14.58,14.58,0,0,0-2.78-.8,18.11,18.11,0,0,1-2.49-.8,11.46,11.46,0,0,1-1.69-1.4l-2-1.7c-.4-.3-1-.8-1.39-1.1a2.82,2.82,0,0,0-1.09-.8,8.56,8.56,0,0,0-2.29-.6,17.9,17.9,0,0,0-2.29.3,13,13,0,0,1-2.78,0,15.5,15.5,0,0,1-3.08-.8,18.72,18.72,0,0,1-2.49-1.1c-.6-.3-1.09-1.1-1.69-1.4a11.86,11.86,0,0,0-2-.3,15,15,0,0,1-2-.6c-.6-.2-1.39-.6-2-.8-.2-.1-.6-.2-.8-.3a22.82,22.82,0,0,0-3.68.3,6.85,6.85,0,0,1-2,.3c-.5-.1-.89-.7-1.39-.8a4.6,4.6,0,0,0-2-.3c-.7.2-1.29,1.3-2,1.7-.4.2-1,.4-1.39.6s-.89.9-1.39.8l-2.09,2.8-.4,1.9,1.49,3.4,1.89,2.9,1.79,1,2,1.1,4.37.9,4.18.1,2.88-1.9,1.59-1.6,1-.8,1-1.5.6-1.1.6.2,3.88.4v.9l2.49,1.2,3.08,1.1,2.78.8.7.9-4.18,7.8L669.92,82l-2-1.2.1-.8-4.67-.8-2.58.2-1.19,1-.2,1.8.4,1.4.89,2.5c.8.1,1.79-.7,2.49-.8a10,10,0,0,1,1.69-.3,17.24,17.24,0,0,1,4.47,1.1l.3,4.3,2.88,1.9,3.78,1.2,2.78,2.5,1.19,1.6-.2,1-3.58.1.5,2.6,1,2.2,1.59,1,2.58-.1,2-.6,2.39,1.2,4.37,2,.6,3.5-1.09,6.4-1.79,4-.6,4.2,2.58,4.9-.2,2.9,1.09,2.9,1.79,1.6,1.39,1.1-2.68,1-1.19,3.3-1.79,2.8a19.35,19.35,0,0,1,5.17,1.6c.6.3,1.39.9,2,1.2,1,.5,2.58.7,3.58,1.2.8.4,2.09,3.8,2.09,6.5l1.89-1.1,1.39-1.8,1.19-.5.6-2.1,1.09-3.2,2-1.7.89-5,1.09-1.5,5.17-.6h4l1.29-2.2.5-4.1-1.49-1-3.88-3-1.79-1.3-1.89-3.3.1-2.4,1.69-1.8,3.88-.9,2.78-1.3,2.88.5,4.47,2.1,1.89,2,2.88,1.7,5.37-.5,2.68-.9,3.58-3.4,1.09-3.2,3.78,3.1,2.19.6,1.49.1.7,1.8,1.39,1.5,4.37-.4,2,1.2,3.78,2.6,3.28.3,2.78-1.2,4.18-1.6,4.18-.5,2.78-1.2-.4-2.1-.89-4.4-2.49-2.9-2.58.2-1.59.8-2.78-.6.2-1.2,1.09-.5,2.09-1.1,1.19-2.1,2.19-.4,2.88-.5,2.58-.3,1.09-1.1,2.68,1.5-1.19,2.4,1.69.4-.89,1.9-.3.3,2.78,2.5,2.29.4,2.58,3.6.5,2.5,3,.9,1.59.6.7-3.2,1-3.4,3.08-1.3,2.88-2.7,1.59-1.3,11.53-16.1L773,66.48l-14.32-.3-4.47.1-3.38-.9-2.78-.9-.6-1.6-2.09-.7-7-3.3-16.11-2.3-5.77,2.1Zm119.7,46.3-.4,1.6-1.49,3.1-2.68,2.1-2.49-.5-2.09-1.8.1-2.9,1.69-3.1,2.19-1.6,2.39.9Z"/><path id="TI" class="cls-7" d="M645.16,416.48l-1.49,2.6-3,2.5-4.28.3-1.09-1.7-2.58-1.1-7.36-.8-2.09-1.5-4.28-1-5.27,1-3.28,3.2-1.39,3.4.7,4.2-.3,2.5-1.19,1.5-5,1.6-3.68.2-1.59,3.4-3.68,3.3-.89,2.6-1.19,2.3-1.59.5-3-.3h-3.88l-2-.5.2,4.3-.1,2.9-1.59,6.3,6.06-3,5.07-.8,4.18,1.5,3.38,6.3.4,2.7-.4,5.5v12.5l.6,7.2-.8,5.5-2.68,5.3-3,3.6-.8,4.9,3.58,4.9,1.29,3.8-.4,2.1.8,3,4.67,4,5.87,3.4,5.87,3.2,3.38,5.1,5.67,8.5,3.38,3.2.4,3.8,4.18,4.5,1.89,4,2.39.3,3,.6,2.09,1.8,2.78,1.6,3.88.4,2.19,1.6,1.69.8,2.88,1.3,5.67-4.9,3.48,2.4,3.08,1.6,3,2.5,1.59-.9,2.19-1.9,1-1.2,1.49.4,5.07,5.2,3.58,4.3,2.09,3,.3,3.1-1.89,2.1-1.59,1.2-.8.2-.2,1.6-.5,3.6-1.59,1.4-4,2.5-2.49,2.2-1,2.6,1.29,2.7H675l2.68.4,3.68,1.4,2.39,2.6,3.08,2.6,2.39,2.6,2.19.5,2.29,1.3.4,2.9.4,5.4,2.68,3.9,1.69,2.2,1.29,1.6v2.1l1.69,4.4,3,4.9-.4,2.7-2.68,2.5-2.49,4v2.1l1.49.2,2.49-2.5,3.38.2,2.49,2.5,3,.6,3.18-.2,1.89.8.4,3.2,2.68.8,3.78-1.9.8-5.1.6-3,1.69-3.6,1.09-4.2,3.18-2.1,2.09-2.3.8-3-.8-.6s-2.29-3-3.18-4a20.53,20.53,0,0,0-3.38-2.5h-4.57l-2.09-1.7-.6-2.3.4-3.2-1.49-2.5-1.69-2.1-1.29-3.6-.4-1.7,1.49-1.9,1.89-1.9,2.29-.6.1-2.2-.3-5.2-1.09-1.3-1.29-2.5.2-4.2,1.69-4.4,2.29-1.5,4-1.5,4.18-1.5,1.89-1.3,1.49-2.3.8-3.2-.2-3.4-1.69-3.6-.6-2.5,1.49-3.6,6.06-2.5,4.18-4,2.49-2.5,1.89-.8,2.09-3.6,2.19-1-3.88-3.7-4.08-5.8-3.58-3.4-4.87-3.6-.8-3.8.8-5.1-1.89-5.1-3-5.1-1.29-3.6,1.69-3,1.69-4.9-.2-5.3,1.09-3,2.29-1.9,2.09-3.4-1.09-5.8.2-4.3,1.49-4,.6-3-2.78-3.4-.8-3.4,1.89-3.8.5-5.3-3.28-3.7-3.48-1.1-2.19-.2-3.28-3.3-2.39-3.7-2.68-6.2-.4-5,.8-7.2,2.19-1.6,3-3.2-.6-2.1-1-.6-3.88-.9-3.08-4-1.89-1.9-4.47,1.3-3.78-.4-.6-2.4-.4-3.2-.5-4.7-.6-3.2-.7.8-1.69,1.2-5.87.5-3.28,2.6-1.09,2.4,2,4,.8,1.7-.1,2.6-2.49,2.4-2.68,1.9-2.68,1.2-3.88.7-3.88,1h-2l-1.49-.8-3.78,2.8-3.38-.6-3.28-1.9-2.29-1.2-4.57-.8-3.58.8-3.58-.2-4.08-1.9ZM711,610.28l1.09,1.1,1.09-.2.8-1.1.8-1.3-.2-1.6-.8-.3-1.69,1.7Z"/><path id="VD" class="cls-8" d="M279.2,283.18l5.17,2.6,3.88,1.2.8.4-.89,3.8v5.5l1.19,1.6,4.37,7.8,2.78,5.8-3,2.7-3.68,2.8-.5,5.3-1.59,3.4-3,2.8L283,331l-1.89-1.2,1.59-4.1-.2-4.9L280,319l-2.29-2.5-4.08-3.4-1.59-4.2-1.19-4.8-3.18-1.6-.2-.2-6-5h0Zm-56.47,77.7-1.89,3.2.5,2.8,2.29,1.8,1.79-1.6.89-3.5-.2-3Zm11.93,1.8,3.88-4.9,2.09-3.7-.7-1.6,1.59-.9,2.29,3,3.18,3.2,1.09,1.6-2.78,5.3-1.89,3-2.09-.4L239,365Zm-3.18.9,2.68.4,2.29,1.6-1.89,2.8-2.29,1.1-1.09-1.6ZM96.76,493.88l5.87,3.4-6.16,12.2-.7-.3-4.47-2.7-5.07-3L82,500.68H80.85l2.68-4.7L86,492l.2-4-1.49-3.4-6.56-6.8-6.76-4.9-4.87-3.2,2.09-3.6.8-4.2-.4-7.4,2.49-4.4,3.58-5.5,3-4.4,2.68-3,3.78-3.2-1.29-5.9-2.09-2.7-5.67-6.3,2.49-3.6,4.87-4.4L93,401.78l12.63-11.6,4.18-4.4,4.37-4,5.07-2.1,10.14-6.8,7.36-6.8.6-2.7,1.89-1.1,4.87-1.1,3.58-2.1,3-3.2,3-4.2-1.29-3.2-3.38-1.7-1.49-1.7-.8-2.1,2.09-1.5.4-5.1.2-2.3,2.09-1.9,3.18-3.8,16.31-2.3,9.15-6,5.67-2.7,7.75-2.1,3.68-4.8,6.46-4.2,5.27-4.9,3.18-1.2,2.29,5.5-1.39,4.1,3.18,1.9.7,7.2,2.68,1.9,2.49,7.8.5,11.1,2,1.6,4.08,3-1.59,1.1,4.57,3.4,4.87,2.1,2.09.4,2.29-1.2,2.29-2.5,2.78,1.8,3.88,1.6h3l2.09-2.1,1.09-3.9v-3.9l.89-2.3-1.19-.7-1.79.2-.5,1.8-2.49-.2,1.79-4.8.2-1.9,2.29-5.5,2.68-2.3-3.38-5.1-3.38,1.4-.2-1.1,5.07-2.8-2.49-2.7-2.09.2-5.17-4.7,7.66-6.3,5.27,7.5,4.77,5.3,4.08,3.4,2.09.9v5.3l1.59,3.5-.2,6.2-4.08,3-.89,4.2-1.59,5.7-2.49,2.8L258,357l-.89,2.7,2.68,2.3-.5,3.7L251.06,376l-6.16,6.7-.4,4.6-1.39,2.7-3.38.2-1.59-1.4-2.09-.2-2.68,1.9-3.48,3.4-1.59.5v6.2l.89,5.7v8.8l.7,2.1,3.18-1.4,1.79-.7,1.39,2.5,3.38-1.8,2.78-.5,3.18,2.8,3.18,1.4,3,.7,1.49,1.1-.89,1.5-3,2.7-1.79,2.5-1.19,1.6-1.59.2-.89,1.8.2,2.7-3.48-1.1-3.18-3-3.88-.2-.89,2.3-.5,3,3,1.9.89,1.9,1.59,3.4,3.48.5,3.88-2.1,1.89-3,3.88-3.4,1.39.5,2.49,2.5,4.37,3.9,4.08,1.9,4.57,1.2.4,3.7,1.59,6.9,1.19,5.1-.7,2.1,4.18-1.4,3.18-2.7s3.18-3.7,3-4.6,3.18-4.4,3.18-4.4l3.38-3.2,3.68-.9,6.16-.7,3.68-2.3,4.08-4.4,2.68-4.2,3.38-1.8,2.78-1.6,3.38-2.8,3.68,1.9,6.56-3.5,1.19,4.2.7,6.2.4,5.7-2.29,3.4-3.18,4.1a30.75,30.75,0,0,1,.5,5.3,31.35,31.35,0,0,0,0,4.4s-1.79,1.9-2.49,2.5-3.68.5-3.68.5l-1.19,1.6.2,3.5,2.09,3,.2,3.4-1.79,3.2v7.4l3.38,3-.2,2.8,1.39,6.4-1.09,2.9-4.18,3-2.78,2.7,2.09,4.6-1.79,3.2-1.89,3.7-3.88,5.7-4.77,4.4-6,5.8-5.47,4.4-7.16,4.3-5.77,4.1-.7.7c-.7-2-2.19-4.6-2.78-6.6a19.11,19.11,0,0,1-.3-2.5c-.2-1.6-.2-3.8-.8-5.3s-2.29-3.3-3.28-4.7a23.21,23.21,0,0,0-2.19-3c-.4-.4-1.29-.7-1.69-1.1a17.13,17.13,0,0,1-1.69-3.3,9.33,9.33,0,0,1-1.09-6.3,21,21,0,0,0,0-2.5,13,13,0,0,0-.8-2.8,29.32,29.32,0,0,0-1.69-3.6c-.4-.8-.89-2-1.39-2.8-.4-.6-1.19-1.3-1.69-1.9-.6-1-1-2.6-1.69-3.6a14.82,14.82,0,0,0-2.78-3.3c-.7-.6-1.89-1-2.49-1.7a7.74,7.74,0,0,1-.8-1.9c-.4-1-1-2.3-1.39-3.3a9.06,9.06,0,0,0-.6-2.2c-.4-.7-1.39-1.3-1.89-1.9a20,20,0,0,1-1.89-2.2,15.86,15.86,0,0,1-1.09-1.6l-3.28-8.1-13.32-1.1L195,461.08l-34.1,1.7-37,13.3-17.7,14.6-7.06-3.1-5.27-3-4.77-1.4L88,487.28l2.49,1.1,3.88,1.8-.4,3.2,2.78.5"/><path id="FR" class="cls-2" d="M261.6,297.38l6,5,.2.2,3.18,1.6,1.19,4.8,1.59,4.2,4.08,3.4,2.29,2.5,2.49,1.8.2,4.9-1.59,4.1,1.89,1.2,1.79-2.1,3-2.8,1.59-3.4.5-5.3,3.68-2.8,3-2.7-2.78-5.8-4.37-7.8-1.19-1.6v-5.5l.89-3.8,6.86-2,4.37-.2,9.64-1.6,8.95-4.2,2.29-1.4,3.48,3.9.7,3.5-4.08,2.7-1.79,2.3,1.59,5.8.4,5.8-1.09,8.1,4.18.3a9.42,9.42,0,0,0,1.39,1.9,3.89,3.89,0,0,0,1.39.8c.5.1,1.19-.4,1.69-.3,1.39.3,2.58,2.2,3.88,2.8a6.38,6.38,0,0,0,3,.6,2.39,2.39,0,0,0,.8-.6,7,7,0,0,1,2.49-.6,8.79,8.79,0,0,1,1.69.8c.7.3,1.69,1.4,2.49,1.1.5-.1.4-1.1.8-1.4A5.19,5.19,0,0,1,347,315a6.87,6.87,0,0,1,2.78.8A5.17,5.17,0,0,1,352,318a7,7,0,0,1,0,2.5,6.92,6.92,0,0,0,.3,2.5c.3.5,1.29.8,1.39,1.4.1.4-.3.8-.6,1.1-1,1.3-3.18,2.1-3.88,3.6l-.89-1.4-2.49-1.9-.7-1.6-1.89,2.7s-.7,1.6-.89,2.3,2.49,2.8,2.49,2.8l2.29,1.4.7.5a11.77,11.77,0,0,0-1.89,2.5,34.2,34.2,0,0,0-1.69,3.3c-.3.8-.5,2-.8,2.8s-1.39,1.8-1.69,2.8a15.35,15.35,0,0,0-.3,3,7.19,7.19,0,0,1-.3,2.5c-.5.9-2.29,1.1-2.78,1.9a4.17,4.17,0,0,0-.3,2.5,13.8,13.8,0,0,0,1.69,4.2c.5.8,1.69,1.6,1.89,2.5a4.3,4.3,0,0,1-.6,2.2c-.4.9-1.59,1.8-1.89,2.8a4.49,4.49,0,0,0,0,2.8c.4.7,1.89.8,2.49,1.4l5,1.8,2.78,1.8,4.18,3.7,2.68,2.7.2,8-.5,4.9-3-.2-1.59.4-3.68-1.6-3,1.9-.5,2.7-.4,5.3-.4,6.9,3.38,5.3-3.48,2.1-5.27-.5-3.48,1.9-4.77,3.7-2.78,3.6-6.56,3.5-3.68-1.9-3.38,2.8-2.78,1.6-3.38,1.8-2.68,4.2-4.08,4.4-3.68,2.3-6.16.7-3.68.9-3.38,3.2s-3.38,3.5-3.18,4.4-3,4.6-3,4.6l-3.18,2.7-4.18,1.4.7-2.1-1.19-5.1L268,448l-.4-3.7-4.57-1.2-4.08-1.9-4.37-3.9-2.49-2.5-1.39-.5-3.88,3.4-1.89,3-3.88,2.1-3.48-.5-1.59-3.4-.89-1.9-3-1.9.5-3,.89-2.3,3.88.2,3.18,3,3.48,1.1-.2-2.7.89-1.8,1.59-.2,1.19-1.6,1.79-2.5,3-2.7.89-1.5-1.49-1.1-3-.7-3.18-1.4-3.18-2.8-2.78.5-3.38,1.8-1.39-2.5-1.79.7-3.18,1.4-.7-2.1v-8.8l-.89-5.7v-6.2l1.59-.5,3.48-3.4,2.68-1.9,2.09.2,1.59,1.4,3.38-.2,1.39-2.7.4-4.6,6.16-6.7,8.25-10.3.5-3.7-2.68-2.3.89-2.7,4.37-4.9,2.49-2.8,1.59-5.7.89-4.2,4.08-3,.2-6.2-1.59-3.5v-5.3l-2.09-.9-4.08-3.4-4.77-5.3-5.37-7.5Zm-15.21,12.8,5.17,4.7,2.09-.2,2.49,2.7-5.07,2.8.2,1.1,3.38-1.4L258,325l-2.68,2.3-2.29,5.5-.2,1.9-1.79,4.8,2.49.2.5-1.8,1.79-.2,1.19.7-.89,2.3v3.9l-1.09,3.9-2.09,2.1h-3l-3.88-1.5-2.78-1.8-2.29,2.5-2.29,1.2-2.09-.4-4.87-2.1-4.57-3.4,1.59-1.1-4.08-3-2-1.6-.5-11.2Zm-23.66,50.7-1.89,3.2.5,2.8,2.29,1.8,1.79-1.6.89-3.5-.2-3Zm8.75,2.7,2.68.4,2.29,1.6-1.89,2.8-2.29,1.1-1.09-1.6Zm3.18-.9,3.88-4.9,2.09-3.7-.7-1.6,1.59-.9,2.29,3,3.18,3.2,1.09,1.6-2.78,5.3-1.89,3-2.09-.4L239,365Z"/><path id="VS" class="cls-9" d="M580.14,458.28l1.59-6.3.1-2.9-.2-4.3,2,.5h3.88l3,.3,1.59-.5,1.19-2.3.89-2.6,3.68-3.3,1.59-3.4-2.78-.5-2.29-1.2-2.29-1.3-1.29-1.9-1.19-2.7-.89-2.2-2.49-4.1-.89-2,1.69-5,2.19-5.7.5-10.7-.3-2.3-2.29-1.5-1.79-.5-3.88,4.4-2.49,3.4-2.29,4.1-1.19,5.6v5.3l-.8,3.1-3.48,3.3-3.08,2.2-3.58,1.9-1.39,2.3-7.46,4.7-4.77,1.7-10.24,2.6-5.27.9-3.58-3.4-6.36-1.2-5.87-3.9-4.47-1.7-3.88.3-5-2.3-3.68-2-3.08.2-2.78,1.9-3.88,2-4.37,1.7-.8,10-7,3.4-2.19,3-5.27,4.4-5.77.9-9.44.5-12.83,11.2-14.71,12.2-4.47-6.9-7.75-5.6-5.57-1.1-2.58,2.6-2.19,4.1-3,3.7-5-.2h-4.47l-2.29,1.2-1.89,1.9,4.47,3-1.09,1.7-2.58,2.8-4.18,2-4.37,1.4-8.05-2.6-4.77-1.1s-7.85,2-8.55,2.3-6.66,5-6.66,5l-4.47,3.1-4.47,2.8-2.78-1.1-1.39-2.2V485l-4.08-.8-3.88,2.5-2.58,2-.8,4.4L329.9,497l-3,2-5.87-.1-4.18,2.9-2.78,2.7,2.09,4.6-1.79,3.2L312.5,516l-3.88,5.7-4.77,4.4-6,5.8-5.47,4.4-7.16,4.3-5.77,4.1-.7.7c-.7-2-2.19-4.6-2.78-6.6a19.11,19.11,0,0,1-.3-2.5c-.2-1.6-.2-3.8-.8-5.3s-2.29-3.3-3.28-4.7a23.21,23.21,0,0,0-2.19-3c-.4-.4-1.29-.7-1.69-1.1a17.13,17.13,0,0,1-1.69-3.3,9.33,9.33,0,0,1-1.09-6.3,21,21,0,0,0,0-2.5,13,13,0,0,0-.8-2.8,29.32,29.32,0,0,0-1.69-3.6c-.4-.8-.89-2-1.39-2.8-.4-.6-1.19-1.3-1.69-1.9-.6-1-1-2.6-1.69-3.6a14.82,14.82,0,0,0-2.78-3.3c-.7-.6-1.89-1-2.49-1.7a7.74,7.74,0,0,1-.8-1.9c-.4-1-1-2.3-1.39-3.3a9.06,9.06,0,0,0-.6-2.2c-.4-.7-1.39-1.3-1.89-1.9a20,20,0,0,1-1.89-2.2,15.86,15.86,0,0,1-1.09-1.6l-3.28-8.1-13.42-1,.89,8.6.8,5.5-1.49,2.5-2.29,2.3-4,1.3.8,2.1,2.49,3.2,1.69,3.6,1.29,1.9,1.69.4,3.58,2.5,1.49,2.1,1.49,1.9,3,.8,1.89,2.7v5.1l-.8,4.7-2.68,4.7-4.18,5.7-3,5.9.6,5.3.4,5.7-3.58,2.1-3,4.2-.8,2.3,2.09,1.7,2.29,2.7,5.67-.2,3-.4,3-.4,4.18,1.7,5.07,1.3,1.69,3-1.49,2.5.6,6.1-.4,3.2-2.09,1.7-.6,4.7.2,3,2.49-.4,1.49-1.7,1.49-3,.6-1.5,3.58-.2,1.89.6,1.89,3.8,1.89.6,2.68,4,3.58,5.9,4.67,5.7,3.38,6.1,1.09,4.4-1.49,4,3.38.8,3.38.8.4,4.9v4.7l2.68,3s3.38,4.9,4.37,6.1a21.6,21.6,0,0,1,2.29,4l2.29,3.8,1.49,4.2.8,1.9,1.69-.2,2.09-4,2.49-2.7,4.87-.4,4.18,3.4,2.29,3,1.89.4v-4.4l.2-2.7,2.49-2.3h2.68l3.78-.4,2.29-.3,3-.6,1.79-1.8,2.39-3.6,1.19-2.7,4.47.6,5.07,1.1,4-.2,4.37,1.7,3.88,1.8,1.79-1.5,1.79-.9,2.68-.6,1.49-3,3.88-1.8,4.77-2.7,2.09-.9-.6-.9,1.49-4.5,2.09-.3,2.09-1.5,2.09-.9,3.58-.6h2.68l2.68-1.8-.6-2.4,1.79-3.6,1.59-.4,1.89-.8,3.18,1.5,3.38,3.8,3.78.6,6.06-1.1,5.07.6,3,1.9,1.49,1.9,3,2.1,3.38,2.1,1.29,5.3,1.69.8,1.09-.4,4.87-2.3,3.18-.2,4.18,1.3,4.67,4.4,4-2.7,4.37.8,3.78.2,2.68-1.5V623l-.6-7.6,1.29-4.7,4-4.4,4.18-2.7,17.2-1.1L495,600l2.49-5.3,2.09-4.7,3-2.5-1.89-3.6.2-8,1.29-2.1,3.78-3.6,5.67-3,4.37-.4h3.78l.6-3,2.09-3.6,3.18-2.7,3-.8.2-1.7-.8-4.7,3.18-3-.6-4-2.29-2.3-1.49-5.1-.4-3.8-3.18-4.4-4-3.4-5.47-2.7.4-3.6,3-2.7,3.58-5.5,3.38-3.4,3.18-1.3,3.78.4,3.78,1.5,4-1.1,4.67-5.9,1.89-3.2v-1.7l1.89-1.5,3.78-1.3,2.29-3.8,3.38-2.1,7.56-3.2,1.69-3.4-1.09-3-3.38-.8-2.49-2.3,1.09-4.2L562,467l4.37-1.1,4.87-3.4Z"/><path id="NE" class="cls-8" d="M291.72,263.68s-1.59.3-2.29.4-1.59.1-2.29.2a15.4,15.4,0,0,0-2.29.8,20.53,20.53,0,0,0-2.49,1.5,21.82,21.82,0,0,0-2.49,1.7,11.35,11.35,0,0,0-1.89,1.9,22.5,22.5,0,0,0-1.29,2.7c-.4.8-.89,1.8-1.29,2.5s-1.29,2.7-1.29,2.7l5.17,4.8-17.6,14.3-7.66,6.6-7.56,6.3-24.26,18.4-2.49-7.9-2.68-1.9-.7-7.2-3.18-1.9,1.39-4.1-2.29-5.5-3.18,1.2-5.27,4.9-6.46,4.2-3.68,4.8-7.75,2.1-5.67,2.7-9.15,6-16.31,2.3a21.06,21.06,0,0,0,.1-6.8l.6-6.1L153,313l-2.68-3.8-2.49-3.2,3.78-5.7,5.67-6.3,3.18-3.4,1.69.4,2.68-1.1,4.67-1.7,5.67-2.1,6.06-2.3,2.68-1.5,5.67-.2,1.89-1.3,3-4.7,3-5.9,3.38-1.9,2.49-.2,2.49-1.1.2-1.9-.6-1.9-2.49-.8v-1.9l.8-1.9h3.38l1.09-1.7.8-1.7.4-3,1.09-.8,3.78.2,3.38-.8.8-1.9-1.89-4,.89-.3a13.23,13.23,0,0,0,1.89-1.4c.5-.5.89-1.5,1.39-1.9a3.9,3.9,0,0,1,1.39-.8c1.09-.2,2.58.6,3.58.3s2.09-1.6,3-2.2c1.19-.9,3-1.9,4.18-2.8s2.49-2.1,3.58-3c1.79-1.6,4.87-3.3,5.77-5.5l4.57-.1,2.58,2.8,1.69,3.7.5,5.9-1.09,4.2-2.19,2.8.6,3.7,3.58-1.6,3.38-1.6,4.37-2.2,5.07-2.5,8.35-1.1,5.87-.2,1.69,1.1,7,3.7,6.46,4.4.89,3.3-.3,3.7-.89,4.8Z"/><path id="GE" class="cls-10" d="M99.15,487.08l7.06,3.1-3.68,7-5.87-3.4L94,492.68l.4-3.2-3.88-1.8L88,486.58l1.09-4.1,4.77,1.4ZM82,500.58H80.85l-2.49,2.3-.6,5.3-1.29,1.5-1.49,3v3.4l1.69,2.1.2,3.6-1.09,2.1L73.49,525l-3.58,1.3a23.66,23.66,0,0,0-3.78.6c-1.29.4-1.89.6-1.89.6l-1.89,1.7-2.09.2-3.18-.2L55.6,529l-1.89.6-1.49,1.7-1.29,1.9-1.09,1.5-2.68.6-2.09,3.4-.6,1.9,1.89,1.1,1.89.6.6,1.5-.2,3.6-1.29,3.2L45.86,554l-.4,2.3,4.18-.2,4.18.8L58,558l1.89-3.2,1.69-1.5,1.49-.2,2.68.8,4.67.2,3.78.8,3.38.4,2.29-1.1,1.89-1.7,3-1.7,2.68-1.3,2.68-1.9,3-3.4,2.49-3,3-3.4,2.09-2.1,3.38-.8,3-1.5,3.58-1.5,3-1.5,1.69-2.5,1.49-1.7-.2-2.5-.2-1.9-1.89-1.1h-1.29l-.4,1.3-1.89.6h-3l-1.89-1.9-3.18-2.3-1.89-4-4.57-5.1-.7-.3-4.47-2.7-5.07-3Z"/><path id="BS" class="cls-11" d="M400.59,98.18l2.88,1.3.5,4.4,2.29-.3,1.89,2.3,3.28-.6,1.69-1.7-.6-4.8,2.58-2L416.7,95l.8-2.1.6-1.3,2.09.2,1.89-1.5v-1.1l-.4-.8-1.69-.6-.2-2.3,1.89-1.9.2-1.3-1.49-.2-2.29,1.7L416,84.88,413.22,86l-3.08.3-2.49,1.2-3.38,3.7-.7,4.2Z"/><path id="BL" class="cls-12" d="M360.13,145l.4,2,1.09,1.9,5.17,4.7,1.59,2.4,2.88.5,1.89-.3.2-1.7.89-2,1.59-1,3.18-.2,3.58.1.5,2.2,3.28,2.3,2.78-2.3,3.58-1.1.5-1.8,1.19-3.4,7.56-1.1,1.09-3.9,7.16-.5.2-3,1.69-2.9,1.19-3.7-.6-2.6-2-2.6.2-3.6,4.77-.2,2.58-.2,2.19-2.5,1.19.5,2,3,4.28.7,3.28-.3,2.88,1.3-.5,1.2-2.19,4.3-1.79,2.3-2.49,2.5-.5,3.1-.2,4.1-1,2.5-2.29,1.2-1.89.9-5.07.3.2,5.1.6,3.7.89,4.1h3.68l5.47-.3,6.06-.9,2.29,1.4,1.09,2.3,1.79,2.4,2.19,2,1.79,1.5,2.49,1.1,2.58.4,2.29-.2v-2.3l.4-2.4,3.08-2.3,4.77-1.8,3.48-1.5,3-2,3.68-3.7,2.58-3.2,2.78-.6,4.47.5,3.38-1.6,4.08-3,.3-2.6c-.4,0-1.29-2.1-1.29-2.1l-1.49-1.9.3-3,1-2.3.7-2.3-2.68-1.7-.6-3.5.2-2.3-2.88-.3-2.39-.1-1.89-1.1-2.39-3.2-1.09-4.1-3.08-5.5-2.49-3.4-2.09-2.6-1-1.2-1.69-1.1-1.49-.1-1.39.9-.8,1.4-.6,2.4-.6,2-.8,2.4-2.19,2.1-2.29,1.7-3.38.2-.2-2.3.3-1.5-.7-1.2-1.49-.8-3.18-2.9-2.88-1.5-2.88-1-.4-1.6a17.49,17.49,0,0,0-3.08.8c-.6.3-1.09.9-1.69,1.1a22.37,22.37,0,0,1-3.68,1.1,6.87,6.87,0,0,1-2.78.8,7.25,7.25,0,0,1-2.49-.8,12.12,12.12,0,0,1-2.78-1.4,16.29,16.29,0,0,1-1.69-2,24.31,24.31,0,0,1-2-2.5c-.5-.8-.7-2.1-1.19-2.8l-2.58,2,.6,4.8-1.69,1.7-3.28.6-1.89-2.3-2.29.3-.5-4.4-2.88-1.3-2.78,1.4-2.78.3-3.18.7-3.58,1.2-2.68,3.6.6,4.4,1.89,2.3v3.8l-2.39,3.4a16.48,16.48,0,0,0,1.89.1l2.09,1.3.2,1.6.2,1.4-1.49,2.3-.8,1.6-1.19,1.3-1.19-.2-1.39.2-1.89-.2-3,1.2-2.09.3-2-.7-1.39-.5-.8-1.5-1.59,1.3-1.49,1.5-1.89,4,1.09.7,1.69-.7,1.09,1.2,2.78,2.1,2.58,2.6,1.19,2.3-.2,2.4-.8,1.9-.89.9-2.29.2-2.78-1.4-3.78-.9Zm-.6-5.2.7,5.2-5.57-.5-4.08-3.8.1-2.8a33.4,33.4,0,0,1,3.38,1c1.19.2,3,.1,4.18.4C358.53,139.18,359.13,139.58,359.53,139.78Z"/><path id="AG" class="cls-12" d="M586.61,92.18l-1.29,2.1.6.7-.3,3.9-2.29,5.9-4.08,4.1-3.38,2.8v4.1l-1.79,3.4-2.09,6.5,1.79,5.4,1.59,1.3.4,1.7.5,2.8.89,5,.3.9,2.19,1,3.58,2.1.6,3.1-.8,1.8L577,158l.4,2.2,6.86,3.6-.6,2.6.5,7.8,1.69,2.1,1.39,1.1,2.68.5,2-2.8,1,.4-1.79,3-1.79,3.2-2.39,2.7-2.39,1.1-3.28.7c.4.7,1.29,1.7,1.59,2.4.4.9.8,2.2,1.09,3.1.2.6.4,1.4.6,2a28.37,28.37,0,0,1,1.09,3.1,8.24,8.24,0,0,1,.3,3.1,12.31,12.31,0,0,1-1.39,2.5,7.48,7.48,0,0,0-1.09,2.8c0,1.2,1.19,2.5,1.69,3.7a9,9,0,0,1,.8,2.3c.2,1.1.2,2.6.3,3.7a25.52,25.52,0,0,0,0,3.9,23,23,0,0,0,.8,2.8,28.12,28.12,0,0,0,.6,2.8c.2.7,1.09,1.5,1.09,2.3s-.89,1.7-1.09,2.5c-.3,1.2-.2,3-.6,4.2l-4.87,1.5-5.37,1.3-2.29.3L573,234l-2.09-4.2-2-4.2-2.19-5.8-.8-4.5-1.79-5.3-2.09-6.8-1-4.6-.2-3.3-.7-2.1-.7-.4-4.28-1.2-1-1.8-3.38-.8-2.19.1-4.47,5.8-2.49,1.4-1,2.6-.8,4-.3,2.4-1.09,2.2L536.6,209l-2,.3-2.29-.7-1.79-1.5-.2-1.3v-1.5l2.49-1.2-.3-1.4-1.79.4-5.07.6-5.27.4-2.58-.6-.1-2.9-.89-2.2-.3-.6-1.69-.3-2.49-.6-2.49.8-1.19.9-.6,2.2-.8,2.3-2.58.8-2.49.2h-4.47l.2-1.2.2-3.7v-2.8l-.7-2-1.49-2.9-1.79.7-3,.9h-3.28l-1.29-1.2-1.29-.2-.1,2.1v8.7l-.6,1.1-.89,1-1.29.8-4-.2-1.89-.9-3.28-.4-4.28.6-2,.6-2,1.3-4.18.3-.4-3.5-.1-5.5.8-3.3.5-1.1a6,6,0,0,0,2.09-2.1,30.71,30.71,0,0,0,2.29-3.9,16.69,16.69,0,0,1,1.19-2.3c.5-.7,1.59-1.4,2.19-2.2a14.21,14.21,0,0,1,.8-1.8c.6-.7,1.79-1.2,2.29-2a7,7,0,0,0,1.39-2.5c.1-1.1-.89-2.4-.8-3.5a12.18,12.18,0,0,1,.89-2l1.89,1.3,1.89,1.5,2.39.9,3,.7,5.77.5,3.78.3,1.69-.3,1.29-.5,1.19-1.8,1-3.5,1.89-5.5,1.89-3.8,1.89-4.5-.4-2.1-2.78-2.6-2.39-.4-1.79-.8-2-1.2-3.18-1.8-1.89-1.8,2.39-1.4-.1-2.6-.7-3-1.59-.4-.7-2.4-.1-1.8-2.09-.2-1.09-.2-2.68-1.8-.6-3.5.2-2.3-2.88-.3-2.39-.1-1.89-1.1-2.39-3.2-1.09-4.1-3.08-5.5-2.49-3.4-2.09-2.6-1-1.2-1.69-1.1-1.49-.1-1.39.9-.8,1.4-.6,2.4-.6,2-.8,2.4-2.19,2.1-2.29,1.7-3.38.2-.2-2.3.3-1.5-.7-1.2-1.49-.8-3.18-2.9-2.88-1.5-2.88-1-.3-1.6a25.3,25.3,0,0,1,2.68-.5c1.09-.2,2.58-.5,3.68-.8.89-.3,2-.8,2.78-1.1,1.19-.4,2.78-.7,3.88-1.1a9.12,9.12,0,0,0,2.78-1.4,13.63,13.63,0,0,0,2.29-2.5,16.36,16.36,0,0,0,1.09-3.1,16.73,16.73,0,0,1,.8-2,2,2,0,0,1,.8-.8,2.21,2.21,0,0,1,1.39,0c.7.2,1.49.9,2.29,1.1a6.85,6.85,0,0,0,2,.3,5,5,0,0,0,1.69-.3,8.35,8.35,0,0,0,1.39-.6,6.33,6.33,0,0,1,1.39-.8,10.56,10.56,0,0,1,2.49-.3,5,5,0,0,1,1.69.3,5.6,5.6,0,0,1,2,1.1,7.83,7.83,0,0,1,1.09,2,16.73,16.73,0,0,1,.8,2c.2.4.4,1,.6,1.4a13.87,13.87,0,0,1,.3,2,7.65,7.65,0,0,0,.6,2,3.81,3.81,0,0,0,1.09,1.4c.7.5,2.09.6,2.78,1.1.3.3.4,1,.8,1.1a2.87,2.87,0,0,0,2.49-.6c.5-.3.8-1.2,1.09-1.7a7.18,7.18,0,0,1,1.39-2,6.92,6.92,0,0,1,2.49,0c1,0,2.39.2,3.38.3a19.31,19.31,0,0,1,3.38.3,8.79,8.79,0,0,0,1.69.8,17.9,17.9,0,0,0,2.29.3,22.59,22.59,0,0,0,3.68,0,9.66,9.66,0,0,0,2.29-.6,7.51,7.51,0,0,0,1.39-1.1,13.38,13.38,0,0,0,1.39-1.1c.4-.4.7-1.1,1.09-1.4a2.26,2.26,0,0,1,1.09-.3,6.33,6.33,0,0,1,1.39.8c.4.2.7.7,1.09.8a8.67,8.67,0,0,0,2.78,0c.3,0,.8.2,1.09,0s.6-1,.8-1.4a5.32,5.32,0,0,0,.8-1.7,13.43,13.43,0,0,0,0-2c0-.2-.1-.4,0-.6a3.33,3.33,0,0,1,1.39-1.7c.4-.2,1,.1,1.39,0a9.66,9.66,0,0,0,2.29-.6l.6-.3a27.15,27.15,0,0,0,2.49-2.3,7.51,7.51,0,0,1,1.39-1.1c.7-.3,1.79.1,2.49,0a4.46,4.46,0,0,0,1.09-.3c.7-.3,1.59-.8,2.29-1.1.5-.3,1.29-.4,1.69-.8.2-.3.1-.8.3-1.1.6-1.1,2.09-2,3.08-2.8.5-.4,1.19-.7,1.69-1.1s.6-1.2,1.09-1.4a2,2,0,0,1,1.69.3c.3.2.3.8.6,1.1a5.55,5.55,0,0,0,2,1.4c.3.1.8.2,1.09.3h1.09c.89-.1,2.19-.5,3.08-.6a6.63,6.63,0,0,1,2,0c.5.1,1.19.5,1.69.6.8.1,1.79-.1,2.49,0a4.6,4.6,0,0,1,2.29.6,2.48,2.48,0,0,1,.8,1.4c.3.8-.1,2,.3,2.8.5,1,1.79,1.8,2.49,2.5.89.9,1.39,2.8,3.08,3.1s1.39,1,2,1.4c1,.6,2.29,2,3.38,2s2.58.5,3.68.6,2.39,0,3.38,0,2.39.6,3.08,0c.3-.2.1-.8.3-1.1a4.61,4.61,0,0,1,1.69-1.7,2,2,0,0,1,1.09,0A1.84,1.84,0,0,1,586.61,92.18Z"/><path id="JU" class="cls-12" d="M350.58,137.78a38.36,38.36,0,0,0-5.87.2c-1.09.1-2.49.2-3.58.4a17.8,17.8,0,0,0-2.19.6c-.7.2-1.69.4-2.39.6a27.48,27.48,0,0,0-2.58,1,8.12,8.12,0,0,0-2,1.2,10,10,0,0,0-1.29,1.5l-3.28-1.9-1.69-2.3-4.18.4-4.18-1.9-4-1.3-1.29-1.1V131l1.49-3.4,2.09-3.2V121l-3.18,1.3-3.38-1.1-1.69-2.1-3.18-2.3h-3l-3.58,1.5-4,1.9-5.87-1.3-5.27-1.3-3.58-1.7-5.27.4-2.09,1.3-1.09,1.9-.6,2.7,2.49,4,1.49,3.8-1.09,2.1-3,.8-3.58,2.5-1.89,1.7-2.49.6-1.29,1.9-1.09,4.7-1.69.8-2.49,2.1-.6,4-2.68,2.5-1.29,3.2.8,4,9.25.4,4,.2,3.78-1.5,3.18-1.5,4.67-1.3,4.67.4,1.89,1.7,2.29,2.3,2.49,4.7-1.49,1.7-.2,2.1-1.29,2.1-4.37,1.1-2.29,2.1-1.29,3-.5,2.7c-.4.2-2,1.2-2.49,1.5a5.78,5.78,0,0,1-2.19.8,20.61,20.61,0,0,0-2.49,0,11.72,11.72,0,0,0-2.19,1.7,5.26,5.26,0,0,1-1.69.8c-.8.2-2.09-.2-2.78.3-.2.2-.2.6-.3.8a2.07,2.07,0,0,0,0,1.1c.2.5,1.19.8,1.39,1.4.5,1.2.1,2.9,0,4.2,0,1-.3,2.3-.3,3.3,0,.7.3,1.5.3,2.2a3.43,3.43,0,0,1-.3,1.7c-.4.6-1.39.9-1.89,1.4s-1.09,1.4-1.69,1.9a49.21,49.21,0,0,1-4.37,3.6c-1.19.9-3,1.8-4.18,2.8a22.64,22.64,0,0,0-3.28,4.2c-.5.7-.89,1.8-1.39,2.5a13.67,13.67,0,0,1-2.19,3,6.45,6.45,0,0,1-2.19,1.1c-.5.1-1.19-.2-1.69,0s-1.39.8-1.39,1.4.8,1.3,1.39,1.4c.4.1,1-.8,1.39-.6s.2,1.2.3,1.7a4.88,4.88,0,0,1,0,1.7l4.57-.1,2.49,2.7,5.77-.7,3.28-2.1,4.77-4.2,2.68-2.6,5.87.6,3.08-.3,1.59-2.5.3-2.5,5.87-.9,3.68-5,3.08-6.9.6-3.4,7.46,1.6,13-.9-1.19-6.5,3.68-2.2-.3-4.4,1.59-3.4,3.68-.6h4.08l3.08,3.4,5.87,1.2,7.16-.3,6.16-1.2,5.27-2.8,5.27-4.4,3.68-5,1.59.6.89,5,4.37-.3,8.95.9,5.27.6,6.16,2.2,3.38-2.5,3.08-3.7h6.46l2.19.3.3-2.8-6.76.1-.7-1.6-1.49-3.6-.4-3v-4.4l-4.37-.5-5.47,1.4-6.16-1.4-2.88-4.8-1.79.3-2.88-.5-1.59-2.4-5.17-4.7-1.09-1.9-.4-2.1-5.57-.5-4.08-3.8Z"/><g id="International_borders" data-name="International borders"><path id="path3629" class="cls-13" d="M841.62,116.48l-7.85-15-60.85-35-14.32-.3-4.47.1-3.38-.9-2.78-.9-.6-1.6-2.09-.7-7-3.3-16-2.3-5.77,2.1L700.94,67"/><path id="path3642" class="cls-13" d="M720.92,605.18l-.3-5.2"/><path id="path3640" class="cls-13" d="M720.63,600l-1.09-1.3-1.29-2.5.2-4.2,1.69-4.4,2.29-1.5,4-1.5,4.18-1.5,1.89-1.3,1.49-2.3.8-3.2-.2-3.4-1.69-3.6-.6-2.5,1.49-3.6,6.06-2.5,4.18-4,2.49-2.5,1.89-.8,2.09-3.6,2.09-1.1,5.07-.8.2-2.7.6-3.4,2.29-4,1.49-1.3,1.89-3,.4-2.3,3.18-2.5,2.09-1.1.2-2.3.4-7.2,4-4.9,4-8.2,2.49-5.1-.4-6.6-1.89-3.4-.6-5.9v-9.1l-7.36-6.6-.2-4.9,2.29-2.1,3.38-2.1,1.09-2.3-.6-5.3-.2-3.6,3.18-3.4,4.67-1.9,5.07-.8,6.06-.8,3.58,1.3.2,3v2.7l3.78,3.2,1.69,1.9,2.68.6.4-1.1,1.69-2.5.4-3.2,2.68-3.2,1.69-1.5,4.87.4,1.89,2.5.2,3.6-1.09,5.7-1.69,4.4-.4,3.4V467l1.09,3.6,2.68,5.7-.4,4.9-.8,3,3.38,1.9,3.58,2.3,2.68,1.9,1.69,4.9.8,2.7,2.68,3.8,3.18,3.2,6.06,3,3.38,1.9,4.87.2,2.49.8,3.18-.4,4.67-1.3,4.37-1.7,4,.8,1.49.6,1.89-1.5,1.09-3-.2-3.2.4-5.9,1.49-2.3,3.38-2.1,3.38,2.1,4.67,2.3,2.29-.4,2.29-1.5,2.49-1.7,1.69-3.2,4-1.3H908l2.49-1.1,1.89-1.1,3-1.5,3.38-.8,3.58.8,2.68-1.5,2.49-1.3,2.09,1.9,1.89,2.7,1.89,2.7,3.78,3.6.4,4.7-1.49.6.2,4.2,1.49,1.9v3.2l-.4,4.2,1.69,1.1,5.47,2.3,4.67,3.2,1.09,3.8-.6,5.3-.2,3.8,2.09,1.5,1.29,1.5,1.09-1.3,1.69-2.3L959,529l3.78,1.1,3.38.2,1.89-.4,4.37-5.7,3.58-3.8-2.09-3.8-1.89-3.4-3-3.8-2.49-2.1-3-4-2.09-4.4-.6-3.4,1.29-4,1.09-4,.8-3.6.1-.6,1.79-1.6,2.78-1.2,3.88-3,.6-1.3-.4-2.1-2.68-3-1-2.2-.7-1.9s-2.39.9-3.38,1.3a17.46,17.46,0,0,1-2.78.7l-4,.4-2.19.3-2.78-1.3-1.89-.4-1.79-3.4-2.19-3.3.3-4.3.7-2.4-.7-2.4-.7-5.8,1.79-3.4.89-1.6.3-3.7v-4.6l.6-2.7,4.57-4.8.89-3.1,2.19-1.9,3-1.3-.7-4.8,1.49-3.3,3.28-.6,2.68.6,1-.6,3.88-1.2,1.59-1.6,2.49-.7.89-2.1,3.28-.9,2.19.1,2.49,1h1.49l.89-1.6v-1l.89-1.9,2.68.1.4,1.3,1,2.8,2.09,2.7.4,1.6.1,3.4-2.39,1.9-.3,2.7,1.79,1.6,1.59.6,4.18.3,2.78,1.6,1.29,3,1.19,2.2.6,1.9,7.46-.1,2.78-1,6.06.3,2.78.9,5.17-.4,3.58.9,1.89,1.2,2.68.3,2.68-3.7,1-3.7,1.59-3.4.89-5.2-.1-6.9-3.28-3.6-1.89-2.4-4.57-1.8-4.77,1.2-2.78.4-1.79-1.2-.89-3.1-1.49-5.7-1.19-1.6-.4-6.3,1.29-1.6,6.56-6.3-.7-2.2-1.79-1.3-.89-2.2.6-1.6,2.49-2.2,3.88-2.4,3-1.6.1-1.5-1.89-3.1-1.59-2.4-.6-3.4.4-2.2,1.79-1.6,2.19-1.5,1.59-2.2-.1-2.5,1-3,1.79-3.1.89-3.9.3-2.4-.6-1.9.4-3.3-1.09-2.5a8.57,8.57,0,0,0,.3-2.3c.2-1,.5-2.4.8-3.4s.8-2,1.09-2.8a12.25,12.25,0,0,1,1.39-2.8c.4-.5,1.29-.9,1.69-1.4a4.5,4.5,0,0,0,.7-1.5l-.2-.2s-.4-2-.6-2.8a10.2,10.2,0,0,0-.6-2.5,8.17,8.17,0,0,0-2-2.5,6.73,6.73,0,0,0-2.29-1.4c-1.19-.4-3.08.2-4.18-.3-1.29-.5-2.09-2.6-3.38-3.1-.6-.2-1.59,0-2.09-.3l-.1-4.2-5.67-6.3-2.09-.6-4.47,1.2-4.18,1.8-.89,4.8-1.79,4.8-2.39,3.6-2.09.3.6,2.7-.3,3.6-3,2.1h-5.07l-3.28-.6-2.39-1.5-2.09,2.1-.6,3.9-1.49,3-.3,10.5-7.16-.3-3.88,2.1-4.18,3.9-5.07,2.1-11.33-.6-2.39-4.2-4.47.3-2.39-2.7-3-6-6-3.6-3.88-.6-4.18-4.5-7.46.9-3.58-2.1-6-3.9-4.18-2.1-1.49-1.5.3-2.1-.3-4.5-.89-2.4,1.79-6.3,1.79-2.4-.89-3.3-1.49-2.7-.6-3.3-6.26,3-3.58-.9-3.88-1.8-3.58-3.6-5.37-2.7-5.37-.6-7.16-1.2-5.67-3.3-8.05-1.8-3.38,1.3-3.68-.4-3.68-.9-1.59.7-1.29,1.2-3.68,1.2-2.78-.3-.89-1.8-2.68-1.9-3.68-.1-1.19,1.9-1.19,1.3-3.58.1-2.68-1.3c-.5-.7-1.79-.9-2.09-1.7a3.49,3.49,0,0,1,.4-2.2c.5-.7,1.69-.8,2.29-1.4a32.87,32.87,0,0,0,2-3.1c.7-1,2-2,2.49-3.1a14.8,14.8,0,0,0,.8-2.8c.2-.8.5-1.8.6-2.5a10.8,10.8,0,0,0,0-3.1,25.92,25.92,0,0,0-1.39-3.9c-.3-.9-.8-2-1.09-2.8-.4-1.2-.89-2.8-1.39-3.9s-1.29-2.5-1.69-3.7a13.87,13.87,0,0,1-.3-2c-.2-1-.6-2.4-.8-3.4-.2-.8-.4-2-.6-2.8-.2-1-.4-2.4-.6-3.4a23.21,23.21,0,0,1-.3-3.7,7.65,7.65,0,0,1,.6-2,20.09,20.09,0,0,1,2.29-2.8c.6-.8,1.39-2,2-2.8.8-1.2,2-2.7,2.78-3.9a19,19,0,0,0,2-3.7,21.41,21.41,0,0,0,.3-2.5,11,11,0,0,1,.3-3.1,6.92,6.92,0,0,1,2-2.5,11.81,11.81,0,0,1,2-.8,9.45,9.45,0,0,0,2-2,15.84,15.84,0,0,0,1.09-3.7,15.26,15.26,0,0,1,.6-2,5.79,5.79,0,0,1,1.39-1.7c.4-.3,1.19-.3,1.69-.6a10.1,10.1,0,0,0,3.08-3.4c.6-1,.89-2.6,1.39-3.7s1.39-2.3,2-3.4,1.09-2.8,1.69-3.9c.5-.9,1.39-1.9,2-2.8a19.86,19.86,0,0,0,1.09-2c.4-.7.4-1.9,1.09-2.3.4-.2,1,.2,1.39.3a19.08,19.08,0,0,0,3.38,0,6.85,6.85,0,0,0,2-.3c.7-.3,1.89-.7,2.29-1.4.3-.5-.1-1.4-.3-2a3.89,3.89,0,0,0-.6-1.1,12.19,12.19,0,0,0-2-2.5c-.2-.2-.7-.3-.8-.6a3.42,3.42,0,0,1,0-2c.1-.8.5-1.8.6-2.5a17.16,17.16,0,0,0-.3-4.5c-.3-1.6-1.79-3.5-1.69-5.1.1-1,1.49-2.1,1.39-3.1,0-.5-.6-1-.8-1.4a7.55,7.55,0,0,0-1.09-1.4c-.7-.4-2-.2-2.78-.6a12.35,12.35,0,0,1-2.29-1.7c-.4-.3-.89-1-1.39-1.1a1.89,1.89,0,0,0-.8.3,8.35,8.35,0,0,1-1.39.6h-.3c-.4,0-1,.2-1.39,0-.6-.3-1-1.4-1.39-2a5.55,5.55,0,0,0-.6-.8c-.5-.9-1.09-2.2-1.69-3.1a18.83,18.83,0,0,0-2-2,16.3,16.3,0,0,1-1.69-2,5.2,5.2,0,0,1-.5-1.9"/><path id="path3649" class="cls-13" d="M698.75,631.18l1.29,1.6v2.1l1.69,4.4,3,4.9-.4,2.7-2.68,2.5-2.49,4v2.1l1.49.2,2.49-2.5,3.38.2,2.49,2.5,3,.6,3.18-.2,1.89.8.4,3.2,2.68.8,3.78-1.9.8-5.1.6-3,1.69-3.6,1.09-4.2,3.18-2.1,2.09-2.3.8-3-.8-.6s-2.29-3-3.18-4a20.53,20.53,0,0,0-3.38-2.5h-4.47l-2.09-1.7-.6-2.3.4-3.2-1.49-2.5-1.69-2.1-1.29-3.6-.4-1.7,1.49-1.9,1.89-1.9,2.29-.6.1-2.2"/><path id="path3655" class="cls-13" d="M691.3,615.48l2.29,1.3.4,2.9.4,5.4,2.68,3.9,1.69,2.2"/><path id="path3660" class="cls-13" d="M662.86,568.78l3.08,1.6,3,2.5,1.59-.9,2.19-1.9,1-1.2,1.49.4,5.07,5.2,3.58,4.3,2.09,3,.3,3.1-1.89,2.1-1.59,1.2-.8.2-.2,1.6-.5,3.6-1.59,1.4-4,2.5-2.49,2.2-1,2.6,1.29,2.7h1.39l2.68.4,3.68,1.4,2.39,2.6,3.08,2.6,2.39,2.6,2.19.5"/><path id="path3665" class="cls-13" d="M650.83,570l2.88,1.3,5.67-4.9,3.48,2.4"/><path id="path3670" class="cls-13" d="M229.29,476.68l.8,5.5-1.49,2.5L226.3,487l-4,1.3.8,2.1,2.49,3.2,1.69,3.6,1.29,1.9,1.69.4,3.58,2.5,1.49,2.1,1.49,1.9,3,.8,1.89,2.7v5.1l-.8,4.7-2.68,4.7-4.18,5.7-3,5.9.6,5.3.4,5.7-3.58,2.1-3,4.2-.8,2.3,2.09,1.7,2.29,2.7,5.67-.2,3-.4,3-.4,4.18,1.7,5.07,1.3,1.69,3-1.49,2.5.6,6.1-.4,3.2-2.09,1.7-.6,4.7.2,3,2.49-.4,1.49-1.7,1.49-3,.6-1.5,3.58-.2,1.89.6,1.89,3.8,1.89.6,2.68,4,3.58,5.9,4.67,5.7,3.38,6.1,1.09,4.4-1.49,4,3.38.8,3.38.8.4,4.9v4.7l2.68,3s3.38,4.9,4.37,6.1a21.6,21.6,0,0,1,2.29,4l2.29,3.8,1.49,4.2.8,1.9,1.69-.2,2.09-4,2.49-2.7,4.87-.4,4.18,3.4,2.29,3,1.89.4v-4.4l.2-2.7,2.49-2.3H323l3.78-.4,2.29-.3,3-.6,1.79-1.8,2.39-3.6,1.19-2.7,4.47.6,5.07,1.1,4-.2,4.37,1.7,3.88,1.8,1.79-1.5,1.79-.9,2.68-.6,1.49-3,3.88-1.8,4.77-2.7,2.09-.9-.6-.9,1.49-4.5,2.09-.3,2.09-1.5,2.09-.9,3.58-.6h2.68l2.68-1.8-.6-2.4,1.79-3.6,1.59-.4,1.89-.8,3.18,1.5,3.38,3.8,3.78.6,6.06-1.1,5.07.6,3,1.9,1.49,1.9,3,2.1,3.38,2.1,1.29,5.3,1.69.8,1.09-.4,4.87-2.3,3.18-.2,4.18,1.3,4.67,4.4,4-2.7,4.37.8,3.78.2,2.68-1.5v-1.1l-.6-7.6,1.29-4.7,4-4.4,4.18-2.7,17.2-1.1,2.68-2.5,2.49-5.3,2.09-4.7,3-2.5-1.89-3.6.2-8,1.29-2.1,3.78-3.6,5.67-3,4.37-.4h3.78l.6-3,2.09-3.6,3.18-2.7,3-.8.2-1.7-.8-4.7,3.18-3-.6-4-2.29-2.3-1.49-5.1-.4-3.8-3.18-4.4-4-3.4-5.47-2.7.4-3.6,3-2.7,3.58-5.5,3.38-3.4,3.18-1.3,3.78.4,3.78,1.5,4-1.1,4.67-5.9,1.89-3.2v-1.6l1.89-1.5,3.78-1.3,2.29-3.8,3.38-2.1,7.56-3.2,1.69-3.4-1.09-3-3.38-.8-2.49-2.3,1.09-4.2,1.89-2.5,4.37-1.1,4.87-3.4,8.85-4.2,6.06-3,5.07-.8,4.18,1.5,3.38,6.3.4,2.7-.4,5.5V483l.6,7.2-.8,5.5-2.68,5.3-3,3.6-.8,4.9,3.58,4.9,1.29,3.8-.4,2.1.8,3,4.67,4,5.87,3.4,5.87,3.2,3.38,5.1,5.67,8.5,3.38,3.2.4,3.8,4.18,4.5,1.89,4,2.39.3,3,.6,2.09,1.8,2.78,1.6,3.88.4,2.19,1.6,1.69.8"/><path id="path3714" class="cls-13" d="M229.29,476.68l-.8-8.7-33.41-7.4-34.1,1.7-37,13.3-17.7,14.6-9.84,19.2,4.57,5.1h0l1.89,4,3.18,2.3,1.89,1.9h3l1.89-.6.4-1.3h1.29l1.89,1.1.2,1.9.2,2.5-1.49,1.7-1.69,2.5-3,1.5-3.58,1.5-3,1.5-3.38.8-2.09,2.1-3,3.4-2.49,3-3,3.4-2.68,1.9-2.68,1.3-3,1.7L80,554.28l-2.29,1.1-3.38-.4-3.78-.8-4.67-.2-2.68-.8-1.49.2L60,554.88l-1.89,3.2L53.91,557l-4.18-.8-4.18.2.4-2.3,1.49-3.4,1.29-3.2.2-3.6-.6-1.5-1.89-.6-1.89-1.1.6-1.9,2.09-3.4,2.68-.6,1.09-1.5,1.29-1.9,1.49-1.7,1.89-.6,1.49.2,3.18.2,2.09-.2,1.89-1.7s.6-.2,1.89-.6a23.65,23.65,0,0,1,3.78-.6l3.58-1.3,2.29-1.1,1.09-2.1-.2-3.6-1.69-2.1v-3.4l1.49-3,1.29-1.5.6-5.3,2.49-2.3,2.68-4.7,2.49-4,.2-4-1.49-3.4-6.56-6.8-6.76-4.9-4.87-3.2,2.09-3.6.8-4.2-.4-7.4,2.49-4.4,3.58-5.5,3-4.4,2.68-3,3.78-3.2-1.29-5.9-2.09-2.7-5.67-6.3,2.49-3.6,4.87-4.4,10.14-9.3,12.63-11.6,4.18-4.4,4.37-4,5.07-2.1,10.14-6.8,7.36-6.8.6-2.7,1.89-1.1,4.87-1.1,3.58-2.1,3-3.2,3-4.2-1.29-3.2-3.38-1.7-1.49-1.7-.8-2.1,2.09-1.5.4-5.1.2-2.3,2.09-1.9,3.18-3.8.2-6.8.6-6.1-2.49-2.3-2.68-3.8-2.49-3.2,3.78-5.7,5.67-6.3,3.18-3.4,1.69.4,2.68-1.1,4.67-1.7,5.67-2.1,6.06-2.3,2.68-1.5,5.67-.2,1.89-1.3,3-4.7,3-5.9,3.38-1.9,2.49-.2,2.49-1.1.2-1.9-.6-1.9-2.49-.8v-1.9l.8-1.9h3.38l1.09-1.7.8-1.7.4-3,1.09-.8,3.78.2,3.38-.8.8-1.9-1.89-4,.89-.3a13.23,13.23,0,0,0,1.89-1.4c.5-.5.89-1.5,1.39-1.9a3.9,3.9,0,0,1,1.39-.8c1.09-.2,2.58.6,3.58.3s2.09-1.6,3-2.2c1.19-.9,3-1.9,4.18-2.8s2.49-2.1,3.58-3c1.79-1.6,4.87-3.3,5.77-5.5a4.88,4.88,0,0,0,0-1.7c0-.5.2-1.4-.3-1.7s-.89.6-1.39.6-1.39-.8-1.39-1.4.8-1.2,1.39-1.4,1.19.1,1.69,0a6.45,6.45,0,0,0,2.19-1.1,12.87,12.87,0,0,0,2.19-3c.5-.7.89-1.8,1.39-2.5a26.5,26.5,0,0,1,3.28-4.2,43.5,43.5,0,0,1,4.18-2.8,38.15,38.15,0,0,0,4.37-3.6c.5-.5,1.09-1.4,1.69-1.9s1.59-.8,1.89-1.4a3.25,3.25,0,0,0,.3-1.7c0-.7-.3-1.5-.3-2.2,0-1,.2-2.3.3-3.3.1-1.2.5-3,0-4.2-.2-.5-1.19-.8-1.39-1.4a2.07,2.07,0,0,1,0-1.1c0-.3.1-.7.3-.8.7-.5,2,0,2.78-.3a12.91,12.91,0,0,0,1.69-.8c.7-.4,1.39-1.4,2.19-1.7a20.61,20.61,0,0,1,2.49,0,5.78,5.78,0,0,0,2.19-.8c.5-.3,2.09-1.3,2.49-1.5l.5-2.7,1.29-3,2.29-2.1,4.37-1.1,1.29-2.1.2-2.1,1.49-1.7-2.49-4.7-2.29-2.3-1.89-1.7-4.67-.4-4.67,1.3-3.18,1.5-3.78,1.5-4-.2-9.25-.4-.8-4,1.29-3.2,2.68-2.5.6-4,2.49-2.1,1.69-.8,1.09-4.7,1.29-1.9,2.49-.6,1.89-1.7,3.58-2.5,3-.8,1.09-2.1-1.49-3.8-2.49-4,.6-2.7,1.09-1.9,2.09-1.3,5.27-.4,3.58,1.7,5.27,1.3,5.87,1.3,4-1.9,3.58-1.5h3l3.18,2.3,1.69,2.1,3.38,1.1,3.18-1.3v3.4l-2.09,3.2-1.49,3.4v4.2l1.29,1.1,4,1.3,4.18,1.9,4.18-.4,1.69,2.3,3.28,1.9c.4-.5.89-1.1,1.29-1.5a13.15,13.15,0,0,1,2-1.2,19.85,19.85,0,0,1,2.58-1c.7-.2,1.69-.4,2.39-.6a17.8,17.8,0,0,1,2.19-.6c1.09-.2,2.49-.3,3.58-.4a39.66,39.66,0,0,1,6-.2c1,.1,2.29.8,3.38,1s3,.1,4.18.4a5.13,5.13,0,0,1,1.29.6l3.68-1.9,4-3.4,1.89-4,1.49-1.5,1.59-1.3.5-.6,1.69-1.7-2.49-2.3-2.29-1.5-1.89-.6,2.29-2.7,1.89-.2,1.89,1.1,2.49,2.5a3,3,0,0,0,2.09,1.9c1.49.2,5.07-1.3,5.07-1.3l2.29-2.7,2.29-3.4v-3.8l-1.89-2.3-.6-4.4,2.68-3.6,3.58-1.2,3.18-.7,2.78-.3,2.78-1.4,2.88-2.9.7-4.2,3.38-3.7L410,87l3.08-.3,2.78-1.1,2.09-1.1,2.29-1.7,1.49.2-.2,1.3-1.89,1.9.2,2.3,1.69.6.4.8V91l-1.89,1.5-2.09-.2-.6,1.3-.8,2.1L415,97.38c.6.6.7,2,1.29,2.8a24.31,24.31,0,0,0,2,2.5,16.29,16.29,0,0,0,1.69,2,12.12,12.12,0,0,0,2.78,1.4,7.25,7.25,0,0,0,2.49.8,12.77,12.77,0,0,0,2.78-.8,25.68,25.68,0,0,0,3.68-1.1c.6-.3,1.09-.9,1.69-1.1a17.49,17.49,0,0,1,3.08-.8c.8-.2,2-.4,2.78-.6,1.09-.2,2.58-.5,3.68-.8.89-.3,2-.8,2.78-1.1,1.19-.4,2.78-.7,3.88-1.1a9.12,9.12,0,0,0,2.78-1.4,13.63,13.63,0,0,0,2.29-2.5,16.36,16.36,0,0,0,1.09-3.1,16.73,16.73,0,0,1,.8-2,2,2,0,0,1,.8-.8,2.21,2.21,0,0,1,1.39,0c.7.2,1.49.9,2.29,1.1a6.85,6.85,0,0,0,2,.3,5,5,0,0,0,1.69-.3,8.35,8.35,0,0,0,1.39-.6,6.33,6.33,0,0,1,1.39-.8,10.56,10.56,0,0,1,2.49-.3,5,5,0,0,1,1.69.3,5.6,5.6,0,0,1,2,1.1,7.83,7.83,0,0,1,1.09,2,16.73,16.73,0,0,1,.8,2c.2.4.4,1,.6,1.4a13.87,13.87,0,0,1,.3,2,7.65,7.65,0,0,0,.6,2,3.81,3.81,0,0,0,1.09,1.4c.7.5,2.09.6,2.78,1.1.3.3.4,1,.8,1.1a2.87,2.87,0,0,0,2.49-.6c.5-.3.8-1.2,1.09-1.7a7.18,7.18,0,0,1,1.39-2,6.92,6.92,0,0,1,2.49,0c1,0,2.39.2,3.38.3a19.31,19.31,0,0,1,3.38.3,8.79,8.79,0,0,0,1.69.8,17.9,17.9,0,0,0,2.29.3,22.59,22.59,0,0,0,3.68,0,9.66,9.66,0,0,0,2.29-.6,7.51,7.51,0,0,0,1.39-1.1,13.38,13.38,0,0,0,1.39-1.1c.4-.4.7-1.1,1.09-1.4a2.26,2.26,0,0,1,1.09-.3,6.33,6.33,0,0,1,1.39.8c.4.2.7.7,1.09.8a8.67,8.67,0,0,0,2.78,0c.3,0,.8.2,1.09,0s.6-1,.8-1.4a5.32,5.32,0,0,0,.8-1.7,13.43,13.43,0,0,0,0-2c0-.2-.1-.4,0-.6a3.33,3.33,0,0,1,1.39-1.7c.4-.2,1,.1,1.39,0a9.66,9.66,0,0,0,2.29-.6l.6-.3a27.15,27.15,0,0,0,2.49-2.3,7.51,7.51,0,0,1,1.39-1.1c.7-.3,1.79.1,2.49,0a4.46,4.46,0,0,0,1.09-.3c.7-.3,1.59-.8,2.29-1.1.5-.3,1.29-.4,1.69-.8.2-.3.1-.8.3-1.1.6-1.1,2.09-2,3.08-2.8.5-.4,1.19-.7,1.69-1.1s.6-1.2,1.09-1.4a2,2,0,0,1,1.69.3c.3.2.3.8.6,1.1a5.55,5.55,0,0,0,2,1.4c.3.1.8.2,1.09.3h1.09c.89-.1,2.19-.5,3.08-.6a6.63,6.63,0,0,1,2,0c.5.1,1.19.5,1.69.6.8.1,1.79-.1,2.49,0a4.6,4.6,0,0,1,2.29.6,2.48,2.48,0,0,1,.8,1.4c.3.8-.1,2,.3,2.8.5,1,1.79,1.8,2.49,2.5.89.9,1.39,2.8,3.08,3.1s1.39,1,2,1.4c1,.6,2.29,2,3.38,2s2.58.5,3.68.6,2.39,0,3.38,0,2.39.6,3.08,0c.3-.2.1-.8.3-1.1a4.61,4.61,0,0,1,1.69-1.7,2,2,0,0,1,1.09,0,8.35,8.35,0,0,1,1.39.6,8.79,8.79,0,0,0,1.69.8,10.56,10.56,0,0,0,2.49.3,28.31,28.31,0,0,0,4.18-.3c1-.2,2.39-.6,3.38-.8,1.39-.3,3.28-.4,4.47-1.1.5-.3.6-1.2,1.19-1.4l.5-2.3-2.68.4-3-.8-1.09-1.3.6-2.3.4-1.9,1.09-2.3,2.29-1.5,1.89-1.1,2.68-1.5,3.38-1.7,2.68-.2,1.49,1.3,2.09,1.5,1.89.6,2.09,1.1,1.09,1.7.6,1.7-.8,1.5.8,1.3,1.89.8,1.49.2.89.1c.7-.7,1.59-1.4,2.09-2a6.45,6.45,0,0,0,1.09-2,9,9,0,0,0,.3-2.8,10.13,10.13,0,0,0-.3-2.5c-.1-.4-.5-1-.6-1.4a10.74,10.74,0,0,1-.3-2.5,7,7,0,0,1,.3-2c.2-.7.1-2.3.8-2.3.5,0,.4,1.2.6,1.7s0,1.1.3,1.4.6.2.8.3a4.46,4.46,0,0,0,1.09.3,3.5,3.5,0,0,0,2-1.4,6.58,6.58,0,0,0,.3-2.8,6.06,6.06,0,0,0-.6-2.3c-.4-.6-1.29-.8-1.69-1.3l-1.39-1.5-.8-.8-1.59-1-1.49-.5-1.09.3-1.49.7-2.68-.1-3.48-.1-1.59.4-.4.8-1.39.7-.89,1-1.59.6-.6,2.1.6.9-.3.4L606,68l-3.28.7-.7,1-.4.7-1-.3-.3-1,.3-1.5-.3-2.1-1-.6h-5.57l-1.59-1.5-1.89-1.5-1.79-.4.3-2.4,1.29-2.7.3-1.8-.89-2.8,1.19-2.4,2.19-2.1,2.09-1.9,1.79-1.8,1.19-2.1.6-2.2,1-2.4.89-2.2,1.59-2.6,1.59-1.5,1.89-1.5,2.39-1.2,2.68-.6h1.89l1.59-.4,1.79-1.2,1.79-.9,2.68.6,1.89-.1,1.29-1.3-.3-1.9-.6-1.6-1-.9.3-1.9,1.59-.4h2.78l3.38.9,1.59.7,3.28,1.3-.4,1.6-.1,1.5.1,2.1.7,1.7.89,2.4,1.49,1.3,2.09.4.89-1,1.29-2.5-1.19-4.2-.3-2.1.3-1.5,2.09,1.8,1.89,1.8,1.59,1.5,1.19,1.2.4,1.2v1.8l-.3,3,.3,1.2,1.89-.1.7-1,1.89-.9,1.89-.1,2.49,1.2.89,2.7-.89.7-1.59,2.4-.89,2.2.4,2.2,1.89,1.6,1.29,1.9-.3,2.1-1.59.3-1.49-.3-1.19-1.5-1-.7-2.78-.3-2.09.1-1.89.3-.89.9-1,1.5.3,1.6-.4,1.9-.3,1.6.5,1.2c.5.5.5.7.8.7.5.1,1-.6,1.39-.8a8.35,8.35,0,0,0,1.39-.6c.7-.4,1.19-1.5,2-1.7a3.48,3.48,0,0,1,2,.3c.5.2.89.7,1.39.8a6.85,6.85,0,0,0,2-.3,22.82,22.82,0,0,1,3.68-.3,1.89,1.89,0,0,1,.8.3c.6.2,1.39.6,2,.8s1.39.4,2,.6a6.85,6.85,0,0,1,2,.3c.6.3,1.09,1.1,1.69,1.4a18.72,18.72,0,0,0,2.49,1.1,15.5,15.5,0,0,0,3.08.8l.89-1.8.6-1.6,1-1.9.4-1.5-1-1.2-1.49-.9-1.79-.3-1.49-.6-.89-1.2.4-1.2-.1-1.5,1.29-1,1.49-1.2,1.19-.7,1-.3,1.49.3.1.7.7,1.6,1,.4,1.79.9,2.49.9,1.19.3,2.39.7,2.09,1.6,1.59.9.4,1.5-.7.6-1.19.3-1.29-.3L684.24,53v1.8l1.89,2.2,1.19,2.7.6.9,1.29,1.5.89,1.5.1,1.7c1,.5,2.09,1.5,3.08,2a7.54,7.54,0,0,0,2,.6,8.72,8.72,0,0,0,5.07-1.3"/><path id="campione" class="cls-13" d="M711,610.28l1.09,1.1,1.09-.2.8-1.1.8-1.3-.2-1.6-.8-.3-1.69,1.7-1.09,1.7"/></g><text class="cls-14" transform="translate(404.54 347.56) scale(0.99 1)"><tspan class="cls-15">B</tspan><tspan x="9.3" y="0">E</tspan></text><text class="cls-14" transform="translate(621.03 139.77) scale(0.99 1)"><tspan class="cls-16">Z</tspan><tspan x="8.12" y="0">H</tspan></text><text class="cls-14" transform="translate(505.17 265.44) scale(0.99 1)"><tspan class="cls-17">L</tspan><tspan x="7.58" y="0">U</tspan></text><text class="cls-14" transform="translate(619.41 360.69) scale(0.99 1)">UR</text><text class="cls-14" transform="translate(650.83 265.44) scale(0.99 1)"><tspan class="cls-18">S</tspan><tspan x="8.84" y="0">Z</tspan></text><text class="cls-14" transform="translate(527.85 336.41) scale(0.99 1)">OW</text><text class="cls-14" transform="translate(572.1 305.29) scale(0.99 1)">NW</text><text class="cls-14" transform="translate(718.3 293.49) scale(0.99 1)">GL</text><text class="cls-14" transform="translate(603.11 239.51) scale(0.99 1)"><tspan class="cls-19">Z</tspan><tspan x="7.96" y="0">G</tspan></text><text class="cls-14" transform="translate(288.29 390.66) scale(0.99 1)">FR</text><text class="cls-14" transform="translate(406.79 182.14) scale(0.99 1)">SO</text><text class="cls-14" transform="translate(404.83 80.46) scale(0.99 1)"><tspan class="cls-20">B</tspan><tspan x="9.52" y="0">S</tspan></text><text class="cls-14" transform="translate(436.57 146.2) scale(0.99 1)"><tspan class="cls-15">B</tspan><tspan x="9.3" y="0">L</tspan></text><text class="cls-14" transform="translate(606.2 51.63) scale(0.99 1)"><tspan class="cls-16">S</tspan><tspan x="8.68" y="0">H</tspan></text><text class="cls-14" transform="translate(761.79 169.1) scale(0.99 1)"><tspan class="cls-16">A</tspan><tspan x="9.06" y="0">R</tspan></text><text class="cls-14" transform="translate(789.59 185.99) scale(0.99 1)"><tspan class="cls-16">A</tspan><tspan x="9.06" y="0">I</tspan></text><text class="cls-14" transform="translate(743.04 222.23) scale(0.99 1)">SG</text><text class="cls-14" transform="translate(843.14 394.53) scale(0.99 1)">GR</text><text class="cls-14" transform="translate(522.4 137.9) scale(0.99 1)">AG</text><text class="cls-21" transform="translate(723.46 90.57) scale(0.99 1)">T<tspan class="cls-22" x="7.34" y="0">G</tspan></text><text class="cls-14" transform="translate(668.26 504.86) scale(0.99 1)"><tspan class="cls-23">T</tspan><tspan x="7.78" y="0">I</tspan></text><text class="cls-14" transform="translate(163.77 404.69) scale(0.99 1)">VD</text><text class="cls-24" transform="translate(398.71 552.41) scale(0.99 1)">V<tspan class="cls-25" x="9.14" y="0">S</tspan></text><text class="cls-26" transform="translate(99.55 730.75) scale(0.99 1)"><tspan class="cls-27">G</tspan><tspan x="17.47" y="0">en</tspan><tspan class="cls-28" x="48.1" y="0">e</tspan><tspan class="cls-29" x="62.93" y="0">v</tspan><tspan x="76.17" y="0">a</tspan></text><text class="cls-14" transform="translate(227.12 287.42) scale(0.99 1)">NE</text><text class="cls-14" transform="translate(59.72 545.43) scale(0.99 1)">GE</text><text class="cls-14" transform="translate(294.39 177.43) scale(0.99 1)">JU</text><rect class="cls-30" x="53.31" y="706.78" width="27.24" height="27.4"/><text class="cls-26" transform="translate(99.55 774.96) scale(0.99 1)"><tspan class="cls-31">W</tspan><tspan class="cls-32" x="23.55" y="0">e</tspan><tspan class="cls-33" x="38.46" y="0">s</tspan><tspan x="52.16" y="0">t</tspan></text><rect class="cls-34" x="53.31" y="750.98" width="27.24" height="27.4"/><text class="cls-26" transform="translate(99.55 819.18) scale(0.99 1)"><tspan class="cls-33">C</tspan><tspan class="cls-35" x="16.44" y="0">ent</tspan><tspan class="cls-36" x="55.78" y="0">r</tspan><tspan x="65.39" y="0">al </tspan><tspan class="cls-31" x="94.21" y="0">W</tspan><tspan class="cls-37" x="117.76" y="0">e</tspan><tspan class="cls-33" x="132.66" y="0">s</tspan><tspan class="cls-35" x="146.36" y="0">t</tspan></text><rect class="cls-38" x="53.31" y="795.18" width="27.24" height="27.4"/><text class="cls-26" transform="translate(379.58 730.75) scale(0.99 1)">No<tspan class="cls-39" x="33.55" y="0">r</tspan><tspan class="cls-35" x="44.83" y="0">th </tspan><tspan class="cls-31" x="76.24" y="0">W</tspan><tspan class="cls-32" x="99.79" y="0">e</tspan><tspan class="cls-33" x="114.7" y="0">s</tspan><tspan x="128.39" y="0">t</tspan></text><rect class="cls-11" x="333.38" y="706.78" width="27.24" height="27.4"/><text class="cls-26" transform="translate(379.58 774.96) scale(0.99 1)"><tspan class="cls-33">C</tspan><tspan class="cls-35" x="16.44" y="0">ent</tspan><tspan class="cls-36" x="55.78" y="0">r</tspan><tspan x="65.39" y="0">al E</tspan><tspan class="cls-40" x="109.04" y="0">a</tspan><tspan class="cls-33" x="123.81" y="0">s</tspan><tspan class="cls-35" x="137.5" y="0">t</tspan></text><rect class="cls-41" x="333.38" y="750.98" width="27.24" height="27.4"/><text class="cls-26" transform="translate(666 730.75) scale(0.99 1)">No<tspan class="cls-39" x="33.55" y="0">r</tspan><tspan class="cls-42" x="44.83" y="0">th E</tspan><tspan class="cls-40" x="91.07" y="0">a</tspan><tspan class="cls-43" x="105.84" y="0">s</tspan><tspan x="119.54" y="0">t</tspan></text><rect class="cls-44" x="619.81" y="706.78" width="27.24" height="27.4"/><text class="cls-26" transform="translate(666 774.96) scale(0.99 1)">E<tspan class="cls-40" x="14.83" y="0">a</tspan><tspan class="cls-43" x="29.6" y="0">s</tspan><tspan x="43.3" y="0">t</tspan></text><rect class="cls-45" x="619.81" y="750.98" width="27.24" height="27.4"/><text class="cls-26" transform="translate(379.58 819.18) scale(0.99 1)"><tspan class="cls-46">S</tspan><tspan x="15.8" y="0">o</tspan><tspan class="cls-47" x="30.92" y="0">u</tspan><tspan x="47.1" y="0">th</tspan></text><rect class="cls-48" x="333.38" y="795.18" width="27.24" height="27.4"/></g></g></svg>