<svg xmlns="http://www.w3.org/2000/svg" xmlns:xlink="http://www.w3.org/1999/xlink" viewBox="0 0 999 232.13"><defs><style>.cls-1{fill:#fff;}.cls-2{fill:#231f20;}.cls-3{fill:url(#linear-gradient);}</style><linearGradient id="linear-gradient" x1="242.12" y1="882.5" x2="682.82" y2="882.5" gradientTransform="translate(36.37 -784.87)" gradientUnits="userSpaceOnUse"><stop offset="0" stop-color="#eddfdc"/><stop offset="0.5" stop-color="#e1cf75"/><stop offset="1" stop-color="#7cc243"/></linearGradient></defs><title>Asset 6</title><g id="Layer_2" data-name="Layer 2"><g id="Layer_4" data-name="Layer 4"><rect class="cls-1" width="999" height="232.13"/><path class="cls-2" d="M296.92,143c0,5.9-1.66,12.52-8.32,12.52s-8.33-6.19-8.33-12.34,2-12.34,8.43-12.34S296.92,136.88,296.92,143Zm-13.28.18c0,4.52.8,9.63,5,9.63s5-4.85,5-9.77c0-4.6-.8-9.48-4.85-9.48S283.63,137.89,283.63,143.14Z"/><path class="cls-2" d="M312.22,137.57c0,3.84-2.06,6.84-6.12,6.84-3.8,0-6-2.68-6-6.8,0-3.66,2.06-6.8,6-6.8C309.91,130.8,312.22,133.37,312.22,137.57Zm-9.37,0c0,2.71,1.16,4.52,3.37,4.52s3.37-1.7,3.37-4.52-1.27-4.45-3.44-4.45C304.15,133.12,302.85,134.71,302.85,137.57ZM305.67,155l15.49-23.82h2.71L308.39,155Zm23.74-6.37c0,3.84-2.06,6.8-6.12,6.84-3.87,0-6-2.82-6-6.8,0-3.69,2.06-6.8,6-6.8C327.1,141.91,329.42,144.48,329.42,148.68Zm-9.41,0c0,2.68,1.16,4.52,3.4,4.52s3.33-1.7,3.33-4.52-1.27-4.45-3.4-4.45C321.38,144.23,320,145.89,320,148.68Z"/><path class="cls-2" d="M482.81,134h-10c-.22,1.92-.8,5.54-1,6.81a6.34,6.34,0,0,1,5-1.92c4.34,0,7.17,3,7.17,7.93,0,4.63-2.43,8.69-8.22,8.69-4.23,0-7.31-2.35-7.93-6.41H471a4.65,4.65,0,0,0,4.81,3.76c3.26,0,4.85-2.32,4.85-5.83,0-3.08-1.27-5.43-4.6-5.43-2.86,0-4.05,1.19-4.89,3.11l-3-.54c.72-3.11,1.63-9.92,2-12.92h13.07Z"/><path class="cls-2" d="M504.27,143c0,5.9-1.66,12.52-8.32,12.52s-8.33-6.19-8.33-12.34,2-12.34,8.43-12.34S504.27,136.88,504.27,143Zm-13.28.18c0,4.52.8,9.63,5,9.63s5-4.85,5-9.77c0-4.6-.8-9.48-4.85-9.48S491,137.89,491,143.14Z"/><path class="cls-2" d="M519.58,137.57c0,3.84-2.06,6.84-6.12,6.84-3.8,0-6-2.68-6-6.8,0-3.66,2.06-6.8,6-6.8C517.26,130.8,519.58,133.37,519.58,137.57Zm-9.37,0c0,2.71,1.16,4.52,3.37,4.52s3.37-1.7,3.37-4.52-1.27-4.45-3.44-4.45C511.51,133.12,510.2,134.71,510.2,137.57ZM513,155l15.49-23.82h2.71L515.74,155Zm23.74-6.37c0,3.84-2.06,6.8-6.12,6.84-3.87,0-6-2.82-6-6.8,0-3.69,2.06-6.8,6-6.8C534.45,141.91,536.77,144.48,536.77,148.68Zm-9.41,0c0,2.68,1.16,4.52,3.4,4.52s3.33-1.7,3.33-4.52-1.27-4.45-3.4-4.45C528.74,144.23,527.36,145.89,527.36,148.68Z"/><path class="cls-2" d="M642.3,155V135a15.85,15.85,0,0,1-4.92,2.06v-2.57a15,15,0,0,0,5.79-3.4h2.39V155Z"/><path class="cls-2" d="M667.63,143c0,5.9-1.67,12.52-8.33,12.52S651,149.3,651,143.14s2-12.34,8.43-12.34S667.63,136.88,667.63,143Zm-13.28.18c0,4.52.8,9.63,5,9.63s5-4.85,5-9.77c0-4.6-.8-9.48-4.85-9.48S654.35,137.89,654.35,143.14Z"/><path class="cls-2" d="M688,143c0,5.9-1.66,12.52-8.32,12.52s-8.33-6.19-8.33-12.34,2-12.34,8.43-12.34S688,136.88,688,143Zm-13.28.18c0,4.52.8,9.63,5,9.63s5-4.85,5-9.77c0-4.6-.8-9.48-4.85-9.48S674.72,137.89,674.72,143.14Z"/><path class="cls-2" d="M703.32,137.57c0,3.84-2.06,6.84-6.12,6.84-3.8,0-6-2.68-6-6.8,0-3.66,2.06-6.8,6-6.8C701,130.8,703.32,133.37,703.32,137.57Zm-9.37,0c0,2.71,1.16,4.52,3.37,4.52s3.37-1.7,3.37-4.52-1.27-4.45-3.44-4.45C695.24,133.12,693.94,134.71,693.94,137.57ZM696.76,155l15.49-23.82H715L699.48,155Zm23.74-6.37c0,3.84-2.06,6.8-6.12,6.84-3.87,0-6-2.82-6-6.8,0-3.69,2.06-6.8,6-6.8C718.19,141.91,720.51,144.48,720.51,148.68Zm-9.41,0c0,2.68,1.16,4.52,3.4,4.52s3.33-1.7,3.33-4.52-1.27-4.45-3.4-4.45C712.47,144.23,711.1,145.89,711.1,148.68Z"/><rect class="cls-3" x="278.49" y="76.61" width="440.7" height="42.04" transform="translate(997.69 195.26) rotate(180)"/></g></g></svg>