<svg xmlns="http://www.w3.org/2000/svg" xmlns:xlink="http://www.w3.org/1999/xlink" viewBox="0 0 999.5 298.26"><defs><style>.cls-1{fill:#fff;}.cls-2{fill:#231f20;}.cls-3{fill:url(#linear-gradient);}</style><linearGradient id="linear-gradient" x1="246.2" y1="920.38" x2="684" y2="920.38" gradientTransform="translate(31.12 -762.5)" gradientUnits="userSpaceOnUse"><stop offset="0" stop-color="#eddfdc"/><stop offset="0.5" stop-color="#e1cf75"/><stop offset="1" stop-color="#7cc243"/></linearGradient></defs><title>Artboard 1 copy</title><g id="Layer_6" data-name="Layer 6"><rect class="cls-1" x="0.5" y="0.13" width="999" height="298"/></g><g id="Layer_4" data-name="Layer 4"><path class="cls-2" d="M295.64,202.9c0,5.87-1.66,12.46-8.28,12.46s-8.28-6.16-8.28-12.28,2-12.27,8.39-12.27S295.64,196.85,295.64,202.9Zm-13.21.18c0,4.5.79,9.58,5,9.58s4.94-4.83,4.94-9.72c0-4.57-.8-9.43-4.83-9.43S282.43,197.86,282.43,203.08Z"/><path class="cls-2" d="M310.87,197.54c0,3.81-2.06,6.8-6.09,6.8-3.78,0-5.94-2.66-5.94-6.77,0-3.63,2.06-6.76,6-6.76C308.56,190.81,310.87,193.36,310.87,197.54Zm-9.33,0c0,2.7,1.15,4.5,3.35,4.5s3.35-1.69,3.35-4.5-1.26-4.43-3.42-4.43C302.84,193.11,301.54,194.69,301.54,197.54Zm2.81,17.38,15.41-23.68h2.7l-15.41,23.68ZM328,208.59c0,3.81-2,6.77-6.08,6.8-3.85,0-6-2.81-6-6.77,0-3.67,2-6.76,6-6.76C325.66,201.86,328,204.41,328,208.59Zm-9.36,0c0,2.66,1.16,4.5,3.39,4.5s3.31-1.69,3.31-4.5-1.26-4.43-3.38-4.43C320,204.16,318.6,205.82,318.6,208.59Z"/><path class="cls-2" d="M482.31,194h-9.9c-.22,1.91-.79,5.51-1.05,6.77a6.34,6.34,0,0,1,5-1.91c4.32,0,7.13,3,7.13,7.89,0,4.6-2.41,8.64-8.17,8.64-4.21,0-7.27-2.34-7.89-6.38h3.21a4.63,4.63,0,0,0,4.79,3.75c3.23,0,4.82-2.31,4.82-5.8,0-3.06-1.26-5.4-4.57-5.4-2.85,0-4,1.19-4.86,3.1l-3-.54c.72-3.1,1.62-9.86,1.94-12.85h13Z"/><path class="cls-2" d="M503.65,202.9c0,5.87-1.65,12.46-8.27,12.46s-8.28-6.16-8.28-12.28,2-12.27,8.38-12.27S503.65,196.85,503.65,202.9Zm-13.21.18c0,4.5.8,9.58,5,9.58s4.93-4.83,4.93-9.72c0-4.57-.79-9.43-4.82-9.43S490.44,197.86,490.44,203.08Z"/><path class="cls-2" d="M518.88,197.54c0,3.81-2,6.8-6.08,6.8-3.78,0-5.94-2.66-5.94-6.77,0-3.63,2.05-6.76,6-6.76C516.58,190.81,518.88,193.36,518.88,197.54Zm-9.32,0c0,2.7,1.15,4.5,3.35,4.5s3.34-1.69,3.34-4.5-1.25-4.43-3.42-4.43C510.86,193.11,509.56,194.69,509.56,197.54Zm2.81,17.38,15.4-23.68h2.7l-15.4,23.68ZM536,208.59c0,3.81-2.05,6.77-6.08,6.8-3.85,0-6-2.81-6-6.77,0-3.67,2.05-6.76,6-6.76C533.68,201.86,536,204.41,536,208.59Zm-9.36,0c0,2.66,1.15,4.5,3.38,4.5s3.32-1.69,3.32-4.5-1.26-4.43-3.39-4.43C528,204.16,526.62,205.82,526.62,208.59Z"/><path class="cls-2" d="M636.73,214.92V195a15.62,15.62,0,0,1-4.89,2v-2.56a14.86,14.86,0,0,0,5.76-3.38H640v23.79Z"/><path class="cls-2" d="M661.93,202.9c0,5.87-1.65,12.46-8.28,12.46s-8.27-6.16-8.27-12.28,2-12.27,8.38-12.27S661.93,196.85,661.93,202.9Zm-13.21.18c0,4.5.79,9.58,5,9.58s4.93-4.83,4.93-9.72c0-4.57-.79-9.43-4.82-9.43S648.72,197.86,648.72,203.08Z"/><path class="cls-2" d="M682.2,202.9c0,5.87-1.66,12.46-8.28,12.46s-8.28-6.16-8.28-12.28,2-12.27,8.39-12.27S682.2,196.85,682.2,202.9Zm-13.21.18c0,4.5.79,9.58,5,9.58s4.93-4.83,4.93-9.72c0-4.57-.79-9.43-4.82-9.43S669,197.86,669,203.08Z"/><path class="cls-2" d="M697.43,197.54c0,3.81-2,6.8-6.09,6.8-3.77,0-5.93-2.66-5.93-6.77,0-3.63,2.05-6.76,6-6.76C695.12,190.81,697.43,193.36,697.43,197.54Zm-9.32,0c0,2.7,1.15,4.5,3.34,4.5s3.35-1.69,3.35-4.5-1.26-4.43-3.42-4.43C689.4,193.11,688.11,194.69,688.11,197.54Zm2.8,17.38,15.41-23.68H709l-15.41,23.68Zm23.62-6.33c0,3.81-2.06,6.77-6.09,6.8-3.85,0-6-2.81-6-6.77,0-3.67,2-6.76,6-6.76C712.22,201.86,714.53,204.41,714.53,208.59Zm-9.36,0c0,2.66,1.15,4.5,3.38,4.5s3.31-1.69,3.31-4.5-1.26-4.43-3.38-4.43C706.54,204.16,705.17,205.82,705.17,208.59Z"/><rect class="cls-3" x="277.32" y="137" width="437.8" height="41.76"/><path class="cls-2" d="M282.5,96c.69,3,2.74,4.64,6.38,4.64,3.88,0,5.43-1.84,5.43-4.21s-1.22-3.93-6.23-5.11c-5.9-1.44-7.95-3.46-7.95-7,0-3.74,2.73-6.76,8.31-6.76,6,0,8.43,3.45,8.79,6.73h-3.39c-.47-2.2-1.83-4-5.51-4-3.05,0-4.75,1.36-4.75,3.74s1.41,3.28,5.8,4.35c7.13,1.73,8.39,4.5,8.39,7.74,0,4-3,7.2-9.11,7.2-6.3,0-9-3.45-9.54-7.3Z"/><path class="cls-2" d="M316.52,97.63c0,1.8,0,4.25,0,5.33H313.5c-.07-.47-.11-1.58-.15-2.74-.9,2-2.62,3.17-5.5,3.17-3.1,0-6.05-1.55-6.05-6.69v-12h3.13V96.05c0,2.37.76,4.61,3.78,4.61,3.35,0,4.64-1.88,4.64-6.45v-9.5h3.17Z"/><path class="cls-2" d="M323.22,97.74c.5,2,2,3.17,4.46,3.17,2.67,0,3.71-1.15,3.71-2.81s-.83-2.52-4.32-3.35c-5.22-1.26-6.3-2.88-6.3-5.36s1.91-5.11,6.59-5.11S334,87,334.23,89.53h-3c-.29-1.15-1.19-2.8-4-2.8-2.55,0-3.35,1.22-3.35,2.41,0,1.36.76,2,4.11,2.84,5.54,1.33,6.66,3.17,6.66,5.87,0,3.2-2.56,5.54-7.09,5.54-4.72,0-7.06-2.37-7.53-5.65Z"/><path class="cls-2" d="M353.21,97.38c-.76,3.13-2.88,6-7.53,6-5,0-8.13-3.6-8.13-9.47,0-5.14,2.91-9.64,8.35-9.64,5.25,0,7.09,3.74,7.31,6.08h-3.14a4,4,0,0,0-4.24-3.46c-3.21,0-5,2.78-5,6.92s1.76,6.94,4.93,6.94c2.27,0,3.6-1.22,4.35-3.38Z"/><path class="cls-2" d="M359.07,94.39c0,3.71,1.91,6.37,5,6.37a4.2,4.2,0,0,0,4.39-2.84h3.2c-.72,2.34-2.7,5.47-7.7,5.47-5.72,0-8.06-4.68-8.06-9.36,0-5.43,2.73-9.75,8.28-9.75,5.9,0,7.81,4.71,7.81,8.6,0,.58,0,1,0,1.51Zm9.72-2.19c0-3-1.54-5.44-4.64-5.44s-4.64,2.23-5,5.44Z"/><path class="cls-2" d="M376,110.12v-21c0-1.51,0-3.06,0-4.46h3.05a26.53,26.53,0,0,1,.11,2.88,6.29,6.29,0,0,1,6-3.31c4.21,0,7.27,3.52,7.27,9.07,0,6.55-3.49,10-7.92,10-2.95,0-4.5-1.22-5.33-2.7v9.43ZM384.31,87c-3.78,0-5.29,2.37-5.29,6.84,0,4.28,1.22,6.91,5,6.91,3.35,0,5.11-2.74,5.11-7.24C389.17,89.6,387.41,87,384.31,87Z"/><path class="cls-2" d="M394.21,84.71h3.17v-5.4h3.13v5.4h4v2.56h-4V98c0,1.8.43,2.7,2.09,2.7a8.17,8.17,0,0,0,1.58-.15v2.38a8.57,8.57,0,0,1-2.73.32c-2.85,0-4.07-1.47-4.07-4.5V87.27h-3.17Z"/><path class="cls-2" d="M407.89,80.46V76.54h3.17v3.92Zm0,4.25h3.17V103h-3.17Z"/><path class="cls-2" d="M416.42,76.54h3.17V87.3c.79-1.55,2.48-3,5.79-3,4.61,0,7.49,3.78,7.49,9.18s-2.81,9.93-7.95,9.93c-2.92,0-4.47-1.08-5.37-2.84a20.15,20.15,0,0,1-.14,2.41h-3c0-2,0-4.1,0-6.12Zm8.25,10.4c-3.89,0-5.26,2.59-5.26,7,0,3.81,1.22,6.84,5.08,6.84,3.23,0,5.14-2.77,5.14-7.2C429.63,89.57,427.83,86.94,424.67,86.94Z"/><path class="cls-2" d="M437.08,80.46V76.54h3.17v3.92Zm0,4.25h3.17V103h-3.17Z"/><path class="cls-2" d="M445.62,103V76.54h3.17V103Z"/><path class="cls-2" d="M454.15,80.46V76.54h3.17v3.92Zm0,4.25h3.17V103h-3.17Z"/><path class="cls-2" d="M460.49,84.71h3.16v-5.4h3.14v5.4h4v2.56h-4V98c0,1.8.43,2.7,2.08,2.7a8.34,8.34,0,0,0,1.59-.15v2.38a8.67,8.67,0,0,1-2.74.32c-2.84,0-4.07-1.47-4.07-4.5V87.27h-3.16Z"/><path class="cls-2" d="M476.25,84.71c2.95,8.75,4.57,13.57,5.08,15.44h0c.58-2.09,1.88-6.26,4.86-15.44h3.17l-6.55,19.08c-1.84,5.36-3.24,6.69-6.95,6.69a18.27,18.27,0,0,1-2-.11v-2.73c.47,0,1,.07,1.51.07,2.31,0,3.17-1,4.25-4l-6.84-19Z"/></g></svg>