<svg xmlns="http://www.w3.org/2000/svg" viewBox="0 0 999 343.13"><defs><style>.cls-1{fill:#fff;}.cls-2{fill:#eddfdd;}.cls-3{fill:#994233;}.cls-4{fill:#e0d076;}.cls-5{fill:#4e451b;}.cls-6{fill:#7bc043;}.cls-7,.cls-9{fill:none;stroke-miterlimit:10;}.cls-7{stroke:#000;}.cls-8{fill:#231f20;}.cls-9{stroke:#7bc043;}</style></defs><title>Asset 9</title><g id="Layer_2" data-name="Layer 2"><g id="Layer_3" data-name="Layer 3"><rect class="cls-1" width="999" height="343.13"/><circle class="cls-2" cx="312.76" cy="147.64" r="27.99"/><path class="cls-3" d="M298.71,157.6V139.82a9.34,9.34,0,0,1-2.92.87v-1.83a8,8,0,0,0,3.63-1.83H301V157.6Z"/><path class="cls-3" d="M315.24,147.14c0,7.48-1.43,10.77-5.37,10.77-4.1,0-5.4-3.63-5.4-10.8,0-7.79,2-10.24,5.49-10.24C313.66,136.87,315.24,139.76,315.24,147.14ZM306.8,147c0,5.86.59,8.9,3.07,8.9s3.07-2.89,3.07-8.84-.74-8.28-3-8.28S306.8,140.9,306.8,147Z"/><path class="cls-3" d="M328.71,147.14c0,7.48-1.43,10.77-5.37,10.77-4.1,0-5.4-3.63-5.4-10.8,0-7.79,2-10.24,5.49-10.24C327.12,136.87,328.71,139.76,328.71,147.14Zm-8.44-.09c0,5.86.59,8.9,3.07,8.9s3.07-2.89,3.07-8.84-.74-8.28-3-8.28S320.27,140.9,320.27,147Z"/><circle class="cls-4" cx="483.91" cy="147.64" r="35.18"/><path class="cls-5" d="M482.44,139.11H476c-.12,2-.46,5.34-.59,6.45a3.74,3.74,0,0,1,3.26-1.43c3.29,0,4.75,2.67,4.75,6.36,0,4-1.27,7.38-5.46,7.38-3.82,0-5-2.58-5.15-5.31h2.26c.12,1.4.56,3.38,2.95,3.38s3-2.3,3-5.24c0-2.64-.62-4.65-2.85-4.65-1.77,0-2.54,1.09-3,2.54l-2.11-.37c.34-2.36.84-8.07,1.05-11.11h8.63Z"/><path class="cls-5" d="M485.73,142c0-2.14,1-5.15,4.9-5.15,3.41,0,4.69,2.23,4.69,5.09,0,2.61-1.15,3.91-2.48,4.41v0c1.8.62,3.1,2.08,3.1,5.21s-1.24,6.27-5.46,6.27c-3.79,0-5.06-2.61-5.15-5.31h2.2c.06,1.61.84,3.41,3,3.41,2.48,0,3.07-2.2,3.07-4.31,0-3.32-1.49-4.19-3.79-4.19H489v-1.92h.87c2,0,3.2-.81,3.2-3.47,0-1.92-.59-3.32-2.51-3.32-2.36,0-2.61,2.33-2.67,3.26Z"/><circle class="cls-6" cx="398.33" cy="147.64" r="43.7"/><path d="M393,150.82c0-3.32,1.55-4.65,2.64-5.21-1.24-.71-2.14-2.14-2.14-4.41,0-2.82,1.55-5.34,4.93-5.34,3.23,0,4.72,2.3,4.72,5.12s-1.05,4.06-2.17,4.56c1.46.65,2.67,2.2,2.67,5.31,0,3.47-1.77,6-5.43,6S393,154.26,393,150.82Zm8.35,0c0-2.79-.93-4.22-3-4.22-2.3,0-3,1.71-3,4.16s.9,4.22,3,4.22S401.38,153.36,401.38,150.82Zm-5.62-9.71c0,2.11.68,3.57,2.64,3.57,1.68,0,2.61-1.05,2.61-3.54,0-1.83-.71-3.41-2.64-3.41S395.76,139.37,395.76,141.11Z"/><polyline class="cls-7" points="445.53 191.34 445.53 216.75 467.2 216.75"/><polyline class="cls-7" points="398.33 121.94 398.33 81.6 420 81.6"/><path class="cls-8" d="M479.53,222.86c.67,3,2.69,4.57,6.27,4.57,3.83,0,5.35-1.81,5.35-4.15s-1.2-3.86-6.13-5c-5.81-1.42-7.83-3.4-7.83-6.87,0-3.68,2.69-6.66,8.18-6.66,5.88,0,8.29,3.4,8.64,6.62h-3.33c-.46-2.16-1.81-4-5.42-4-3,0-4.68,1.35-4.68,3.68s1.38,3.22,5.7,4.29c7,1.7,8.25,4.43,8.25,7.62,0,4-2.94,7.09-9,7.09-6.2,0-8.86-3.4-9.39-7.19Z"/><path class="cls-8" d="M512.26,225.8a27.86,27.86,0,0,0,.25,3.93h-3a9.26,9.26,0,0,1-.28-2.34c-.64,1.17-2.09,2.76-5.56,2.76-4.25,0-6.06-2.76-6.06-5.49,0-4,3.15-5.85,8.5-5.85h3V217.3c0-1.59-.5-3.51-3.86-3.51-3,0-3.51,1.49-3.83,2.87h-3c.25-2.48,1.77-5.31,6.94-5.31,4.39,0,6.84,1.81,6.84,5.88Zm-3-4.82h-2.91c-3.58,0-5.49,1-5.49,3.51,0,1.88,1.28,3.22,3.51,3.22,4.32,0,4.89-2.91,4.89-6.16Z"/><path class="cls-8" d="M517.61,216.41c0-1.56,0-3.19,0-4.64h3c.07.53.14,1.84.14,2.76a5.55,5.55,0,0,1,5.21-3.19,5,5,0,0,1,5,3.22,6.11,6.11,0,0,1,5.7-3.22c2.94,0,5.67,1.74,5.67,6.59v11.8h-3V218.29c0-2.05-.74-4.25-3.54-4.25s-4.22,2.2-4.22,5.38v10.31h-3V218.39c0-2.3-.64-4.36-3.47-4.36s-4.25,2.34-4.25,5.74v10h-3.08Z"/><path class="cls-8" d="M547.58,236.78V216.16c0-1.49,0-3,0-4.39h3c.07.6.11,1.67.11,2.83a6.18,6.18,0,0,1,5.88-3.26c4.15,0,7.16,3.47,7.16,8.93,0,6.45-3.44,9.88-7.79,9.88-2.9,0-4.43-1.2-5.24-2.66v9.28ZM555.73,214c-3.72,0-5.21,2.34-5.21,6.73,0,4.22,1.2,6.8,5,6.8,3.3,0,5-2.69,5-7.12C560.51,216.59,558.77,214,555.73,214Z"/><path class="cls-8" d="M567.77,229.73v-26h3.12v26Z"/><path class="cls-8" d="M578,221.3c0,3.65,1.88,6.27,4.92,6.27a4.14,4.14,0,0,0,4.32-2.8h3.15c-.71,2.3-2.66,5.38-7.58,5.38-5.63,0-7.94-4.61-7.94-9.21,0-5.35,2.69-9.6,8.15-9.6,5.81,0,7.69,4.64,7.69,8.47,0,.57,0,1,0,1.49Zm9.56-2.16c0-3-1.52-5.35-4.57-5.35s-4.57,2.2-4.89,5.35Z"/><path class="cls-8" d="M605.78,222.86c.67,3,2.69,4.57,6.27,4.57,3.83,0,5.35-1.81,5.35-4.15s-1.2-3.86-6.13-5c-5.81-1.42-7.83-3.4-7.83-6.87,0-3.68,2.69-6.66,8.18-6.66,5.88,0,8.29,3.4,8.64,6.62h-3.33c-.46-2.16-1.81-4-5.42-4-3,0-4.68,1.35-4.68,3.68s1.38,3.22,5.7,4.29c7,1.7,8.25,4.43,8.25,7.62,0,4-2.94,7.09-9,7.09-6.2,0-8.86-3.4-9.39-7.19Z"/><path class="cls-8" d="M625.12,207.59v-3.86h3.12v3.86Zm0,4.18h3.12v18h-3.12Z"/><path class="cls-8" d="M632,227.22l10.34-12.82h-9.81v-2.62h13.36v2.59l-10.2,12.75h10.7l-.5,2.62H632Z"/><path class="cls-8" d="M651.33,221.3c0,3.65,1.88,6.27,4.92,6.27a4.14,4.14,0,0,0,4.32-2.8h3.15c-.71,2.3-2.66,5.38-7.58,5.38-5.63,0-7.94-4.61-7.94-9.21,0-5.35,2.69-9.6,8.15-9.6,5.81,0,7.69,4.64,7.69,8.47,0,.57,0,1,0,1.49Zm9.57-2.16c0-3-1.52-5.35-4.57-5.35s-4.57,2.2-4.89,5.35Z"/><path class="cls-6" d="M434.78,269.57V244.91h4.32c3.54,5.77,11.23,18,12.61,20.69h0c-.25-3.15-.21-7.05-.21-11.05v-9.64h3.08v24.66h-4.07c-3.26-5.35-11.27-18.53-12.79-21.29h-.07c.18,2.8.18,7,.18,11.44v9.85Z"/><path class="cls-6" d="M475.8,260.53c0,5.21-3,9.46-8.47,9.46-5.14,0-8.25-4-8.25-9.39s3-9.42,8.47-9.42C472.54,251.18,475.8,254.9,475.8,260.53Zm-13.53,0c0,4,2,6.84,5.21,6.84s5.14-2.73,5.14-6.8-1.84-6.84-5.21-6.84S462.27,256.5,462.27,260.57Z"/><path class="cls-6" d="M479.84,256.14c0-1.56,0-3.15,0-4.53h3a27.2,27.2,0,0,1,.14,2.94,5.64,5.64,0,0,1,5.63-3.37c3.4,0,6,2.06,6,6.84v11.55h-3.12V258.41c0-2.73-1.06-4.53-3.79-4.53-3.4,0-4.75,2.59-4.75,6.2v9.49h-3.12Z"/><path class="cls-6" d="M508.35,259.08v2.83h-9.28v-2.83Z"/><path class="cls-6" d="M514.83,264.43c.5,1.95,1.95,3.12,4.39,3.12,2.62,0,3.65-1.13,3.65-2.76s-.81-2.48-4.25-3.29c-5.14-1.24-6.2-2.83-6.2-5.28s1.88-5,6.48-5,6.55,2.69,6.77,5.17h-3c-.28-1.13-1.17-2.76-3.9-2.76-2.52,0-3.3,1.2-3.3,2.37,0,1.35.74,2,4,2.8,5.46,1.31,6.55,3.12,6.55,5.77,0,3.15-2.52,5.46-7,5.46-4.64,0-6.94-2.34-7.4-5.56Z"/><path class="cls-6" d="M544.13,264.32c0,1.77,0,4.18,0,5.24h-3c-.07-.46-.11-1.56-.14-2.69-.89,2-2.59,3.12-5.42,3.12-3,0-6-1.52-6-6.59v-11.8h3.08v11.16c0,2.34.74,4.53,3.72,4.53,3.3,0,4.57-1.84,4.57-6.34v-9.35h3.12Z"/><path class="cls-6" d="M550.72,264.43c.5,1.95,1.95,3.12,4.39,3.12,2.62,0,3.65-1.13,3.65-2.76s-.81-2.48-4.25-3.29c-5.14-1.24-6.2-2.83-6.2-5.28s1.88-5,6.48-5,6.55,2.69,6.77,5.17h-3c-.28-1.13-1.17-2.76-3.9-2.76-2.52,0-3.29,1.2-3.29,2.37,0,1.35.74,2,4,2.8,5.46,1.31,6.55,3.12,6.55,5.77,0,3.15-2.51,5.46-7,5.46-4.64,0-6.94-2.34-7.4-5.56Z"/><path class="cls-6" d="M580.23,264.08c-.74,3.08-2.83,5.92-7.4,5.92-5,0-8-3.54-8-9.32,0-5.07,2.87-9.49,8.22-9.49,5.17,0,7,3.68,7.19,6h-3.08a4,4,0,0,0-4.18-3.4c-3.15,0-5,2.73-5,6.8s1.74,6.84,4.85,6.84c2.23,0,3.54-1.2,4.29-3.33Z"/><path class="cls-6" d="M586,261.14c0,3.65,1.88,6.27,4.92,6.27a4.14,4.14,0,0,0,4.32-2.8h3.15c-.71,2.3-2.66,5.38-7.58,5.38-5.63,0-7.94-4.61-7.94-9.21,0-5.35,2.69-9.6,8.15-9.6,5.81,0,7.69,4.64,7.69,8.47,0,.57,0,1,0,1.49Zm9.57-2.16c0-3-1.52-5.35-4.57-5.35s-4.57,2.2-4.89,5.35Z"/><path class="cls-6" d="M602.68,276.62V256c0-1.49,0-3,0-4.39h3c.07.6.11,1.67.11,2.83a6.18,6.18,0,0,1,5.88-3.26c4.14,0,7.16,3.47,7.16,8.93,0,6.45-3.44,9.88-7.79,9.88-2.9,0-4.43-1.2-5.24-2.66v9.28Zm8.15-22.78c-3.72,0-5.21,2.34-5.21,6.73,0,4.22,1.2,6.8,5,6.8,3.29,0,5-2.69,5-7.12C615.61,256.42,613.88,253.84,610.83,253.84Z"/><path class="cls-6" d="M620.57,251.61h3.12v-5.31h3.08v5.31h4v2.52h-4v10.52c0,1.77.43,2.66,2.05,2.66a8.22,8.22,0,0,0,1.56-.14v2.34a8.26,8.26,0,0,1-2.69.32c-2.8,0-4-1.45-4-4.43V254.12h-3.12Z"/><path class="cls-6" d="M634,247.43v-3.86h3.12v3.86Zm0,4.18h3.12v18H634Z"/><path class="cls-6" d="M642.43,243.56h3.12v10.59c.78-1.52,2.44-3,5.7-3,4.53,0,7.37,3.72,7.37,9s-2.76,9.78-7.83,9.78c-2.87,0-4.39-1.06-5.28-2.8a19.27,19.27,0,0,1-.14,2.37h-3c0-2,0-4,0-6Zm8.11,10.24c-3.83,0-5.17,2.55-5.17,6.84,0,3.76,1.2,6.73,5,6.73,3.19,0,5.07-2.73,5.07-7.09C655.43,256.39,653.66,253.8,650.54,253.8Z"/><path class="cls-6" d="M662.76,247.43v-3.86h3.12v3.86Zm0,4.18h3.12v18h-3.12Z"/><path class="cls-6" d="M671.16,269.57v-26h3.12v26Z"/><path class="cls-6" d="M679.55,247.43v-3.86h3.12v3.86Zm0,4.18h3.12v18h-3.12Z"/><path class="cls-6" d="M685.79,251.61h3.12v-5.31H692v5.31h4v2.52h-4v10.52c0,1.77.43,2.66,2.05,2.66a8.22,8.22,0,0,0,1.56-.14v2.34a8.26,8.26,0,0,1-2.69.32c-2.8,0-4-1.45-4-4.43V254.12h-3.12Z"/><path class="cls-6" d="M701.3,251.61c2.9,8.61,4.5,13.36,5,15.2h0c.57-2.06,1.84-6.16,4.78-15.2h3.12l-6.45,18.78c-1.81,5.28-3.19,6.59-6.84,6.59-.57,0-1.24,0-1.95-.11v-2.69c.46,0,1,.07,1.49.07,2.27,0,3.12-1,4.18-4l-6.73-18.67Z"/><path class="cls-8" d="M434.78,92.16V67.51h4.32c3.54,5.77,11.23,18,12.61,20.69h0c-.25-3.15-.21-7.05-.21-11.05V67.51h3.08V92.16h-4.07c-3.26-5.35-11.27-18.53-12.79-21.29h-.07c.18,2.8.18,7,.18,11.44v9.85Z"/><path class="cls-8" d="M475.8,83.13c0,5.21-3,9.46-8.47,9.46-5.14,0-8.25-4-8.25-9.39s3-9.42,8.47-9.42C472.54,73.78,475.8,77.5,475.8,83.13Zm-13.53,0c0,4,2,6.84,5.21,6.84s5.14-2.73,5.14-6.8-1.84-6.84-5.21-6.84S462.27,79.09,462.27,83.16Z"/><path class="cls-8" d="M479.84,78.74c0-1.56,0-3.15,0-4.53h3a27.2,27.2,0,0,1,.14,2.94,5.64,5.64,0,0,1,5.63-3.37c3.4,0,6,2.06,6,6.84V92.16h-3.12V81c0-2.73-1.06-4.53-3.79-4.53-3.4,0-4.75,2.59-4.75,6.2v9.49h-3.12Z"/><path class="cls-8" d="M508.35,81.68v2.83h-9.28V81.68Z"/><path class="cls-8" d="M514.83,87c.5,1.95,1.95,3.12,4.39,3.12,2.62,0,3.65-1.13,3.65-2.76s-.81-2.48-4.25-3.29c-5.14-1.24-6.2-2.83-6.2-5.28s1.88-5,6.48-5,6.55,2.69,6.77,5.17h-3c-.28-1.13-1.17-2.76-3.9-2.76-2.52,0-3.3,1.2-3.3,2.37,0,1.35.74,2,4,2.8,5.46,1.31,6.55,3.12,6.55,5.77,0,3.15-2.52,5.46-7,5.46-4.64,0-6.94-2.34-7.4-5.56Z"/><path class="cls-8" d="M544.13,86.92c0,1.77,0,4.18,0,5.24h-3c-.07-.46-.11-1.56-.14-2.69-.89,2-2.59,3.12-5.42,3.12-3,0-6-1.52-6-6.59V74.2h3.08V85.36c0,2.34.74,4.53,3.72,4.53,3.3,0,4.57-1.84,4.57-6.34V74.2h3.12Z"/><path class="cls-8" d="M550.72,87c.5,1.95,1.95,3.12,4.39,3.12,2.62,0,3.65-1.13,3.65-2.76s-.81-2.48-4.25-3.29c-5.14-1.24-6.2-2.83-6.2-5.28s1.88-5,6.48-5,6.55,2.69,6.77,5.17h-3c-.28-1.13-1.17-2.76-3.9-2.76-2.52,0-3.29,1.2-3.29,2.37,0,1.35.74,2,4,2.8,5.46,1.31,6.55,3.12,6.55,5.77,0,3.15-2.51,5.46-7,5.46-4.64,0-6.94-2.34-7.4-5.56Z"/><path class="cls-8" d="M580.23,86.67c-.74,3.08-2.83,5.92-7.4,5.92-5,0-8-3.54-8-9.32,0-5.07,2.87-9.49,8.22-9.49,5.17,0,7,3.68,7.19,6h-3.08a4,4,0,0,0-4.18-3.4c-3.15,0-5,2.73-5,6.8S569.74,90,572.86,90c2.23,0,3.54-1.2,4.29-3.33Z"/><path class="cls-8" d="M586,83.73c0,3.65,1.88,6.27,4.92,6.27a4.14,4.14,0,0,0,4.32-2.8h3.15c-.71,2.3-2.66,5.38-7.58,5.38-5.63,0-7.94-4.61-7.94-9.21,0-5.35,2.69-9.6,8.15-9.6,5.81,0,7.69,4.64,7.69,8.47,0,.57,0,1,0,1.49Zm9.57-2.16c0-3-1.52-5.35-4.57-5.35s-4.57,2.2-4.89,5.35Z"/><path class="cls-8" d="M602.68,99.21V78.59c0-1.49,0-3,0-4.39h3c.07.6.11,1.67.11,2.83a6.18,6.18,0,0,1,5.88-3.26c4.14,0,7.16,3.47,7.16,8.93,0,6.45-3.44,9.88-7.79,9.88-2.9,0-4.43-1.2-5.24-2.66v9.28Zm8.15-22.78c-3.72,0-5.21,2.34-5.21,6.73,0,4.22,1.2,6.8,5,6.8,3.29,0,5-2.69,5-7.12C615.61,79,613.88,76.43,610.83,76.43Z"/><path class="cls-8" d="M620.57,74.2h3.12V68.89h3.08V74.2h4v2.52h-4V87.24c0,1.77.43,2.66,2.05,2.66a8.22,8.22,0,0,0,1.56-.14v2.34a8.26,8.26,0,0,1-2.69.32c-2.8,0-4-1.45-4-4.43V76.72h-3.12Z"/><path class="cls-8" d="M634,70V66.16h3.12V70Zm0,4.18h3.12v18H634Z"/><path class="cls-8" d="M642.43,66.16h3.12V76.75c.78-1.52,2.44-3,5.7-3,4.53,0,7.37,3.72,7.37,9s-2.76,9.78-7.83,9.78c-2.87,0-4.39-1.06-5.28-2.8a19.27,19.27,0,0,1-.14,2.37h-3c0-2,0-4,0-6Zm8.11,10.24c-3.83,0-5.17,2.55-5.17,6.84,0,3.76,1.2,6.73,5,6.73,3.19,0,5.07-2.73,5.07-7.09C655.43,79,653.66,76.4,650.54,76.4Z"/><path class="cls-8" d="M662.76,70V66.16h3.12V70Zm0,4.18h3.12v18h-3.12Z"/><path class="cls-8" d="M671.16,92.16v-26h3.12v26Z"/><path class="cls-8" d="M679.55,70V66.16h3.12V70Zm0,4.18h3.12v18h-3.12Z"/><path class="cls-8" d="M685.79,74.2h3.12V68.89H692V74.2h4v2.52h-4V87.24c0,1.77.43,2.66,2.05,2.66a8.22,8.22,0,0,0,1.56-.14v2.34a8.26,8.26,0,0,1-2.69.32c-2.8,0-4-1.45-4-4.43V76.72h-3.12Z"/><path class="cls-8" d="M701.3,74.2c2.9,8.61,4.5,13.36,5,15.2h0c.57-2.06,1.84-6.16,4.78-15.2h3.12L707.78,93c-1.81,5.28-3.19,6.59-6.84,6.59-.57,0-1.24,0-1.95-.11V96.77c.46,0,1,.07,1.49.07,2.27,0,3.12-1,4.18-4L697.93,74.2Z"/><polyline class="cls-9" points="399.08 171.16 399.08 258.1 420 258.1"/><polyline class="cls-7" points="433.45 103.93 445.5 103.93 445.53 103.93 445.53 191.34"/><line class="cls-7" x1="433.45" y1="191.34" x2="445.5" y2="191.34"/></g></g></svg>