<svg id="Layer_4" data-name="Layer 4" xmlns="http://www.w3.org/2000/svg" viewBox="0 0 400.5 261.26">
  <defs>
    <style>
      .cls-1 {
        fill: #eddfdd;
      }

      .cls-2, .cls-4, .cls-7 {
        font-size: 32px;
        font-family: AcuminProCond-Regular, Acumin Pro Condensed;
      }

      .cls-2 {
        fill: #994233;
      }

      .cls-3 {
        fill: #e0d076;
      }

      .cls-4 {
        fill: #4e451b;
      }

      .cls-5 {
        letter-spacing: 0em;
      }

      .cls-12, .cls-6 {
        fill: #7bc043;
      }

      .cls-22, .cls-8 {
        fill: none;
        stroke-miterlimit: 10;
      }

      .cls-8 {
        stroke: #000;
      }

      .cls-12, .cls-9 {
        font-size: 36px;
        font-family: AcuminPro-Regular, Acumin Pro;
      }

      .cls-9 {
        fill: #231f20;
      }

      .cls-10 {
        letter-spacing: 0.01em;
      }

      .cls-11 {
        letter-spacing: -0.01em;
      }

      .cls-13 {
        letter-spacing: -0.01em;
      }

      .cls-14 {
        letter-spacing: -0.01em;
      }

      .cls-15 {
        letter-spacing: 0em;
      }

      .cls-16 {
        letter-spacing: 0em;
      }

      .cls-17 {
        letter-spacing: 0em;
      }

      .cls-18 {
        letter-spacing: 0em;
      }

      .cls-19 {
        letter-spacing: 0em;
      }

      .cls-20 {
        letter-spacing: 0em;
      }

      .cls-21 {
        letter-spacing: 0.02em;
      }

      .cls-22 {
        stroke: #7bc043;
      }
    </style>
  </defs>
  <title>Artboard 1 copy 2</title>
  <circle class="cls-1" cx="35.12" cy="101.83" r="28.79"/>
  <text class="cls-2" transform="translate(28.37 112.07)">0</text>
  <circle class="cls-3" cx="211.18" cy="101.83" r="36.18"/>
  <text class="cls-4" transform="translate(197.52 112.07)"><tspan class="cls-5">5</tspan><tspan x="13.34" y="0">3</tspan></text>
  <circle class="cls-6" cx="123.15" cy="101.83" r="44.96"/>
  <text class="cls-7" transform="translate(109.54 111.03)">92</text>
  <polyline class="cls-8" points="171.69 146.78 171.69 183.92 193.99 183.92"/>
  <polyline class="cls-8" points="123.15 75.4 123.15 22.9 145.44 22.9"/>
  <text class="cls-9" transform="translate(205.75 197.27)">Sample S<tspan class="cls-10" x="150.12" y="0">i</tspan><tspan class="cls-11" x="158.87" y="0">z</tspan><tspan x="174.89" y="0">e</tspan></text>
  <text class="cls-12" transform="translate(161.29 249.25)"><tspan class="cls-13">S</tspan><tspan class="cls-14" x="21.53" y="0">u</tspan><tspan class="cls-15" x="41.33" y="0">s</tspan><tspan class="cls-16" x="58.46" y="0">c</tspan><tspan x="76.86" y="0">ep</tspan><tspan class="cls-17" x="116.21" y="0">t</tspan><tspan x="127.55" y="0">i</tspan><tspan class="cls-18" x="136.08" y="0">b</tspan><tspan class="cls-19" x="156.74" y="0">il</tspan><tspan class="cls-20" x="173.81" y="0">i</tspan><tspan class="cls-21" x="182.48" y="0">t</tspan><tspan x="194.83" y="0">y</tspan></text>
  <text class="cls-9" transform="translate(161.29 33.76)"><tspan class="cls-13">S</tspan><tspan class="cls-14" x="21.53" y="0">u</tspan><tspan class="cls-15" x="41.33" y="0">s</tspan><tspan class="cls-16" x="58.46" y="0">c</tspan><tspan x="76.86" y="0">ep</tspan><tspan class="cls-17" x="116.21" y="0">t</tspan><tspan x="127.55" y="0">i</tspan><tspan class="cls-18" x="136.08" y="0">b</tspan><tspan class="cls-19" x="156.74" y="0">il</tspan><tspan class="cls-20" x="173.81" y="0">i</tspan><tspan class="cls-21" x="182.48" y="0">t</tspan><tspan x="194.83" y="0">y</tspan></text>
  <polyline class="cls-22" points="123.92 126.03 123.92 237.46 145.44 237.46"/>
  <g>
    <polyline class="cls-8" points="159.27 56.87 171.67 56.87 171.69 56.87 171.69 146.78"/>
    <line class="cls-8" x1="159.27" y1="146.78" x2="171.67" y2="146.78"/>
  </g>
</svg>
