<svg xmlns="http://www.w3.org/2000/svg" viewBox="0 0 999.5 342.26"><defs><style>.cls-1{fill:#fff;}.cls-2{fill:#eddfdd;}.cls-3{fill:#994233;}.cls-4{fill:#e0d076;}.cls-5{fill:#4e451b;}.cls-6{fill:#7bc043;}.cls-7,.cls-9{fill:none;stroke-miterlimit:10;}.cls-7{stroke:#000;}.cls-8{fill:#231f20;}.cls-9{stroke:#7bc043;}</style></defs><title>Artboard 1 copy 2</title><g id="Layer_6" data-name="Layer 6"><rect class="cls-1" x="0.5" y="0.13" width="999" height="342"/></g><g id="Layer_4" data-name="Layer 4"><circle class="cls-2" cx="285.12" cy="142.83" r="28.79"/><path class="cls-3" d="M290.85,142.29c0,7.71-1.47,11.1-5.54,11.1-4.22,0-5.56-3.74-5.56-11.13,0-8,2.08-10.56,5.66-10.56C289.22,131.7,290.85,134.67,290.85,142.29Zm-8.7-.1c0,6.05.6,9.19,3.16,9.19s3.17-3,3.17-9.12-.77-8.55-3.13-8.55S282.15,135.86,282.15,142.19Z"/><circle class="cls-4" cx="461.18" cy="142.83" r="36.18"/><path class="cls-5" d="M458.65,134H452c-.13,2-.48,5.5-.61,6.66a3.85,3.85,0,0,1,3.36-1.48c3.39,0,4.89,2.76,4.89,6.56,0,4.1-1.31,7.62-5.63,7.62-3.93,0-5.18-2.66-5.31-5.47H451c.13,1.44.57,3.49,3,3.49s3.1-2.37,3.1-5.41c0-2.72-.64-4.8-2.94-4.8-1.83,0-2.63,1.12-3.11,2.62l-2.17-.38c.35-2.43.86-8.32,1.09-11.46h8.89Z"/><path class="cls-5" d="M462,137c0-2.21,1.06-5.31,5.06-5.31,3.52,0,4.83,2.3,4.83,5.24,0,2.69-1.18,4-2.56,4.55v0c1.86.64,3.2,2.14,3.2,5.38s-1.28,6.46-5.63,6.46c-3.9,0-5.22-2.69-5.31-5.47h2.27c.06,1.66.86,3.52,3.1,3.52,2.56,0,3.17-2.27,3.17-4.45,0-3.42-1.53-4.32-3.9-4.32h-.9v-2h.9c2.05,0,3.29-.84,3.29-3.59,0-2-.6-3.42-2.59-3.42-2.43,0-2.69,2.4-2.75,3.36Z"/><circle class="cls-6" cx="373.15" cy="142.83" r="44.96"/><path d="M363.21,147.87a2.55,2.55,0,0,0,2.66,2.5c3.07,0,3.2-5,3.3-8.74a3.61,3.61,0,0,1-3.62,2.15c-3.07,0-4.83-2.27-4.83-6.27,0-4.52,2.08-6.85,5.41-6.85s5.37,2.11,5.37,8.93c0,9.08-1.28,12.73-5.73,12.73s-4.73-3.52-4.86-4.45Zm-.16-10.52c0,2.56.8,4.44,3,4.44s3.07-1.66,3.07-4.12-.45-5-3-5C364.17,132.64,363.05,134.21,363.05,137.35Z"/><path d="M373.58,152v-.16c0-2.62,1.51-5.5,4.8-9.12,2.69-3,3.52-4.06,3.52-6.49,0-1.89-.54-3.65-2.75-3.65-2,0-2.88,1.57-3,4.06h-2.3c0-3.07,1.47-6,5.31-6s5.12,2.53,5.12,5.63c0,2.88-1,4.32-3.77,7.3-2.53,2.72-3.84,4.89-4.23,6.36h8.61l-.35,2.08Z"/><polyline class="cls-7" points="421.69 187.78 421.69 224.92 443.99 224.92"/><polyline class="cls-7" points="373.15 116.4 373.15 63.9 395.44 63.9"/><path class="cls-8" d="M460.61,231.29c.69,3,2.74,4.64,6.37,4.64,3.89,0,5.44-1.83,5.44-4.21s-1.23-3.92-6.23-5.11c-5.9-1.44-7.95-3.45-7.95-7,0-3.75,2.73-6.77,8.31-6.77,6,0,8.42,3.46,8.78,6.73H472c-.47-2.19-1.84-4-5.51-4-3.06,0-4.75,1.37-4.75,3.74s1.41,3.28,5.8,4.36c7.12,1.73,8.38,4.5,8.38,7.74,0,4-3,7.2-9.1,7.2-6.3,0-9-3.46-9.54-7.31Z"/><path class="cls-8" d="M493.87,234.28a27.59,27.59,0,0,0,.26,4h-3a9.72,9.72,0,0,1-.29-2.37c-.64,1.19-2.12,2.81-5.65,2.81-4.32,0-6.15-2.81-6.15-5.58,0-4.07,3.2-5.94,8.64-5.94h3.09v-1.55c0-1.62-.5-3.56-3.92-3.56-3,0-3.56,1.51-3.89,2.91h-3.06c.25-2.52,1.8-5.4,7.06-5.4,4.46,0,6.94,1.84,6.94,6Zm-3.09-4.9h-2.95c-3.64,0-5.58,1-5.58,3.57,0,1.9,1.29,3.27,3.56,3.27,4.39,0,5-2.95,5-6.26Z"/><path class="cls-8" d="M499.31,224.74c0-1.58,0-3.24,0-4.72h3c.07.54.14,1.88.14,2.81a5.64,5.64,0,0,1,5.29-3.24,5,5,0,0,1,5.08,3.28,6.21,6.21,0,0,1,5.8-3.28c3,0,5.75,1.77,5.75,6.7v12h-3.09V226.65c0-2.09-.76-4.32-3.6-4.32s-4.28,2.23-4.28,5.47v10.47h-3.1V226.75c0-2.33-.65-4.42-3.53-4.42s-4.32,2.37-4.32,5.83v10.11h-3.13Z"/><path class="cls-8" d="M529.77,245.44V224.49c0-1.51,0-3.06,0-4.47h3.06c.07.62.11,1.7.11,2.88a6.28,6.28,0,0,1,6-3.31c4.21,0,7.27,3.53,7.27,9.07,0,6.55-3.49,10.05-7.91,10.05-3,0-4.5-1.23-5.33-2.7v9.43Zm8.28-23.15c-3.78,0-5.3,2.38-5.3,6.84,0,4.28,1.23,6.91,5,6.91,3.35,0,5.12-2.73,5.12-7.23C542.91,224.92,541.14,222.29,538.05,222.29Z"/><path class="cls-8" d="M550.29,238.27V211.85h3.16v26.42Z"/><path class="cls-8" d="M560.69,229.71c0,3.7,1.91,6.37,5,6.37a4.19,4.19,0,0,0,4.39-2.85h3.21c-.72,2.34-2.7,5.48-7.7,5.48-5.73,0-8.07-4.68-8.07-9.36,0-5.44,2.74-9.76,8.28-9.76,5.91,0,7.81,4.72,7.81,8.6,0,.58,0,1.05,0,1.52Zm9.72-2.2c0-3-1.55-5.43-4.64-5.43s-4.65,2.23-5,5.43Z"/><path class="cls-8" d="M588.91,231.29c.69,3,2.74,4.64,6.38,4.64,3.88,0,5.43-1.83,5.43-4.21s-1.22-3.92-6.23-5.11c-5.9-1.44-8-3.45-8-7,0-3.75,2.73-6.77,8.31-6.77,6,0,8.43,3.46,8.79,6.73h-3.39c-.46-2.19-1.83-4-5.5-4-3.06,0-4.76,1.37-4.76,3.74s1.41,3.28,5.8,4.36c7.13,1.73,8.39,4.5,8.39,7.74,0,4-3,7.2-9.11,7.2-6.3,0-9-3.46-9.54-7.31Z"/><path class="cls-8" d="M608.57,215.78v-3.93h3.17v3.93Zm0,4.24h3.17v18.25h-3.17Z"/><path class="cls-8" d="M615.52,235.72l10.51-13h-10V220h13.57v2.63l-10.37,13h10.87l-.5,2.66H615.52Z"/><path class="cls-8" d="M635.21,229.71c0,3.7,1.91,6.37,5,6.37a4.19,4.19,0,0,0,4.39-2.85h3.21c-.72,2.34-2.7,5.48-7.71,5.48-5.72,0-8.06-4.68-8.06-9.36,0-5.44,2.74-9.76,8.28-9.76,5.9,0,7.81,4.72,7.81,8.6,0,.58,0,1.05,0,1.52Zm9.72-2.2c0-3-1.55-5.43-4.65-5.43s-4.64,2.23-5,5.43Z"/><path class="cls-6" d="M416.15,283.27c.68,3,2.73,4.64,6.37,4.64,3.88,0,5.43-1.83,5.43-4.21s-1.22-3.92-6.23-5.11c-5.9-1.44-8-3.46-8-7,0-3.75,2.73-6.77,8.31-6.77,6,0,8.43,3.45,8.79,6.73h-3.39c-.46-2.19-1.83-4-5.5-4-3.06,0-4.75,1.37-4.75,3.74s1.4,3.28,5.79,4.36c7.13,1.73,8.39,4.5,8.39,7.74,0,4-3,7.2-9.11,7.2-6.3,0-9-3.46-9.54-7.31Z"/><path class="cls-6" d="M450.16,284.92c0,1.8,0,4.25,0,5.33h-3.06c-.07-.47-.11-1.58-.14-2.73-.9,2-2.63,3.16-5.51,3.16-3.1,0-6.05-1.54-6.05-6.69V272h3.13v11.34c0,2.38.76,4.61,3.78,4.61,3.35,0,4.65-1.87,4.65-6.45V272h3.16Z"/><path class="cls-6" d="M456.86,285c.5,2,2,3.17,4.46,3.17,2.67,0,3.71-1.15,3.71-2.81s-.83-2.52-4.32-3.35c-5.22-1.25-6.3-2.87-6.3-5.36s1.91-5.11,6.59-5.11,6.66,2.74,6.88,5.26h-3c-.29-1.16-1.19-2.81-4-2.81-2.55,0-3.35,1.22-3.35,2.41,0,1.37.76,2.05,4.11,2.84,5.54,1.34,6.66,3.17,6.66,5.87,0,3.2-2.56,5.54-7.09,5.54-4.72,0-7.06-2.37-7.53-5.65Z"/><path class="cls-6" d="M486.85,284.67c-.76,3.13-2.88,6-7.53,6-5,0-8.13-3.6-8.13-9.46,0-5.15,2.91-9.65,8.35-9.65,5.25,0,7.09,3.74,7.31,6.08h-3.13a4.05,4.05,0,0,0-4.25-3.45c-3.21,0-5,2.77-5,6.91s1.76,6.95,4.93,6.95c2.27,0,3.6-1.23,4.36-3.39Z"/><path class="cls-6" d="M492.72,281.68c0,3.71,1.9,6.38,5,6.38a4.2,4.2,0,0,0,4.39-2.85h3.2c-.72,2.34-2.69,5.47-7.7,5.47-5.72,0-8.06-4.68-8.06-9.35,0-5.44,2.73-9.76,8.28-9.76,5.9,0,7.81,4.72,7.81,8.6,0,.58,0,1.05,0,1.51Zm9.71-2.19c0-3-1.54-5.44-4.64-5.44s-4.64,2.24-5,5.44Z"/><path class="cls-6" d="M509.67,297.42V276.47c0-1.52,0-3.06,0-4.47h3.06c.07.61.1,1.69.1,2.88a6.29,6.29,0,0,1,6-3.31c4.21,0,7.27,3.53,7.27,9.07,0,6.55-3.49,10-7.92,10-3,0-4.5-1.22-5.33-2.7v9.44ZM518,274.27c-3.78,0-5.29,2.38-5.29,6.84,0,4.28,1.22,6.91,5,6.91,3.35,0,5.11-2.74,5.11-7.23C522.81,276.9,521.05,274.27,518,274.27Z"/><path class="cls-6" d="M527.85,272H531v-5.4h3.13V272h4v2.56h-4v10.69c0,1.8.43,2.7,2.09,2.7a8.17,8.17,0,0,0,1.58-.15v2.38a8.29,8.29,0,0,1-2.73.32c-2.85,0-4.07-1.47-4.07-4.5V274.56h-3.17Z"/><path class="cls-6" d="M541.53,267.75v-3.92h3.17v3.92Zm0,4.25h3.17v18.25h-3.17Z"/><path class="cls-6" d="M550.06,263.83h3.17v10.76c.79-1.54,2.48-3,5.8-3,4.6,0,7.48,3.78,7.48,9.18s-2.8,9.93-8,9.93c-2.92,0-4.47-1.08-5.37-2.84a20,20,0,0,1-.14,2.41h-3c0-2.05,0-4.1,0-6.12Zm8.25,10.4c-3.89,0-5.26,2.6-5.26,6.95,0,3.82,1.22,6.84,5.08,6.84,3.24,0,5.14-2.77,5.14-7.2C563.27,276.86,561.47,274.23,558.31,274.23Z"/><path class="cls-6" d="M570.73,267.75v-3.92h3.16v3.92Zm0,4.25h3.16v18.25h-3.16Z"/><path class="cls-6" d="M579.26,290.25V263.83h3.17v26.42Z"/><path class="cls-6" d="M587.79,267.75v-3.92H591v3.92Zm0,4.25H591v18.25h-3.17Z"/><path class="cls-6" d="M594.13,272h3.16v-5.4h3.14V272h4v2.56h-4v10.69c0,1.8.43,2.7,2.08,2.7a8.27,8.27,0,0,0,1.59-.15v2.38a8.39,8.39,0,0,1-2.74.32c-2.84,0-4.07-1.47-4.07-4.5V274.56h-3.16Z"/><path class="cls-6" d="M609.89,272c3,8.75,4.57,13.57,5.08,15.44h0c.58-2.08,1.88-6.26,4.86-15.44H623l-6.55,19.08c-1.83,5.36-3.24,6.7-7,6.7-.57,0-1.26,0-2-.11v-2.74c.47,0,1,.07,1.52.07,2.3,0,3.16-1,4.24-4l-6.84-19Z"/><path class="cls-8" d="M416.15,67.78c.68,3,2.73,4.64,6.37,4.64,3.88,0,5.43-1.84,5.43-4.21s-1.22-3.92-6.23-5.11c-5.9-1.44-8-3.46-8-7,0-3.75,2.73-6.77,8.31-6.77,6,0,8.43,3.45,8.79,6.73h-3.39c-.46-2.2-1.83-4-5.5-4-3.06,0-4.75,1.37-4.75,3.74s1.4,3.28,5.79,4.36c7.13,1.72,8.39,4.5,8.39,7.74,0,4-3,7.19-9.11,7.19-6.3,0-9-3.45-9.54-7.3Z"/><path class="cls-8" d="M450.16,69.43c0,1.8,0,4.25,0,5.33h-3.06c-.07-.47-.11-1.58-.14-2.73-.9,2-2.63,3.16-5.51,3.16-3.1,0-6.05-1.55-6.05-6.69v-12h3.13V67.85c0,2.38.76,4.61,3.78,4.61,3.35,0,4.65-1.88,4.65-6.45v-9.5h3.16Z"/><path class="cls-8" d="M456.86,69.54c.5,2,2,3.17,4.46,3.17,2.67,0,3.71-1.15,3.71-2.81s-.83-2.52-4.32-3.35c-5.22-1.26-6.3-2.88-6.3-5.36s1.91-5.11,6.59-5.11,6.66,2.73,6.88,5.25h-3c-.29-1.15-1.19-2.8-4-2.8-2.55,0-3.35,1.22-3.35,2.41,0,1.37.76,2.05,4.11,2.84,5.54,1.33,6.66,3.17,6.66,5.87,0,3.2-2.56,5.54-7.09,5.54-4.72,0-7.06-2.37-7.53-5.65Z"/><path class="cls-8" d="M486.85,69.18c-.76,3.13-2.88,6-7.53,6-5,0-8.13-3.6-8.13-9.46,0-5.15,2.91-9.65,8.35-9.65,5.25,0,7.09,3.74,7.31,6.08h-3.13a4.05,4.05,0,0,0-4.25-3.45c-3.21,0-5,2.77-5,6.91s1.76,6.95,4.93,6.95c2.27,0,3.6-1.23,4.36-3.39Z"/><path class="cls-8" d="M492.72,66.19c0,3.71,1.9,6.38,5,6.38a4.2,4.2,0,0,0,4.39-2.85h3.2c-.72,2.34-2.69,5.47-7.7,5.47-5.72,0-8.06-4.68-8.06-9.36,0-5.43,2.73-9.75,8.28-9.75,5.9,0,7.81,4.71,7.81,8.6,0,.58,0,1,0,1.51ZM502.43,64c0-3-1.54-5.44-4.64-5.44s-4.64,2.23-5,5.44Z"/><path class="cls-8" d="M509.67,81.92V61c0-1.51,0-3,0-4.46h3.06c.07.61.1,1.69.1,2.88a6.29,6.29,0,0,1,6-3.31c4.21,0,7.27,3.53,7.27,9.07,0,6.55-3.49,10-7.92,10-3,0-4.5-1.22-5.33-2.7v9.43ZM518,58.78c-3.78,0-5.29,2.37-5.29,6.84,0,4.28,1.22,6.91,5,6.91,3.35,0,5.11-2.74,5.11-7.24C522.81,61.41,521.05,58.78,518,58.78Z"/><path class="cls-8" d="M527.85,56.51H531v-5.4h3.13v5.4h4v2.56h-4V69.76c0,1.8.43,2.7,2.09,2.7a8.17,8.17,0,0,0,1.58-.15v2.38a8.29,8.29,0,0,1-2.73.32c-2.85,0-4.07-1.47-4.07-4.5V59.07h-3.17Z"/><path class="cls-8" d="M541.53,52.26V48.34h3.17v3.92Zm0,4.25h3.17V74.76h-3.17Z"/><path class="cls-8" d="M550.06,48.34h3.17V59.1c.79-1.55,2.48-3,5.8-3,4.6,0,7.48,3.78,7.48,9.18s-2.8,9.93-8,9.93c-2.92,0-4.47-1.08-5.37-2.84a20,20,0,0,1-.14,2.41h-3c0-2.05,0-4.1,0-6.12Zm8.25,10.4c-3.89,0-5.26,2.59-5.26,6.95,0,3.82,1.22,6.84,5.08,6.84,3.24,0,5.14-2.77,5.14-7.2C563.27,61.37,561.47,58.74,558.31,58.74Z"/><path class="cls-8" d="M570.73,52.26V48.34h3.16v3.92Zm0,4.25h3.16V74.76h-3.16Z"/><path class="cls-8" d="M579.26,74.76V48.34h3.17V74.76Z"/><path class="cls-8" d="M587.79,52.26V48.34H591v3.92Zm0,4.25H591V74.76h-3.17Z"/><path class="cls-8" d="M594.13,56.51h3.16v-5.4h3.14v5.4h4v2.56h-4V69.76c0,1.8.43,2.7,2.08,2.7a8.27,8.27,0,0,0,1.59-.15v2.38a8.39,8.39,0,0,1-2.74.32c-2.84,0-4.07-1.47-4.07-4.5V59.07h-3.16Z"/><path class="cls-8" d="M609.89,56.51c3,8.75,4.57,13.57,5.08,15.44h0c.58-2.08,1.88-6.26,4.86-15.44H623l-6.55,19.08c-1.83,5.36-3.24,6.69-7,6.69-.57,0-1.26,0-2-.1V79.44c.47,0,1,.07,1.52.07,2.3,0,3.16-1,4.24-4l-6.84-19Z"/><polyline class="cls-9" points="373.92 167.03 373.92 278.46 395.44 278.46"/><polyline class="cls-7" points="409.27 97.87 421.67 97.87 421.69 97.87 421.69 187.78"/><line class="cls-7" x1="409.27" y1="187.78" x2="421.67" y2="187.78"/></g></svg>