<svg xmlns="http://www.w3.org/2000/svg" viewBox="0 0 64.7 20.42" class="c-logo__vector-image c-logo__vector-image--hidden" data-tenant-name="infect4vets"><defs><style>.cls-1{fill:#1d1d1b;}</style></defs><title>Artboard 1</title><g id="Base"><path class="cls-1" d="M27.11,11H24.86V2.34h2.25Z"/><path class="cls-1" d="M28.63,2.34h2.25L35,7.63h0V2.34h2.25V11H35L30.9,5.69h0V11H28.63Z"/><path class="cls-1" d="M41,4.25V5.69H43.5V7.6H41V11H38.79V2.34h5V4.25Z"/><path class="cls-1" d="M47.3,4.25V5.69h2.54V7.6H47.3V9.09H50V11H45.05V2.34H50V4.25Z"/><path class="cls-1" d="M57.6,5.25a2.46,2.46,0,0,0-2-1,2.28,2.28,0,0,0-2.3,2.4A2.24,2.24,0,0,0,55.66,9a2.59,2.59,0,0,0,1.94-.91v2.69a6.4,6.4,0,0,1-2,.4A4.82,4.82,0,0,1,52.37,10,4.21,4.21,0,0,1,51,6.68a4.52,4.52,0,0,1,1.27-3.17,4.7,4.7,0,0,1,3.29-1.4,5.22,5.22,0,0,1,2.06.44Z"/><path class="cls-1" d="M62.71,11H60.46V4.25H58.6V2.34h6V4.25H62.71Z"/><path class="cls-1" d="M6.93,9.75a3,3,0,0,1,0-6.09h4.8V9.75Z"/><path class="cls-1" d="M17.23,9.75a3,3,0,0,0,0-6.09H12.52V9.75Z"/><path class="cls-1" d="M7.81,1.69A.92.92,0,1,1,6.89.78.91.91,0,0,1,7.81,1.69Z"/><path class="cls-1" d="M6.61,3.1a.28.28,0,0,1,.28-.28h0a.28.28,0,0,1,.29.28h0a.29.29,0,0,1-.29.28h0A.29.29,0,0,1,6.61,3.1ZM5.7,2.89a.28.28,0,0,1,0-.4h0a.28.28,0,0,1,.4,0h0a.28.28,0,0,1,0,.4h0A.32.32,0,0,1,5.9,3h0A.3.3,0,0,1,5.7,2.89Zm2,0a.28.28,0,0,1,0-.4h0a.27.27,0,0,1,.4,0h0a.28.28,0,0,1,0,.4h0a.32.32,0,0,1-.2.08h0A.3.3,0,0,1,7.69,2.89ZM5.2,1.69a.29.29,0,0,1,.29-.28h0a.29.29,0,0,1,.28.28h0A.28.28,0,0,1,5.49,2h0A.28.28,0,0,1,5.2,1.69ZM8,1.69H8A.28.28,0,0,1,8.3,1.4h0a.28.28,0,0,1,.28.29h0A.27.27,0,0,1,8.3,2h0A.27.27,0,0,1,8,1.69Zm-2.82,0ZM5.7.9a.28.28,0,0,1,0-.4h0a.28.28,0,0,1,.4,0h0a.28.28,0,0,1,0,.4h0A.32.32,0,0,1,5.9,1h0A.28.28,0,0,1,5.7.9Zm2,0h0a.28.28,0,0,1,0-.4h0a.28.28,0,0,1,.4,0h0a.28.28,0,0,1,0,.4h0a.28.28,0,0,1-.2.09h0A.25.25,0,0,1,7.69.89ZM6.61.28A.28.28,0,0,1,6.89,0h0a.28.28,0,0,1,.28.28h0a.28.28,0,0,1-.28.29h0A.28.28,0,0,1,6.61.28Z"/><path class="cls-1" d="M11.75,1.69a.92.92,0,1,1-.92-.91A.91.91,0,0,1,11.75,1.69Z"/><path class="cls-1" d="M10.55,3.1a.28.28,0,0,1,.28-.28h0a.28.28,0,0,1,.29.28h0a.29.29,0,0,1-.29.28h0A.29.29,0,0,1,10.55,3.1Zm-.91-.21a.28.28,0,0,1,0-.4h0a.28.28,0,0,1,.4,0h0a.28.28,0,0,1,0,.4h0a.32.32,0,0,1-.2.08h0A.3.3,0,0,1,9.64,2.89Zm2,0a.28.28,0,0,1,0-.4h0a.27.27,0,0,1,.4,0h0a.28.28,0,0,1,0,.4h0a.32.32,0,0,1-.2.08h0A.28.28,0,0,1,11.63,2.89ZM9.14,1.69a.29.29,0,0,1,.28-.28h0a.29.29,0,0,1,.29.28h0A.28.28,0,0,1,9.42,2h0A.28.28,0,0,1,9.14,1.69Zm2.82,0h0a.28.28,0,0,1,.28-.29h0a.29.29,0,0,1,.28.29h0a.27.27,0,0,1-.28.28h0A.27.27,0,0,1,12,1.69Zm-2.82,0ZM9.64.9a.28.28,0,0,1,0-.4h0a.28.28,0,0,1,.4,0h0a.28.28,0,0,1,0,.4h0a.32.32,0,0,1-.2.08h0A.28.28,0,0,1,9.64.9Zm2,0h0a.28.28,0,0,1,0-.4h0a.28.28,0,0,1,.4,0h0a.28.28,0,0,1,0,.4h0a.28.28,0,0,1-.2.09h0A.25.25,0,0,1,11.63.89ZM10.55.28A.28.28,0,0,1,10.83,0h0a.28.28,0,0,1,.28.28h0a.28.28,0,0,1-.28.29h0A.28.28,0,0,1,10.55.28Z"/><path class="cls-1" d="M7.93,11.69A.92.92,0,1,1,7,10.78.92.92,0,0,1,7.93,11.69Z"/><path class="cls-1" d="M6.73,13.1A.28.28,0,0,1,7,12.82H7a.28.28,0,0,1,.29.28h0a.28.28,0,0,1-.28.28H7A.28.28,0,0,1,6.73,13.1Zm-.91-.21a.28.28,0,0,1,0-.4h0a.28.28,0,0,1,.4,0h0a.28.28,0,0,1,0,.4h0A.32.32,0,0,1,6,13H6A.32.32,0,0,1,5.82,12.89Zm2,0a.28.28,0,0,1,0-.4h0a.28.28,0,0,1,.4,0h0a.28.28,0,0,1,0,.4h0A.32.32,0,0,1,8,13H8A.3.3,0,0,1,7.81,12.89Zm-2.49-1.2a.29.29,0,0,1,.29-.28h0a.29.29,0,0,1,.28.28h0a.29.29,0,0,1-.28.29h0A.29.29,0,0,1,5.32,11.69Zm2.82,0h0a.27.27,0,0,1,.28-.28h0a.27.27,0,0,1,.28.28h0a.28.28,0,0,1-.28.29h0A.29.29,0,0,1,8.14,11.69Zm-2.82,0Zm.5-.79a.28.28,0,0,1,0-.4h0a.28.28,0,0,1,.4,0h0a.28.28,0,0,1,0,.4h0A.32.32,0,0,1,6,11H6A.3.3,0,0,1,5.82,10.9Zm2,0h0a.28.28,0,0,1,0-.4h0a.28.28,0,0,1,.4,0h0a.28.28,0,0,1,0,.4h0A.28.28,0,0,1,8,11H8A.3.3,0,0,1,7.81,10.9Zm-1.08-.61A.29.29,0,0,1,7,10H7a.28.28,0,0,1,.28.28h0a.28.28,0,0,1-.28.29H7A.29.29,0,0,1,6.73,10.29Z"/><path class="cls-1" d="M11.75,11.69a.92.92,0,1,1-.92-.91A.92.92,0,0,1,11.75,11.69Z"/><path class="cls-1" d="M10.55,13.1a.28.28,0,0,1,.28-.28h0a.28.28,0,0,1,.29.28h0a.28.28,0,0,1-.29.28h0A.28.28,0,0,1,10.55,13.1Zm-.91-.21a.28.28,0,0,1,0-.4h0a.28.28,0,0,1,.4,0h0a.28.28,0,0,1,0,.4h0a.32.32,0,0,1-.2.08h0A.3.3,0,0,1,9.64,12.89Zm2,0a.28.28,0,0,1,0-.4h0a.28.28,0,0,1,.4,0h0a.28.28,0,0,1,0,.4h0a.32.32,0,0,1-.2.08h0A.28.28,0,0,1,11.63,12.89Zm-2.49-1.2a.29.29,0,0,1,.28-.28h0a.29.29,0,0,1,.29.28h0a.29.29,0,0,1-.29.29h0A.29.29,0,0,1,9.14,11.69Zm2.82,0h0a.27.27,0,0,1,.28-.28h0a.28.28,0,0,1,.28.28h0a.28.28,0,0,1-.28.29h0A.28.28,0,0,1,12,11.69Zm-2.82,0Zm.5-.79a.28.28,0,0,1,0-.4h0a.28.28,0,0,1,.4,0h0a.28.28,0,0,1,0,.4h0a.32.32,0,0,1-.2.08h0A.28.28,0,0,1,9.64,10.9Zm2,0h0a.28.28,0,0,1,0-.4h0a.28.28,0,0,1,.4,0h0a.28.28,0,0,1,0,.4h0a.28.28,0,0,1-.2.09h0A.28.28,0,0,1,11.63,10.9Zm-1.08-.61a.28.28,0,0,1,.28-.29h0a.28.28,0,0,1,.28.28h0a.28.28,0,0,1-.28.29h0A.28.28,0,0,1,10.55,10.29Z"/><path class="cls-1" d="M2.6,6.73a.91.91,0,1,1-.91-.91A.91.91,0,0,1,2.6,6.73Z"/><path class="cls-1" d="M1.41,8.14a.27.27,0,0,1,.28-.28h0A.27.27,0,0,1,2,8.14H2a.27.27,0,0,1-.28.28h0A.28.28,0,0,1,1.41,8.14ZM.5,7.93a.28.28,0,0,1,0-.4h0a.28.28,0,0,1,.4,0h0a.28.28,0,0,1,0,.4h0A.32.32,0,0,1,.7,8h0A.28.28,0,0,1,.5,7.93Zm2,0a.28.28,0,0,1,0-.4h0a.28.28,0,0,1,.4,0h0a.28.28,0,0,1,0,.4h0a.32.32,0,0,1-.2.08h0A.28.28,0,0,1,2.49,7.93ZM0,6.73a.29.29,0,0,1,.28-.28h0a.29.29,0,0,1,.29.28h0A.29.29,0,0,1,.28,7h0A.29.29,0,0,1,0,6.73Zm2.81,0h0a.28.28,0,0,1,.29-.28h0a.28.28,0,0,1,.28.28h0A.28.28,0,0,1,3.1,7h0A.28.28,0,0,1,2.81,6.73ZM0,6.73Zm.49-.79a.28.28,0,0,1,0-.4h0a.28.28,0,0,1,.4,0h0a.28.28,0,0,1,0,.4h0A.28.28,0,0,1,.69,6h0A.32.32,0,0,1,.49,5.94Zm2,0h0a.3.3,0,0,1,0-.41h0a.28.28,0,0,1,.4,0h0a.28.28,0,0,1,0,.4h0a.25.25,0,0,1-.2.09h0A.32.32,0,0,1,2.48,5.94ZM1.41,5.32A.27.27,0,0,1,1.69,5h0A.29.29,0,0,1,2,5.32H2a.29.29,0,0,1-.28.29h0A.28.28,0,0,1,1.41,5.32Z"/><path class="cls-1" d="M4.24,3.06a.92.92,0,1,1-.92-.91A.92.92,0,0,1,4.24,3.06Z"/><path class="cls-1" d="M3,4.47a.28.28,0,0,1,.28-.28h0a.28.28,0,0,1,.29.28h0a.28.28,0,0,1-.29.28h0A.28.28,0,0,1,3,4.47Zm-.91-.21a.28.28,0,0,1,0-.4h0a.28.28,0,0,1,.4,0h0a.28.28,0,0,1,0,.4h0a.32.32,0,0,1-.2.08h0A.3.3,0,0,1,2.13,4.26Zm2,0a.28.28,0,0,1,0-.4h0a.28.28,0,0,1,.4,0h0a.28.28,0,0,1,0,.4h0a.32.32,0,0,1-.2.08h0A.3.3,0,0,1,4.12,4.26ZM1.63,3.06a.29.29,0,0,1,.29-.28h0a.29.29,0,0,1,.28.28h0a.29.29,0,0,1-.28.29h0A.29.29,0,0,1,1.63,3.06Zm2.82,0h0a.27.27,0,0,1,.28-.28h0A.27.27,0,0,1,5,3.06H5a.27.27,0,0,1-.28.28h0A.28.28,0,0,1,4.45,3.06Zm-2.82,0Zm.5-.79a.28.28,0,0,1,0-.4h0a.28.28,0,0,1,.4,0h0a.28.28,0,0,1,0,.4h0a.32.32,0,0,1-.2.08h0A.28.28,0,0,1,2.13,2.27Zm2,0h0a.28.28,0,0,1,0-.4h0a.28.28,0,0,1,.4,0h0a.28.28,0,0,1,0,.4h0a.28.28,0,0,1-.2.09h0A.25.25,0,0,1,4.12,2.26ZM3,1.65a.28.28,0,0,1,.28-.28h0a.28.28,0,0,1,.28.28h0a.28.28,0,0,1-.28.29h0A.29.29,0,0,1,3,1.65Z"/><path class="cls-1" d="M4.24,10.36a.92.92,0,1,1-.92-.91A.92.92,0,0,1,4.24,10.36Z"/><path class="cls-1" d="M3,11.77a.28.28,0,0,1,.28-.28h0a.28.28,0,0,1,.29.28h0a.28.28,0,0,1-.29.28h0A.28.28,0,0,1,3,11.77Zm-.91-.21a.28.28,0,0,1,0-.4h0a.28.28,0,0,1,.4,0h0a.28.28,0,0,1,0,.4h0a.32.32,0,0,1-.2.08h0A.3.3,0,0,1,2.13,11.56Zm2,0a.28.28,0,0,1,0-.4h0a.28.28,0,0,1,.4,0h0a.28.28,0,0,1,0,.4h0a.32.32,0,0,1-.2.08h0A.3.3,0,0,1,4.12,11.56Zm-2.49-1.2a.29.29,0,0,1,.29-.28h0a.29.29,0,0,1,.28.28h0a.29.29,0,0,1-.28.29h0A.29.29,0,0,1,1.63,10.36Zm2.82,0h0a.27.27,0,0,1,.28-.28h0a.27.27,0,0,1,.28.28H5a.27.27,0,0,1-.28.28h0A.28.28,0,0,1,4.45,10.36Zm-2.82,0Zm.5-.79a.28.28,0,0,1,0-.4h0a.28.28,0,0,1,.4,0h0a.28.28,0,0,1,0,.4h0a.32.32,0,0,1-.2.08h0A.28.28,0,0,1,2.13,9.57Zm2,0h0a.28.28,0,0,1,0-.4h0a.28.28,0,0,1,.4,0h0a.28.28,0,0,1,0,.4h0a.28.28,0,0,1-.2.09h0A.25.25,0,0,1,4.12,9.56ZM3,9a.28.28,0,0,1,.28-.28h0A.28.28,0,0,1,3.6,9h0a.28.28,0,0,1-.28.29h0A.29.29,0,0,1,3,9Z"/></g><g id="Vets"><path class="cls-1" d="M26.54,16.26l.94-2.36h1.1l-1.66,3.89h-.79L24.5,13.9h1.1Z"/><path class="cls-1" d="M29.85,14.76v.65H31v.85H29.85v.67h1.2v.86H28.83V13.9h2.22v.86Z"/><path class="cls-1" d="M33.22,17.79h-1v-3h-.84V13.9h2.69v.86h-.84Z"/><path class="cls-1" d="M36.56,14.9a1.07,1.07,0,0,0-.67-.26c-.18,0-.43.11-.43.33s.27.31.45.37l.25.08c.55.16,1,.43,1,1.06a1.33,1.33,0,0,1-.4,1.05,1.73,1.73,0,0,1-1.1.36,2.4,2.4,0,0,1-1.37-.44l.43-.82a1.39,1.39,0,0,0,.9.41c.24,0,.49-.12.49-.4s-.4-.38-.61-.44c-.64-.18-1.05-.34-1.05-1.1a1.25,1.25,0,0,1,1.34-1.3,2.57,2.57,0,0,1,1.21.32Z"/><path class="cls-1" d="M39.42,13.53h.41v2.18h0a1,1,0,0,1,.83-.41,1.19,1.19,0,0,1,1.17,1.28,1.2,1.2,0,0,1-1.16,1.28,1,1,0,0,1-.84-.41h0v.34h-.41Zm.39,3a.83.83,0,0,0,.8.92.81.81,0,0,0,.8-.91.81.81,0,0,0-.81-.88A.82.82,0,0,0,39.81,16.55Z"/><path class="cls-1" d="M42,15.37h.48l.85,1.73.79-1.73h.47l-1.79,3.78h-.47l.78-1.59Z"/><path class="cls-1" d="M48.87,17.79h-.93V17.5h0a.94.94,0,0,1-.8.38,1.36,1.36,0,0,1-1.34-1.42,1.35,1.35,0,0,1,1.33-1.4,1.09,1.09,0,0,1,.82.34v-.26h.93Zm-2.11-1.32a.61.61,0,0,0,1.21,0,.61.61,0,0,0-1.21,0Z"/><path class="cls-1" d="M50.39,15.48h0a.91.91,0,0,1,.85-.42c.71,0,1,.44,1,1.09v1.64H51.3V16.5c0-.25,0-.7-.42-.7s-.49.29-.49.62v1.37h-.94V15.14h.94Z"/><path class="cls-1" d="M53.75,15.58h0a.91.91,0,0,1,.86-.47h.18V16a.78.78,0,0,0-.4-.09c-.52,0-.65.35-.65.8v1.07h-.94V15.14h.94Z"/><path class="cls-1" d="M57.92,16.62H56a.53.53,0,0,0,.58.59A.47.47,0,0,0,57,17h.91a1.12,1.12,0,0,1-.5.69,1.76,1.76,0,0,1-.85.22A1.38,1.38,0,0,1,55,16.47a1.46,1.46,0,0,1,2.91.06Zm-.87-.54a.56.56,0,0,0-1.09,0Z"/><path class="cls-1" d="M60.05,15.82a1.27,1.27,0,0,0-.51-.12c-.1,0-.29,0-.29.18s.29.2.42.23c.44.09.77.29.77.78,0,.7-.63,1-1.25,1a2,2,0,0,1-1.06-.31l.34-.65a1.55,1.55,0,0,0,.74.27c.12,0,.29-.06.29-.21s-.29-.21-.58-.29a.66.66,0,0,1-.59-.7c0-.65.59-.93,1.16-.93a2,2,0,0,1,.87.17Z"/><path class="cls-1" d="M61.89,14.13a.52.52,0,0,1-.52.52.52.52,0,0,1-.53-.52.53.53,0,0,1,.53-.53A.52.52,0,0,1,61.89,14.13Zm0,3.66H60.9V15.14h.94Z"/><path class="cls-1" d="M64.15,15.82a1.23,1.23,0,0,0-.5-.12c-.11,0-.29,0-.29.18s.29.2.42.23c.44.09.77.29.77.78,0,.7-.64,1-1.25,1a2,2,0,0,1-1.07-.31l.34-.65a1.55,1.55,0,0,0,.74.27c.12,0,.3-.06.3-.21s-.3-.21-.59-.29a.67.67,0,0,1-.59-.7c0-.65.59-.93,1.17-.93a2,2,0,0,1,.87.17Z"/></g></svg>    