<svg id="Layer_1" data-name="Layer 1" xmlns="http://www.w3.org/2000/svg" viewBox="0 0 64.7 20.42"><title>Artboard 1 copy</title><path d="M25,13.53h.5v2.6h0a1.23,1.23,0,0,1,1-.49,1.42,1.42,0,0,1,1.4,1.53,1.44,1.44,0,0,1-1.39,1.53,1.21,1.21,0,0,1-1-.49h0v.41H25Zm.47,3.61a1,1,0,0,0,.95,1.1,1,1,0,0,0,1-1.1,1,1,0,0,0-1-1.05A1,1,0,0,0,25.5,17.14Z" style="fill:#fff"/><path d="M28.13,15.72h.57l1,2.07.94-2.07h.56l-2.14,4.52h-.56l.93-1.9Z" style="fill:#fff"/><path d="M36.92,14v2.61a2.11,2.11,0,0,1-.49,1.64,2.54,2.54,0,0,1-3.08,0,2.11,2.11,0,0,1-.49-1.64V14h1.21v2.44c0,.61,0,1.27.82,1.27s.82-.66.82-1.27V14Z" style="fill:#fff"/><path d="M38.8,17.81l-.32.81H37.2L39,14H40.3l1.75,4.65H40.76l-.3-.81Zm.84-2.41h0l-.5,1.48h1Z" style="fill:#fff"/><path d="M43.57,15v.78h1.36v1H43.57v.8H45v1H42.36V14H45v1Z" style="fill:#fff"/><path d="M27.11,11H24.86V2.34h2.25Z" style="fill:#fff"/><path d="M28.63,2.34h2.25L35,7.63h0V2.34h2.25V11H35L30.9,5.69h0V11H28.63Z" style="fill:#fff"/><path d="M41,4.25V5.69H43.5V7.6H41V11H38.79V2.34h5V4.25Z" style="fill:#fff"/><path d="M47.3,4.25V5.69h2.54V7.6H47.3V9.09H50V11H45.05V2.34H50V4.25Z" style="fill:#fff"/><path d="M57.6,5.25a2.46,2.46,0,0,0-2-1,2.28,2.28,0,0,0-2.3,2.4A2.24,2.24,0,0,0,55.66,9a2.57,2.57,0,0,0,1.94-.92v2.7a6.4,6.4,0,0,1-2,.4A4.82,4.82,0,0,1,52.37,10,4.21,4.21,0,0,1,51,6.68a4.52,4.52,0,0,1,1.27-3.17,4.7,4.7,0,0,1,3.29-1.4,5.22,5.22,0,0,1,2.06.44Z" style="fill:#fff"/><path d="M62.71,11H60.46V4.25H58.6V2.34h6V4.25H62.71Z" style="fill:#fff"/><path d="M6.93,9.75a3,3,0,0,1,0-6.09h4.8V9.75Z" style="fill:#fff"/><path d="M17.23,9.75a3,3,0,0,0,0-6.09H12.52V9.75Z" style="fill:#fff"/><path d="M7.81,1.69A.92.92,0,1,1,6.89.78.91.91,0,0,1,7.81,1.69Z" style="fill:#fff"/><path d="M6.61,3.1a.28.28,0,0,1,.28-.28h0a.28.28,0,0,1,.29.28h0a.29.29,0,0,1-.29.28h0A.29.29,0,0,1,6.61,3.1ZM5.7,2.89a.28.28,0,0,1,0-.4h0a.28.28,0,0,1,.4,0h0a.28.28,0,0,1,0,.4h0A.32.32,0,0,1,5.9,3h0A.3.3,0,0,1,5.7,2.89Zm2,0a.28.28,0,0,1,0-.4h0a.27.27,0,0,1,.4,0h0a.28.28,0,0,1,0,.4h0a.32.32,0,0,1-.2.08h0A.3.3,0,0,1,7.69,2.89ZM5.2,1.69a.29.29,0,0,1,.29-.28h0a.29.29,0,0,1,.28.28h0A.28.28,0,0,1,5.49,2h0A.28.28,0,0,1,5.2,1.69ZM8,1.69H8A.28.28,0,0,1,8.3,1.4h0a.28.28,0,0,1,.28.29h0A.27.27,0,0,1,8.3,2h0A.27.27,0,0,1,8,1.69Zm-2.82,0ZM5.7.9a.28.28,0,0,1,0-.4h0a.28.28,0,0,1,.4,0h0a.28.28,0,0,1,0,.4h0A.32.32,0,0,1,5.9,1h0A.28.28,0,0,1,5.7.9Zm2,0h0a.28.28,0,0,1,0-.4h0a.28.28,0,0,1,.4,0h0a.28.28,0,0,1,0,.4h0a.28.28,0,0,1-.2.09h0A.25.25,0,0,1,7.69.89ZM6.61.28A.28.28,0,0,1,6.89,0h0a.28.28,0,0,1,.28.28h0a.28.28,0,0,1-.28.29h0A.28.28,0,0,1,6.61.28Z" style="fill:#fff"/><path d="M11.75,1.69a.92.92,0,1,1-.92-.91A.91.91,0,0,1,11.75,1.69Z" style="fill:#fff"/><path d="M10.55,3.1a.28.28,0,0,1,.28-.28h0a.28.28,0,0,1,.29.28h0a.29.29,0,0,1-.29.28h0A.29.29,0,0,1,10.55,3.1Zm-.91-.21a.28.28,0,0,1,0-.4h0a.28.28,0,0,1,.4,0h0a.28.28,0,0,1,0,.4h0a.32.32,0,0,1-.2.08h0A.3.3,0,0,1,9.64,2.89Zm2,0a.28.28,0,0,1,0-.4h0a.27.27,0,0,1,.4,0h0a.28.28,0,0,1,0,.4h0a.32.32,0,0,1-.2.08h0A.28.28,0,0,1,11.63,2.89ZM9.14,1.69a.29.29,0,0,1,.28-.28h0a.29.29,0,0,1,.29.28h0A.28.28,0,0,1,9.42,2h0A.28.28,0,0,1,9.14,1.69Zm2.82,0h0a.28.28,0,0,1,.28-.29h0a.29.29,0,0,1,.28.29h0a.27.27,0,0,1-.28.28h0A.27.27,0,0,1,12,1.69Zm-2.82,0ZM9.64.9a.28.28,0,0,1,0-.4h0a.28.28,0,0,1,.4,0h0a.28.28,0,0,1,0,.4h0a.32.32,0,0,1-.2.08h0A.28.28,0,0,1,9.64.9Zm2,0h0a.28.28,0,0,1,0-.4h0a.28.28,0,0,1,.4,0h0a.28.28,0,0,1,0,.4h0a.28.28,0,0,1-.2.09h0A.25.25,0,0,1,11.63.89ZM10.55.28A.28.28,0,0,1,10.83,0h0a.28.28,0,0,1,.28.28h0a.28.28,0,0,1-.28.29h0A.28.28,0,0,1,10.55.28Z" style="fill:#fff"/><path d="M7.93,11.69A.92.92,0,1,1,7,10.78.92.92,0,0,1,7.93,11.69Z" style="fill:#fff"/><path d="M6.73,13.1A.28.28,0,0,1,7,12.82H7a.28.28,0,0,1,.29.28h0a.28.28,0,0,1-.28.28H7A.28.28,0,0,1,6.73,13.1Zm-.91-.21a.28.28,0,0,1,0-.4h0a.28.28,0,0,1,.4,0h0a.28.28,0,0,1,0,.4h0A.32.32,0,0,1,6,13H6A.32.32,0,0,1,5.82,12.89Zm2,0a.28.28,0,0,1,0-.4h0a.28.28,0,0,1,.4,0h0a.28.28,0,0,1,0,.4h0A.32.32,0,0,1,8,13H8A.3.3,0,0,1,7.81,12.89Zm-2.49-1.2a.29.29,0,0,1,.29-.28h0a.29.29,0,0,1,.28.28h0a.29.29,0,0,1-.28.29h0A.29.29,0,0,1,5.32,11.69Zm2.82,0h0a.27.27,0,0,1,.28-.28h0a.27.27,0,0,1,.28.28h0a.28.28,0,0,1-.28.29h0A.29.29,0,0,1,8.14,11.69Zm-2.82,0Zm.5-.79a.28.28,0,0,1,0-.4h0a.28.28,0,0,1,.4,0h0a.28.28,0,0,1,0,.4h0A.32.32,0,0,1,6,11H6A.3.3,0,0,1,5.82,10.9Zm2,0h0a.28.28,0,0,1,0-.4h0a.28.28,0,0,1,.4,0h0a.28.28,0,0,1,0,.4h0A.28.28,0,0,1,8,11H8A.3.3,0,0,1,7.81,10.9Zm-1.08-.61A.29.29,0,0,1,7,10H7a.28.28,0,0,1,.28.28h0a.28.28,0,0,1-.28.29H7A.29.29,0,0,1,6.73,10.29Z" style="fill:#fff"/><path d="M11.75,11.69a.92.92,0,1,1-.92-.91A.92.92,0,0,1,11.75,11.69Z" style="fill:#fff"/><path d="M10.55,13.1a.28.28,0,0,1,.28-.28h0a.28.28,0,0,1,.29.28h0a.28.28,0,0,1-.29.28h0A.28.28,0,0,1,10.55,13.1Zm-.91-.21a.28.28,0,0,1,0-.4h0a.28.28,0,0,1,.4,0h0a.28.28,0,0,1,0,.4h0a.32.32,0,0,1-.2.08h0A.3.3,0,0,1,9.64,12.89Zm2,0a.28.28,0,0,1,0-.4h0a.28.28,0,0,1,.4,0h0a.28.28,0,0,1,0,.4h0a.32.32,0,0,1-.2.08h0A.28.28,0,0,1,11.63,12.89Zm-2.49-1.2a.29.29,0,0,1,.28-.28h0a.29.29,0,0,1,.29.28h0a.29.29,0,0,1-.29.29h0A.29.29,0,0,1,9.14,11.69Zm2.82,0h0a.27.27,0,0,1,.28-.28h0a.28.28,0,0,1,.28.28h0a.28.28,0,0,1-.28.29h0A.28.28,0,0,1,12,11.69Zm-2.82,0Zm.5-.79a.28.28,0,0,1,0-.4h0a.28.28,0,0,1,.4,0h0a.28.28,0,0,1,0,.4h0a.32.32,0,0,1-.2.08h0A.28.28,0,0,1,9.64,10.9Zm2,0h0a.28.28,0,0,1,0-.4h0a.28.28,0,0,1,.4,0h0a.28.28,0,0,1,0,.4h0a.28.28,0,0,1-.2.09h0A.28.28,0,0,1,11.63,10.9Zm-1.08-.61a.28.28,0,0,1,.28-.29h0a.28.28,0,0,1,.28.28h0a.28.28,0,0,1-.28.29h0A.28.28,0,0,1,10.55,10.29Z" style="fill:#fff"/><path d="M2.6,6.73a.91.91,0,1,1-.91-.91A.91.91,0,0,1,2.6,6.73Z" style="fill:#fff"/><path d="M1.41,8.14a.27.27,0,0,1,.28-.28h0A.27.27,0,0,1,2,8.14H2a.27.27,0,0,1-.28.28h0A.28.28,0,0,1,1.41,8.14ZM.5,7.93a.28.28,0,0,1,0-.4h0a.28.28,0,0,1,.4,0h0a.28.28,0,0,1,0,.4h0A.32.32,0,0,1,.7,8h0A.28.28,0,0,1,.5,7.93Zm2,0a.28.28,0,0,1,0-.4h0a.28.28,0,0,1,.4,0h0a.28.28,0,0,1,0,.4h0a.32.32,0,0,1-.2.08h0A.28.28,0,0,1,2.49,7.93ZM0,6.73a.29.29,0,0,1,.28-.28h0a.29.29,0,0,1,.29.28h0A.29.29,0,0,1,.28,7h0A.29.29,0,0,1,0,6.73Zm2.81,0h0a.28.28,0,0,1,.29-.28h0a.28.28,0,0,1,.28.28h0A.28.28,0,0,1,3.1,7h0A.28.28,0,0,1,2.81,6.73ZM0,6.73Zm.49-.79a.28.28,0,0,1,0-.4h0a.28.28,0,0,1,.4,0h0a.28.28,0,0,1,0,.4h0A.28.28,0,0,1,.69,6h0A.32.32,0,0,1,.49,5.94Zm2,0h0a.3.3,0,0,1,0-.41h0a.28.28,0,0,1,.4,0h0a.28.28,0,0,1,0,.4h0a.25.25,0,0,1-.2.09h0A.32.32,0,0,1,2.48,5.94ZM1.41,5.32A.27.27,0,0,1,1.69,5h0A.29.29,0,0,1,2,5.32H2a.29.29,0,0,1-.28.29h0A.28.28,0,0,1,1.41,5.32Z" style="fill:#fff"/><path d="M4.24,3.06a.92.92,0,1,1-.92-.91A.92.92,0,0,1,4.24,3.06Z" style="fill:#fff"/><path d="M3,4.47a.28.28,0,0,1,.28-.28h0a.28.28,0,0,1,.29.28h0a.28.28,0,0,1-.29.28h0A.28.28,0,0,1,3,4.47Zm-.91-.21a.28.28,0,0,1,0-.4h0a.28.28,0,0,1,.4,0h0a.28.28,0,0,1,0,.4h0a.32.32,0,0,1-.2.08h0A.3.3,0,0,1,2.13,4.26Zm2,0a.28.28,0,0,1,0-.4h0a.28.28,0,0,1,.4,0h0a.28.28,0,0,1,0,.4h0a.32.32,0,0,1-.2.08h0A.3.3,0,0,1,4.12,4.26ZM1.63,3.06a.29.29,0,0,1,.29-.28h0a.29.29,0,0,1,.28.28h0a.29.29,0,0,1-.28.29h0A.29.29,0,0,1,1.63,3.06Zm2.82,0h0a.27.27,0,0,1,.28-.28h0A.27.27,0,0,1,5,3.06H5a.27.27,0,0,1-.28.28h0A.28.28,0,0,1,4.45,3.06Zm-2.82,0Zm.5-.79a.28.28,0,0,1,0-.4h0a.28.28,0,0,1,.4,0h0a.28.28,0,0,1,0,.4h0a.32.32,0,0,1-.2.08h0A.28.28,0,0,1,2.13,2.27Zm2,0h0a.28.28,0,0,1,0-.4h0a.28.28,0,0,1,.4,0h0a.28.28,0,0,1,0,.4h0a.28.28,0,0,1-.2.09h0A.25.25,0,0,1,4.12,2.26ZM3,1.65a.28.28,0,0,1,.28-.28h0a.28.28,0,0,1,.28.28h0a.28.28,0,0,1-.28.29h0A.29.29,0,0,1,3,1.65Z" style="fill:#fff"/><path d="M4.24,10.36a.92.92,0,1,1-.92-.91A.92.92,0,0,1,4.24,10.36Z" style="fill:#fff"/><path d="M3,11.77a.28.28,0,0,1,.28-.28h0a.28.28,0,0,1,.29.28h0a.28.28,0,0,1-.29.28h0A.28.28,0,0,1,3,11.77Zm-.91-.21a.28.28,0,0,1,0-.4h0a.28.28,0,0,1,.4,0h0a.28.28,0,0,1,0,.4h0a.32.32,0,0,1-.2.08h0A.3.3,0,0,1,2.13,11.56Zm2,0a.28.28,0,0,1,0-.4h0a.28.28,0,0,1,.4,0h0a.28.28,0,0,1,0,.4h0a.32.32,0,0,1-.2.08h0A.3.3,0,0,1,4.12,11.56Zm-2.49-1.2a.29.29,0,0,1,.29-.28h0a.29.29,0,0,1,.28.28h0a.29.29,0,0,1-.28.29h0A.29.29,0,0,1,1.63,10.36Zm2.82,0h0a.27.27,0,0,1,.28-.28h0a.27.27,0,0,1,.28.28H5a.27.27,0,0,1-.28.28h0A.28.28,0,0,1,4.45,10.36Zm-2.82,0Zm.5-.79a.28.28,0,0,1,0-.4h0a.28.28,0,0,1,.4,0h0a.28.28,0,0,1,0,.4h0a.32.32,0,0,1-.2.08h0A.28.28,0,0,1,2.13,9.57Zm2,0h0a.28.28,0,0,1,0-.4h0a.28.28,0,0,1,.4,0h0a.28.28,0,0,1,0,.4h0a.28.28,0,0,1-.2.09h0A.25.25,0,0,1,4.12,9.56ZM3,9a.28.28,0,0,1,.28-.28h0A.28.28,0,0,1,3.6,9h0a.28.28,0,0,1-.28.29h0A.29.29,0,0,1,3,9Z" style="fill:#fff"/></svg>