<svg id="Map_of_swiss_cantons_with_canton_of_Zurich_highlighted" data-name="Map of swiss cantons with canton of Zurich highlighted" xmlns="http://www.w3.org/2000/svg" viewBox="0 0 1051.47 751"><path id="BE" d="M320.66,423.23l2.8-3.6,4.8-3.7,3.5-1.9,5.3.5,3.5-2.1-3.4-5.3.4-6.9.4-5.3.5-2.7,3-1.9,3.7,1.6,1.6-.4,3,.2.5-4.9-.2-8-2.7-2.7-4.2-3.7-2.8-1.8-5-1.8c-.6-.6-2.1-.7-2.5-1.4a4.47,4.47,0,0,1,0-2.8c.3-1,1.5-1.8,1.9-2.8a4.28,4.28,0,0,0,.6-2.2c-.2-.9-1.5-1.7-1.9-2.5a12.81,12.81,0,0,1-1.7-4.2,4.38,4.38,0,0,1,.3-2.5c.5-.9,2.3-1.1,2.8-1.9.4-.6.2-1.7.3-2.5a15.11,15.11,0,0,1,.3-3c.3-.9,1.3-1.9,1.7-2.8s.5-2,.8-2.8a20.59,20.59,0,0,1,1.7-3.3,11.87,11.87,0,0,1,1.9-2.5l-.7-.5-2.3-1.4s-2.7-2.1-2.5-2.8.9-2.3.9-2.3l1.9-2.7.7,1.6,2.5,1.9.9,1.4c.6-1.5,2.9-2.3,3.9-3.6.2-.3.6-.7.6-1.1-.1-.6-1.1-.9-1.4-1.4a10.06,10.06,0,0,1-.3-2.5,7,7,0,0,0,0-2.5,5.81,5.81,0,0,0-2.2-2.2,6.55,6.55,0,0,0-2.8-.8,5.44,5.44,0,0,0-2.8.6c-.4.3-.4,1.2-.8,1.4-.8.2-1.8-.8-2.5-1.1-.5-.2-1.1-.8-1.7-.8a5.42,5.42,0,0,0-2.5.6c-.3.1-.5.5-.8.6a5.29,5.29,0,0,1-3-.6c-1.3-.6-2.5-2.4-3.9-2.8-.5-.1-1.2.4-1.7.3a4,4,0,0,1-1.4-.8,16.31,16.31,0,0,1-1.4-1.9l-4.2-.3,1.1-8.1-.4-5.8-1.6-5.8,1.8-2.3,4.1-2.7-.7-3.5-3.5-3.9-2.3,1.4-9,4.2-9.7,1.6-4.4.2-6.9,2-.7-.4-3.9-1.2-5.2-2.7-5.2-4.9s.9-1.9,1.3-2.7.9-1.8,1.3-2.5a13.43,13.43,0,0,1,1.3-2.7,11.38,11.38,0,0,1,1.9-1.9c.7-.6,1.8-1.2,2.5-1.7a20.42,20.42,0,0,1,2.5-1.5,10.8,10.8,0,0,1,2.3-.8,17.7,17.7,0,0,1,2.3-.2c.7-.1,2.3-.4,2.3-.4l2.9-1.4.9-4.8.3-3.7-.9-3.3L282,244l-7-3.7-1.7-1.1-5.9.2-8.4,1.1-5.1,2.5-4.4,2.2-3.4,1.6-3.6,1.6-.6-3.7,2.2-2.8,1.1-4.2-.5-5.9-1.8-3.8,5.8-.7,3.3-2.1,4.8-4.2,2.7-2.6,5.9.6,3.1-.3,1.6-2.5.3-2.5,5.9-.9,3.7-5,3.1-6.9.6-3.4,7.5,1.6,13.1-.9-1.2-6.5,3.7-2.2-.3-4.4,1.6-3.4,3.7-.6h4.1l3.1,3.4,5.9,1.2,7.2-.3,6.2-1.2,5.3-2.8,5.3-4.4,3.7-5,1.6.6.9,5,4.4-.3,9,.9,5.3.6L380,181l3.4-2.5,3.1-3.7H393l1.8.2-2.3,3.5-2,1.8-1.5,2.2-2.3,1.6-6.1,1.7-2.9,1.1-2.5,2.1-.7,2.9-.6,1.1-1.4.5-4.3.9-3.7.5-.1,3.1-3.5,3-4,2.4-6,2.7-5.4,2.2.9,6.9,1.6,1.9,3.3,1,1.3.6,1.2,4.8.9,1.7c.4-.4,1.2-.5,1.7-.8s.7-.8,1.1-1.1c.7-.5,1.8-.6,2.5-1.1a10.23,10.23,0,0,0,1.7-1.9c.3-.6.2-1.6.6-2.2a2.35,2.35,0,0,1,1.1-1.1c.7-.2,1.7.4,2.5.3a8.17,8.17,0,0,0,2.2-.8,20.71,20.71,0,0,0,1.7-1.4,12.51,12.51,0,0,1,2.5-1.4c.7-.3,1.8-.1,2.3-.6l.3,4.2.3,4.1,3,4.7-1.9,3.7-1.6.5-2.9-.2-4.1-.2-2,2.6-1.5,2.2v2.9l-.7,2.1-4.6.3-2.3.2-1.4-1.2-2.9-.5-1.1.8-.2,2.3,1,2.4,1.3,2.9,2.3,3.8.5.7.9-.6,3-2.2,2.4-1.3,2.4-.7-.1,2.3-.2,1.8,1.3,1.8,2.8-.2,2.9-1.1,1.7-1.3.4-2.1-1.1-1.6-1-1.9.5-1.1,3.7-1.8,3.1-1.8,3-2,2.1-4,1.1-4.4.5-3.3,3-.9,2.1-.8,2.6.5,2.6,1.6,2.2,2.1,5.4,1,5.4.3,3-.9,3.7-3.1,2.3-3.1.1-2.3-.4-2.9-2.3-2.3-2.5-1.2-1.9-1.9-1.6-2.4-2.6-5.1.2-1.2-.5-2-2.1-1.2-1.4-1.1-1.9.1-1.9-.4V196l-.9-2.6.4-2.3-.1-1.6-.2-1.9,2.4.2,7.6.8,2-.3,3-1.2,3-1,2-1.2,3.4.4,1.1,1.3,2.8,3.9,1.8,4.4,3.4.5,3.5-.4,3.6-1.7,1.3-.9,1.8,2.8c.6-.5,1.3-1.3,1.9-1.8s1.2-.8,1.7-1.2.7-1.1,1.2-1.4a2.45,2.45,0,0,1,1.2-.4c1.1-.1,2.6.4,3.7.4.8,0,1.9-.2,2.7-.2a7,7,0,0,0,2.5,0l-.5,1-.8,3.3.1,5.5.4,3.5V205l-.2,2.4,1.1,4.2,2.6,5.5,2,2.6,1.7,2.4.3,1.8-.7,5.1v3.3l2.2,3.3,1,2.5-1,2.5-1.9,2.1-.9,2.5.8,3.7.2,2.1.1,2.9.1,1.8-.4,4.5-1.1,2.8,2.2,2.1,2.3,2.8.9,2,.3,3,.8,3.2,3.2-.4,3.5.2,2.4.8.7,3,1.3,3.7.2,2.3-1.5,3.2-2.1,3.4-.8,3.4-1.1,2.1-2.3,2.4-3.7-.4-2,1.9-2.6,1.4-2.9,2.3,1.8,1.3,1,2.1-.1,5.1-1.2,2.5-3.5-.1.4,7.2,1.3,3.6,1,2.1,5.8,4.2,5.5,3.2,6.3,5.3,4,4.7,3.6,5.7,2.9-1.4,6.6-1.9,4.5-.7,2,.3,7.8,1.1,2.8.8,7,5.6,6.2,2.2,5.5-2.3,3-.9,5.6-.2,3.4-.6,4.7,1.9,4.8,3.1,6.4-4.7,3.4-3.1,3.6-1.5,4-1.7.7-1.1,5.7,3.6,1.4,1.4,1.5,1.9,4.1-3.2,5.7,2.7-2.1,4-.2,1.9.5,5.3,1.8,3.3,1.2,3.8.2,3v3l-.9,1.6-1.9,1.2-2.6-.3-2.6-.9-3.1-.5-2.1-.2.2,1.9.6,3.5.9,2.4,2,3.2-3.9,4.4-2.5,3.4-2.3,4.1-1.2,5.6v5.3l-.8,3.1-3.7,3-3.1,2.2-3.6,1.9-1.4,2.3-7.5,4.7-4.8,1.7-10.3,2.6-5.3.9-3.6-3.4-6.4-1.2-5.9-3.9-4.5-1.7-3.9.3-5-2.3-3.7-2-3.1.2-2.8,1.9-3.9,2-4.4,1.7-.8,10-7,3.4-2.2,3-5.3,4.4-5.8.9-9.5.5L439.66,460l-14.8,12.2-4.5-6.9-7.8-5.6-5.6-1.1-2.6,2.6-2.2,4.1-3,3.7-5-.2h-4.5l-2.3,1.2-1.9,1.9,4.5,3-1.1,1.7-2.6,2.8-4.2,2-4.4,1.4-8.1-2.6-4.8-1.1s-7.9,2-8.6,2.3-6.7,5-6.7,5l-4.5,3.1-4.5,2.8-2.8-1.1-1.4-2.2v-6.4l-4.1-.8-3.9,2.5-2.6,2-.8,4.4-1.2,3.9-3,2-5.9-.1,1.1-2.9-1.4-6.4.2-2.8-3.4-3V474l1.8-3.2-.2-3.4-2.1-3-.2-3.5,1.2-1.6s3,0,3.7-.5a29.49,29.49,0,0,0,2.5-2.5,32.3,32.3,0,0,1,0-4.4,30.39,30.39,0,0,0-.5-5.3l3.2-4.1,2.3-3.4-.4-5.7-.7-6.2Zm97.6-195.8,1.3-1.1,1.6-.9,1.3.2,1.5,1.5-.1,1.1-.9,1.9-1.4,1.4c-.2,0-2.2.9-2.2.9l-1.4-.1-.7-1v-2.1Z" style="fill:#e5bf77;stroke:#000"/><path id="GL" d="M709.46,219.33c.6,2,3,3.7,4.5,5.1,3,2.7,7.7,5.5,11,7.9.7.5,1.5,1.2,2.3,1.7a12,12,0,0,0,3.4,1.7c1.2.2,2.6-.8,3.8-1.1.9-.2,3.2-.9,3.2-.9l12.7,3.9v3l.2,3.4.4,7.7.2,2.7-3.1,4.1-2.5.9-3.5,1.1-1,.6-.3,1.9.7,2,1.3,1.7,2.6.8,5.3.3,2.2-1,2.1-1.1,2.3-.7,2,.7,2.7,1.9,1,5,1.3,7.2.4,10.3-2.2,2.6-.8.9,2.1,1.8,1.8,2.1,1.6,3.6-.7,3.3-3.1.7-2.7,2.8L758,311l-1.6,2.1-1.2,3.4-2.4-.7-5,.2-2.6.8-1.9,1.8-2.6,2.9-2.7,2.3-1.7,1.3-1.8-1-1.3-2.3-2.1-3.3-2.9-1.4-2.9.3-2.8,1.7s-.8,2.7-.8,3.1a37.17,37.17,0,0,1-2,4l-1.3,4.9-.7,3.1-2.6,2.8-3.9,1.4-7.1,1.4-3.1.9-4.1,1.8h-3.8l-1.2-2.8-3.8-.8-3.4-.4-.8-3.7-1.5-4.1-.4-1.5v-1.3l3.7-1.1,4.3-1.4,5.1-2.1,3.9-2.7,2.3-2.8.1-2.9-.7-3.6-2.7-4.4-2.1-2.7,3.3-1.6.8-1.3,2.5-1.1-.7-.7-.6-1.6-.3-1.3.2-1.6,1.1-1.9,1.9-1.6-1.7-1.1-3.1-2.8-2.4-3.2-.9-1.5,1.2-1.6-1.3-1.2-2.2-2.6-.4-1.3-.9.3-.6-1.2-1.4-2.6-1.4-1.4-1.2-1.7,1.4-1.1-.3-4.9,1.9-.2,1.9.4,2.6.2,4.3-3.9,2.8-5.1,2.2-6-1.5-.4-1.9-.4-1.4-1.2.4-1.5,2.1-1.9,1.6-.8.6-1.6-.8-2.9-2.1-2.2,7.1-15.4Z" style="fill:#dbaeea;stroke:#000"/><path id="LU" d="M499.56,348.13l1.5-2.9,3.1-2.7-.4-1.6-4.6-7.1v-2.7l1.3-2.9,2.4-1.8,1.5-2.9.7-2.4.5-7.1,1.6-1.5,2.9-3.3,1.5-2,2.9,1.8-.4,2.6,1.8.5,2.2-4.4,1.5-3.5,2.6-2.9,3.1-2.6-2.4-5.1,5.1-4.2,4.2-.4,1.8,1.5,5.7-2.2-2-7.8,6.1-2.8,3.2.5,3.1-1.7,5.8,2.2,4,.1,2.1-.3,1,1,2.2-1.4,3,1.2,3.1-3,2.3-1.3,2.5-.1.4,4.3H580l2.9-.6a19.22,19.22,0,0,0,2.4,0c.6,0,1.4-.2,2.1-.2h2.9c.8,0,2-.6,2.6-.1l1.9,1.3,1.8-.9,3.3.4,1.3-.4,1.1-1.1-.2-6.7-1.6-.8-1.6-1-1.6-1.8-3-2.7-1.6-2-1.7-.5-1.4.3-2.6.1-3.1-.6-4-.9-2.3-1.6-.5-.6,1.5-1.6,1.4-1.6,1-2.5.1-.7,3.6-3.3,3.9-4.9,1.7-1.3,1.9-1.2-.3-3-.5-1.6-.9.3-1.5,1.4-2-.6-1.8-2.7-2.8-4.6-4.8,1.5-5.4,1.3-2.3.3-1.5-2.5-2.1-4.2-2-4.2-2.2-5.8-.8-4.5-1.8-5.3-2.1-6.8-1-4.6-.2-3.3-.7-2.1-.7-.4-4.3-1.2-1-1.8-3.4-.8-2.2.1-4.5,5.8-2.5,1.4-1,2.6-.8,4-.3,2.4-1.1,2.2-1.9,1.5-2,.3-2.3-.7-1.8-1.5-.2-1.3v-1.5l2.5-1.2-.3-1.4-1.8.4-5.1.6-5.3.4-2.6-.6-.1-2.9-.9-2.2-.3-.6-1.7-.3-2.5-.6-2.5.8-1.2.9-.6,2.2-.8,2.3-2.6.8-2.5.2-2.8.1h-1.9l.2-1.2.2-3.7V193l-.7-2-1.5-2.9-1.8.7-3,.9h-3.3l-1.3-1.2-1.3-.2-.1,2.1v8.7l-.6,1.1-.9,1-1.3.8-4-.2-1.9-.9-3.3-.4-4.3.6-2,.6-2,1.3-4.2.4v1.1l-.2,2.4,1.1,4.2,2.6,5.5,2,2.6,1.7,2.4.3,1.8-.7,5.1v3.3l2.2,3.3,1,2.5-1,2.5-1.9,2.1-.9,2.5.8,3.7.2,2.1.1,2.9-.3,2.3-.4,4.5-1.1,2.8,2.2,2.1,2.3,2.8.9,2,.3,3,.8,3.2,3.2-.4,3.5.2,2.4.8.7,3,1.3,3.7.2,2.3-1.5,3.2-2.1,3.4-.8,3.4-1.1,2.1-2.3,2.4-3.7-.4-2,1.9-2.6,1.4-2.9,2.3,1.8,1.3,1,2.1-.1,5.1-1.2,2.5-3.5-.1.4,7.2,1.3,3.6,1,2.1,5.8,4.2,5.5,3.2,6.3,5.3,4,4.7,3.6,5.7,2.9-1.4,6.6-1.9Z" style="fill:#e5bf77;stroke:#000"/><path id="UR" d="M684.76,338.63l-4.1,4.2-2.8.4-2.8,1.3-2.1,1.7,1.3,4.9-1.5,4.3-3.2,3.2-.9,4.3-2.8,2.6-3.6-.2-1.9-3.2-3.4.4-.6,2.6-1.5,5.1-4.1,2.3-3.4,3.6-5.1.2-2.8,1.7-1.7,3.6.4,2.3,2.1,4.5-1.9,1.1-2.4,3.4v6.2l2.8,3.8,3.4,5.1-1.3,6.2-1.5,2.6-3,2.5-4.3.3-1.1-1.7-2.6-1.1L621,416l-2.1-1.5-4.3-1-5.3,1-3.3,3.2-1.4,3.4.7,4.2-.3,2.5-1.2,1.5-5,1.6-3.7.2-2.8-.5-2.3-1.2-2.3-1.3-1.3-1.9-1.2-2.7-.9-2.2-2.5-4.1-.9-2,1.7-5,2.2-5.7.5-10.7-.3-2.3-2.3-1.5-1.8-.5-1.9-3.2-.9-2.4-.6-3.5-.2-1.9,2.1.2,3.1.5,2.6.9,2.6.3,1.9-1.2.9-1.6v-3l-.2-3-1.2-3.8-1.8-3.3-.5-5.3.2-1.9,2.1-4,2.8-.3,1.5.2,1.8.5,1.1.7,3-2.8-.2-.9-1.5-2.4-1.5-1.3.4-1.9-4.2-1,.1-1.1,1.8.1,1.2-.5.5-1.6-.9-1.5-1.2-1.1,1.6-4.5,2.6-2.7,3.8-2-.4-2.6-2.1-.6-1.3-.5h-4.3v-6.7l1.6-4.1-.7-1.2-.7.2-.2-1.5-1.8.1,2.4-3.4,2.4-1.2,3.8-1.4,3.3-2,2.2-1.8,1.3-.6,3.1-2.1,2.4-3.1,3.6-2.6,1.2-1.5-.2-2.8.2-2.4,1.6-1.9,1.4-1.4-.2-1.1-.6-2,2.4-.8,2.1,3.2.4,5.4.5,5.8,4.9-.4,3.2,1.2,1.6.2,2.8-.4,5.8-1.5.9,7.1-.4,2.4,1.5,2.7,2.5-1.2,2-.8,3.3-3.2,2.6-1.4,3.6-1.1,1.1.4,2,1.9,1.4-.2,1.9-1.5,1.1-.9,2.5-.4,3.2,1,1.2,2-.4,3.1-.9,3.3,1,2.2,2.8-1.8.7,8.3,1.6-1.2,1.1-1.9,1.5-1.1,5.8-1.8,9.2-5.1,2.1,2.7,2.7,4.4.7,3.6-.1,2.9-2.3,2.8-3.9,2.7-5.1,2.1-4.3,1.4-3.7,1.1v1.3l.4,1.5,1.5,4.1.5,3.5" style="fill:#dbaeea;stroke:#000"/><path id="SZ" d="M696.06,304.43l-9.2,5.1-5.8,1.8-1.5,1.1-1.1,1.9-1.6,1.2-.7-8.3-2.8,1.8-1-2.2.9-3.3.4-3.1-1.2-2-3.2-1-2.5.4-1.1.9-1.9,1.5-1.4.2-2-1.9-1.1-.4-3.6,1.1-2.6,1.4-3.3,3.2-2,.8-2.5,1.2-1.5-2.7.4-2.4-.9-7.1-5.8,1.5-2.8.4-1.6-.2-3.2-1.2-4.9.4-.5-5.8-.4-5.4-2.1-3.2-2.4.8-7.2,2.7-7.7,1.2-9.2-2.8-.5-2.6,1.8-.9,3.3.4,1.3-.4,1.1-1.1-.2-6.7-1.6-.8-1.6-1-1.6-1.8-3-2.7-1.6-2-1.7-.5-1.4.3-2.6.1-3.1-.6-4-.9-2.3-1.6-.5-.6,1.5-1.6,1.4-1.6,1-2.5.1-.7,3.6-3.3,3.9-4.9,1.7-1.3,1.9-1.3,2.6-1.3,2.8-1.6,1.7-.4,1.4,4.9.9,2.2,1.7.6,4,1.6,2.5-1,3-.3,3.6-.1.8,3.4,2.7.1,2.6-1.3,2.1-1.6,2.3-.8,1.4-.9,3.5.9,2.8.5,1.2-.8.1-1.3.3-2.7,1.3-1.7,1.9-1.4,1.3-2.2.8-4.1,1.9-4.8-.3-1.3-.8-2.7-.5-1.6-1.2-2.4.2-1.9,2.1-1.5,2.1-2.6,1.4-2.7.8-1.6,2.2-.2,9.5-3.1,6.7-.4,8.2,3.4h12.4l7.8-1.4,5.5-2,1.8,1.8,1.6,1,.2,8,.7,2.3,2.5-.4,2.9.7-.9,1.8-7.1,15.4,2.1,2.2.8,2.9-.6,1.6-1.6.8-2.1,1.9-.4,1.5L701,248l1.9.4,1.5.4-2.2,6-2.8,5.1-4.3,3.9-2.6-.2-1.9-.4-1.9.2.3,4.9-1.4,1.1,1.2,1.7,1.4,1.4,1.4,2.6.6,1.2.9-.3.4,1.3,2.2,2.6,1.3,1.2-1.2,1.6.9,1.5,2.4,3.2,3.1,2.8,1.7,1.1-1.9,1.6-1.1,1.9-.2,1.6.3,1.3.6,1.6.7.7-2.5,1.1-.8,1.3Z" style="fill:#dbaeea;stroke:#000"/><path id="OW" d="M570.46,346.93l-9.9-8.3,1.3-1.8,1.5-3.5-.4-3.8v-4.6l1.1-8,.7-5.7,1.1-6.8-2.2-.4-2.7,1.1-3.1-1.5-2-.9L555,300l-.4-1.6,1.3-2.2,2.6-4.9-.2-2.4-4.2-1.5-7.1-1.5-7.1,2.2-5.7,2.2-1.8-1.5-4.2.4-5.1,4.2,2.4,5.1-3.1,2.6-2.6,2.9-1.5,3.5-2.2,4.4-1.8-.5.4-2.6-2.9-1.8-1.5,2-2.9,3.3-1.6,1.5-.5,7.1-.7,2.4-1.5,2.9-2.4,1.8-1.3,2.9v2.7l4.6,7.1.4,1.6-3.1,2.7-1.5,2.9,2,.3,7.8,1.1,2.8.8,7,5.6,6.2,2.2,5.5-2.3,3-.9,5.6-.2,3.4-.6,4.7,1.9,4.8,3.1,6.4-4.7,3.4-3.1,3.6-1.5,4-1.7Zm23-21.4h4.3l1.3.5,2.1.6.4,2.6-3.8,2-2.6,2.7-1.6,4.5,1.2,1.1.9,1.5-.5,1.6-1.2.5-1.8-.1-.1,1.1,4.2,1-.4,1.9,1.5,1.3,1.5,2.4.2.9-3,2.8-1.1-.7-1.8-.5-1.5-.2-2.8.3-5.7-2.7-4.1,3.2-1.5-1.9,3.1-2.6.6-1.4v-1.2l-1.2-1.3-1.6-.8-2.5-1.8-1.4-2.6-1.7-2.2-.9-2.6-.8-4.4-.3-3.9-.3-3.4.9-1.7h1.7l1.4,1.2.1.9-1.4.6.1,1,1.8.6,1.6-.3,2.2-1.3,1.8-2.2,3.2,3.2Z" style="fill:#e5bf77;stroke:#000"/><path id="NW" d="M593.46,325.53v-6.7l1.6-4.1-.7-1.2-.7.2-.2-1.5-1.8.1,2.4-3.4,2.4-1.2,3.8-1.4,3.3-2,2.2-1.8,1.3-.6,3.1-2.1,2.4-3.1,3.6-2.6,1.2-1.5-.2-2.8.2-2.4,1.6-1.9,1.4-1.4-.2-1.1-.6-2-7.2,2.7-7.7,1.2-9.2-2.8-.5-2.6-1.8-1.3c-.6-.5-1.8.1-2.6.1h-2.9c-.6,0-1.4.2-2.1.2a19.22,19.22,0,0,1-2.4,0l-2.9.6h-3.5l-.4-4.3-2.5.1-2.3,1.3-3.1,3-3-1.2-2.2,1.4-1-1-2.1.3-4-.1-5.8-2.2-3.1,1.7-3.2-.5-6.1,2.8,2,7.8,7.1-2.2,7.1,1.5,4.2,1.5.2,2.4-2.6,4.9-1.3,2.2.4,1.6.9,2.7,2,.9,3.1,1.5,2.7-1.1,2.2.4-1.1,6.8-.7,5.7-1.1,8v4.6l.4,3.8-1.5,3.5-1.3,1.8,9.8,8.3,5.7,3.6,1.4,1.4,3.1-2.6.6-1.4v-1.3l-1.2-1.3-1.6-.8-2.5-1.8-1.4-2.6-1.7-2.2-.9-2.6-.8-4.4-.3-3.9-.3-3.4.9-1.7h1.7l1.4,1.2.1.9-1.4.6.1,1,1.8.6,1.6-.3,2.2-1.3,1.8-2.2,3.2,3.2Z" style="fill:#e5bf77;stroke:#000"/><path id="ZG" d="M642.36,223.93l-3,1.8-3.1-.3-.8-.9-.8-2.8-.9-.1-3.6-.4-1.3-.5-.8-1.4-.1-2.2-.6-2.1-.5-2.3-.1-2.1-1.3-.5-1.4.3-1-2.5-2.5.4-1.3-1.7-1-1-4.1.3-3.2-.3-2.1.8-2.2,1.9-3.1,1.2-4.7.3-3.1.3-3.9-1.2-1.4-1.2-4.3.1c-.6-1-1.1-2.6-1.7-3.7-.5-.9-1.3-1.9-1.7-2.8a23.23,23.23,0,0,1-1.1-2.8c-.1-.3-.3-.8-.3-.8a12.51,12.51,0,0,1-1.4,2.5,7.46,7.46,0,0,0-1.1,2.8c0,1.2,1.2,2.5,1.7,3.7a9,9,0,0,1,.8,2.3c.2,1.1.2,2.6.3,3.7a25.39,25.39,0,0,0,0,3.9,22.89,22.89,0,0,0,.8,2.8,26.82,26.82,0,0,0,.6,2.8c.2.7,1.1,1.5,1.1,2.3s-.9,1.7-1.1,2.5c-.3,1.2-.2,3-.6,4.2l2.7,4.5,1.8,2.7,2,.6,1.5-1.4.9-.3.5,1.6.3,3,2.6-1.4,2.8-1.6,1.7-.4,1.4,4.9.9,2.2,1.7.6,4,1.6,2.5-1,3-.3,3.6-.1.8,3.4,2.7.1,2.6-1.3,2.1-1.6,2.3-.8,1.4-.9,3.5.9,2.8.5,1.2-.8.1-1.3.3-2.7,1.3-1.7,1.9-1.4,1.3-2.2.8-4.1,1.9-4.8-.3-1.3Z" style="fill:#dbaeea;stroke:#000"/><path id="SO" d="M394.76,174.43l-2.3,3.5-2,1.8-1.5,2.2-2.3,1.6-6.1,1.7-2.9,1.1-2.5,2.1-.7,2.9-.6,1.1-1.4.5-4.3.9-3.7.5-.1,3.1-3.5,3-4,2.4-6,2.7-5.4,2.2.9,6.9,1.6,1.9,3.3,1,1.3.6,1.2,4.8.9,1.7c.4-.4,1.2-.5,1.7-.8s.7-.8,1.1-1.1c.7-.5,1.8-.6,2.5-1.1a10.23,10.23,0,0,0,1.7-1.9c.3-.6.2-1.6.6-2.2a2.35,2.35,0,0,1,1.1-1.1c.7-.2,1.7.4,2.5.3a8.17,8.17,0,0,0,2.2-.8,20.71,20.71,0,0,0,1.7-1.4,12.51,12.51,0,0,1,2.5-1.4c.7-.3,1.8-.1,2.3-.6l.3,4.2.3,4.1,3,4.7-1.9,3.7-1.6.5-2.9-.2-4.1-.2-2,2.6-1.5,2.2V237l-.7,2.1-4.6.3-2.3.2-1.4-1.2-2.9-.5-1.1.8L351,241l1,2.4,1.3,2.9,2.3,3.8.5.7.9-.6,3-2.2,2.4-1.3,2.4-.7-.1,2.3-.2,1.8,1.3,1.8,2.8-.2,2.9-1.1,1.7-1.3.4-2.1-1.1-1.6-1-1.9.5-1.1,3.7-1.8,3.1-1.8,3-2,2.1-4,1.1-4.4.5-3.3,3-.9,2.1-.8,2.6.5,2.6,1.6,2.2,2.1,5.4,1,5.4.3,3-.9,3.7-3.1,2.3-3.1.1-2.3-.4-2.9-2.3-2.3-2.5-1.2-1.9-1.9-1.6-2.4-2.6-5.1.2-1.2-.5-2-2.1-1.2-1.4-1.1-1.9.1-1.9-.4v-2.7l-.9-2.6.4-2.3-.1-1.6-.2-1.9,2.4.2,7.6.8,2-.3,3-1.2,3-1,2-1.2,3.4.4,1.1,1.3,2.8,3.9,1.8,4.4,3.4.5,3.5-.4,3.6-1.7,1.3-.9,1.8,2.8c.6-.5,1.3-1.3,1.9-1.8s1.2-.8,1.7-1.2.7-1.1,1.2-1.4a2.45,2.45,0,0,1,1.2-.4c1.1-.1,2.6.4,3.7.4.8,0,1.9-.2,2.7-.2a7,7,0,0,0,2.5,0,6.61,6.61,0,0,0,2.2-2.2,31.17,31.17,0,0,0,2.3-3.9,16.19,16.19,0,0,1,1.2-2.3c.5-.7,1.6-1.4,2.2-2.2a13.15,13.15,0,0,1,.8-1.8c.6-.7,1.8-1.2,2.3-2a7.1,7.1,0,0,0,1.4-2.5c.1-1.1-.9-2.4-.8-3.5a12.36,12.36,0,0,1,.9-2l1.9,1.3,1.9,1.5,2.4.9,3,.7,5.8.5,3.8.3,1.7-.3,1.3-.5,1.2-1.8,1-3.5,1.9-5.5,1.9-3.8,1.9-4.5-.4-2.1-2.8-2.6-2.4-.4-1.8-.8-2-1.2-3.2-1.8-1.9-1.8,2.4-1.4-.1-2.6-.7-3-1.6-.4-.7-2.4-.1-1.8-2.1-.2-1.1-.2-.7,2.3-1,2.3-.3,3,1.5,1.9s.9,2.1,1.3,2.1l-.3,2.6-4.1,3-3.4,1.6-4.5-.5-2.8.6-2.6,3.2-3.7,3.7-3,2-3.5,1.5-4.8,1.8-3.1,2.3-.4,2.4v2.3l-2.3.2-2.6-.4-2.5-1.1-1.8-1.5-2.2-2-1.8-2.4-1.1-2.3-2.3-1.4-6.1.9-5.5.3h-3.7l-.9-4.1-.6-3.7-.2-5.1,5.1-.3,1.9-.9,2.3-1.2,1-2.5.2-4.1.5-3.1,2.5-2.5,1.8-2.3,2.2-4.3.5-1.2-2.9-1.3-3.3.3-4.3-.7-2-3-1.2-.5-2.2,2.5-2.6.2-4.8.2-.2,3.6,2,2.6.6,2.6-1.2,3.7-1.7,2.9-.2,3-7.2.5-1.1,3.9-7.6,1.1-1.2,3.4-.5,1.8-3.6,1.1-2.8,2.3-3.3-2.3-.5-2.2-3.6-.1-3.2.2-1.6,1-.9,2-.3,1.6,2.9,4.9,6.2,1.4,5.5-1.4,4.4.5v4.4l.4,3,1.5,3.6.7,1.6,6.8-.1-.4,2.8m-33.9-42.3,1.1.7,1.7-.7,1.1,1.2,2.8,2.1,2.6,2.6,1.2,2.3-.2,2.4-.8,1.9-.9.9-2.3.2-2.8-1.4-3.8-.9-6.8-1-.6-5.1h0l3.7-1.9Zm57.1,95.3,1.3-1.1,1.6-.9,1.3.2,1.5,1.5-.1,1.1-.9,1.9-1.4,1.4c-.2,0-2.2.9-2.2.9l-1.4-.1-.7-1v-2.1Zm-38.5-110.3,2,.1,2.1,1.3.2,1.6.2,1.4-1.5,2.3-.8,1.6-1.2,1.3-1.2-.2-2.2.2-1.9-.2-3,1.2-2.1.3-2-.7-1.4-.5-.8-1.4.5-.6,1.7-1.7-2.5-2.3-2.3-1.5-1.9-.6L364,116l1.9-.2,1.9,1.1,2.5,2.5a3,3,0,0,0,2.1,1.9c1.5.2,5.1-1.3,5.1-1.3Z" style="fill:#e5bf77;stroke:#000"/><path id="SG" d="M819.06,92.23l-11.6,16.1-1.6,1.3-2.9,2.7-3.1,1.3-1,3.4-.7,3.2-1.6-.6-3-.9-.5-2.5-2.6-3.6-2.3-.4-2.8-2.5.3-.3.9-1.9-1.7-.4,1.2-2.4-2.7-1.5-1.1,1.1-2.6.3-2.9.5-2.2.4-1.2,2.1-2.1,1.1-1.1.5-.2,1.2,2.8.6,1.6-.8,2.6-.2,2.5,2.9.9,4.4.4,2.1-2.8,1.2-4.2.5-4.2,1.6-2.8,1.2-3.3-.3-3.8-2.6-2-1.2-4.4.4-1.4-1.5-.7-1.8-1.5-.1-2.2-.6-3.8-3.1-1.1,3.2-3.6,3.4-2.7.9-5.4.5-2.9-1.7-1.9-2-4.5-2.1-2.9-.5-2.8,1.3-3.9.9-1.7,1.8-.1,2.4,1.9,3.3,1.8,1.3,3.9,3,1.5,1-.5,4.1-1.3,2.2h-4l-5.2.6-1.1,1.5-.9,5-2,1.7-1.1,3.2-.6,2.1-1.2.5-1.4,1.8-1.9,1.1,1,2.4,2.6,5.5,3.1,4.9.8,5.8-.9,3.9-4.2.7-2.9,2.7-2,2.3.6,2,1.4-.4.4,1.1-1.7,3.7.1,3-5.7,1.5-4.7,1.6-2.2,1.6-1.6.9H680l-4-.6-2.2-1.2-2.6-.6-2.4.8-1.9,2-1.2,2.1.5,1.7.1,4.5,8.3,3.4H687l7.8-1.4,5.5-2,1.8,1.8,1.6,1,.2,8,.7,2.3,2.5-.4,2.9.7c.5,2,3,3.7,4.5,5.1,3,2.7,7.7,5.5,11,7.9.7.5,1.5,1.2,2.3,1.7a12,12,0,0,0,3.4,1.7c1.2.2,2.6-.8,3.8-1.1.9-.2,3.2-.9,3.2-.9l12.7,3.9v3l.2,3.4.4,7.7.2,2.7-3.1,4.1-2.5.9-3.5,1.1-1,.6-.3,1.9.7,2,1.3,1.7,2.6.8,5.3.3,2.2-1,2.1-1.1,2.3-.7,2,.7,2.7,1.9,1,5,1.3,7.2.4,10.3-2.2,2.6-.8.9,2.1,1.8,1.8,2.1,1.6,3.6L767,304l3.9,4.1,1.1-.6,1.8-1.3,2-.3,2.5.1,2.8,1,3.8.9,5.7.7,6.5.4,4.3,1,3.1,1.2,4.9,2.6,3.4,1.7.7-.6.9-1.5.2-1.9-.7-2.4,3.5-.1-.1-2.2-1-2,.3-3,1.7-4.3,3.8-4.2,4-6.9,1.2-2.7,2.1-1,3.4-1.8c-.6-.9-1.8-1.9-2.4-2.8a15.23,15.23,0,0,1-1.6-2.8c-.9-1.8-1.5-4.5-2.4-6.4s-2.8-4.1-3.6-6c-.3-.8-.3-2.1-.8-2.8s-1.7-.9-2-1.6a3.5,3.5,0,0,1,.4-2.2c.5-.7,1.7-.8,2.3-1.4.8-.8,1.3-2.2,2-3.1a18.85,18.85,0,0,0,2.5-3.1,14.23,14.23,0,0,0,.8-2.8c.2-.8.5-1.8.6-2.5a10.73,10.73,0,0,0,0-3.1,25.52,25.52,0,0,0-1.4-3.9c-.3-.9-.8-2-1.1-2.8-.4-1.2-.9-2.8-1.4-3.9s-1.3-2.5-1.7-3.7a13.6,13.6,0,0,1-.3-2c-.2-1-.6-2.4-.8-3.4-.2-.8-.4-2-.6-2.8-.2-1-.4-2.4-.6-3.4a22.89,22.89,0,0,1-.3-3.7,7.82,7.82,0,0,1,.6-2,19.91,19.91,0,0,1,2.3-2.8c.6-.8,1.4-2,2-2.8.8-1.2,2-2.7,2.8-3.9a19.45,19.45,0,0,0,2-3.7,21.05,21.05,0,0,0,.3-2.5,10.78,10.78,0,0,1,.3-3.1,7,7,0,0,1,2-2.5,11.92,11.92,0,0,1,2-.8,9.48,9.48,0,0,0,2-2,15.45,15.45,0,0,0,1.1-3.7,13.94,13.94,0,0,1,.6-2,5.74,5.74,0,0,1,1.4-1.7c.4-.3,1.2-.3,1.7-.6a10.1,10.1,0,0,0,3.1-3.4c.6-1,.9-2.6,1.4-3.7s1.4-2.3,2-3.4,1.1-2.8,1.7-3.9c.5-.9,1.4-1.9,2-2.8a20.34,20.34,0,0,0,1.1-2c.4-.7.4-1.9,1.1-2.3.4-.2,1,.2,1.4.3a19.3,19.3,0,0,0,3.4,0,6.78,6.78,0,0,0,2-.3c.7-.3,1.9-.7,2.3-1.4.3-.5-.1-1.4-.3-2a3.79,3.79,0,0,0-.6-1.1,12.07,12.07,0,0,0-2-2.5c-.2-.2-.7-.3-.8-.6a3.41,3.41,0,0,1,0-2c.1-.8.5-1.8.6-2.5a17,17,0,0,0-.3-4.5c-.3-1.6-1.8-3.5-1.7-5.1.1-1,1.5-2.1,1.4-3.1,0-.5-.6-1-.8-1.4a7.46,7.46,0,0,0-1.1-1.4c-.7-.4-2-.2-2.8-.6a12.78,12.78,0,0,1-2.3-1.7c-.4-.3-.9-1-1.4-1.1a1.9,1.9,0,0,0-.8.3,9.08,9.08,0,0,1-1.4.6h-.3c-.4,0-1,.2-1.4,0-.6-.3-1-1.4-1.4-2a6.68,6.68,0,0,0-.6-.8c-.5-.9-1.1-2.2-1.7-3.1a18.88,18.88,0,0,0-2-2,16.19,16.19,0,0,1-1.7-2,5.05,5.05,0,0,1-.5-1.9l-7.9-15ZM784,195.63l6.2,3.8,2.9,1.1,3.4.1,1.5-.9,4.4-2.6,2.8-2.1,6.3-6.1,3.6-4.9,2.1-5.7,1.3-7.3.1-4.9-.9-4.3-.3-2.1-1.2-2.5V155l1.6-4.1,1.2-3.2,1.1-.7,2.7.1,2.6.3,2.7.4,1.6-1,1.8-1.9,4-.9,2.6-2,3.6-1.3,1.8-1.5,3.9-4.4-2.1-1.2-5-2.8-4.5-1.5-4.1-2.2-3.2-2.4-3.5-.1-2.8,2.6-3.2,3.6-5,2.2-4.8,1.4-4.4.9-1.4,4.6H801l-3.8,1.8-5,.9h-1.6l-4.5-.1-4.5.8-3.5,2.5-5.4,1.4-5.4.4-4.2.8-2.8,2.8-3,2-.2,1.9-.6,3-2.6,2.8-2.6,1.4.1,1.6,2.2,2.4v2.5l.8.6,2.4-1.8,3,2.5-1.5,1.5-3.2,2.6-.4,2.6,1.1,5.4,1.9.9-2.8,5.9,3.1,1.9,3,1.5,3.4.5,3-.5,2.4-1.5,2.5,2,5,3.2,4.1,2.1Zm33.3-84.7-.4,1.6-1.5,3.1-2.7,2.1-2.5-.5-2.1-1.8.1-2.9,1.7-3.1,2.2-1.6,2.4.9Z" style="fill:#dbaeea;stroke:#000"/><path id="AR" d="M843.36,139l-3-2.5-3.4-2.7-2.8-1.1-3.8,1.1.3,3.2,2.8,1.9,2.2,1.5,2.4,1.4-2.6,2-4,.9-1.8,1.9-1.6,1-.2-2.8,4.8-2.5-2.1-1.8-2.2-3.3-1.1-2-1.6.7-2.8.9-1.3,1-1.2,1.6,2.8,1.9-1.1,1.4-2.4,1.2-1.6,2,.8,1.9-1.2,3.1-1.6,4.1v2.2l1.2,2.5.4,2.3-3.4.8-3.4.1-2.8-1.2-2-4-5.1-2.2-6.2-2.5-3.9-1.6-3.5.8-2.5.8,1.5,3.6,1.1,1.5-1.8,2.8-4.1,3.6-3.1,3.5-.8,5.9-1.1,6.4,2.1,4.2,2.4,2,1.9,4.6.9,4.8-2.7,2.1-4.1-2.1-5-3.2-2.5-2-2.4,1.5-3,.5-3.4-.5-3-1.5-3.1-1.9,2.8-5.9-1.9-.9-1.1-5.4.4-2.6,3.2-2.6,1.5-1.5-3-2.5-2.4,1.8-.8-.6v-2.5l-2.2-2.4-.1-1.6,2.6-1.4,2.6-2.8.6-3,.2-1.9,3-2,2.8-2.8,4.2-.8,5.4-.4,5.4-1.4,3.5-2.5,4.5-.8,4.5.1H792l5-.9,3.8-1.8h2.4l1.4-4.6,4.4-.9,4.8-1.4,5-2.2L822,127l2.8-2.6,3.5.1,3.2,2.4,4.1,2.2,4.5,1.5,5,2.8,2.1,1.2Z" style="fill:#dbaeea;stroke:#000"/><path id="AI" d="M784,195.73l-.8-4.8-1.9-4.6-2.4-2-2.1-4.2,1.1-6.4.8-5.9,3.1-3.5,4.1-3.6,1.8-2.8-1.1-1.5-1.5-3.6,2.5-.8,3.5-.8,3.9,1.6,6.2,2.5,5.1,2.2,2,4,2.8,1.2,3.4-.1,3.4-.8.9,4.3-.1,4.9-1.3,7.3-2.1,5.7-3.6,4.9-6.3,6.1-2.8,2.1-4.4,2.6-1.5.9-3.4-.1-2.9-1.1Zm59.4-56.7-3-2.5-3.4-2.7-2.8-1.1-3.8,1.1.3,3.2,2.8,1.9,2.2,1.5,2.4,1.4,3.6-1.3Zm-15.3,8.6-.2-2.8,4.8-2.5-2.1-1.8-2.2-3.3-1.1-2-1.6.7-2.8.9-1.3,1-1.2,1.6,2.8,1.9-1.1,1.4-2.4,1.2-1.6,2,.8,1.9,1.1-.7,2.7.1,2.6.3Z" style="fill:#dbaeea;stroke:#000"/><path id="GR" d="M684.66,338.63l3.4.4,3.8.8,1.2,2.8h3.8l4.1-1.8,3.1-.9,7.1-1.4,3.9-1.4,2.6-2.8.7-3.1,1.3-4.9s1.9-3.6,2-4,.8-3.1.8-3.1l2.8-1.7,2.9-.3,2.9,1.4,2.1,3.3,1.3,2.3,1.8,1,1.7-1.3,2.7-2.3,2.6-2.9,1.9-1.8,2.6-.8,5-.2,2.4.7,1.2-3.4,1.6-2.1,2.7-3.1,2.7-2.8,3.1-.7,3.8,4.1,1.1-.6,1.8-1.3,2-.3,2.5.1,2.8,1,3.8.9,5.7.7,6.5.4,4.3,1,3.1,1.2,4.9,2.6,3.4,1.7.7-.6.9-1.5.2-1.9-.7-2.4,3.5-.1-.1-2.2-1-2,.3-3,1.7-4.3,3.8-4.2,4-6.9,1.2-2.7,2.1-1,3.4-1.8c-.6-.9-1.8-1.9-2.4-2.8a15.23,15.23,0,0,1-1.6-2.8c-.9-1.8-1.5-4.5-2.4-6.4s-2.8-4.1-3.6-6a22.47,22.47,0,0,0-.7-2.8l2.7,1.3,3.6-.1,1.2-1.3,1.2-1.9,3.7.1,2.7,1.9.9,1.8,2.8.3,3.7-1.2,1.3-1.2,1.6-.7,3.7.9,3.7.4,3.4-1.3,8.1,1.8,5.7,3.3,7.2,1.2,5.4.6,5.4,2.7,3.6,3.6,3.9,1.8,3.6.9,6.3-3,.6,3.3,1.5,2.7.9,3.3-1.8,2.4-1.8,6.3.9,2.4.3,4.5-.3,2.1,1.5,1.5,4.2,2.1,6,3.9,3.6,2.1,7.5-.9,4.2,4.5,3.9.6,6,3.6,3,6,2.4,2.7,4.5-.3,2.4,4.2,11.4.6,5.1-2.1,4.2-3.9L981,322l7.2.3.3-10.5,1.5-3,.6-3.9,2.1-2.1,2.4,1.5,3.3.6h5.1l3-2.1.3-3.6-.6-2.7,2.1-.3,2.4-3.6,1.8-4.8.9-4.8,4.2-1.8,4.5-1.2,2.1.6,5.7,6.3.1,4.2c.5.3,1.4,0,2.1.3,1.3.5,2.1,2.6,3.4,3.1s3-.1,4.2.3a6.81,6.81,0,0,1,2.3,1.4,9.66,9.66,0,0,1,2,2.5,21.64,21.64,0,0,1,.6,2.5c.2.8.6,2.8.6,2.8l.2.2a14.55,14.55,0,0,1-.7,1.5c-.4.5-1.3.9-1.7,1.4a14.65,14.65,0,0,0-1.4,2.8,23.23,23.23,0,0,0-1.1,2.8,21,21,0,0,0-.8,3.4,8.91,8.91,0,0,1-.3,2.3l1.1,2.5-.4,3.3.6,1.9-.3,2.4-.9,3.9-1.8,3.1-1,3,.1,2.5-1.6,2.2-2.2,1.5-1.8,1.6-.4,2.2.6,3.4,1.6,2.4,1.9,3.1-.1,1.5-3,1.6-3.9,2.4-2.5,2.2-.6,1.6.9,2.2,1.8,1.3.7,2.2-6.6,6.3-1.3,1.6.4,6.3,1.2,1.6,1.5,5.7.9,3.1,1.8,1.2,2.8-.4,4.8-1.2,4.6,1.8,1.9,2.4,3.3,3.6.1,6.9-.9,5.2-1.6,3.4-1,3.7-2.7,3.7-2.7-.3-1.9-1.2-3.6-.9-5.2.4-2.8-.9-6.1-.3-2.8,1-7.5.1-.6-1.9-1.2-2.2-1.3-3-2.8-1.6-4.2-.3-1.6-.6-1.8-1.6.3-2.7,2.4-1.9-.1-3.4-.4-1.6-2.1-2.7-1-2.8-.4-1.3-2.7-.1-.9,1.9v1l-.9,1.6H984l-2.5-1-2.2-.1-3.3.9-.9,2.1-2.5.7-1.6,1.6-3.9,1.2-1,.6-2.7-.6-3.3.6-1.5,3.3.7,4.8-3,1.3-2.2,1.9-.9,3.1-4.6,4.8-.6,2.7v4.6l-.3,3.7-.9,1.6-1.8,3.4.7,5.8.7,2.4-.7,2.4-.3,4.3,2.2,3.3,1.8,3.4,1.9.4,2.8,1.3,2.2-.3,4-.4a17.92,17.92,0,0,0,2.8-.7c1-.4,3.4-1.3,3.4-1.3l.7,1.9,1,2.2,2.7,3,.7,2.2-.6,1.3-3.9,3-2.8,1.2-1.8,1.6-.1.6-.8,3.6-1.1,4-1.3,4,.6,3.4,2.1,4.4,3,4,2.5,2.1,3,3.8,1.9,3.4,2.1,3.8-3.6,3.8-4.4,5.7-1.9.4-3.4-.2-3.8-1.1-3.4.2-1.7,2.3-1.1,1.3-1.3-1.5-2.1-1.5.2-3.8.6-5.3-1.1-3.8-5-2.1-5.5-2.3-1.7-1.1.4-4.2v-3.2l-1.5-1.9-.2-4.2,1.5-.6-.4-4.7-3.8-3.6-1.9-2.7-1.9-2.7-2.1-1.9-2.5,1.3-2.7,1.5-3.6-.8-3.4.8-3,1.5-1.9,1.1-2.5,1.1h-6.3l-4,1.3-1.7,3.2-2.5,1.7-2.3,1.5-2.3.4-4.7-2.3-3.4-2.1-3.4,2.1-1.5,2.3-.4,5.9.2,3.2-1.1,3-1.9,1.5-1.5-.6-4-.8-4.4,1.7-4.7,1.3-3.2.4-2.5-.8-4.9-.2-3.4-1.9-6.1-3-3.2-3.2-2.7-3.8-.8-2.7-1.7-4.9-2.7-1.9-3.6-2.3-3.6-2.4.8-3,.4-4.9-2.7-5.7-1.1-3.6v-4.7l.4-3.4,1.7-4.4,1.1-5.7-.2-3.6-1.9-2.5-4.9-.4-1.7,1.5-2.7,3.2-.4,3.2-1.7,2.5-.4,1.1-2.7-.6-1.7-1.9-3.8-3.2v-2.7l-.2-3-3.6-1.3-6.1.8-5.1.8-4.7,1.9-3.2,3.4.2,3.6.6,5.3-1.1,2.3-3.4,2.1-2.3,2.1.2,4.9,7.4,6.6v9.1l.6,5.9,1.9,3.4.4,6.6-2.5,5.1-4,8.2-4,4.9-.4,7.2-.2,2.3-2.1,1.1-3.2,2.5-.4,2.3-1.9,3-1.5,1.3-2.3,4-.6,3.4-.2,2.7-5,.9-3.9-3.7-4.1-5.8-3.6-3.4-4.9-3.6-.8-3.8.8-5.1-1.9-5.1-3-5.1-1.3-3.6,1.7-3,1.7-4.9-.2-5.3,1.1-3,2.3-1.9,2.1-3.4-1.1-5.8.2-4.3,1.5-4,.6-3-2.8-3.4-.8-3.4,1.9-3.8.5-5.3-3.3-3.7-3.5-1.1-2.2-.2-3.3-3.3-2.4-3.7-2.7-6.2-.4-5,.8-7.2,2.2-1.6,3-3.2-.6-2.1-1-.6-3.9-.9-3.1-4-1.9-1.9-4.5,1.3-3.8-.4-.6-2.4-.4-3.2-.5-4.7-.6-3.2-.7.8-1.7,1.2-5.9.5-3.3,2.6-1.1,2.4,2,4,.8,1.7-.1,2.6-2.5,2.4-2.7,1.9-2.7,1.2-3.9.7-3.9,1h-2l-1.5-.8-3.8,2.8-3.4-.6-3.3-1.9-2.3-1.2-4.6-.8-3.6.8-3.6-.2-4.1-1.9-3.9-.9,1.3-6.2-3.4-5.1-2.8-3.8v-6.2l2.4-3.4,1.9-1.1-2.1-4.5-.4-2.3,1.7-3.6,2.8-1.7,5.1-.2,3.4-3.6,4.1-2.3,1.5-5.1.6-2.6,3.4-.4,1.9,3.2,3.6.2,2.8-2.6.9-4.3,3.2-3.2,1.5-4.3-1.3-4.9,2.1-1.7,2.8-1.3,2.8-.4,4.2-3.6" style="fill:#dbaeea;stroke:#000"/><path id="ZH" d="M642.36,224.83l-.5-2.5-1.2-2.4.2-1.9,2.1-1.5,2.1-2.6,1.4-2.7.8-1.6,2.2-.2,9.5-3.1,6.7-.3h-.1l-.1-4.6-.5-1.7,1.2-2.1,1.9-2,2.4-.8,2.6.6,2.2,1.2,4,.6h2.2l1.6-.9,2.2-1.6,4.7-1.6,5.7-1.5-.1-3,1.7-3.7-.4-1.1-1.4.4-.6-2,2-2.3,2.9-2.7,4.2-.7.9-3.9-.8-5.8-3.1-4.9-2.6-5.5-1.1-2.4c0-2.7-1.2-6.1-2.1-6.5s-2.6-.7-3.6-1.2c-.6-.3-1.4-.9-2-1.2a19.71,19.71,0,0,0-5.2-1.6l1.8-2.8,1.2-3.3,2.7-1-1.4-1.1-1.8-1.6-1.1-2.9.2-2.9-2.6-4.9.6-4.2,1.8-4,1.1-6.4-.6-3.5-4.4-2-2.4-1.2-2,.6-2.6.1-1.6-1-1-2.2-.5-2.6,3.6-.1.2-1-1.2-1.6-2.8-2.5-3.8-1.2-2.9-1.9-.3-4.3a14.27,14.27,0,0,0-4.5-1.1,9.93,9.93,0,0,0-1.7.3c-.8.2-1.7.9-2.5.8l-.9-2.5-.4-1.4.2-1.8,1.2-1,2.6-.2,4.7.8-.1.8,2,1.2,3.9-5.4,4.2-7.8-.7-.9-2.8-.8-3.1-1.1-2.5-1.2v-.9l-3.9-.4-.6-.2-.6,1.1-1,1.5-1,.8-1.6,1.6-2.9,1.9-4.2-.1-4.4-.9L642,66l-1.8-1-1.9-2.9-1.5-3.4.4-1.9,2.1-2.8c-.2,0-.4-.4-.6-.6-.5-.4-1.2-1-1.7-1.4s-1-.8-1.4-1.1a2.82,2.82,0,0,0-1.1-.8,3.56,3.56,0,0,0-1.4-.3,17.87,17.87,0,0,0-2.3.3c-.5.1-1.4-.1-1.7.3-.2.2,0,.6,0,.8a17.87,17.87,0,0,1-.3,2.3,9.93,9.93,0,0,1-.3,1.7c-.2.5-.9.9-1.1,1.4a6,6,0,0,0-.3,2.3,5.42,5.42,0,0,0,.5,2.6c.4.5,1.4.8,1.7,1.3a5.94,5.94,0,0,1,.6,2.3,5.35,5.35,0,0,1-.3,2.8,3.52,3.52,0,0,1-2,1.4c-.3.1-.8-.2-1.1-.3s-.7-.1-.8-.3c-.3-.3-.2-1-.3-1.4s0-1.7-.6-1.7-.7,1.6-.8,2.3a13.6,13.6,0,0,0-.3,2,10.55,10.55,0,0,0,.3,2.5c.1.4.5,1,.6,1.4a10.55,10.55,0,0,1,.3,2.5,8.82,8.82,0,0,1-.3,2.8,10,10,0,0,1-1.1,2,13.7,13.7,0,0,1-2.1,2,25.68,25.68,0,0,0-2.5,3.1c-.5,1-.4,2.8-1.1,3.7-.4.5-1.7.5-2,1.1s.3,1.8.3,2.5a7.82,7.82,0,0,1-.6,2,3.77,3.77,0,0,1-1.1,1.4,1.56,1.56,0,0,1-1.1.3c-.6-.3-.6-1.6-.8-2.3a20.94,20.94,0,0,0-.8-2.3,9.48,9.48,0,0,0-2-2,6.93,6.93,0,0,0-2-.8,20.86,20.86,0,0,0-2.3-.8,12.14,12.14,0,0,0-2.5-.8,17.65,17.65,0,0,0-2.3,0c-.6,0-1.4-.5-1.9-.3s-.7,1.1-1.1,1.4c-1.2.8-3.2.8-4.5,1.1a18.88,18.88,0,0,1-3.4.8,29.45,29.45,0,0,1-4.2.3,10.06,10.06,0,0,1-2.5-.3,13.81,13.81,0,0,1-1.7-.9l-1.3,2.1.6.7-.3,3.9-2.3,5.9-4.1,4.1-3.4,2.8v4.1l-1.8,3.4-2.1,6.5,1.8,5.4,1.6,1.3.4,1.7.5,2.8.9,5,.3.9,2.2,1,3.6,2.1.6,3.1-.8,1.8-6.1,7.2.4,2.2,6.9,3.6-.6,2.6.5,7.8,1.7,2.1,1.4,1.1,2.7.5,2-2.8,1,.4-1.8,3-1.8,3.2-2.4,2.7-2.4,1.1-3.3.7c.4.7,1.3,1.7,1.6,2.4.4.9.8,2.2,1.1,3.1.2.6.4,1.4.6,2a28.54,28.54,0,0,1,1.1,3.1,8.12,8.12,0,0,1,.3,3.1,6.78,6.78,0,0,1,.3.9,23.23,23.23,0,0,0,1.1,2.8c.4.9,1.2,1.9,1.7,2.8.6,1.1,1,2.6,1.7,3.7l4.3-.1,1.4,1.2,3.9,1.2,3.1-.3,4.7-.3,3.1-1.2,2.2-1.9,2.1-.8,3.2.3,4.1-.3,1,1,1.3,1.7,2.5-.4,1,2.5,1.4-.3,1.3.5.1,2.1.5,2.3.6,2.1.1,2.2.8,1.4,1.3.5,3.6.4.9.1.8,2.8.8.9,3.1.3,3-.8Z" style="fill:#dbaeea;stroke:#000"/><path id="SH" d="M622,82.53a22.38,22.38,0,0,0-2.4,3c-.5,1-.4,2.8-1.1,3.7-.4.5-1.7.5-2,1.1s.3,1.8.3,2.5a7.82,7.82,0,0,1-.6,2,3.77,3.77,0,0,1-1.1,1.4,1.56,1.56,0,0,1-1.1.3c-.6-.3-.6-1.6-.8-2.3a20.94,20.94,0,0,0-.8-2.3,9.48,9.48,0,0,0-2-2,6.93,6.93,0,0,0-2-.8,20.86,20.86,0,0,0-2.3-.8,12.14,12.14,0,0,0-2.5-.8,17.65,17.65,0,0,0-2.3,0c-.6,0-1.4-.5-1.9-.3l.6-2.3-2.7.4-3-.8-1.1-1.3.6-2.3.4-1.9,1.1-2.3,2.3-1.5,1.9-1.1,2.7-1.5,3.4-1.7,2.7-.2,1.5,1.3,2.1,1.5,1.9.6,2.1,1.1,1.1,1.7.6,1.7-.8,1.5.8,1.3,1.9.8,1.5.2Zm17.2-29.8-1.5-1.2c-.4-.3-1-.8-1.4-1.1a2.82,2.82,0,0,0-1.1-.8,3.56,3.56,0,0,0-1.4-.3,17.87,17.87,0,0,0-2.3.3c-.5.1-1.4-.1-1.7.3-.2.2,0,.6,0,.8a17.87,17.87,0,0,1-.3,2.3,9.93,9.93,0,0,1-.3,1.7c-.2.5-.9.9-1.1,1.4a5.8,5.8,0,0,0-.3,2.3,5.42,5.42,0,0,0,.5,2.6l-1.4-1.5-.8-.8-1.6-1-1.5-.5-1.1.3-1.5.7-2.7-.1-3.5-.1-1.6.4-.4.8-1.4.7-.9,1-1.6.6-.6,2.1.6.9-.3.4-6.4-.1-3.3.7-.7,1-.4.7-1-.3-.3-1,.3-1.5-.3-2.1-1-.6h-5.6l-1.6-1.5-1.9-1.5-1.8-.4.3-2.4,1.3-2.7.3-1.8-.9-2.8,1.2-2.4,2.2-2.1,2.1-1.9,1.8-1.8,1.2-2.1.6-2.2,1-2.4.9-2.2,1.4-1.8,1.6-1.5,1.9-1.5,2.4-1.2,2.7-.6h1.9l1.6-.4,1.8-1.2,1.8-.9,2.7.6,1.9-.1,1.3-1.3-.3-1.9-.6-1.6-1-.9.3-1.9,1.6-.4h2.8l3.4.9,1.6.7,3.3,1.3-.4,1.6-.1,1.5.1,2.1.7,1.7.9,2.4,1.5,1.3,2.1.4.9-1,1.3-2.5-1.2-4.2-.3-2.1.3-1.5,2.1,1.8,1.9,1.8,1.6,1.5,1.2,1.2.4,1.2v1.8l-.3,3,.3,1.2,1.9-.1.7-1,1.9-.9,1.9-.1,2.5,1.2.9,2.7-.9.7-1.6,2.4-.9,2.2.4,2.2,1.9,1.6,1.3,1.9-.3,2.1-1.6.3-1.5-.3-1.2-1.5-1-.7-2.8-.3-2.1.1-1.9.3-.9.9-1,1.5.3,1.6-.4,1.9-.3,1.6Zm47.5,10.6a14.23,14.23,0,0,0-2.8-.8,18.18,18.18,0,0,1-2.5-.8,11.4,11.4,0,0,1-1.7-1.4l-2-1.7c-.4-.3-1-.8-1.4-1.1a2.82,2.82,0,0,0-1.1-.8,8.77,8.77,0,0,0-2.3-.6,17.87,17.87,0,0,0-2.3.3,13.1,13.1,0,0,1-2.8,0l.9-1.8.6-1.6,1-1.9.4-1.5-1-1.2-1.5-.9-1.8-.3-1.5-.6-.9-1.2.4-1.2-.1-1.5,1.3-1,1.5-1.2,1.2-.7,1-.3,1.5.3.1.7.7,1.6,1,.4,1.8.9,2.5.9,1.2.3,2.4.7,2.1,1.6,1.6.9.4,1.5-.7.6-1.2.3-1.3-.3-1.2,1.2v1.8l1.9,2.2,1.2,2.7.6.9,1.3,1.5.9,1.5Z" style="fill:#dbaeea;stroke:#000"/><path id="TG" d="M696.86,64.63a15.09,15.09,0,0,1-2.3,1,8.82,8.82,0,0,1-2.8.3,7.82,7.82,0,0,1-2-.6c-1-.5-2.1-1.5-3.1-2a14.23,14.23,0,0,0-2.8-.8,18.18,18.18,0,0,1-2.5-.8,11.4,11.4,0,0,1-1.7-1.4l-2-1.7c-.4-.3-1-.8-1.4-1.1a2.82,2.82,0,0,0-1.1-.8,8.77,8.77,0,0,0-2.3-.6,17.87,17.87,0,0,0-2.3.3,13.1,13.1,0,0,1-2.8,0,15.69,15.69,0,0,1-3.1-.8,19.16,19.16,0,0,1-2.5-1.1c-.6-.3-1.1-1.1-1.7-1.4a11.37,11.37,0,0,0-2-.3,13.94,13.94,0,0,1-2-.6c-.6-.2-1.4-.6-2-.8-.2-.1-.6-.2-.8-.3a22.89,22.89,0,0,0-3.7.3,6.78,6.78,0,0,1-2,.3c-.5-.1-.9-.7-1.4-.8a4.56,4.56,0,0,0-2-.3c-.7.2-1.3,1.3-2,1.7-.4.2-1,.4-1.4.6s-.9.9-1.4.8l-2.1,2.8-.4,1.9,1.5,3.4,1.9,2.9,1.8,1,2,1.1,4.4.9,4.2.1,2.9-1.9,1.6-1.6,1-.8,1-1.5.6-1.1.6.2,3.9.4v.9l2.5,1.2,3.1,1.1,2.8.8.7.9-4.2,7.8-3.9,5.4-2-1.2.1-.8-4.7-.8-2.6.2-1.2,1-.2,1.8.4,1.4.9,2.5c.8.1,1.8-.7,2.5-.8a9.93,9.93,0,0,1,1.7-.3,17,17,0,0,1,4.5,1.1l.3,4.3,2.9,1.9,3.8,1.2,2.8,2.5,1.2,1.6-.2,1-3.6.1.5,2.6,1,2.2,1.6,1,2.6-.1,2-.6,2.4,1.2,4.4,2,.6,3.5-1.1,6.4-1.8,4-.6,4.2,2.6,4.9-.2,2.9,1.1,2.9,1.8,1.6,1.4,1.1-2.7,1-1.2,3.3-1.8,2.8a19.71,19.71,0,0,1,5.2,1.6c.6.3,1.4.9,2,1.2,1,.5,2.6.7,3.6,1.2.8.4,2.1,3.8,2.1,6.5l1.9-1.1,1.4-1.8,1.2-.5.6-2.1L704,145l2-1.7.9-5,1.1-1.5,5.2-.6h4l1.3-2.2.5-4.1-1.5-1-3.9-3-1.8-1.3-1.9-3.3.1-2.4,1.7-1.8,3.9-.9,2.8-1.3,2.9.5,4.5,2.1,1.9,2,2.9,1.7,5.4-.5,2.7-.9,3.6-3.4,1.1-3.2,3.8,3.1,2.2.6,1.5.1.7,1.8,1.4,1.5,4.4-.4,2,1.2,3.8,2.6,3.3.3,2.8-1.2,4.2-1.6,4.2-.5,2.8-1.2-.4-2.1-.9-4.4-2.5-2.9-2.6.2-1.6.8-2.8-.6.2-1.2,1.1-.5,2.1-1.1,1.2-2.1,2.2-.4,2.9-.5,2.6-.3,1.1-1.1,2.7,1.5-1.2,2.4,1.7.4-.9,1.9-.3.3,2.8,2.5,2.3.4,2.6,3.6.5,2.5,3,.9,1.6.6.7-3.2,1-3.4,3.1-1.3,2.9-2.7,1.6-1.3,11.6-16.1-49.4-28.2-14.4-.3-4.5.1-3.4-.9-2.8-.9-.6-1.6-2.1-.7-7-3.3-16.2-2.3-5.8,2.1Zm120.4,46.3-.4,1.6-1.5,3.1-2.7,2.1-2.5-.5-2.1-1.8.1-2.9,1.7-3.1,2.2-1.6,2.4.9Z" style="fill:#dbaeea;stroke:#000"/><path id="TI" d="M640.76,414.13l-1.5,2.6-3,2.5-4.3.3-1.1-1.7-2.6-1.1-7.4-.8-2.1-1.5-4.3-1-5.3,1-3.3,3.2-1.4,3.4.7,4.2-.3,2.5-1.2,1.5-5,1.6-3.7.2-1.6,3.4-3.7,3.3-.9,2.6-1.2,2.3-1.6.5-3-.3h-3.9l-2-.5.2,4.3-.1,2.9-1.6,6.3,6.1-3,5.1-.8,4.2,1.5,3.4,6.3.4,2.7-.4,5.5v12.5l.6,7.2-.8,5.5-2.7,5.3-3,3.6-.8,4.9,3.6,4.9,1.3,3.8-.4,2.1.8,3,4.7,4,5.9,3.4,5.9,3.2,3.4,5.1,5.7,8.5,3.4,3.2.4,3.8,4.2,4.5,1.9,4,2.4.3,3,.6,2.1,1.8,2.8,1.6,3.9.4,2.2,1.6,1.7.8,2.9,1.3,5.7-4.9,3.5,2.4,3.1,1.6,3,2.5,1.6-.9,2.2-1.9,1-1.2,1.5.4,5.1,5.2,3.6,4.3,2.1,3,.3,3.1-1.9,2.1-1.6,1.2-.8.2-.2,1.6-.5,3.6-1.6,1.4-4,2.5-2.5,2.2-1,2.6,1.3,2.7h1.4l2.7.4,3.7,1.4,2.4,2.6,3.1,2.6,2.4,2.6,2.2.5,2.3,1.3.4,2.9.4,5.4,2.7,3.9,1.7,2.2,1.3,1.6v2.1l1.7,4.4,3,4.9-.4,2.7-2.7,2.5-2.5,4v2.1l1.5.2,2.5-2.5,3.4.2,2.5,2.5,3,.6,3.2-.2,1.9.8.4,3.2,2.7.8,3.8-1.9.8-5.1.6-3,1.7-3.6,1.1-4.2,3.2-2.1,2.1-2.3.8-3-.8-.6s-2.3-3-3.2-4A20.39,20.39,0,0,0,723,626h-4.6l-2.1-1.7-.6-2.3.4-3.2-1.5-2.5-1.7-2.1-1.3-3.6-.4-1.7,1.5-1.9,1.9-1.9,2.3-.6.1-2.2-.3-5.2-1.1-1.3-1.3-2.5.2-4.2,1.7-4.4,2.3-1.5,4-1.5,4.2-1.5,1.9-1.3,1.5-2.3.8-3.2-.2-3.4-1.7-3.6-.6-2.5,1.5-3.6,6.1-2.5,4.2-4,2.5-2.5,1.9-.8,2.1-3.6,2.2-1-3.9-3.7-4.1-5.8-3.6-3.4-4.9-3.6-.8-3.8.8-5.1-1.9-5.1-3-5.1-1.3-3.6,1.7-3,1.7-4.9-.2-5.3,1.1-3,2.3-1.9,2.1-3.4-1.1-5.8.2-4.3,1.5-4,.6-3-2.8-3.4-.8-3.4,1.9-3.8.5-5.3-3.3-3.7-3.5-1.1-2.2-.2-3.3-3.3-2.4-3.7-2.7-6.2-.4-5,.8-7.2,2.2-1.6,3-3.2-.6-2.1-1-.6-3.9-.9-3.1-4-1.9-1.9-4.5,1.3-3.8-.4-.6-2.4-.4-3.2-.5-4.7-.6-3.2-.7.8-1.7,1.2-5.9.5-3.3,2.6-1.1,2.4,2,4,.8,1.7-.1,2.6-2.5,2.4L687,415l-2.7,1.2-3.9.7-3.9,1h-2l-1.5-.8-3.8,2.8-3.4-.6-3.3-1.9-2.3-1.2-4.6-.8-3.6.8-3.6-.2-4.1-1.9ZM707,607.93l1.1,1.1,1.1-.2.8-1.1.8-1.3-.2-1.6-.8-.3-1.7,1.7Z" style="fill:#aeeacb;stroke:#000"/><path id="VD" d="M272.66,280.83l5.2,2.6,3.9,1.2.8.4-.9,3.8v5.5l1.2,1.6,4.4,7.8,2.8,5.8-3,2.7-3.7,2.8-.5,5.3-1.6,3.4-3,2.8-1.8,2.1-1.9-1.2,1.6-4.1-.2-4.9-2.5-1.8-2.3-2.5-4.1-3.4-1.6-4.2-1.2-4.8-3.2-1.6-.2-.2-6-5h0Zm-56.8,77.7-1.9,3.2.5,2.8,2.3,1.8,1.8-1.6.9-3.5-.2-3Zm12,1.8,3.9-4.9,2.1-3.7-.7-1.6,1.6-.9,2.3,3,3.2,3.2,1.1,1.6-2.8,5.3-1.9,3-2.1-.4-2.3-2.3Zm-3.2.9,2.7.4,2.3,1.6-1.9,2.8-2.3,1.1-1.1-1.6ZM89.16,491.53l5.9,3.4-6.2,12.2-.7-.3-4.5-2.7-5.1-3-4.2-2.8h-1.2l2.7-4.7,2.5-4,.2-4-1.5-3.4-6.6-6.8-6.8-4.9-4.9-3.2,2.1-3.6.8-4.2-.4-7.4,2.5-4.4,3.6-5.5,3-4.4,2.7-3,3.8-3.2-1.3-5.9-2.1-2.7-5.7-6.3,2.5-3.6,4.9-4.4,10.2-9.3,12.7-11.6,4.2-4.4,4.4-4,5.1-2.1,10.2-6.8,7.4-6.8.6-2.7,1.9-1.1,4.9-1.1,3.6-2.1,3-3.2,3-4.2-1.3-3.2-3.4-1.7-1.5-1.7-.8-2.1,2.1-1.5.4-5.1.2-2.3,2.1-1.9,3.2-3.8,16.4-2.3,9.2-6,5.7-2.7,7.8-2.1,3.7-4.8,6.5-4.2L202,299l3.2-1.2,2.3,5.5-1.4,4.1,3.2,1.9.7,7.2,2.7,1.9,2.5,7.8.5,11.1,2,1.6,4.1,3-1.6,1.1,4.6,3.4,4.9,2.1,2.1.4,2.3-1.2,2.3-2.5,2.8,1.8,3.9,1.6h3l2.1-2.1,1.1-3.9v-3.9l.9-2.3-1.2-.7-1.8.2-.5,1.8-2.5-.2,1.8-4.8.2-1.9,2.3-5.5,2.7-2.3-3.4-5.1-3.4,1.4-.2-1.1,5.1-2.8-2.5-2.7-2.1.2-5.2-4.7,7.7-6.3,5.3,7.5,4.8,5.3,4.1,3.4,2.1.9v5.3l1.6,3.5-.2,6.2-4.1,3-.9,4.2-1.6,5.7-2.5,2.8-4.4,4.9-.9,2.7,2.7,2.3-.5,3.7-8.3,10.3-6.2,6.7-.4,4.6-1.4,2.7-3.4.2-1.6-1.4-2.1-.2-2.7,1.9-3.5,3.4-1.6.5v6.2l.9,5.7v8.8l.7,2.1,3.2-1.4,1.8-.7,1.4,2.5,3.4-1.8,2.8-.5,3.2,2.8,3.2,1.4,3,.7,1.5,1.1-.9,1.5-3,2.7-1.8,2.5-1.2,1.6-1.6.2-.9,1.8.2,2.7-3.5-1.1-3.2-3-3.9-.2-.9,2.3-.5,3,3,1.9.9,1.9,1.6,3.4,3.5.5,3.9-2.1,1.9-3,3.9-3.4,1.4.5,2.5,2.5,4.4,3.9,4.1,1.9,4.6,1.2.4,3.7,1.6,6.9,1.2,5.1-.7,2.1,4.2-1.4,3.2-2.7s3.2-3.7,3-4.6,3.2-4.4,3.2-4.4l3.4-3.2,3.7-.9,6.2-.7,3.7-2.3,4.1-4.4,2.7-4.2,3.4-1.8,2.8-1.6,3.4-2.8,3.7,1.9,6.6-3.5,1.2,4.2.7,6.2.4,5.7-2.3,3.4-3.2,4.1a30.39,30.39,0,0,1,.5,5.3,32.3,32.3,0,0,0,0,4.4s-1.8,1.9-2.5,2.5-3.7.5-3.7.5l-1.2,1.6.2,3.5,2.1,3,.2,3.4-1.8,3.2v7.4l3.4,3-.2,2.8,1.4,6.4-1.1,2.9-4.2,3-2.8,2.7,2.1,4.6-1.8,3.2-1.9,3.7-3.9,5.7-4.8,4.4-6,5.8-5.5,4.4-7.2,4.3-5.8,4.1-.7.7c-.7-2-2.2-4.6-2.8-6.6a17.58,17.58,0,0,1-.3-2.5c-.2-1.6-.2-3.8-.8-5.3s-2.3-3.3-3.3-4.7a23.11,23.11,0,0,0-2.2-3c-.4-.4-1.3-.7-1.7-1.1a17.45,17.45,0,0,1-1.7-3.3,9.3,9.3,0,0,1-1.1-6.3,20.85,20.85,0,0,0,0-2.5,13,13,0,0,0-.8-2.8,28.16,28.16,0,0,0-1.7-3.6c-.4-.8-.9-2-1.4-2.8-.4-.6-1.2-1.3-1.7-1.9-.6-1-1-2.6-1.7-3.6a15,15,0,0,0-2.8-3.3c-.7-.6-1.9-1-2.5-1.7a7.58,7.58,0,0,1-.8-1.9c-.4-1-1-2.3-1.4-3.3a9.31,9.31,0,0,0-.6-2.2c-.4-.7-1.4-1.3-1.9-1.9a19.85,19.85,0,0,1-1.9-2.2,14.63,14.63,0,0,1-1.1-1.6l-3.3-8.1-13.4-1.1-33.6-7.4-34.3,1.7-37.2,13.3-17.8,14.6-7.1-3.1-5.3-3-4.8-1.4-1.1,4.1,2.5,1.1,3.9,1.8-.4,3.2,2.8.5" style="fill:#aeeacb;stroke:#000"/><path id="FR" d="M255,295l6,5,.2.2,3.2,1.6,1.2,4.8,1.6,4.2,4.1,3.4,2.3,2.5,2.5,1.8.2,4.9-1.6,4.1,1.9,1.2,1.8-2.1,3-2.8,1.6-3.4.5-5.3,3.7-2.8,3-2.7-2.8-5.8L283,296l-1.2-1.6v-5.5l.9-3.8,6.9-2,4.4-.2,9.7-1.6,9-4.2,2.3-1.4,3.5,3.9.7,3.5-4.1,2.7-1.8,2.3,1.6,5.8.4,5.8-1.1,8.1,4.2.3a9.71,9.71,0,0,0,1.4,1.9,4,4,0,0,0,1.4.8c.5.1,1.2-.4,1.7-.3,1.4.3,2.6,2.2,3.9,2.8a6.48,6.48,0,0,0,3,.6,2.37,2.37,0,0,0,.8-.6,7.21,7.21,0,0,1,2.5-.6,9.08,9.08,0,0,1,1.7.8c.7.3,1.7,1.4,2.5,1.1.5-.1.4-1.1.8-1.4a5.24,5.24,0,0,1,2.8-.6,7.05,7.05,0,0,1,2.8.8,5.19,5.19,0,0,1,2.2,2.2,7,7,0,0,1,0,2.5,7.07,7.07,0,0,0,.3,2.5c.3.5,1.3.8,1.4,1.4.1.4-.3.8-.6,1.1-1,1.3-3.2,2.1-3.9,3.6l-.9-1.4-2.5-1.9-.7-1.6-1.9,2.7s-.7,1.6-.9,2.3,2.5,2.8,2.5,2.8L341,331l.7.5a11.87,11.87,0,0,0-1.9,2.5,34.26,34.26,0,0,0-1.7,3.3c-.3.8-.5,2-.8,2.8s-1.4,1.8-1.7,2.8a15.11,15.11,0,0,0-.3,3,7.07,7.07,0,0,1-.3,2.5c-.5.9-2.3,1.1-2.8,1.9a4.14,4.14,0,0,0-.3,2.5,14,14,0,0,0,1.7,4.2c.5.8,1.7,1.6,1.9,2.5a4.28,4.28,0,0,1-.6,2.2c-.4.9-1.6,1.8-1.9,2.8a4.47,4.47,0,0,0,0,2.8c.4.7,1.9.8,2.5,1.4l5,1.8,2.8,1.8,4.2,3.7,2.7,2.7.2,8-.5,4.9-3-.2-1.6.4-3.7-1.6-3,1.9-.5,2.7-.4,5.3-.4,6.9,3.4,5.3-3.5,2.1-5.3-.5-3.5,1.9-4.8,3.7-2.8,3.6-6.6,3.5-3.7-1.9-3.4,2.8-2.8,1.6-3.4,1.8-2.7,4.2-4.1,4.4-3.7,2.3-6.2.7-3.7.9-3.4,3.2s-3.4,3.5-3.2,4.4-3,4.6-3,4.6l-3.2,2.7-4.2,1.4.7-2.1-1.2-5.1-1.6-6.9-.4-3.7-4.6-1.2-4.1-1.9-4.4-3.9-2.5-2.5-1.4-.5-3.9,3.4-1.9,3-3.9,2.1-3.5-.5-1.6-3.4-.9-1.9-3-1.9.5-3,.9-2.3,3.9.2,3.2,3,3.5,1.1-.2-2.7.9-1.8,1.6-.2,1.2-1.6,1.8-2.5,3-2.7.9-1.5-1.5-1.1-3-.7-3.2-1.4-3.2-2.8-2.8.5-3.4,1.8-1.4-2.5-1.8.7-3.2,1.4-.7-2.1v-8.8l-.9-5.7v-6.2l1.6-.5,3.5-3.4,2.7-1.9,2.1.2,1.6,1.4,3.4-.2,1.4-2.7.4-4.6,6.2-6.7,8.3-10.3.5-3.7-2.7-2.3.9-2.7,4.4-4.9,2.5-2.8,1.6-5.7.9-4.2,4.1-3,.2-6.2-1.6-3.5v-5.3l-2.1-.9-4.1-3.4-4.8-5.3-5.4-7.5Zm-15.3,12.8,5.2,4.7,2.1-.2,2.5,2.7-5.1,2.8.2,1.1,3.4-1.4,3.4,5.1-2.7,2.3-2.3,5.5-.2,1.9-1.8,4.8,2.5.2.5-1.8,1.8-.2,1.2.7-.9,2.3v3.9l-1.1,3.9-2.1,2.1h-3l-3.9-1.5-2.8-1.8-2.3,2.5-2.3,1.2-2.1-.4-4.9-2.1-4.6-3.4,1.6-1.1-4.1-3-2-1.6-.5-11.2Zm-23.8,50.7-1.9,3.2.5,2.8,2.3,1.8,1.8-1.6.9-3.5-.2-3Zm8.8,2.7,2.7.4,2.3,1.6-1.9,2.8-2.3,1.1-1.1-1.6Zm3.2-.9,3.9-4.9,2.1-3.7-.7-1.6,1.6-.9,2.3,3,3.2,3.2,1.1,1.6-2.8,5.3-1.9,3-2.1-.4-2.3-2.3Z" style="fill:#aeeacb;stroke:#000"/><path id="VS" d="M575.36,455.93l1.6-6.3.1-2.9-.2-4.3,2,.5h3.9l3,.3,1.6-.5,1.2-2.3.9-2.6,3.7-3.3,1.6-3.4-2.8-.5-2.3-1.2-2.3-1.3-1.3-1.9-1.2-2.7-.9-2.2-2.5-4.1-.9-2,1.7-5,2.2-5.7.5-10.7-.3-2.3-2.3-1.5-1.8-.5-3.9,4.4-2.5,3.4-2.3,4.1-1.2,5.6v5.3l-.8,3.1-3.5,3.3-3.1,2.2-3.6,1.9-1.4,2.3-7.5,4.7-4.8,1.7-10.3,2.6-5.3.9-3.6-3.4-6.4-1.2-5.9-3.9-4.5-1.7-3.9.3-5-2.3-3.7-2-3.1.2-2.8,1.9-3.9,2-4.4,1.7-.8,10-7,3.4-2.2,3-5.3,4.4-5.8.9-9.5.5L439.66,460l-14.8,12.2-4.5-6.9-7.8-5.6-5.6-1.1-2.6,2.6-2.2,4.1-3,3.7-5-.2h-4.5l-2.3,1.2-1.9,1.9,4.5,3-1.1,1.7-2.6,2.8-4.2,2-4.4,1.4-8.1-2.6-4.8-1.1s-7.9,2-8.6,2.3-6.7,5-6.7,5l-4.5,3.1-4.5,2.8-2.8-1.1-1.4-2.2v-6.4l-4.1-.8-3.9,2.5-2.6,2-.8,4.4-1.2,3.9-3,2-5.9-.1-4.2,2.9-2.8,2.7,2.1,4.6-1.8,3.2-1.9,3.7-3.9,5.7-4.8,4.4-6,5.8-5.5,4.4-7.2,4.3-5.8,4.1-.7.7c-.7-2-2.2-4.6-2.8-6.6a17.58,17.58,0,0,1-.3-2.5c-.2-1.6-.2-3.8-.8-5.3s-2.3-3.3-3.3-4.7a23.11,23.11,0,0,0-2.2-3c-.4-.4-1.3-.7-1.7-1.1a17.45,17.45,0,0,1-1.7-3.3,9.3,9.3,0,0,1-1.1-6.3,20.85,20.85,0,0,0,0-2.5,13,13,0,0,0-.8-2.8,28.16,28.16,0,0,0-1.7-3.6c-.4-.8-.9-2-1.4-2.8-.4-.6-1.2-1.3-1.7-1.9-.6-1-1-2.6-1.7-3.6a15,15,0,0,0-2.8-3.3c-.7-.6-1.9-1-2.5-1.7a7.58,7.58,0,0,1-.8-1.9c-.4-1-1-2.3-1.4-3.3a9.31,9.31,0,0,0-.6-2.2c-.4-.7-1.4-1.3-1.9-1.9a19.85,19.85,0,0,1-1.9-2.2,14.63,14.63,0,0,1-1.1-1.6l-3.3-8.1-13.5-1,.9,8.6.8,5.5-1.5,2.5-2.3,2.3-4,1.3.8,2.1,2.5,3.2,1.7,3.6,1.3,1.9,1.7.4,3.6,2.5,1.5,2.1,1.5,1.9,3,.8,1.9,2.7v5.1l-.8,4.7-2.7,4.7-4.2,5.7-3,5.9.6,5.3.4,5.7-3.6,2.1-3,4.2-.8,2.3,2.1,1.7,2.3,2.7,5.7-.2,3-.4,3-.4,4.2,1.7,5.1,1.3,1.7,3-1.5,2.5.6,6.1-.4,3.2-2.1,1.7-.6,4.7.2,3,2.5-.4,1.5-1.7,1.5-3,.6-1.5,3.6-.2,1.9.6,1.9,3.8,1.9.6,2.7,4,3.6,5.9,4.7,5.7,3.4,6.1,1.1,4.4-1.5,4,3.4.8,3.4.8.4,4.9V623l2.7,3s3.4,4.9,4.4,6.1a21.49,21.49,0,0,1,2.3,4l2.3,3.8,1.5,4.2.8,1.9,1.7-.2,2.1-4,2.5-2.7,4.9-.4,4.2,3.4,2.3,3,1.9.4v-4.4l.2-2.7,2.5-2.3h2.7l3.8-.4,2.3-.3,3-.6,1.8-1.8,2.4-3.6,1.2-2.7,4.5.6,5.1,1.1,4-.2,4.4,1.7,3.9,1.8,1.8-1.5,1.8-.9,2.7-.6,1.5-3,3.9-1.8,4.8-2.7,2.1-.9-.6-.9,1.5-4.5,2.1-.3,2.1-1.5,2.1-.9,3.6-.6H385l2.7-1.8-.6-2.4,1.8-3.6,1.6-.4,1.9-.8,3.2,1.5,3.4,3.8,3.8.6,6.1-1.1,5.1.6,3,1.9,1.5,1.9,3,2.1,3.4,2.1,1.3,5.3,1.7.8,1.1-.4,4.9-2.3,3.2-.2,4.2,1.3,4.7,4.4,4-2.7,4.4.8,3.8.2,2.7-1.5v-1.1l-.6-7.6,1.3-4.7,4-4.4,4.2-2.7,17.3-1.1,2.7-2.5,2.5-5.3,2.1-4.7,3-2.5-1.9-3.6.2-8,1.3-2.1,3.8-3.6,5.7-3,4.4-.4h3.8l.6-3,2.1-3.6,3.2-2.7,3-.8.2-1.7-.8-4.7,3.2-3-.6-4-2.3-2.3-1.5-5.1-.4-3.8-3.2-4.4-4-3.4-5.5-2.7.4-3.6,3-2.7,3.6-5.5,3.4-3.4,3.2-1.3,3.8.4,3.8,1.5,4-1.1,4.7-5.9,1.9-3.2v-1.7l1.9-1.5,3.8-1.3,2.3-3.8,3.4-2.1,7.6-3.2,1.7-3.4-1.1-3-3.4-.8-2.5-2.3,1.1-4.2,1.9-2.5,4.4-1.1,4.9-3.4Z" style="fill:#aeeacb;stroke:#000"/><path id="NE" d="M285.26,261.33s-1.6.3-2.3.4-1.6.1-2.3.2a15.26,15.26,0,0,0-2.3.8,20.42,20.42,0,0,0-2.5,1.5,22.44,22.44,0,0,0-2.5,1.7,11.38,11.38,0,0,0-1.9,1.9,22.34,22.34,0,0,0-1.3,2.7c-.4.8-.9,1.8-1.3,2.5s-1.3,2.7-1.3,2.7l5.2,4.8-17.7,14.3-7.7,6.6-7.6,6.3-24.4,18.4-2.5-7.9-2.7-1.9-.7-7.2-3.2-1.9,1.4-4.1-2.3-5.5-3.2,1.2-5.3,4.9-6.5,4.2-3.7,4.8-7.8,2.1-5.7,2.7-9.2,6-16.4,2.3a21,21,0,0,0,.1-6.8l.6-6.1-2.5-2.3-2.7-3.8-2.5-3.2,3.8-5.7,5.7-6.3,3.2-3.4,1.7.4,2.7-1.1,4.7-1.7,5.7-2.1,6.1-2.3,2.7-1.5,5.7-.2,1.9-1.3,3-4.7,3-5.9,3.4-1.9,2.5-.2,2.5-1.1.2-1.9-.6-1.9L196,260v-1.9l.8-1.9h3.4l1.1-1.7.8-1.7.4-3,1.1-.8,3.8.2,3.4-.8.8-1.9-1.9-4,.9-.3a13.68,13.68,0,0,0,1.9-1.4c.5-.5.9-1.5,1.4-1.9a4,4,0,0,1,1.4-.8c1.1-.2,2.6.6,3.6.3s2.1-1.6,3-2.2c1.2-.9,3-1.9,4.2-2.8s2.5-2.1,3.6-3c1.8-1.6,4.9-3.3,5.8-5.5l4.6-.1,2.6,2.8,1.7,3.7.5,5.9-1.1,4.2-2.2,2.8.6,3.7,3.6-1.6,3.4-1.6,4.4-2.2,5.1-2.5,8.4-1.1,5.9-.2,1.7,1.1,7,3.7,6.5,4.4.9,3.3-.3,3.7-.9,4.8Z" style="fill:#aeeacb;stroke:#000"/><path id="GE" d="M91.56,484.73l7.1,3.1-3.7,7-5.9-3.4-2.7-1.1.4-3.2-3.9-1.8-2.5-1.1,1.1-4.1,4.8,1.4Zm-17.2,13.5h-1.2l-2.5,2.3-.6,5.3-1.3,1.5-1.5,3v3.4l1.7,2.1.2,3.6-1.1,2.1-2.3,1.1-3.6,1.3a24.43,24.43,0,0,0-3.8.6c-1.3.4-1.9.6-1.9.6l-1.9,1.7-2.1.2-3.2-.2-1.5-.2-1.9.6-1.5,1.7-1.3,1.9-1.1,1.5-2.7.6-2.1,3.4-.6,1.9,1.9,1.1,1.9.6.6,1.5-.2,3.6-1.3,3.2-1.5,3.4-.4,2.3,4.2-.2,4.2.8,4.2,1.1,1.9-3.2,1.7-1.5,1.5-.2,2.7.8,4.7.2,3.8.8,3.4.4,2.3-1.1,1.9-1.7,3-1.7,2.7-1.3,2.7-1.9,3-3.4,2.5-3,3-3.4,2.1-2.1,3.4-.8,3-1.5,3.6-1.5,3-1.5,1.7-2.5,1.5-1.7-.2-2.5-.2-1.9-1.9-1.1h-1.3l-.4,1.3-1.9.6h-3l-1.9-1.9-3.2-2.3-1.9-4-4.6-5.1-.7-.3-4.5-2.7-5.1-3Z" style="fill:#aeeacb;stroke:#000"/><path id="BS" d="M394.76,95.83l2.9,1.3.5,4.4,2.3-.3,1.9,2.3,3.3-.6,1.7-1.7-.6-4.8,2.6-2,1.6-1.8.8-2.1.6-1.3,2.1.2,1.9-1.5v-1.1L416,86l-1.7-.6-.2-2.3,1.9-1.9.2-1.3-1.5-.2-2.3,1.7-2.1,1.1-2.8,1.1-3.1.3-2.5,1.2-3.4,3.7-.7,4.2Z" style="fill:#e5bf77;stroke:#000"/><path id="BL" d="M354.06,142.63l.4,2,1.1,1.9,5.2,4.7,1.6,2.4,2.9.5,1.9-.3.2-1.7.9-2,1.6-1,3.2-.2,3.6.1.5,2.2,3.3,2.3,2.8-2.3,3.6-1.1.5-1.8,1.2-3.4,7.6-1.1,1.1-3.9,7.2-.5.2-3,1.7-2.9,1.2-3.7-.6-2.6-2-2.6.2-3.6,4.8-.2,2.6-.2,2.2-2.5,1.2.5,2,3,4.3.7,3.3-.3,2.9,1.3-.5,1.2-2.2,4.3-1.8,2.3-2.5,2.5-.5,3.1-.2,4.1-1,2.5-2.3,1.2-1.9.9-5.1.3.2,5.1.6,3.7.9,4.1h3.7l5.5-.3,6.1-.9,2.3,1.4,1.1,2.3,1.8,2.4,2.2,2,1.8,1.5,2.5,1.1,2.6.4,2.3-.2V166l.4-2.4,3.1-2.3,4.8-1.8,3.5-1.5,3-2,3.7-3.7,2.6-3.2,2.8-.6,4.5.5,3.4-1.6,4.1-3,.3-2.6c-.4,0-1.3-2.1-1.3-2.1l-1.5-1.9.3-3,1-2.3.7-2.3-2.7-1.7-.6-3.5.2-2.3-2.9-.3-2.4-.1-1.9-1.1-2.4-3.2-1.1-4.1-3.1-5.5-2.5-3.4-2.1-2.6-1-1.2-1.7-1.1-1.5-.1-1.4.9-.8,1.4-.6,2.4-.6,2-.8,2.4-2.2,2.1-2.3,1.7-3.4.2-.2-2.3.3-1.5-.7-1.2-1.5-.8-3.2-2.9-2.9-1.5-2.9-1-.4-1.6a17.43,17.43,0,0,0-3.1.8c-.6.3-1.1.9-1.7,1.1a22.78,22.78,0,0,1-3.7,1.1,7.05,7.05,0,0,1-2.8.8,7.18,7.18,0,0,1-2.5-.8,12.22,12.22,0,0,1-2.8-1.4,16.19,16.19,0,0,1-1.7-2,24.07,24.07,0,0,1-2-2.5c-.5-.8-.7-2.1-1.2-2.8l-2.6,2,.6,4.8-1.7,1.7-3.3.6-1.9-2.3-2.3.3-.5-4.4-2.9-1.3-2.8,1.4-2.8.3-3.2.7-3.6,1.2-2.7,3.6.6,4.4,1.9,2.3v3.8l-2.4,3.4a17.28,17.28,0,0,0,1.9.1l2.1,1.3.2,1.6.2,1.4-1.5,2.3-.8,1.6-1.2,1.3-1.2-.2-1.4.2-1.9-.2-3,1.2-2.1.3-2-.7-1.4-.5-.8-1.5-1.6,1.3-1.5,1.5-1.9,4,1.1.7,1.7-.7,1.1,1.2,2.8,2.1,2.6,2.6,1.2,2.3-.2,2.4-.8,1.9-.9.9-2.3.2-2.8-1.4-3.8-.9Zm-.6-5.2.7,5.2-5.6-.5-4.1-3.8.1-2.8a33.9,33.9,0,0,1,3.4,1c1.2.2,3,.1,4.2.4C352.46,136.83,353.06,137.23,353.46,137.43Z" style="fill:#e5bf77;stroke:#000"/><path id="AG" d="M581.86,89.83l-1.3,2.1.6.7-.3,3.9-2.3,5.9-4.1,4.1-3.4,2.8v4.1l-1.8,3.4-2.1,6.5,1.8,5.4,1.6,1.3.4,1.7.5,2.8.9,5,.3.9,2.2,1,3.6,2.1.6,3.1-.8,1.8-6.1,7.2.4,2.2,6.9,3.6-.6,2.6.5,7.8,1.7,2.1,1.4,1.1,2.7.5,2-2.8,1,.4-1.8,3-1.8,3.2-2.4,2.7-2.4,1.1-3.3.7c.4.7,1.3,1.7,1.6,2.4.4.9.8,2.2,1.1,3.1.2.6.4,1.4.6,2a28.54,28.54,0,0,1,1.1,3.1,8.12,8.12,0,0,1,.3,3.1,12.51,12.51,0,0,1-1.4,2.5,7.46,7.46,0,0,0-1.1,2.8c0,1.2,1.2,2.5,1.7,3.7a9,9,0,0,1,.8,2.3c.2,1.1.2,2.6.3,3.7a25.39,25.39,0,0,0,0,3.9,22.89,22.89,0,0,0,.8,2.8,26.82,26.82,0,0,0,.6,2.8c.2.7,1.1,1.5,1.1,2.3s-.9,1.7-1.1,2.5c-.3,1.2-.2,3-.6,4.2l-4.9,1.5-5.4,1.3-2.3.3-1.5-2.5-2.1-4.2-2-4.2-2.2-5.8-.8-4.5-1.8-5.3-2.1-6.8-1-4.6-.2-3.3-.7-2.1-.7-.4-4.3-1.2-1-1.8-3.4-.8-2.2.1-4.5,5.8-2.5,1.4-1,2.6-.8,4-.3,2.4-1.1,2.2-1.9,1.5-2,.3-2.3-.7-1.8-1.5-.2-1.3v-1.5l2.5-1.2-.3-1.4-1.8.4-5.1.6-5.3.4-2.6-.6-.1-2.9-.9-2.2-.3-.6-1.7-.3-2.5-.6-2.5.8-1.2.9-.6,2.2-.8,2.3-2.6.8-2.5.2h-4.5l.2-1.2.2-3.7V193l-.7-2-1.5-2.9-1.8.7-3,.9h-3.3l-1.3-1.2-1.3-.2-.1,2.1v8.7l-.6,1.1-.9,1-1.3.8-4-.2-1.9-.9-3.3-.4-4.3.6-2,.6-2,1.3-4.2.3-.4-3.5-.1-5.5.8-3.3.5-1.1a6,6,0,0,0,2.1-2.1,31.17,31.17,0,0,0,2.3-3.9,16.19,16.19,0,0,1,1.2-2.3c.5-.7,1.6-1.4,2.2-2.2a13.15,13.15,0,0,1,.8-1.8c.6-.7,1.8-1.2,2.3-2a7.1,7.1,0,0,0,1.4-2.5c.1-1.1-.9-2.4-.8-3.5a12.36,12.36,0,0,1,.9-2l1.9,1.3,1.9,1.5,2.4.9,3,.7,5.8.5,3.8.3,1.7-.3,1.3-.5,1.2-1.8,1-3.5,1.9-5.5,1.9-3.8,1.9-4.5-.4-2.1-2.8-2.6-2.4-.4-1.8-.8-2-1.2-3.2-1.8-1.9-1.8,2.4-1.4-.1-2.6-.7-3-1.6-.4-.7-2.4-.1-1.8-2.1-.2-1.1-.2-2.7-1.8-.6-3.5.2-2.3-2.9-.3-2.4-.1-1.9-1.1-2.4-3.2-1.1-4.1-3.1-5.5-2.5-3.4-2.1-2.6-1-1.2-1.7-1.1-1.5-.1-1.4.9-.8,1.4-.6,2.4-.6,2-.8,2.4-2.2,2.1-2.3,1.7-3.4.2-.2-2.3.3-1.5-.7-1.2-1.5-.8-3.2-2.9-2.9-1.5-2.9-1-.3-1.6a27.3,27.3,0,0,1,2.7-.5c1.1-.2,2.6-.5,3.7-.8.9-.3,2-.8,2.8-1.1,1.2-.4,2.8-.7,3.9-1.1a9.2,9.2,0,0,0,2.8-1.4,13.32,13.32,0,0,0,2.3-2.5,16.1,16.1,0,0,0,1.1-3.1,16.35,16.35,0,0,1,.8-2,1.93,1.93,0,0,1,.8-.8,2.23,2.23,0,0,1,1.4,0c.7.2,1.5.9,2.3,1.1a6.78,6.78,0,0,0,2,.3,5,5,0,0,0,1.7-.3,9.08,9.08,0,0,0,1.4-.6,6.68,6.68,0,0,1,1.4-.8,10.55,10.55,0,0,1,2.5-.3,5,5,0,0,1,1.7.3,5.68,5.68,0,0,1,2,1.1,8,8,0,0,1,1.1,2,16.35,16.35,0,0,1,.8,2c.2.4.4,1,.6,1.4a13.6,13.6,0,0,1,.3,2,7.82,7.82,0,0,0,.6,2,3.77,3.77,0,0,0,1.1,1.4c.7.5,2.1.6,2.8,1.1.3.3.4,1,.8,1.1a2.9,2.9,0,0,0,2.5-.6c.5-.3.8-1.2,1.1-1.7a7.14,7.14,0,0,1,1.4-2,7,7,0,0,1,2.5,0c1,0,2.4.2,3.4.3a19.36,19.36,0,0,1,3.4.3,9.08,9.08,0,0,0,1.7.8,17.87,17.87,0,0,0,2.3.3,22.85,22.85,0,0,0,3.7,0,10.12,10.12,0,0,0,2.3-.6,7.46,7.46,0,0,0,1.4-1.1,13.55,13.55,0,0,0,1.4-1.1c.4-.4.7-1.1,1.1-1.4a2.35,2.35,0,0,1,1.1-.3,6.68,6.68,0,0,1,1.4.8c.4.2.7.7,1.1.8a8.77,8.77,0,0,0,2.8,0c.3,0,.8.2,1.1,0a4.68,4.68,0,0,0,.8-1.4,5.1,5.1,0,0,0,.8-1.7,13.35,13.35,0,0,0,0-2c0-.2-.1-.4,0-.6a3.3,3.3,0,0,1,1.4-1.7c.4-.2,1,.1,1.4,0a10.12,10.12,0,0,0,2.3-.6l.6-.3a25.9,25.9,0,0,0,2.5-2.3,7.46,7.46,0,0,1,1.4-1.1c.7-.3,1.8.1,2.5,0a4.17,4.17,0,0,0,1.1-.3c.7-.3,1.6-.8,2.3-1.1.5-.3,1.3-.4,1.7-.8.2-.3.1-.8.3-1.1.6-1.1,2.1-2,3.1-2.8.5-.4,1.2-.7,1.7-1.1s.6-1.2,1.1-1.4a2,2,0,0,1,1.7.3c.3.2.3.8.6,1.1a5.58,5.58,0,0,0,2,1.4c.3.1.8.2,1.1.3h1.1c.9-.1,2.2-.5,3.1-.6a6.7,6.7,0,0,1,2,0c.5.1,1.2.5,1.7.6.8.1,1.8-.1,2.5,0a4.62,4.62,0,0,1,2.3.6,2.43,2.43,0,0,1,.8,1.4c.3.8-.1,2,.3,2.8.5,1,1.8,1.8,2.5,2.5.9.9,1.4,2.8,3.1,3.1s1.4,1,2,1.4c1,.6,2.3,2,3.4,2s2.6.5,3.7.6,2.4,0,3.4,0,2.4.6,3.1,0c.3-.2.1-.8.3-1.1a4.62,4.62,0,0,1,1.7-1.7,2.05,2.05,0,0,1,1.1,0A1.87,1.87,0,0,1,581.86,89.83Z" style="fill:#e5bf77;stroke:#000"/><path id="JU" d="M344.46,135.43a38.76,38.76,0,0,0-5.9.2c-1.1.1-2.5.2-3.6.4a16.63,16.63,0,0,0-2.2.6c-.7.2-1.7.4-2.4.6a27.31,27.31,0,0,0-2.6,1,8.3,8.3,0,0,0-2,1.2,10.29,10.29,0,0,0-1.3,1.5l-3.3-1.9-1.7-2.3-4.2.4-4.2-1.9-4-1.3-1.3-1.1v-4.2l1.5-3.4,2.1-3.2v-3.4l-3.2,1.3-3.4-1.1-1.7-2.1-3.2-2.3h-3l-3.6,1.5-4,1.9-5.9-1.3-5.3-1.3-3.6-1.7-5.3.4-2.1,1.3-1.1,1.9-.6,2.7,2.5,4,1.5,3.8-1.1,2.1-3,.8-3.6,2.5-1.9,1.7-2.5.6-1.3,1.9-1.1,4.7-1.7.8-2.5,2.1-.6,4-2.7,2.5-1.3,3.2.8,4,9.3.4,4,.2,3.8-1.5,3.2-1.5,4.7-1.3,4.7.4,1.9,1.7,2.3,2.3,2.5,4.7-1.5,1.7-.2,2.1-1.3,2.1-4.4,1.1-2.3,2.1-1.3,3-.5,2.7c-.4.2-2,1.2-2.5,1.5a6,6,0,0,1-2.2.8,20.85,20.85,0,0,0-2.5,0,11.75,11.75,0,0,0-2.2,1.7,5.1,5.1,0,0,1-1.7.8c-.8.2-2.1-.2-2.8.3-.2.2-.2.6-.3.8a2.05,2.05,0,0,0,0,1.1c.2.5,1.2.8,1.4,1.4.5,1.2.1,2.9,0,4.2,0,1-.3,2.3-.3,3.3,0,.7.3,1.5.3,2.2a3.43,3.43,0,0,1-.3,1.7c-.4.6-1.4.9-1.9,1.4s-1.1,1.4-1.7,1.9a50.41,50.41,0,0,1-4.4,3.6c-1.2.9-3,1.8-4.2,2.8a22.39,22.39,0,0,0-3.3,4.2c-.5.7-.9,1.8-1.4,2.5a13.47,13.47,0,0,1-2.2,3,6.5,6.5,0,0,1-2.2,1.1c-.5.1-1.2-.2-1.7,0s-1.4.8-1.4,1.4.8,1.3,1.4,1.4c.4.1,1-.8,1.4-.6s.2,1.2.3,1.7a4.85,4.85,0,0,1,0,1.7l4.6-.1,2.5,2.7,5.8-.7,3.3-2.1,4.8-4.2,2.7-2.6,5.9.6,3.1-.3,1.6-2.5.3-2.5,5.9-.9,3.7-5,3.1-6.9.6-3.4,7.5,1.6,13.1-.9-1.2-6.5,3.7-2.2-.3-4.4,1.6-3.4,3.7-.6h4.1l3.1,3.4,5.9,1.2,7.2-.3,6.2-1.2,5.3-2.8,5.3-4.4,3.7-5,1.6.6.9,5,4.4-.3,9,.9,5.3.6,6.2,2.2,3.4-2.5,3.1-3.7h6.5l2.2.3.3-2.8-6.8.1-.7-1.6-1.5-3.6-.4-3V159l-4.4-.5-5.5,1.4-6.2-1.4-2.9-4.8-1.8.3-2.9-.5-1.6-2.4-5.2-4.7-1.1-1.9-.4-2.1-5.6-.5-4.1-3.8Z" style="fill:#aeeacb;stroke:#000"/><g id="International_borders" data-name="International borders"><path id="path3629" d="M838.36,114.13l-7.9-15-61.2-35-14.4-.3-4.5.1L747,63l-2.8-.9-.6-1.6-2.1-.7-7-3.3-16.1-2.3-5.8,2.1-15.7,8.3" style="fill:none;stroke:#000;stroke-miterlimit:10"/><path id="path3642" d="M717,602.83l-.3-5.2" style="fill:none;stroke:#000;stroke-miterlimit:10"/><path id="path3640" d="M716.66,597.63l-1.1-1.3-1.3-2.5.2-4.2,1.7-4.4,2.3-1.5,4-1.5,4.2-1.5,1.9-1.3,1.5-2.3.8-3.2-.2-3.4-1.7-3.6-.6-2.5,1.5-3.6,6.1-2.5,4.2-4,2.5-2.5,1.9-.8,2.1-3.6,2.1-1.1,5.1-.8.2-2.7.6-3.4,2.3-4,1.5-1.3,1.9-3,.4-2.3,3.2-2.5,2.1-1.1.2-2.3.4-7.2,4-4.9,4-8.2,2.5-5.1-.4-6.6-1.9-3.4-.6-5.9v-9.1l-7.4-6.6-.2-4.9,2.3-2.1,3.4-2.1,1.1-2.3-.6-5.3-.2-3.6,3.2-3.4,4.7-1.9,5.1-.8,6.1-.8,3.6,1.3.2,3v2.7l3.8,3.2,1.7,1.9,2.7.6.4-1.1,1.7-2.5.4-3.2,2.7-3.2,1.7-1.5,4.9.4,1.9,2.5.2,3.6-1.1,5.7-1.7,4.4-.4,3.4v4.7l1.1,3.6,2.7,5.7-.4,4.9-.8,3,3.4,1.9,3.6,2.3,2.7,1.9,1.7,4.9.8,2.7,2.7,3.8,3.2,3.2,6.1,3,3.4,1.9,4.9.2,2.5.8,3.2-.4,4.7-1.3,4.4-1.7,4,.8,1.5.6,1.9-1.5,1.1-3-.2-3.2.4-5.9,1.5-2.3,3.4-2.1,3.4,2.1,4.7,2.3,2.3-.4,2.3-1.5,2.5-1.7,1.7-3.2,4-1.3h6.3l2.5-1.1,1.9-1.1,3-1.5,3.4-.8,3.6.8,2.7-1.5,2.5-1.3,2.1,1.9,1.9,2.7,1.9,2.7,3.8,3.6.4,4.7-1.5.6.2,4.2,1.5,1.9v3.2l-.4,4.2,1.7,1.1,5.5,2.3,4.7,3.2,1.1,3.8-.6,5.3-.2,3.8,2.1,1.5,1.3,1.5,1.1-1.3,1.7-2.3,3.4-.2,3.8,1.1,3.4.2,1.9-.4,4.4-5.7,3.6-3.8-2.1-3.8-1.9-3.4-3-3.8-2.5-2.1-3-4-2.1-4.4-.6-3.4,1.3-4,1.1-4,.8-3.6.1-.6,1.8-1.6,2.8-1.2,3.9-3,.6-1.3-.4-2.1-2.7-3-1-2.2-.7-1.9s-2.4.9-3.4,1.3a17.92,17.92,0,0,1-2.8.7l-4,.4-2.2.3-2.8-1.3-1.9-.4-1.8-3.4-2.2-3.3.3-4.3.7-2.4-.7-2.4-.7-5.8,1.8-3.4.9-1.6.3-3.7v-4.6l.6-2.7,4.6-4.8.9-3.1,2.2-1.9,3-1.3-.7-4.8,1.5-3.3,3.3-.6,2.7.6,1-.6,3.9-1.2,1.6-1.6,2.5-.7.9-2.1,3.3-.9,2.2.1,2.5,1H985l.9-1.6v-1l.9-1.9,2.7.1.4,1.3,1,2.8,2.1,2.7.4,1.6.1,3.4-2.4,1.9-.3,2.7,1.8,1.6,1.6.6,4.2.3,2.8,1.6,1.3,3,1.2,2.2.6,1.9,7.5-.1,2.8-1,6.1.3,2.8.9,5.2-.4,3.6.9,1.9,1.2,2.7.3,2.7-3.7,1-3.7,1.6-3.4.9-5.2-.1-6.9-3.3-3.6-1.9-2.4-4.6-1.8-4.8,1.2-2.8.4-1.8-1.2-.9-3.1-1.5-5.7-1.2-1.6-.4-6.3,1.3-1.6,6.6-6.3-.7-2.2-1.8-1.3-.9-2.2.6-1.6,2.5-2.2,3.9-2.4,3-1.6.1-1.5-1.9-3.1-1.6-2.4-.6-3.4.4-2.2,1.8-1.6,2.2-1.5,1.6-2.2-.1-2.5,1-3,1.8-3.1.9-3.9.3-2.4-.6-1.9.4-3.3-1.1-2.5a8.91,8.91,0,0,0,.3-2.3c.2-1,.5-2.4.8-3.4s.8-2,1.1-2.8a12.22,12.22,0,0,1,1.4-2.8c.4-.5,1.3-.9,1.7-1.4a4.58,4.58,0,0,0,.7-1.5l-.2-.2s-.4-2-.6-2.8a9.71,9.71,0,0,0-.6-2.5,8.24,8.24,0,0,0-2-2.5,6.81,6.81,0,0,0-2.3-1.4c-1.2-.4-3.1.2-4.2-.3-1.3-.5-2.1-2.6-3.4-3.1-.6-.2-1.6,0-2.1-.3l-.1-4.2-5.7-6.3-2.1-.6-4.5,1.2-4.2,1.8-.9,4.8-1.8,4.8-2.4,3.6-2.1.3.6,2.7-.3,3.6-3,2.1h-5.1l-3.3-.6-2.4-1.5-2.1,2.1-.6,3.9-1.5,3-.3,10.5-7.2-.3-3.9,2.1-4.2,3.9-5.1,2.1-11.4-.6-2.4-4.2-4.5.3-2.4-2.7-3-6-6-3.6-3.9-.6-4.2-4.5-7.5.9-3.6-2.1-6-3.9-4.2-2.1-1.5-1.5.3-2.1-.3-4.5-.9-2.4,1.8-6.3,1.8-2.4-.9-3.3-1.5-2.7-.6-3.3-6.3,3-3.6-.9-3.9-1.8L889,270l-5.4-2.7-5.4-.6-7.2-1.2-5.7-3.3-8.1-1.8-3.4,1.3-3.7-.4-3.7-.9-1.6.7-1.3,1.2-3.7,1.2-2.8-.3-.9-1.8-2.7-1.9-3.7-.1-1.2,1.9-1.2,1.3-3.6.1-2.7-1.3c-.5-.7-1.8-.9-2.1-1.7a3.5,3.5,0,0,1,.4-2.2c.5-.7,1.7-.8,2.3-1.4.8-.8,1.3-2.2,2-3.1a18.85,18.85,0,0,0,2.5-3.1,14.23,14.23,0,0,0,.8-2.8c.2-.8.5-1.8.6-2.5a10.73,10.73,0,0,0,0-3.1,25.52,25.52,0,0,0-1.4-3.9c-.3-.9-.8-2-1.1-2.8-.4-1.2-.9-2.8-1.4-3.9s-1.3-2.5-1.7-3.7a13.6,13.6,0,0,1-.3-2c-.2-1-.6-2.4-.8-3.4-.2-.8-.4-2-.6-2.8-.2-1-.4-2.4-.6-3.4a22.89,22.89,0,0,1-.3-3.7,7.82,7.82,0,0,1,.6-2,19.91,19.91,0,0,1,2.3-2.8c.6-.8,1.4-2,2-2.8.8-1.2,2-2.7,2.8-3.9a19.45,19.45,0,0,0,2-3.7,21.05,21.05,0,0,0,.3-2.5,10.78,10.78,0,0,1,.3-3.1,7,7,0,0,1,2-2.5,11.92,11.92,0,0,1,2-.8,9.48,9.48,0,0,0,2-2,15.45,15.45,0,0,0,1.1-3.7,13.94,13.94,0,0,1,.6-2,5.74,5.74,0,0,1,1.4-1.7c.4-.3,1.2-.3,1.7-.6a10.1,10.1,0,0,0,3.1-3.4c.6-1,.9-2.6,1.4-3.7s1.4-2.3,2-3.4,1.1-2.8,1.7-3.9c.5-.9,1.4-1.9,2-2.8a20.34,20.34,0,0,0,1.1-2c.4-.7.4-1.9,1.1-2.3.4-.2,1,.2,1.4.3a19.3,19.3,0,0,0,3.4,0,6.78,6.78,0,0,0,2-.3c.7-.3,1.9-.7,2.3-1.4.3-.5-.1-1.4-.3-2a3.79,3.79,0,0,0-.6-1.1,12.07,12.07,0,0,0-2-2.5c-.2-.2-.7-.3-.8-.6a3.41,3.41,0,0,1,0-2c.1-.8.5-1.8.6-2.5a17,17,0,0,0-.3-4.5c-.3-1.6-1.8-3.5-1.7-5.1.1-1,1.5-2.1,1.4-3.1,0-.5-.6-1-.8-1.4a7.46,7.46,0,0,0-1.1-1.4c-.7-.4-2-.2-2.8-.6a12.78,12.78,0,0,1-2.3-1.7c-.4-.3-.9-1-1.4-1.1a1.9,1.9,0,0,0-.8.3,9.08,9.08,0,0,1-1.4.6h-.3c-.4,0-1,.2-1.4,0-.6-.3-1-1.4-1.4-2a6.68,6.68,0,0,0-.6-.8c-.5-.9-1.1-2.2-1.7-3.1a18.88,18.88,0,0,0-2-2,16.19,16.19,0,0,1-1.7-2,5.05,5.05,0,0,1-.5-1.9" style="fill:none;stroke:#000;stroke-miterlimit:10"/><path id="path3649" d="M694.66,628.83l1.3,1.6v2.1l1.7,4.4,3,4.9-.4,2.7-2.7,2.5-2.5,4v2.1l1.5.2,2.5-2.5,3.4.2,2.5,2.5,3,.6,3.2-.2,1.9.8.4,3.2,2.7.8,3.8-1.9.8-5.1.6-3,1.7-3.6,1.1-4.2,3.2-2.1,2.1-2.3.8-3-.8-.6s-2.3-3-3.2-4a20.81,20.81,0,0,0-3.4-2.5h-4.5l-2.1-1.7-.6-2.3.4-3.2-1.5-2.5-1.7-2.1-1.3-3.6-.4-1.7,1.5-1.9,1.9-1.9,2.3-.6.1-2.2" style="fill:none;stroke:#000;stroke-miterlimit:10"/><path id="path3655" d="M687.16,613.13l2.3,1.3.4,2.9.4,5.4,2.7,3.9,1.7,2.2" style="fill:none;stroke:#000;stroke-miterlimit:10"/><path id="path3660" d="M658.56,566.43l3.1,1.6,3,2.5,1.6-.9,2.2-1.9,1-1.2,1.5.4,5.1,5.2,3.6,4.3,2.1,3,.3,3.1-1.9,2.1-1.6,1.2-.8.2-.2,1.6-.5,3.6-1.6,1.4-4,2.5-2.5,2.2-1,2.6,1.3,2.7h1.4l2.7.4,3.7,1.4,2.4,2.6,3.1,2.6,2.4,2.6,2.2.5" style="fill:none;stroke:#000;stroke-miterlimit:10"/><path id="path3665" d="M646.46,567.63l2.9,1.3,5.7-4.9,3.5,2.4" style="fill:none;stroke:#000;stroke-miterlimit:10"/><path id="path3670" d="M222.46,474.33l.8,5.5-1.5,2.5-2.3,2.3-4,1.3.8,2.1,2.5,3.2,1.7,3.6,1.3,1.9,1.7.4,3.6,2.5,1.5,2.1,1.5,1.9,3,.8,1.9,2.7v5.1l-.8,4.7-2.7,4.7-4.2,5.7-3,5.9.6,5.3.4,5.7-3.6,2.1-3,4.2-.8,2.3,2.1,1.7,2.3,2.7,5.7-.2,3-.4,3-.4,4.2,1.7,5.1,1.3,1.7,3-1.5,2.5.6,6.1-.4,3.2-2.1,1.7-.6,4.7.2,3,2.5-.4,1.5-1.7,1.5-3,.6-1.5,3.6-.2,1.9.6,1.9,3.8,1.9.6,2.7,4,3.6,5.9,4.7,5.7,3.4,6.1,1.1,4.4-1.5,4,3.4.8,3.4.8.4,4.9v4.7l2.7,3s3.4,4.9,4.4,6.1a21.49,21.49,0,0,1,2.3,4l2.3,3.8L291,644l.8,1.9,1.7-.2,2.1-4,2.5-2.7,4.9-.4,4.2,3.4,2.3,3,1.9.4V641l.2-2.7,2.5-2.3h2.7l3.8-.4,2.3-.3,3-.6,1.8-1.8,2.4-3.6,1.2-2.7,4.5.6,5.1,1.1,4-.2,4.4,1.7,3.9,1.8,1.8-1.5,1.8-.9,2.7-.6,1.5-3,3.9-1.8,4.8-2.7,2.1-.9-.6-.9,1.5-4.5,2.1-.3,2.1-1.5,2.1-.9,3.6-.6h2.7l2.7-1.8-.6-2.4,1.8-3.6,1.6-.4,1.9-.8,3.2,1.5,3.4,3.8,3.8.6,6.1-1.1,5.1.6,3,1.9,1.5,1.9,3,2.1,3.4,2.1,1.3,5.3,1.7.8,1.1-.4,4.9-2.3,3.2-.2,4.2,1.3,4.7,4.4,4-2.7,4.4.8,3.8.2,2.7-1.5v-1.1l-.6-7.6,1.3-4.7,4-4.4,4.2-2.7,17.3-1.1,2.7-2.5,2.5-5.3,2.1-4.7,3-2.5-1.9-3.6.2-8,1.3-2.1,3.8-3.6,5.7-3,4.4-.4H515l.6-3,2.1-3.6,3.2-2.7,3-.8.2-1.7-.8-4.7,3.2-3-.6-4-2.3-2.3-1.5-5.1-.4-3.8-3.2-4.4-4-3.4-5.5-2.7.4-3.6,3-2.7,3.6-5.5,3.4-3.4,3.2-1.3,3.8.4,3.8,1.5,4-1.1,4.7-5.9,1.9-3.2v-1.6l1.9-1.5,3.8-1.3,2.3-3.8,3.4-2.1,7.6-3.2,1.7-3.4-1.1-3-3.4-.8-2.5-2.3,1.1-4.2,1.9-2.5,4.4-1.1,4.9-3.4,8.9-4.2,6.1-3,5.1-.8,4.2,1.5,3.4,6.3.4,2.7-.4,5.5v12.5l.6,7.2-.8,5.5-2.7,5.3-3,3.6-.8,4.9,3.6,4.9,1.3,3.8-.4,2.1.8,3,4.7,4,5.9,3.4,5.9,3.2,3.4,5.1,5.7,8.5,3.4,3.2.4,3.8,4.2,4.5,1.9,4,2.4.3,3,.6,2.1,1.8,2.8,1.6,3.9.4,2.2,1.6,1.7.8" style="fill:none;stroke:#000;stroke-miterlimit:10"/><path id="path3714" d="M222.46,474.33l-.8-8.7-33.6-7.4-34.3,1.7-37.2,13.3-17.8,14.6L88.86,507l4.6,5.1h0l1.9,4,3.2,2.3,1.9,1.9h3l1.9-.6.4-1.3h1.3l1.9,1.1.2,1.9.2,2.5-1.5,1.7-1.7,2.5-3,1.5-3.6,1.5-3,1.5-3.4.8-2.1,2.1-3,3.4-2.5,3-3,3.4-2.7,1.9-2.7,1.3-3,1.7-1.9,1.7L70,553l-3.4-.4-3.8-.8-4.7-.2-2.7-.8-1.5.2-1.7,1.5-1.9,3.2-4.2-1.1-4.2-.8-4.2.2.4-2.3,1.5-3.4,1.3-3.2.2-3.6-.6-1.5-1.9-.6-1.9-1.1.6-1.9,2.1-3.4,2.7-.6,1.1-1.5,1.3-1.9,1.5-1.7,1.9-.6,1.5.2,3.2.2,2.1-.2,1.9-1.7s.6-.2,1.9-.6a24.43,24.43,0,0,1,3.8-.6l3.6-1.3,2.3-1.1,1.1-2.1-.2-3.6-1.7-2.1v-3.4l1.5-3,1.3-1.5.6-5.3,2.5-2.3,2.7-4.7,2.5-4,.2-4-1.5-3.4-6.6-6.8-6.8-4.9-4.9-3.2,2.1-3.6.8-4.2-.4-7.4,2.5-4.4,3.6-5.5,3-4.4,2.7-3,3.8-3.2-1.3-5.9-2.1-2.7-5.7-6.3,2.5-3.6,4.9-4.4,10.2-9.3,12.7-11.6,4.2-4.4,4.4-4,5.1-2.1,10.2-6.8,7.4-6.8.6-2.7,1.9-1.1,4.9-1.1,3.6-2.1,3-3.2,3-4.2-1.3-3.2-3.4-1.7-1.5-1.7-.8-2.1,2.1-1.5.4-5.1.2-2.3,2.1-1.9,3.2-3.8.2-6.8.6-6.1-2.5-2.3-2.7-3.8-2.5-3.2,3.8-5.7,5.7-6.3,3.2-3.4,1.7.4,2.7-1.1,4.7-1.7,5.7-2.1,6.1-2.3,2.7-1.5,5.7-.2,1.9-1.3,3-4.7,3-5.9,3.4-1.9,2.5-.2,2.5-1.1.2-1.9-.6-1.9-2.5-.8v-1.9l.8-1.9h3.4l1.1-1.7.8-1.7.4-3,1.1-.8,3.8.2,3.4-.8.8-1.9-1.9-4,.9-.3a13.68,13.68,0,0,0,1.9-1.4c.5-.5.9-1.5,1.4-1.9a4,4,0,0,1,1.4-.8c1.1-.2,2.6.6,3.6.3s2.1-1.6,3-2.2c1.2-.9,3-1.9,4.2-2.8s2.5-2.1,3.6-3c1.8-1.6,4.9-3.3,5.8-5.5a4.85,4.85,0,0,0,0-1.7c0-.5.2-1.4-.3-1.7s-.9.6-1.4.6a1.82,1.82,0,0,1-1.4-1.4c0-.6.8-1.2,1.4-1.4s1.2.1,1.7,0a6.5,6.5,0,0,0,2.2-1.1,13,13,0,0,0,2.2-3c.5-.7.9-1.8,1.4-2.5a26.77,26.77,0,0,1,3.3-4.2,43.78,43.78,0,0,1,4.2-2.8,38.82,38.82,0,0,0,4.4-3.6c.5-.5,1.1-1.4,1.7-1.9s1.6-.8,1.9-1.4a3.22,3.22,0,0,0,.3-1.7c0-.7-.3-1.5-.3-2.2,0-1,.2-2.3.3-3.3.1-1.2.5-3,0-4.2-.2-.5-1.2-.8-1.4-1.4a2.05,2.05,0,0,1,0-1.1c0-.3.1-.7.3-.8.7-.5,2,0,2.8-.3a13.18,13.18,0,0,0,1.7-.8c.7-.4,1.4-1.4,2.2-1.7a20.85,20.85,0,0,1,2.5,0,6,6,0,0,0,2.2-.8c.5-.3,2.1-1.3,2.5-1.5l.5-2.7,1.3-3,2.3-2.1,4.4-1.1,1.3-2.1.2-2.1,1.5-1.7-2.5-4.7-2.3-2.3-1.9-1.7-4.7-.4-4.7,1.3-3.2,1.5-3.8,1.5-4-.2L245,159l-.8-4,1.3-3.2,2.7-2.5.6-4,2.5-2.1,1.7-.8,1.1-4.7,1.3-1.9,2.5-.6,1.9-1.7,3.6-2.5,3-.8,1.1-2.1-1.5-3.8-2.5-4,.6-2.7,1.1-1.9,2.1-1.3,5.3-.4,3.6,1.7,5.3,1.3,5.9,1.3,4-1.9,3.6-1.5h3l3.2,2.3,1.7,2.1,3.4,1.1,3.2-1.3v3.4l-2.1,3.2-1.5,3.4v4.2l1.3,1.1,4,1.3,4.2,1.9,4.2-.4,1.7,2.3,3.3,1.9c.4-.5.9-1.1,1.3-1.5a13.08,13.08,0,0,1,2-1.2,19.93,19.93,0,0,1,2.6-1c.7-.2,1.7-.4,2.4-.6a16.63,16.63,0,0,1,2.2-.6c1.1-.2,2.5-.3,3.6-.4a40.08,40.08,0,0,1,6-.2c1,.1,2.3.8,3.4,1s3,.1,4.2.4a5.12,5.12,0,0,1,1.3.6l3.7-1.9,4-3.4,1.9-4,1.5-1.5,1.6-1.3.5-.6,1.7-1.7-2.5-2.3-2.3-1.5-1.9-.6,2.3-2.7,1.9-.2,1.9,1.1,2.5,2.5a3,3,0,0,0,2.1,1.9c1.5.2,5.1-1.3,5.1-1.3l2.3-2.7,2.3-3.4v-3.8l-1.9-2.3-.6-4.4,2.7-3.6L386,99l3.2-.7L392,98l2.8-1.4,2.9-2.9.7-4.2,3.4-3.7,2.5-1.2,3.1-.3,2.8-1.1,2.1-1.1,2.3-1.7,1.5.2-.2,1.3-1.9,1.9.2,2.3,1.7.6.4.8v1.1l-1.9,1.5-2.1-.2-.6,1.3-.8,2.1-1.6,1.7c.6.6.7,2,1.3,2.8a24.07,24.07,0,0,0,2,2.5,16.19,16.19,0,0,0,1.7,2,12.22,12.22,0,0,0,2.8,1.4,7.18,7.18,0,0,0,2.5.8,13,13,0,0,0,2.8-.8,25,25,0,0,0,3.7-1.1c.6-.3,1.1-.9,1.7-1.1a17.43,17.43,0,0,1,3.1-.8c.8-.2,2-.4,2.8-.6,1.1-.2,2.6-.5,3.7-.8.9-.3,2-.8,2.8-1.1,1.2-.4,2.8-.7,3.9-1.1a9.2,9.2,0,0,0,2.8-1.4,13.32,13.32,0,0,0,2.3-2.5,16.1,16.1,0,0,0,1.1-3.1,16.35,16.35,0,0,1,.8-2,1.93,1.93,0,0,1,.8-.8,2.23,2.23,0,0,1,1.4,0c.7.2,1.5.9,2.3,1.1a6.78,6.78,0,0,0,2,.3,5,5,0,0,0,1.7-.3,9.08,9.08,0,0,0,1.4-.6,6.68,6.68,0,0,1,1.4-.8,10.55,10.55,0,0,1,2.5-.3,5,5,0,0,1,1.7.3,5.68,5.68,0,0,1,2,1.1,8,8,0,0,1,1.1,2,16.35,16.35,0,0,1,.8,2c.2.4.4,1,.6,1.4a13.6,13.6,0,0,1,.3,2,7.82,7.82,0,0,0,.6,2,3.77,3.77,0,0,0,1.1,1.4c.7.5,2.1.6,2.8,1.1.3.3.4,1,.8,1.1a2.9,2.9,0,0,0,2.5-.6c.5-.3.8-1.2,1.1-1.7a7.14,7.14,0,0,1,1.4-2,7,7,0,0,1,2.5,0c1,0,2.4.2,3.4.3a19.36,19.36,0,0,1,3.4.3,9.08,9.08,0,0,0,1.7.8,17.87,17.87,0,0,0,2.3.3,22.85,22.85,0,0,0,3.7,0,10.12,10.12,0,0,0,2.3-.6,7.46,7.46,0,0,0,1.4-1.1,13.55,13.55,0,0,0,1.4-1.1c.4-.4.7-1.1,1.1-1.4a2.35,2.35,0,0,1,1.1-.3,6.68,6.68,0,0,1,1.4.8c.4.2.7.7,1.1.8a8.77,8.77,0,0,0,2.8,0c.3,0,.8.2,1.1,0a4.68,4.68,0,0,0,.8-1.4,5.1,5.1,0,0,0,.8-1.7,13.35,13.35,0,0,0,0-2c0-.2-.1-.4,0-.6a3.3,3.3,0,0,1,1.4-1.7c.4-.2,1,.1,1.4,0a10.12,10.12,0,0,0,2.3-.6l.6-.3a25.9,25.9,0,0,0,2.5-2.3,7.46,7.46,0,0,1,1.4-1.1c.7-.3,1.8.1,2.5,0a4.17,4.17,0,0,0,1.1-.3c.7-.3,1.6-.8,2.3-1.1.5-.3,1.3-.4,1.7-.8.2-.3.1-.8.3-1.1.6-1.1,2.1-2,3.1-2.8.5-.4,1.2-.7,1.7-1.1s.6-1.2,1.1-1.4a2,2,0,0,1,1.7.3c.3.2.3.8.6,1.1a5.49,5.49,0,0,0,2,1.4c.3.1.8.2,1.1.3h1.1c.9-.1,2.2-.5,3.1-.6a6.7,6.7,0,0,1,2,0c.5.1,1.2.5,1.7.6.8.1,1.8-.1,2.5,0a4.62,4.62,0,0,1,2.3.6,2.48,2.48,0,0,1,.8,1.4c.3.8-.1,2,.3,2.8.5,1,1.8,1.8,2.5,2.5.9.9,1.4,2.8,3.1,3.1s1.4,1,2,1.4c1,.6,2.3,2,3.4,2s2.6.5,3.7.6,2.4,0,3.4,0,2.4.6,3.1,0c.3-.2.1-.8.3-1.1a4.62,4.62,0,0,1,1.7-1.7,2.05,2.05,0,0,1,1.1,0,9.08,9.08,0,0,1,1.4.6,9.08,9.08,0,0,0,1.7.8,10.55,10.55,0,0,0,2.5.3,29.45,29.45,0,0,0,4.2-.3c1-.2,2.4-.6,3.4-.8,1.4-.3,3.3-.4,4.5-1.1.5-.3.6-1.2,1.2-1.4l.5-2.3-2.7.4-3-.8-1.1-1.3.6-2.3.4-1.9,1.1-2.3,2.3-1.5,1.9-1.1,2.7-1.5,3.4-1.7,2.7-.2,1.5,1.3,2.1,1.5,1.9.6,2.1,1.1,1.1,1.7.6,1.7-.8,1.5.8,1.3,1.9.8,1.5.2.9.1c.7-.7,1.6-1.4,2.1-2a6.41,6.41,0,0,0,1.1-2,8.82,8.82,0,0,0,.3-2.8,10.55,10.55,0,0,0-.3-2.5c-.1-.4-.5-1-.6-1.4a10.55,10.55,0,0,1-.3-2.5,6.78,6.78,0,0,1,.3-2c.2-.7.1-2.3.8-2.3.5,0,.4,1.2.6,1.7s0,1.1.3,1.4.6.2.8.3a4.17,4.17,0,0,0,1.1.3,3.52,3.52,0,0,0,2-1.4,6.65,6.65,0,0,0,.3-2.8,5.94,5.94,0,0,0-.6-2.3c-.4-.6-1.3-.8-1.7-1.3l-1.4-1.5-.8-.8-1.6-1-1.5-.5-1.1.3-1.5.7-2.7-.1-3.5-.1-1.6.4-.4.8-1.4.7-.9,1-1.6.6-.6,2.1.6.9-.3.4-6.4-.1-3.3.7-.7,1-.4.7-1-.3-.3-1,.3-1.5-.3-2.1-1-.6h-5.6l-1.6-1.5-1.9-1.5-1.8-.4.3-2.4,1.3-2.7.3-1.8-.9-2.8L586,47l2.2-2.1,2.1-1.9,1.8-1.8,1.2-2.1.6-2.2,1-2.4.9-2.2,1.6-2.6,1.6-1.5,1.9-1.5,2.4-1.2,2.7-.6h1.9l1.6-.4,1.8-1.2,1.8-.9,2.7.6,1.9-.1,1.3-1.3-.3-1.9-.6-1.6-1-.9.3-1.9,1.6-.4h2.8l3.4.9,1.6.7,3.3,1.3-.4,1.6-.1,1.5.1,2.1.7,1.7.9,2.4,1.5,1.3,2.1.4.9-1,1.3-2.5-1.2-4.2-.3-2.1.3-1.5,2.1,1.8,1.9,1.8,1.6,1.5,1.2,1.2.4,1.2v1.8l-.3,3,.3,1.2,1.9-.1.7-1,1.9-.9,1.9-.1,2.5,1.2.9,2.7-.9.7-1.6,2.4-.9,2.2.4,2.2,1.9,1.6,1.3,1.9-.3,2.1-1.6.3-1.5-.3-1.2-1.5-1-.7-2.8-.3-2.1.1-1.9.3-.9.9-1,1.5.3,1.6-.4,1.9-.3,1.6.5,1.2c.5.5.5.7.8.7.5.1,1-.6,1.4-.8a9.08,9.08,0,0,0,1.4-.6c.7-.4,1.2-1.5,2-1.7a3.53,3.53,0,0,1,2,.3c.5.2.9.7,1.4.8a6.78,6.78,0,0,0,2-.3,22.89,22.89,0,0,1,3.7-.3,1.9,1.9,0,0,1,.8.3c.6.2,1.4.6,2,.8s1.4.4,2,.6a6.78,6.78,0,0,1,2,.3c.6.3,1.1,1.1,1.7,1.4a19.16,19.16,0,0,0,2.5,1.1,15.69,15.69,0,0,0,3.1.8l.9-1.8.6-1.6,1-1.9.4-1.5-1-1.2-1.5-.9-1.8-.3-1.5-.6-.9-1.2.4-1.2-.1-1.5,1.3-1L667,40l1.2-.7,1-.3,1.5.3.1.7.7,1.6,1,.4,1.8.9,2.5.9,1.2.3,2.4.7,2.1,1.6,1.6.9.4,1.5-.7.6-1.2.3-1.3-.3-1.2,1.2v1.8l1.9,2.2,1.2,2.7.6.9,1.3,1.5.9,1.5.1,1.7c1,.5,2.1,1.5,3.1,2a7.82,7.82,0,0,0,2,.6,8.81,8.81,0,0,0,5.1-1.3" style="fill:none;stroke:#000;stroke-miterlimit:10"/><path id="campione" d="M707,607.93l1.1,1.1,1.1-.2.8-1.1.8-1.3-.2-1.6-.8-.3-1.7,1.7-1.1,1.7" style="fill:none;stroke:#000;stroke-miterlimit:10"/></g><path d="M400,331.62h3.66a3.07,3.07,0,0,1,3.34,2.77,2.72,2.72,0,0,1,0,.57c0,1.8-.86,2.6-1.64,2.88a3.21,3.21,0,0,1,2.08,3.38,3.66,3.66,0,0,1-3.3,4,3.75,3.75,0,0,1-.58,0H400Zm3.14,5.62c1.66,0,2.24-.72,2.24-2.14a1.88,1.88,0,0,0-1.63-2.1,1.69,1.69,0,0,0-.45,0h-1.66v4.24Zm-1.5,6.6h1.76c1.52,0,2.36-.9,2.36-2.62a2.31,2.31,0,0,0-2-2.62,2.51,2.51,0,0,0-.67,0h-1.48Z"/><path d="M415.49,338.79H411v5h5l-.22,1.46h-6.41V331.62h6.36v1.48H411v4.2h4.5Z"/><path d="M616.78,136.22l5.68-10.9h-5.24v-1.48h7.08v1.36l-5.56,10.74h5.72l-.24,1.48h-7.44Z"/><path d="M625.92,123.84h1.66v5.66h4.2v-5.66h1.66v13.58h-1.66V131h-4.2v6.44h-1.66Z"/><path d="M501.27,249.51h1.66v12.12h4.82l-.22,1.46h-6.26Z"/><path d="M510.36,249.51V259c0,1.42.4,2.86,2.14,2.86s2.14-1.2,2.14-2.86v-9.5h1.72V259c0,2.46-.9,4.28-3.84,4.28s-3.78-1.7-3.78-4.22v-9.58Z"/><path d="M617.74,344.73v9.5c0,1.42.4,2.86,2.14,2.86s2.14-1.2,2.14-2.86v-9.5h1.66v9.52c0,2.46-.9,4.28-3.84,4.28s-3.78-1.7-3.78-4.22v-9.58Z"/><path d="M627.86,352.17v6.16H626.2v-13.6h3.66a3.21,3.21,0,0,1,3.54,2.84,2.73,2.73,0,0,1,0,.7c0,2-1,2.88-1.8,3.16,1.22.46,1.62,1.54,1.62,3.46v.54a14.64,14.64,0,0,0,.2,2.88h-1.66a13.58,13.58,0,0,1-.2-2.92v-.46c0-1.92-.4-2.78-2.18-2.78Zm0-1.4h1.62c1.62,0,2.22-.88,2.22-2.42,0-1.32-.6-2.2-2.06-2.2h-1.78Z"/><path d="M648.62,259.47c.12,1.36.74,2.44,2.18,2.44s2.06-.76,2.06-2.22-.58-2.12-2.4-3c-2.16-1-3.1-2-3.1-3.94a3.24,3.24,0,0,1,3-3.43h.46c2.7,0,3.42,1.92,3.46,3.54h-1.64c-.08-.68-.28-2.16-1.88-2.16a1.67,1.67,0,0,0-1.77,1.56,1.71,1.71,0,0,0,0,.32c0,1.24.54,1.84,2.22,2.62,2.38,1.14,3.3,2.26,3.3,4.34a3.46,3.46,0,0,1-3.17,3.74,3.31,3.31,0,0,1-.63,0c-2.8,0-3.7-1.82-3.8-3.82Z"/><path d="M655.6,261.89l5.68-10.9H656v-1.48h7.08v1.36l-5.56,10.74h5.72l-.24,1.48H655.6Z"/><path d="M531.73,327.16c0,4.68-1.14,7.1-4.12,7.1-2.82,0-4-2.34-4-7.08s1.42-6.9,4.12-6.9S531.73,322.54,531.73,327.16Zm-6.44,0c0,3.74.74,5.7,2.36,5.7S530,331,530,327.18s-.72-5.42-2.36-5.42-2.36,1.82-2.36,5.38Z"/><path d="M535.49,334.06l-2.66-13.58h1.78c.82,4.52,1.64,9.26,1.82,11.26h0c.28-2,1.6-8.08,2.22-11.26h1.58c.6,3,1.92,9.26,2.16,11.18h0c.28-2.46,1.48-8.18,2-11.18h1.66l-2.86,13.58h-1.74c-.6-3-1.8-8.78-2.1-10.92h0c-.34,2.28-1.56,8-2.18,10.92Z"/><path d="M568.59,302.94V289.36h2c3.58,9,4.1,10.34,4.28,11h0c-.1-1.8-.12-3.84-.12-6v-4.92h1.61V303h-2c-3.7-9.52-4.2-10.8-4.36-11.34h0c.1,1.68.12,3.86.12,6.3v5Z"/><path d="M580.59,302.94l-2.66-13.58h1.78c.82,4.52,1.64,9.26,1.82,11.26h0c.28-2,1.6-8.08,2.22-11.26h1.61c.6,3,1.92,9.26,2.16,11.18h0c.28-2.46,1.48-8.18,2-11.18h1.66l-2.82,13.58h-1.74c-.6-3-1.8-8.78-2.1-10.92h0c-.34,2.28-1.56,8-2.18,10.92Z"/><path d="M723,291.13h-1.3a8.17,8.17,0,0,1-.1-1.4,2.7,2.7,0,0,1-2.72,1.6c-2.92,0-3.74-2.92-3.74-7,0-4.72,1.48-7,4.28-7,3.34,0,3.54,2.94,3.58,3.76h-1.63a2.06,2.06,0,0,0-2-2.3c-1.86,0-2.48,2.22-2.48,5.54s.48,5.56,2.34,5.56,2.14-1.44,2.14-4.12v-.68H719.1v-1.46H723Z"/><path d="M725.36,277.55H727v12.12h4.82l-.22,1.46h-6.26Z"/><path d="M598.77,236l5.68-10.9h-5.24v-1.48h7.08v1.36l-5.56,10.74h5.72l-.24,1.48h-7.44Z"/><path d="M615.09,237.15h-1.3a8.17,8.17,0,0,1-.1-1.4,2.68,2.68,0,0,1-2.72,1.6c-2.92,0-3.74-2.92-3.74-7,0-4.72,1.48-7,4.28-7,3.34,0,3.54,2.94,3.58,3.76h-1.66a2.06,2.06,0,0,0-2-2.3c-1.86,0-2.48,2.22-2.48,5.54s.48,5.56,2.34,5.56,2.14-1.44,2.14-4.12v-.68h-2.26v-1.46h3.9Z"/><path d="M283.13,374.73h6.38v1.48h-4.72v4.34h4.44V382h-4.44v6.3h-1.66Z"/><path d="M292.79,382.15v6.16h-1.66V374.73h3.66a3.21,3.21,0,0,1,3.54,2.84,2.73,2.73,0,0,1,0,.7c0,2-1,2.88-1.8,3.16,1.22.46,1.62,1.54,1.62,3.46v.54a14.64,14.64,0,0,0,.2,2.88h-1.66a13.58,13.58,0,0,1-.2-2.92v-.46c0-1.92-.4-2.78-2.18-2.78Zm0-1.4h1.57c1.62,0,2.22-.88,2.22-2.42,0-1.32-.6-2.2-2.06-2.2h-1.78Z"/><path d="M403.15,176.17c.12,1.36.74,2.44,2.18,2.44s2.06-.76,2.06-2.22-.58-2.12-2.4-3c-2.16-1-3.1-2-3.1-3.94a3.24,3.24,0,0,1,3-3.43h.46c2.7,0,3.42,1.92,3.46,3.54h-1.64c-.08-.68-.28-2.16-1.88-2.16a1.67,1.67,0,0,0-1.77,1.56,1.71,1.71,0,0,0,0,.32c0,1.24.54,1.84,2.22,2.62,2.38,1.14,3.3,2.26,3.3,4.34a3.47,3.47,0,0,1-3.17,3.75,4.42,4.42,0,0,1-.63,0c-2.8,0-3.7-1.82-3.8-3.82Z"/><path d="M418.69,172.89c0,4.68-1.14,7.1-4.12,7.1-2.82,0-4-2.34-4-7.08s1.42-6.9,4.12-6.9S418.69,168.26,418.69,172.89Zm-6.44,0c0,3.74.74,5.7,2.36,5.7s2.36-1.88,2.36-5.68-.72-5.42-2.36-5.42-2.36,1.81-2.36,5.38Z"/><path d="M400.36,64.53H404a3.07,3.07,0,0,1,3.34,2.77,2.71,2.71,0,0,1,0,.57c0,1.8-.86,2.6-1.64,2.88a3.23,3.23,0,0,1,2.08,3.38,3.66,3.66,0,0,1-3.3,4,3.75,3.75,0,0,1-.58,0h-3.56Zm3.14,5.62c1.66,0,2.24-.72,2.24-2.14a1.88,1.88,0,0,0-1.63-2.1,1.69,1.69,0,0,0-.45,0H402v4.24Zm-1.5,6.6h1.76c1.52,0,2.36-.9,2.36-2.62a2.31,2.31,0,0,0-2-2.62,2.51,2.51,0,0,0-.67,0H402Z"/><path d="M410.71,74.49c.12,1.36.74,2.44,2.18,2.44s2.06-.76,2.06-2.22-.58-2.12-2.4-3c-2.16-1-3.1-2-3.1-3.94a3.24,3.24,0,0,1,3-3.43H413c2.7,0,3.42,1.92,3.46,3.54h-1.64c-.08-.68-.28-2.16-1.88-2.16a1.67,1.67,0,0,0-1.77,1.56,1.71,1.71,0,0,0,0,.32c0,1.24.54,1.84,2.22,2.62,2.38,1.14,3.3,2.26,3.3,4.34a3.47,3.47,0,0,1-3.17,3.75,4.42,4.42,0,0,1-.63,0c-2.8,0-3.7-1.82-3.8-3.82Z"/><path d="M432.25,130.26h3.66a3.07,3.07,0,0,1,3.34,2.77,2.71,2.71,0,0,1,0,.57c0,1.8-.86,2.6-1.64,2.88a3.21,3.21,0,0,1,2.08,3.38,3.66,3.66,0,0,1-3.3,4,3.75,3.75,0,0,1-.58,0h-3.56Zm3.14,5.62c1.66,0,2.24-.72,2.24-2.14a1.88,1.88,0,0,0-1.63-2.1,1.69,1.69,0,0,0-.45,0h-1.66v4.24Zm-1.5,6.6h1.76c1.52,0,2.36-.9,2.36-2.62a2.31,2.31,0,0,0-2-2.62,2.51,2.51,0,0,0-.67,0h-1.48Z"/><path d="M441.57,130.26h1.66v12.12h4.82l-.22,1.46h-6.26Z"/><path d="M603.73,45.66c.12,1.36.74,2.44,2.18,2.44s2.06-.76,2.06-2.22-.58-2.12-2.4-3c-2.16-1-3.1-2-3.1-3.94a3.24,3.24,0,0,1,3-3.43H606c2.7,0,3.42,1.92,3.46,3.54h-1.64c-.08-.68-.28-2.16-1.88-2.16a1.68,1.68,0,0,0-1.77,1.57,2.26,2.26,0,0,0,0,.26c0,1.24.54,1.84,2.22,2.62,2.38,1.14,3.3,2.26,3.3,4.34a3.47,3.47,0,0,1-3.17,3.75,4.42,4.42,0,0,1-.63,0c-2.8,0-3.7-1.82-3.8-3.82Z"/><path d="M611.57,35.73h1.66v5.66h4.2V35.73h1.66V49.28h-1.66V42.84h-4.2v6.44h-1.66Z"/><path d="M760.84,162.61l-.94,4.14h-1.66l3.26-13.58h2.16L767,166.73h-1.78l-.94-4.14Zm3.12-1.48c-.74-3.18-1.22-5.26-1.42-6.38h0c-.18,1.18-.72,3.56-1.34,6.38Z"/><path d="M770.1,160.59v6.14h-1.66V153.17h3.66a3.21,3.21,0,0,1,3.54,2.84,2.73,2.73,0,0,1,0,.7c0,2-1,2.88-1.8,3.16,1.22.46,1.62,1.54,1.62,3.46v.54a15.45,15.45,0,0,0,.2,2.88H774a13.58,13.58,0,0,1-.2-2.92v-.46c0-1.92-.4-2.78-2.18-2.78Zm0-1.4h1.62c1.62,0,2.22-.88,2.22-2.42,0-1.32-.6-2.2-2.06-2.2H770.1Z"/><path d="M788.81,179.5l-.94,4.14h-1.66l3.26-13.58h2.16L795,183.64h-1.78l-.94-4.14Zm3.12-1.48c-.74-3.18-1.22-5.26-1.42-6.38h0c-.18,1.18-.72,3.56-1.34,6.38Z"/><path d="M798.07,170.06v13.58h-1.66V170.06Z"/><path d="M741.36,216.26c.12,1.36.74,2.44,2.18,2.44s2.06-.76,2.06-2.22-.58-2.12-2.4-3c-2.16-1-3.1-2-3.1-3.94a3.24,3.24,0,0,1,3-3.43h.46c2.7,0,3.42,1.92,3.46,3.54h-1.64c-.08-.68-.28-2.16-1.88-2.16a1.67,1.67,0,0,0-1.77,1.56,1.71,1.71,0,0,0,0,.32c0,1.24.54,1.84,2.22,2.62,2.38,1.14,3.3,2.26,3.3,4.34a3.47,3.47,0,0,1-3.17,3.75,4.42,4.42,0,0,1-.63,0c-2.8,0-3.7-1.82-3.8-3.82Z"/><path d="M756.61,219.88h-1.25a8.17,8.17,0,0,1-.1-1.4,2.68,2.68,0,0,1-2.72,1.6c-2.92,0-3.74-2.92-3.74-7,0-4.72,1.48-7,4.28-7,3.34,0,3.54,2.94,3.58,3.76H755a2.06,2.06,0,0,0-2-2.3c-1.86,0-2.48,2.22-2.48,5.54s.48,5.56,2.34,5.56,2.14-1.44,2.14-4.12v-.68h-2.26v-1.46h3.9Z"/><path d="M848.54,392.18h-1.3a8.17,8.17,0,0,1-.1-1.4,2.68,2.68,0,0,1-2.72,1.6c-2.92,0-3.74-2.92-3.74-7,0-4.72,1.48-7,4.28-7,3.34,0,3.54,2.94,3.58,3.76h-1.66a2.06,2.06,0,0,0-2-2.3c-1.86,0-2.48,2.22-2.48,5.54s.48,5.56,2.34,5.56,2.14-1.44,2.14-4.12v-.68h-2.26v-1.41h3.9Z"/><path d="M852.54,386v6.16h-1.66V378.59h3.66a3.21,3.21,0,0,1,3.54,2.84,2.73,2.73,0,0,1,0,.7c0,2-1,2.88-1.8,3.16,1.22.46,1.62,1.54,1.62,3.46v.54a14.64,14.64,0,0,0,.2,2.88h-1.66a13.58,13.58,0,0,1-.2-2.92v-.46c0-1.92-.4-2.78-2.18-2.78Zm0-1.4h1.62c1.62,0,2.22-.88,2.22-2.42,0-1.32-.6-2.2-2.06-2.2h-1.78Z"/><path d="M520.06,131.41l-.94,4.14h-1.66L520.72,122h2.16l3.34,13.58h-1.78l-.94-4.14Zm3.12-1.48c-.74-3.18-1.22-5.26-1.42-6.38h0c-.18,1.18-.72,3.56-1.34,6.38Z"/><path d="M535.06,135.55h-1.3a8.17,8.17,0,0,1-.1-1.4,2.68,2.68,0,0,1-2.72,1.6c-2.92,0-3.74-2.92-3.74-7,0-4.72,1.48-7,4.28-7,3.34,0,3.54,2.94,3.58,3.76h-1.7a2.06,2.06,0,0,0-2-2.3c-1.86,0-2.48,2.22-2.48,5.54s.48,5.56,2.34,5.56,2.14-1.44,2.14-4.12v-.68h-2.2v-1.46h3.9Z"/><path d="M722.51,76.12h-3V74.64h7.68v1.48h-3v12.1h-1.66Z"/><path d="M735.52,88.22h-1.3a8.17,8.17,0,0,1-.1-1.4,2.7,2.7,0,0,1-2.72,1.6c-2.92,0-3.74-2.92-3.74-7,0-4.72,1.48-7,4.28-7,3.34,0,3.54,2.94,3.58,3.76h-1.66a2.06,2.06,0,0,0-2-2.3c-1.86,0-2.5,2.24-2.5,5.56S729.84,87,731.7,87s2.14-1.44,2.14-4.12V82.2h-2.26V80.73h3.9Z"/><path d="M667,490.41h-3v-1.48h7.68v1.48h-3v12.1H667Z"/><path d="M674.75,488.93v13.58h-1.66V488.93Z"/><path d="M160,402.34l-3.36-13.61h1.78l1.46,6.32c.44,1.88.92,4.18,1.1,5.5h0c.16-1.22.78-3.6,1.24-5.48l1.48-6.34h1.74L162,402.31Z"/><path d="M166.94,388.73h3.12c3.2,0,4.58,2.2,4.58,6.46,0,4.6-1.28,7.12-4.8,7.12h-2.9Zm1.68,12.18h1.16c2.38,0,3.14-1.88,3.14-5.68,0-3.52-.86-5.06-3.12-5.06h-1.18Z"/><path d="M396.36,550.06,393,536.48h1.78l1.46,6.32c.44,1.88.92,4.18,1.1,5.5h0c.16-1.22.78-3.6,1.24-5.48l1.48-6.34h1.74l-3.44,13.58Z"/><path d="M404.17,546.44c.12,1.36.74,2.44,2.18,2.44s2.06-.76,2.06-2.22-.58-2.12-2.4-3c-2.16-1-3.1-2-3.1-3.94a3.24,3.24,0,0,1,3-3.43h.46c2.7,0,3.42,1.92,3.46,3.54h-1.64c-.08-.68-.28-2.16-1.88-2.16a1.67,1.67,0,0,0-1.77,1.56,1.69,1.69,0,0,0,0,.32c0,1.24.54,1.84,2.22,2.62,2.38,1.14,3.3,2.26,3.3,4.34a3.47,3.47,0,0,1-3.17,3.75,4.42,4.42,0,0,1-.63,0c-2.8,0-3.7-1.82-3.8-3.82Z"/><path d="M221.6,285.07V271.49h2c3.58,9,4.1,10.34,4.28,11h0c-.1-1.8-.12-3.84-.12-6v-4.92h1.6v13.58h-2c-3.7-9.52-4.2-10.8-4.36-11.34h0c.1,1.68.12,3.86.12,6.3v5Z"/><path d="M238.1,278.65h-4.5v5h5l-.22,1.46H232V271.49h6.4V273h-4.72v4.2h4.5Z"/><path d="M60.57,543.08h-1.3a8.17,8.17,0,0,1-.1-1.4,2.7,2.7,0,0,1-2.72,1.6c-2.92,0-3.74-2.92-3.74-7,0-4.72,1.48-7,4.28-7,3.34,0,3.54,2.94,3.58,3.76H58.91a2.06,2.06,0,0,0-2-2.3c-1.86,0-2.48,2.22-2.48,5.54s.48,5.56,2.34,5.56,2.14-1.44,2.14-4.12V537H56.67v-1.46h3.9Z"/><path d="M69.05,536.66h-4.5v5h5l-.19,1.42H62.9V529.5h6.36V531H64.55v4.2h4.5Z"/><path d="M292,171.73c0,1.94-.34,3.5-2.76,3.5a6,6,0,0,1-1.12-.1v-1.4a6.51,6.51,0,0,0,.88.06c1.14,0,1.32-.66,1.32-1.9v-10.4H292Z"/><path d="M296,161.5V171c0,1.42.4,2.86,2.14,2.86s2.14-1.2,2.14-2.86v-9.5H302V171c0,2.46-.9,4.28-3.84,4.28s-3.78-1.7-3.78-4.22V161.5Z"/><rect x="45.46" y="704.43" width="27.4" height="27.4" style="fill:#aeeacb"/><rect x="267.16" y="704.43" width="27.4" height="27.4" style="fill:#e5bf77"/><rect x="515.25" y="704.43" width="27.4" height="27.4" style="fill:#dbaeea"/><path d="M97.47,729.39l-4.68-23.88h3.12c1.45,8,2.91,16.3,3.22,19.8h0c.48-3.56,2.82-14.22,3.91-19.8h2.76c1,5.31,3.39,16.28,3.81,19.67h.07c.51-4.34,2.6-14.4,3.51-19.67h2.94l-5,23.88h-3.06c-1-5.35-3.18-15.46-3.69-19.23h-.05c-.57,4-2.74,14-3.83,19.23Z"/><path d="M119.64,721c0,3.27.54,6.23,3.27,6.23a3.13,3.13,0,0,0,3.1-3h2.81c0,.48-.54,5.5-5.94,5.5s-6.13-4.84-6.13-9.31c0-5.67,2-9.23,6.26-9.23,4.8,0,6,3.88,6,8.39,0,.4,0,1-.05,1.46Zm6.45-2.22c0-2.82-.57-5.19-3.1-5.19-3.1,0-3.26,4-3.3,5.19Z"/><path d="M133.94,724.18c.09,1.78,1,3.21,3,3.21a2.45,2.45,0,0,0,2.73-2.64c0-1.74-.88-2.56-3.18-3.45-3.8-1.45-4.87-2.81-4.87-5.33s1.48-4.81,5.26-4.81c4.13,0,5.28,2.82,5.3,5.19h-2.81c0-.8-.21-2.87-2.58-2.87a2.12,2.12,0,0,0-2.31,2.32c0,1.37.63,2,3,3,3.52,1.34,5,2.65,5,5.68,0,3.31-2.07,5.26-5.75,5.26s-5.65-2.29-5.73-5.53Z"/><path d="M143.74,711.48h2.49v-4.72h2.87v4.72h3.05v2.44H149.1V725.3c0,1.19.25,1.92,1.59,1.92a5.68,5.68,0,0,0,1.21-.09v2.2a6.71,6.71,0,0,1-2.19.31c-2.25,0-3.48-.9-3.48-3.8V713.92h-2.49Z"/><path d="M332.28,722.71c-.1,1.36-.68,7-6.62,7-6.44,0-7-6.57-7-12.45,0-7.09,1.92-12.14,7.26-12.14,5.86,0,6.22,5.4,6.29,6.94h-3c0-.81-.18-4.36-3.39-4.36-3.56,0-4.15,4.79-4.15,9.59s.53,9.88,4,9.88c3.06,0,3.49-3.34,3.6-4.5Z"/><path d="M337.59,721c0,3.27.54,6.23,3.28,6.23s3-2.48,3.09-3h2.81c0,.48-.53,5.5-5.94,5.5s-6.12-4.84-6.12-9.31c0-5.67,2-9.23,6.25-9.23,4.81,0,6,3.88,6,8.39,0,.4,0,1-.05,1.46Zm6.45-2.22c0-2.82-.57-5.19-3.1-5.19-3.1,0-3.26,4-3.29,5.19Z"/><path d="M350.1,717c0-3.67,0-4.69,0-5.54h2.78a19.62,19.62,0,0,1,.11,2.25,4.21,4.21,0,0,1,4.18-2.57c2.66,0,4.61,1.55,4.61,5.46v12.77h-2.91V717.22c0-2.11-.64-3.51-2.61-3.51-2.25,0-3.22,1.45-3.22,4.94v10.74H350.1Z"/><path d="M363.7,711.48h2.49v-4.72h2.87v4.72h3.05v2.44h-3.05V725.3c0,1.19.25,1.92,1.59,1.92a5.68,5.68,0,0,0,1.21-.09v2.2a6.71,6.71,0,0,1-2.19.31c-2.25,0-3.48-.9-3.48-3.8V713.92H363.7Z"/><path d="M374.52,717.57c0-2.87,0-4.81,0-6.09h2.77c0,.43.09,1.25.09,3.14a4.83,4.83,0,0,1,4.73-3.42v3.2c-3.05.06-4.67,1.79-4.67,5.1v9.89h-2.88Z"/><path d="M394.68,726.08c0,1.08.09,2.7.14,3.31h-2.63a11.4,11.4,0,0,1-.18-2c-.66,1.39-2,2.28-4.2,2.28-3.44,0-4.69-2.7-4.69-5.21,0-3.35,2.27-5.76,6.94-5.76.79,0,1.29,0,1.79,0v-2.3c0-1.33-.24-3-2.54-3-2.46,0-2.63,1.73-2.73,2.93H383.8c.07-2.58,1.3-5.25,5.6-5.25,3.55,0,5.28,1.7,5.28,5ZM391.92,721a10.71,10.71,0,0,0-1.69-.09c-3,0-4.24,1.44-4.24,3.33,0,1.54.8,3,2.64,3,2.52,0,3.29-1.8,3.29-5.36Z"/><path d="M398.83,729.39v-25h2.88v25Z"/><path d="M578.59,717.24c0,8.26-2,12.51-7.26,12.51-5,0-7.08-4.12-7.08-12.48s2.49-12.11,7.22-12.11C576.46,705.16,578.59,709.11,578.59,717.24Zm-11.32,0c0,6.59,1.28,10,4.15,10s4.14-3.29,4.14-10-1.26-9.55-4.16-9.55S567.27,710.94,567.27,717.22Z"/><path d="M583.63,724.18c.1,1.78,1,3.21,3,3.21a2.45,2.45,0,0,0,2.73-2.64c0-1.74-.88-2.56-3.18-3.45-3.8-1.45-4.88-2.81-4.88-5.33s1.49-4.81,5.27-4.81c4.13,0,5.27,2.82,5.29,5.19h-2.81c0-.8-.2-2.87-2.57-2.87a2.12,2.12,0,0,0-2.32,2.32c0,1.37.63,2,3.05,3,3.52,1.34,5,2.65,5,5.68,0,3.31-2.08,5.26-5.76,5.26s-5.65-2.29-5.72-5.53Z"/><path d="M593.43,711.48h2.5v-4.72h2.86v4.72h3.05v2.44h-3.05V725.3c0,1.19.25,1.92,1.6,1.92a5.68,5.68,0,0,0,1.21-.09v2.2a6.74,6.74,0,0,1-2.19.31c-2.26,0-3.48-.9-3.48-3.8V713.92h-2.5Z"/></svg>