<?xml version="1.0" encoding="utf-8"?>
<!-- Generator: Adobe Illustrator 24.0.3, SVG Export Plug-In . SVG Version: 6.00 Build 0)  -->
<svg version="1.1" id="Layer_1" xmlns="http://www.w3.org/2000/svg" xmlns:xlink="http://www.w3.org/1999/xlink" x="0px" y="0px"
	 viewBox="0 0 64.7 20.4" style="enable-background:new 0 0 64.7 20.4;" xml:space="preserve">
<style type="text/css">
	.st0{fill:#1D1D1B;}
</style>
<title>Artboard 1</title>
<g id="Base">
	<path class="st0" d="M27.1,11h-2.2V2.3h2.2V11z"/>
	<path class="st0" d="M28.6,2.3h2.2L35,7.6l0,0V2.3h2.2V11H35l-4.1-5.3l0,0V11h-2.3V2.3z"/>
	<path class="st0" d="M41,4.3v1.4h2.5v1.9H41V11h-2.2V2.3h5v1.9H41z"/>
	<path class="st0" d="M47.3,4.3v1.4h2.5v1.9h-2.5v1.5H50V11h-5V2.3h5v1.9H47.3z"/>
	<path class="st0" d="M57.6,5.3c-0.5-0.6-1.2-1-2-1c-1.3,0-2.3,1-2.3,2.3c0,0,0,0.1,0,0.1c-0.1,1.2,0.9,2.3,2.1,2.4
		c0.1,0,0.2,0,0.2,0c0.7,0,1.5-0.3,1.9-0.9v2.7c-0.6,0.2-1.3,0.4-2,0.4c-1.2,0-2.3-0.4-3.2-1.2c-0.9-0.8-1.4-2.1-1.4-3.3
		c0-1.2,0.4-2.3,1.3-3.2c0.9-0.9,2.1-1.4,3.3-1.4c0.7,0,1.4,0.2,2.1,0.4L57.6,5.3z"/>
	<path class="st0" d="M62.7,11h-2.2V4.3h-1.9V2.3h6v1.9h-1.9V11z"/>
	<path class="st0" d="M6.9,9.8c-1.7,0-3-1.4-3-3s1.4-3,3-3h4.8v6.1H6.9z"/>
	<path class="st0" d="M17.2,9.8c1.7,0,3-1.4,3-3s-1.4-3-3-3h-4.7v6.1H17.2z"/>
	<path class="st0" d="M7.8,1.7c0,0.5-0.4,0.9-0.9,0.9C6.4,2.6,6,2.2,6,1.7s0.4-0.9,0.9-0.9c0,0,0,0,0,0C7.4,0.8,7.8,1.2,7.8,1.7
		C7.8,1.7,7.8,1.7,7.8,1.7z"/>
	<path class="st0" d="M6.6,3.1c0-0.2,0.1-0.3,0.3-0.3l0,0l0,0c0.2,0,0.3,0.1,0.3,0.3c0,0,0,0,0,0l0,0c0,0.2-0.1,0.3-0.3,0.3l0,0
		C6.7,3.4,6.6,3.3,6.6,3.1z M5.7,2.9c-0.1-0.1-0.1-0.3,0-0.4c0,0,0,0,0,0l0,0c0.1-0.1,0.3-0.1,0.4,0c0,0,0,0,0,0l0,0
		c0.1,0.1,0.1,0.3,0,0.4c0,0,0,0,0,0l0,0C6,3,6,3,5.9,3l0,0C5.8,3,5.7,3,5.7,2.9z M7.7,2.9c-0.1-0.1-0.1-0.3,0-0.4c0,0,0,0,0,0l0,0
		c0.1-0.1,0.3-0.1,0.4,0c0,0,0,0,0,0l0,0c0.1,0.1,0.1,0.3,0,0.4c0,0,0,0,0,0l0,0C8,2.9,8,3,7.9,3l0,0C7.8,3,7.7,2.9,7.7,2.9L7.7,2.9
		z M5.2,1.7c0-0.2,0.1-0.3,0.3-0.3l0,0c0.2,0,0.3,0.1,0.3,0.3l0,0C5.8,1.8,5.7,2,5.5,2c0,0,0,0,0,0l0,0C5.3,2,5.2,1.9,5.2,1.7
		C5.2,1.7,5.2,1.7,5.2,1.7z M8,1.7L8,1.7c0-0.2,0.1-0.3,0.3-0.3c0,0,0,0,0,0l0,0c0.2,0,0.3,0.1,0.3,0.3c0,0,0,0,0,0l0,0
		C8.6,1.8,8.5,2,8.4,2c0,0,0,0-0.1,0l0,0C8.2,2,8,1.9,8,1.7C8,1.7,8,1.7,8,1.7z M5.7,0.9c-0.1-0.1-0.1-0.3,0-0.4c0,0,0,0,0,0l0,0
		c0.1-0.1,0.3-0.1,0.4,0c0,0,0,0,0,0l0,0c0.1,0.1,0.1,0.3,0,0.4c0,0,0,0,0,0l0,0C6,1,6,1,5.9,1l0,0C5.8,1,5.7,1,5.7,0.9z M7.7,0.9
		L7.7,0.9c-0.1-0.1-0.1-0.3,0-0.4c0,0,0,0,0,0l0,0c0.1-0.1,0.3-0.1,0.4,0c0,0,0,0,0,0l0,0c0.1,0.1,0.1,0.3,0,0.4c0,0,0,0,0,0l0,0
		C8,1,8,1,7.9,1l0,0C7.8,1,7.7,1,7.7,0.9L7.7,0.9z M6.6,0.3C6.6,0.1,6.7,0,6.9,0l0,0C7,0,7.2,0.1,7.2,0.3c0,0,0,0,0,0l0,0
		c0,0.2-0.1,0.3-0.3,0.3c0,0,0,0,0,0l0,0C6.7,0.6,6.6,0.4,6.6,0.3C6.6,0.3,6.6,0.3,6.6,0.3z"/>
	<path class="st0" d="M11.8,1.7c0,0.5-0.4,0.9-0.9,0.9c-0.5,0-0.9-0.4-0.9-0.9s0.4-0.9,0.9-0.9c0,0,0,0,0,0
		C11.3,0.8,11.7,1.2,11.8,1.7C11.7,1.7,11.8,1.7,11.8,1.7z"/>
	<path class="st0" d="M10.6,3.1c0-0.2,0.1-0.3,0.3-0.3l0,0c0.2,0,0.3,0.1,0.3,0.3c0,0,0,0,0,0l0,0c0,0.2-0.1,0.3-0.3,0.3l0,0
		C10.7,3.4,10.6,3.3,10.6,3.1z M9.6,2.9c-0.1-0.1-0.1-0.3,0-0.4c0,0,0,0,0,0l0,0c0.1-0.1,0.3-0.1,0.4,0c0,0,0,0,0,0l0,0
		c0.1,0.1,0.1,0.3,0,0.4c0,0,0,0,0,0l0,0C10,2.9,9.9,3,9.8,3l0,0C9.8,3,9.7,2.9,9.6,2.9z M11.6,2.9c-0.1-0.1-0.1-0.3,0-0.4
		c0,0,0,0,0,0l0,0c0.1-0.1,0.3-0.1,0.4,0c0,0,0,0,0,0l0,0c0.1,0.1,0.1,0.3,0,0.4c0,0,0,0,0,0l0,0C12,2.9,11.9,3,11.8,3l0,0
		C11.8,3,11.7,2.9,11.6,2.9L11.6,2.9z M9.1,1.7c0-0.2,0.1-0.3,0.3-0.3l0,0c0.2,0,0.3,0.1,0.3,0.3l0,0C9.7,1.8,9.6,2,9.5,2
		c0,0,0,0,0,0l0,0C9.3,2,9.1,1.9,9.1,1.7C9.1,1.7,9.1,1.7,9.1,1.7z M12,1.7L12,1.7c0-0.2,0.1-0.3,0.3-0.3c0,0,0,0,0,0l0,0
		c0.2,0,0.3,0.1,0.3,0.3l0,0c0,0.1-0.1,0.3-0.3,0.3c0,0,0,0,0,0l0,0C12.1,2,12,1.8,12,1.7L12,1.7z M9.6,0.9c-0.1-0.1-0.1-0.3,0-0.4
		c0,0,0,0,0,0l0,0c0.1-0.1,0.3-0.1,0.4,0c0,0,0,0,0,0l0,0c0.1,0.1,0.1,0.3,0,0.4c0,0,0,0,0,0l0,0C10,0.9,9.9,1,9.8,1l0,0
		C9.8,1,9.7,1,9.6,0.9z M11.6,0.9L11.6,0.9c-0.1-0.1-0.1-0.3,0-0.4c0,0,0,0,0,0l0,0c0.1-0.1,0.3-0.1,0.4,0c0,0,0,0,0,0l0,0
		c0.1,0.1,0.1,0.3,0,0.4c0,0,0,0,0,0l0,0C12,1,11.9,1,11.8,1l0,0C11.8,1,11.7,1,11.6,0.9L11.6,0.9z M10.6,0.3c0-0.2,0.1-0.3,0.3-0.3
		l0,0c0.2,0,0.3,0.1,0.3,0.3l0,0c0,0.2-0.1,0.3-0.3,0.3c0,0,0,0,0,0l0,0C10.7,0.6,10.5,0.4,10.6,0.3C10.5,0.3,10.5,0.3,10.6,0.3z"/>
	<path class="st0" d="M7.9,11.7c0,0.5-0.4,0.9-0.9,0.9c-0.5,0-0.9-0.4-0.9-0.9c0-0.5,0.4-0.9,0.9-0.9C7.5,10.8,7.9,11.2,7.9,11.7
		C7.9,11.7,7.9,11.7,7.9,11.7z"/>
	<path class="st0" d="M6.7,13.1c0-0.2,0.1-0.3,0.3-0.3l0,0c0.2,0,0.3,0.1,0.3,0.3c0,0,0,0,0,0l0,0c0,0.2-0.1,0.3-0.3,0.3h0
		C6.8,13.4,6.7,13.3,6.7,13.1z M5.8,12.9c-0.1-0.1-0.1-0.3,0-0.4c0,0,0,0,0,0l0,0c0.1-0.1,0.3-0.1,0.4,0c0,0,0,0,0,0l0,0
		c0.1,0.1,0.1,0.3,0,0.4c0,0,0,0,0,0l0,0C6.2,13,6.1,13,6,13l0,0C5.9,13,5.9,12.9,5.8,12.9z M7.8,12.9c-0.1-0.1-0.1-0.3,0-0.4
		c0,0,0,0,0,0l0,0c0.1-0.1,0.3-0.1,0.4,0c0,0,0,0,0,0l0,0c0.1,0.1,0.1,0.3,0,0.4c0,0,0,0,0,0l0,0C8.2,13,8.1,13,8,13l0,0
		C7.9,13,7.9,12.9,7.8,12.9L7.8,12.9z M5.3,11.7c0-0.2,0.1-0.3,0.3-0.3l0,0c0.2,0,0.3,0.1,0.3,0.3l0,0c0,0.2-0.1,0.3-0.3,0.3l0,0
		C5.5,12,5.3,11.9,5.3,11.7C5.3,11.7,5.3,11.7,5.3,11.7L5.3,11.7z M8.1,11.7L8.1,11.7c0-0.1,0.1-0.3,0.3-0.3c0,0,0,0,0,0l0,0
		c0.1,0,0.3,0.1,0.3,0.3c0,0,0,0,0,0l0,0c0,0.2-0.1,0.3-0.3,0.3c0,0,0,0,0,0l0,0C8.3,12,8.1,11.9,8.1,11.7L8.1,11.7z M5.8,10.9
		c-0.1-0.1-0.1-0.3,0-0.4c0,0,0,0,0,0l0,0c0.1-0.1,0.3-0.1,0.4,0c0,0,0,0,0,0l0,0c0.1,0.1,0.1,0.3,0,0.4c0,0,0,0,0,0l0,0
		C6.2,11,6.1,11,6,11l0,0C5.9,11,5.9,11,5.8,10.9L5.8,10.9z M7.8,10.9L7.8,10.9c-0.1-0.1-0.1-0.3,0-0.4c0,0,0,0,0,0l0,0
		c0.1-0.1,0.3-0.1,0.4,0c0,0,0,0,0,0l0,0c0.1,0.1,0.1,0.3,0,0.4c0,0,0,0,0,0l0,0C8.2,11,8.1,11,8,11l0,0C7.9,11,7.9,11,7.8,10.9
		L7.8,10.9z M6.8,10.3C6.7,10.1,6.9,10,7,10l0,0c0.2,0,0.3,0.1,0.3,0.3l0,0c0,0.2-0.1,0.3-0.3,0.3c0,0,0,0,0,0l0,0
		C6.9,10.6,6.7,10.4,6.8,10.3L6.8,10.3z"/>
	<path class="st0" d="M11.8,11.7c0,0.5-0.4,0.9-0.9,0.9s-0.9-0.4-0.9-0.9s0.4-0.9,0.9-0.9c0,0,0,0,0,0
		C11.3,10.8,11.7,11.2,11.8,11.7z"/>
	<path class="st0" d="M10.6,13.1c0-0.2,0.1-0.3,0.3-0.3l0,0c0.2,0,0.3,0.1,0.3,0.3c0,0,0,0,0,0l0,0c0,0.2-0.1,0.3-0.3,0.3
		c0,0,0,0,0,0l0,0C10.7,13.4,10.6,13.3,10.6,13.1z M9.6,12.9c-0.1-0.1-0.1-0.3,0-0.4c0,0,0,0,0,0l0,0c0.1-0.1,0.3-0.1,0.4,0
		c0,0,0,0,0,0l0,0c0.1,0.1,0.1,0.3,0,0.4c0,0,0,0,0,0l0,0C10,12.9,9.9,13,9.8,13l0,0C9.8,13,9.7,12.9,9.6,12.9z M11.6,12.9
		c-0.1-0.1-0.1-0.3,0-0.4c0,0,0,0,0,0l0,0c0.1-0.1,0.3-0.1,0.4,0c0,0,0,0,0,0l0,0c0.1,0.1,0.1,0.3,0,0.4c0,0,0,0,0,0l0,0
		c-0.1,0-0.1,0.1-0.2,0.1l0,0C11.8,13,11.7,12.9,11.6,12.9L11.6,12.9z M9.2,11.7c0-0.2,0.1-0.3,0.3-0.3l0,0c0.2,0,0.3,0.1,0.3,0.3
		l0,0c0,0.2-0.1,0.3-0.3,0.3l0,0C9.3,12,9.1,11.9,9.2,11.7L9.2,11.7L9.2,11.7z M12,11.7L12,11.7c0-0.1,0.1-0.3,0.3-0.3c0,0,0,0,0,0
		l0,0c0.2,0,0.3,0.1,0.3,0.3l0,0c0,0.2-0.1,0.3-0.3,0.3c0,0,0,0,0,0l0,0C12.1,12,12,11.8,12,11.7L12,11.7z M9.7,10.9
		c-0.1-0.1-0.1-0.3,0-0.4c0,0,0,0,0,0l0,0c0.1-0.1,0.3-0.1,0.4,0c0,0,0,0,0,0l0,0c0.1,0.1,0.1,0.3,0,0.4c0,0,0,0,0,0l0,0
		C10,10.9,9.9,11,9.9,11l0,0C9.8,11,9.7,11,9.7,10.9L9.7,10.9z M11.7,10.9L11.7,10.9c-0.1-0.1-0.1-0.3,0-0.4c0,0,0,0,0,0l0,0
		c0.1-0.1,0.3-0.1,0.4,0c0,0,0,0,0,0l0,0c0.1,0.1,0.1,0.3,0,0.4c0,0,0,0,0,0l0,0C12,11,11.9,11,11.9,11l0,0
		C11.8,11,11.7,11,11.7,10.9L11.7,10.9z M10.6,10.3c0-0.2,0.1-0.3,0.3-0.3c0,0,0,0,0,0l0,0c0.2,0,0.3,0.1,0.3,0.3l0,0
		c0,0.2-0.1,0.3-0.3,0.3c0,0,0,0,0,0l0,0C10.7,10.6,10.6,10.5,10.6,10.3C10.6,10.3,10.5,10.3,10.6,10.3L10.6,10.3z"/>
	<path class="st0" d="M2.6,6.7c0,0.5-0.4,0.9-0.9,0.9S0.8,7.2,0.8,6.7c0-0.5,0.4-0.9,0.9-0.9h0C2.2,5.8,2.6,6.2,2.6,6.7z"/>
	<path class="st0" d="M1.4,8.1c0-0.1,0.1-0.3,0.3-0.3c0,0,0,0,0,0l0,0C1.8,7.8,2,7.9,2,8.1c0,0,0,0,0,0.1l0,0c0,0.1-0.1,0.3-0.3,0.3
		c0,0,0,0,0,0l0,0C1.6,8.4,1.4,8.3,1.4,8.1C1.4,8.2,1.4,8.2,1.4,8.1z M0.5,7.9c-0.1-0.1-0.1-0.3,0-0.4c0,0,0,0,0,0l0,0
		c0.1-0.1,0.3-0.1,0.4,0c0,0,0,0,0,0l0,0C1,7.6,1,7.8,0.9,7.9c0,0,0,0,0,0l0,0C0.8,8,0.8,8,0.7,8l0,0C0.6,8,0.6,8,0.5,7.9z M2.5,7.9
		c-0.1-0.1-0.1-0.3,0-0.4c0,0,0,0,0,0l0,0c0.1-0.1,0.3-0.1,0.4,0c0,0,0,0,0,0l0,0C3,7.6,3,7.8,2.9,7.9c0,0,0,0,0,0l0,0
		C2.8,8,2.8,8,2.7,8l0,0C2.6,8,2.5,8,2.5,7.9L2.5,7.9z M0,6.7c0-0.2,0.1-0.3,0.3-0.3l0,0c0.2,0,0.3,0.1,0.3,0.3l0,0
		C0.6,6.9,0.4,7,0.3,7l0,0C0.1,7,0,6.9,0,6.7z M2.8,6.7L2.8,6.7c0-0.2,0.1-0.3,0.3-0.3c0,0,0,0,0,0l0,0c0.2,0,0.3,0.1,0.3,0.3l0,0
		l0,0C3.4,6.9,3.3,7,3.1,7l0,0C2.9,7,2.8,6.9,2.8,6.7C2.8,6.7,2.8,6.7,2.8,6.7z M0.5,5.9c-0.1-0.1-0.1-0.3,0-0.4c0,0,0,0,0,0l0,0
		c0.1-0.1,0.3-0.1,0.4,0c0,0,0,0,0,0l0,0C1,5.6,1,5.8,0.9,5.9c0,0,0,0,0,0l0,0C0.8,6,0.8,6,0.7,6l0,0C0.6,6,0.5,6,0.5,5.9z M2.5,5.9
		L2.5,5.9c-0.1-0.1-0.1-0.3,0-0.4l0,0c0.1-0.1,0.3-0.1,0.4,0c0,0,0,0,0,0l0,0C3,5.6,3,5.8,2.9,5.9c0,0,0,0,0,0l0,0
		C2.8,6,2.8,6,2.7,6l0,0C2.6,6,2.5,6,2.5,5.9L2.5,5.9z M1.4,5.3C1.4,5.2,1.5,5,1.6,5c0,0,0,0,0.1,0l0,0C1.8,5,2,5.1,2,5.3
		c0,0,0,0,0,0.1l0,0c0,0.2-0.1,0.3-0.3,0.3l0,0C1.6,5.6,1.4,5.5,1.4,5.3C1.4,5.3,1.4,5.3,1.4,5.3z"/>
	<path class="st0" d="M4.2,3.1C4.2,3.6,3.8,4,3.3,4C2.8,4,2.4,3.6,2.4,3.1c0-0.5,0.4-0.9,0.9-0.9c0,0,0,0,0,0
		C3.8,2.1,4.2,2.6,4.2,3.1z"/>
	<path class="st0" d="M3,4.5c0-0.2,0.1-0.3,0.3-0.3c0,0,0,0,0,0l0,0c0.2,0,0.3,0.1,0.3,0.3c0,0,0,0,0,0l0,0c0,0.2-0.1,0.3-0.3,0.3
		c0,0,0,0,0,0l0,0C3.1,4.8,3,4.6,3,4.5L3,4.5z M2.1,4.3C2,4.2,2,4,2.1,3.9c0,0,0,0,0,0l0,0c0.1-0.1,0.3-0.1,0.4,0c0,0,0,0,0,0l0,0
		c0.1,0.1,0.1,0.3,0,0.4c0,0,0,0,0,0l0,0c-0.1,0-0.1,0.1-0.2,0.1l0,0C2.2,4.3,2.2,4.3,2.1,4.3L2.1,4.3z M4.1,4.3C4,4.2,4,4,4.1,3.9
		c0,0,0,0,0,0l0,0c0.1-0.1,0.3-0.1,0.4,0c0,0,0,0,0,0l0,0c0.1,0.1,0.1,0.3,0,0.4c0,0,0,0,0,0l0,0c-0.1,0-0.1,0.1-0.2,0.1l0,0
		C4.2,4.3,4.2,4.3,4.1,4.3L4.1,4.3z M1.6,3.1c0-0.2,0.1-0.3,0.3-0.3l0,0c0.2,0,0.3,0.1,0.3,0.3l0,0c0,0.2-0.1,0.3-0.3,0.3l0,0
		C1.8,3.4,1.6,3.2,1.6,3.1L1.6,3.1z M4.4,3.1L4.4,3.1c0-0.1,0.1-0.3,0.3-0.3c0,0,0,0,0,0l0,0C4.9,2.8,5,2.9,5,3c0,0,0,0,0,0l0,0
		c0,0.1-0.1,0.3-0.3,0.3c0,0,0,0,0,0l0,0C4.6,3.3,4.4,3.2,4.4,3.1z M2.1,2.3C2,2.2,2,2,2.1,1.9c0,0,0,0,0,0l0,0
		c0.1-0.1,0.3-0.1,0.4,0c0,0,0,0,0,0l0,0c0.1,0.1,0.1,0.3,0,0.4c0,0,0,0,0,0l0,0c-0.1,0-0.1,0.1-0.2,0.1l0,0
		C2.3,2.4,2.2,2.3,2.1,2.3z M4.1,2.3L4.1,2.3C4,2.2,4,2,4.1,1.9c0,0,0,0,0,0l0,0c0.1-0.1,0.3-0.1,0.4,0c0,0,0,0,0,0l0,0
		c0.1,0.1,0.1,0.3,0,0.4c0,0,0,0,0,0l0,0C4.5,2.3,4.4,2.4,4.3,2.4l0,0C4.2,2.4,4.2,2.3,4.1,2.3L4.1,2.3z M3,1.7
		c0-0.2,0.1-0.3,0.3-0.3l0,0c0.2,0,0.3,0.1,0.3,0.3l0,0c0,0.2-0.1,0.3-0.3,0.3c0,0,0,0,0,0l0,0C3.1,1.9,3,1.8,3,1.7z"/>
	<path class="st0" d="M4.2,10.4c0,0.5-0.4,0.9-0.9,0.9s-0.9-0.4-0.9-0.9c0-0.5,0.4-0.9,0.9-0.9c0,0,0,0,0,0
		C3.8,9.4,4.2,9.9,4.2,10.4z"/>
	<path class="st0" d="M3,11.8c0-0.2,0.1-0.3,0.3-0.3l0,0c0.2,0,0.3,0.1,0.3,0.3c0,0,0,0,0,0l0,0c0,0.2-0.1,0.3-0.3,0.3c0,0,0,0,0,0
		l0,0C3.1,12.1,3,11.9,3,11.8z M2.1,11.6c-0.1-0.1-0.1-0.3,0-0.4c0,0,0,0,0,0l0,0c0.1-0.1,0.3-0.1,0.4,0c0,0,0,0,0,0l0,0
		c0.1,0.1,0.1,0.3,0,0.4c0,0,0,0,0,0l0,0c-0.1,0-0.1,0.1-0.2,0.1l0,0C2.2,11.6,2.2,11.6,2.1,11.6L2.1,11.6z M4.1,11.6
		c-0.1-0.1-0.1-0.3,0-0.4c0,0,0,0,0,0l0,0c0.1-0.1,0.3-0.1,0.4,0c0,0,0,0,0,0l0,0c0.1,0.1,0.1,0.3,0,0.4c0,0,0,0,0,0l0,0
		c-0.1,0-0.1,0.1-0.2,0.1l0,0C4.2,11.6,4.2,11.6,4.1,11.6L4.1,11.6z M1.6,10.4c0-0.2,0.1-0.3,0.3-0.3l0,0c0.2,0,0.3,0.1,0.3,0.3l0,0
		c0,0.2-0.1,0.3-0.3,0.3l0,0C1.7,10.6,1.6,10.5,1.6,10.4L1.6,10.4z M4.4,10.4L4.4,10.4c0-0.1,0.1-0.3,0.3-0.3c0,0,0,0,0,0l0,0
		c0.1,0,0.3,0.1,0.3,0.3c0,0,0,0,0,0h0c0,0.1-0.1,0.3-0.3,0.3c0,0,0,0,0,0l0,0C4.6,10.6,4.4,10.5,4.4,10.4L4.4,10.4z M2.1,9.6
		C2,9.5,2,9.3,2.1,9.2c0,0,0,0,0,0l0,0c0.1-0.1,0.3-0.1,0.4,0c0,0,0,0,0,0l0,0c0.1,0.1,0.1,0.3,0,0.4c0,0,0,0,0,0l0,0
		c-0.1,0-0.1,0.1-0.2,0.1l0,0C2.2,9.6,2.2,9.6,2.1,9.6L2.1,9.6z M4.1,9.6L4.1,9.6C4,9.5,4,9.3,4.1,9.2c0,0,0,0,0,0l0,0
		c0.1-0.1,0.3-0.1,0.4,0c0,0,0,0,0,0l0,0c0.1,0.1,0.1,0.3,0,0.4c0,0,0,0,0,0l0,0C4.4,9.6,4.4,9.7,4.3,9.7l0,0
		C4.2,9.7,4.2,9.6,4.1,9.6L4.1,9.6z M3,9c0-0.2,0.1-0.3,0.3-0.3l0,0c0.2,0,0.3,0.1,0.3,0.2c0,0,0,0,0,0l0,0c0,0.2-0.1,0.3-0.3,0.3
		c0,0,0,0,0,0l0,0C3.2,9.3,3,9.2,3,9C3,9,3,9,3,9z"/>
</g>
<path class="st0" d="M26.7,16.5l1-2.5h1.2l-1.8,4.2h-0.9l-1.8-4.2h1.2L26.7,16.5z"/>
<path class="st0" d="M30.3,14.9v0.7h1.2v0.9h-1.2v0.7h1.3v0.9h-2.4v-4.2h2.4v0.9L30.3,14.9z"/>
<path class="st0" d="M33.9,18.1h-1.1v-3.2h-0.9v-1h2.9v0.9h-0.9L33.9,18.1z"/>
<path class="st0" d="M37.4,13.5h0.4v2.4l0,0c0.2-0.3,0.5-0.5,0.9-0.4c0.7,0,1.3,0.6,1.3,1.3c0,0,0,0.1,0,0.1c0,0.7-0.5,1.3-1.2,1.4
	c0,0,0,0,0,0c-0.4,0-0.7-0.2-0.9-0.4l0,0v0.4h-0.4V13.5z M37.8,16.8c-0.1,0.5,0.3,0.9,0.8,1c0,0,0,0,0.1,0c0.5,0,0.9-0.4,0.9-0.9
	c0,0,0-0.1,0-0.1c0-0.5-0.3-0.9-0.8-0.9c0,0-0.1,0-0.1,0C38.1,15.9,37.8,16.3,37.8,16.8C37.8,16.8,37.8,16.8,37.8,16.8L37.8,16.8z"
	/>
<path class="st0" d="M40.1,15.5h0.5l0.9,1.9l0.9-1.9h0.5L41,19.6h-0.5l0.8-1.7L40.1,15.5z"/>
<path class="st0" d="M47.6,18.1h-1v-0.3l0,0c-0.2,0.3-0.5,0.4-0.9,0.4c-0.8,0-1.5-0.7-1.4-1.5c0,0,0,0,0,0c0-0.8,0.6-1.5,1.4-1.5
	c0,0,0,0,0,0c0.3,0,0.7,0.1,0.9,0.4v-0.3h1L47.6,18.1z M45.3,16.7c0,0.4,0.4,0.6,0.7,0.6c0.3,0,0.5-0.3,0.6-0.6
	c0-0.4-0.4-0.6-0.7-0.6C45.6,16.2,45.3,16.4,45.3,16.7z"/>
<path class="st0" d="M49.2,15.6L49.2,15.6c0.2-0.3,0.6-0.5,0.9-0.5c0.8,0,1.1,0.5,1.1,1.2v1.8h-1v-1.4c0-0.3,0-0.8-0.5-0.8
	s-0.5,0.3-0.5,0.7v1.5h-1v-2.9h1V15.6z"/>
<path class="st0" d="M52.8,15.8L52.8,15.8c0.2-0.3,0.5-0.5,0.9-0.5h0.2v1c-0.1-0.1-0.3-0.1-0.4-0.1c-0.6,0-0.7,0.4-0.7,0.9v1.2h-1
	v-2.8h1L52.8,15.8z"/>
<path class="st0" d="M57.3,16.9h-2.1c0,0.3,0.2,0.6,0.5,0.6c0,0,0.1,0,0.1,0c0.2,0,0.4-0.1,0.5-0.2h1c-0.1,0.3-0.3,0.6-0.5,0.7
	c-0.3,0.2-0.6,0.2-0.9,0.2c-0.8,0.1-1.6-0.5-1.7-1.3c0-0.1,0-0.2,0-0.3c0.1-0.9,0.9-1.5,1.7-1.4C56.7,15.4,57.3,16,57.3,16.9
	L57.3,16.9z M56.4,16.3c-0.1-0.3-0.4-0.5-0.7-0.4c-0.2,0.1-0.4,0.2-0.4,0.4H56.4z"/>
<path class="st0" d="M59.6,16c-0.2-0.1-0.4-0.1-0.6-0.1c-0.1,0-0.3,0-0.3,0.2c0,0.2,0.3,0.2,0.5,0.2c0.5,0.1,0.8,0.3,0.8,0.8
	c0,0.8-0.7,1.1-1.3,1.1c-0.4,0-0.8-0.1-1.1-0.3l0.4-0.7c0.2,0.2,0.5,0.3,0.8,0.3c0.1,0,0.3-0.1,0.3-0.2S58.7,17,58.4,17
	c-0.4,0-0.7-0.4-0.6-0.8c0-0.7,0.6-1,1.3-1c0.3,0,0.6,0.1,0.9,0.2L59.6,16z"/>
<path class="st0" d="M61.6,14.2c0,0.3-0.3,0.6-0.6,0.6c-0.3,0-0.6-0.2-0.6-0.6c0,0,0,0,0,0c0-0.3,0.3-0.6,0.6-0.6
	C61.4,13.6,61.6,13.9,61.6,14.2C61.6,14.2,61.6,14.2,61.6,14.2z M61.6,18.1h-1.1v-2.9h1L61.6,18.1z"/>
<path class="st0" d="M64,16c-0.2-0.1-0.4-0.1-0.5-0.1c-0.1,0-0.3,0-0.3,0.2c0,0.2,0.3,0.2,0.5,0.2c0.5,0.1,0.8,0.3,0.8,0.8
	c0,0.8-0.7,1.1-1.3,1.1c-0.4,0-0.8-0.1-1.2-0.3l0.4-0.7c0.2,0.2,0.5,0.3,0.8,0.3c0.1,0,0.3-0.1,0.3-0.2S63.1,17,62.8,17
	c-0.4,0-0.7-0.4-0.6-0.8c0-0.7,0.6-1,1.3-1c0.3,0,0.6,0.1,0.9,0.2L64,16z"/>
</svg>
