<svg id="Layer_4" data-name="Layer 4" xmlns="http://www.w3.org/2000/svg" viewBox="0 0 400.5 261.26">
  <defs>
    <style>
      .cls-1 {
        fill: #eddfdd;
      }

      .cls-2 {
        fill: #994233;
      }

      .cls-3 {
        fill: #e0d076;
      }

      .cls-4 {
        fill: #4e451b;
      }

      .cls-5 {
        fill: #7bc043;
      }

      .cls-6, .cls-8 {
        fill: none;
        stroke-miterlimit: 10;
      }

      .cls-6 {
        stroke: #000;
      }

      .cls-7 {
        fill: #231f20;
      }

      .cls-8 {
        stroke: #7bc043;
      }
    </style>
  </defs>
  <title>Artboard 1 copy 2</title>
  <circle class="cls-1" cx="35.12" cy="101.83" r="28.79"/>
  <path class="cls-2" d="M40.85,101.29c0,7.71-1.47,11.1-5.54,11.1-4.22,0-5.56-3.74-5.56-11.13,0-8,2.08-10.56,5.66-10.56C39.22,90.7,40.85,93.67,40.85,101.29Zm-8.7-.1c0,6,.6,9.19,3.16,9.19s3.17-3,3.17-9.12-.77-8.55-3.13-8.55S32.15,94.86,32.15,101.19Z"/>
  <circle class="cls-3" cx="211.18" cy="101.83" r="36.18"/>
  <g>
    <path class="cls-4" d="M208.65,93H202c-.13,2-.48,5.5-.61,6.66a3.85,3.85,0,0,1,3.36-1.48c3.39,0,4.89,2.76,4.89,6.56,0,4.1-1.31,7.62-5.63,7.62-3.93,0-5.18-2.66-5.31-5.47H201c.13,1.44.57,3.49,3,3.49s3.1-2.37,3.1-5.41c0-2.72-.64-4.8-2.94-4.8-1.83,0-2.63,1.12-3.11,2.62l-2.17-.38c.35-2.43.86-8.32,1.09-11.46h8.89Z"/>
    <path class="cls-4" d="M212,96c0-2.21,1.06-5.31,5.06-5.31,3.52,0,4.83,2.3,4.83,5.24,0,2.69-1.18,4-2.56,4.55v0c1.86.64,3.2,2.14,3.2,5.38s-1.28,6.46-5.63,6.46c-3.9,0-5.22-2.69-5.31-5.47h2.27c.06,1.66.86,3.52,3.1,3.52,2.56,0,3.17-2.27,3.17-4.45,0-3.42-1.53-4.32-3.9-4.32h-.9v-2h.9c2,0,3.29-.84,3.29-3.59,0-2-.6-3.42-2.59-3.42-2.43,0-2.69,2.4-2.75,3.36Z"/>
  </g>
  <circle class="cls-5" cx="123.15" cy="101.83" r="44.96"/>
  <g>
    <path d="M113.21,106.87a2.55,2.55,0,0,0,2.66,2.5c3.07,0,3.2-5,3.3-8.74a3.61,3.61,0,0,1-3.62,2.15c-3.07,0-4.83-2.27-4.83-6.27,0-4.52,2.08-6.85,5.41-6.85s5.37,2.11,5.37,8.93c0,9.08-1.28,12.73-5.73,12.73s-4.73-3.52-4.86-4.45Zm-.16-10.52c0,2.56.8,4.44,3,4.44s3.07-1.66,3.07-4.12-.45-5-3-5C114.17,91.64,113.05,93.21,113.05,96.35Z"/>
    <path d="M123.58,111v-.16c0-2.62,1.51-5.5,4.8-9.12,2.69-3,3.52-4.06,3.52-6.49,0-1.89-.54-3.65-2.75-3.65-2,0-2.88,1.57-3,4.06h-2.3c0-3.07,1.47-6,5.31-6s5.12,2.53,5.12,5.63c0,2.88-1,4.32-3.77,7.3-2.53,2.72-3.84,4.89-4.23,6.36h8.61l-.35,2.08Z"/>
  </g>
  <polyline class="cls-6" points="171.69 146.78 171.69 183.92 193.99 183.92"/>
  <polyline class="cls-6" points="123.15 75.4 123.15 22.9 145.44 22.9"/>
  <g>
    <path class="cls-7" d="M210.61,190.29c.69,3,2.74,4.64,6.37,4.64,3.89,0,5.44-1.83,5.44-4.21s-1.23-3.92-6.23-5.11c-5.9-1.44-7.95-3.45-7.95-7,0-3.75,2.73-6.77,8.31-6.77,6,0,8.42,3.46,8.78,6.73H222c-.47-2.19-1.84-4-5.51-4-3.06,0-4.75,1.37-4.75,3.74s1.41,3.28,5.8,4.36c7.12,1.73,8.38,4.5,8.38,7.74,0,4-3,7.2-9.1,7.2-6.3,0-9-3.46-9.54-7.31Z"/>
    <path class="cls-7" d="M243.87,193.28a27.59,27.59,0,0,0,.26,4h-3a9.72,9.72,0,0,1-.29-2.37c-.64,1.19-2.12,2.81-5.65,2.81-4.32,0-6.15-2.81-6.15-5.58,0-4.07,3.2-5.94,8.64-5.94h3.09v-1.55c0-1.62-.5-3.56-3.92-3.56-3,0-3.56,1.51-3.89,2.91h-3.06c.25-2.52,1.8-5.4,7.06-5.4,4.46,0,6.94,1.84,6.94,6Zm-3.09-4.9h-2.95c-3.64,0-5.58,1-5.58,3.57,0,1.9,1.29,3.27,3.56,3.27,4.39,0,5-2.95,5-6.26Z"/>
    <path class="cls-7" d="M249.31,183.74c0-1.58,0-3.24,0-4.72h3c.07.54.14,1.88.14,2.81a5.64,5.64,0,0,1,5.29-3.24,5,5,0,0,1,5.08,3.28,6.21,6.21,0,0,1,5.8-3.28c3,0,5.75,1.77,5.75,6.7v12h-3.09V185.65c0-2.09-.76-4.32-3.6-4.32-3,0-4.28,2.23-4.28,5.47v10.47h-3.1V185.75c0-2.33-.65-4.42-3.53-4.42s-4.32,2.37-4.32,5.83v10.11h-3.13Z"/>
    <path class="cls-7" d="M279.77,204.44V183.49c0-1.51,0-3.06,0-4.47h3.06c.07.62.11,1.7.11,2.88a6.28,6.28,0,0,1,6-3.31c4.21,0,7.27,3.53,7.27,9.07,0,6.55-3.49,10.05-7.91,10.05-3,0-4.5-1.23-5.33-2.7v9.43Zm8.28-23.15c-3.78,0-5.3,2.38-5.3,6.84,0,4.28,1.23,6.91,5,6.91,3.35,0,5.12-2.73,5.12-7.23C292.91,183.92,291.14,181.29,288.05,181.29Z"/>
    <path class="cls-7" d="M300.29,197.27V170.85h3.16v26.42Z"/>
    <path class="cls-7" d="M310.69,188.71c0,3.7,1.91,6.37,5,6.37a4.19,4.19,0,0,0,4.39-2.85h3.21c-.72,2.34-2.7,5.48-7.7,5.48-5.73,0-8.07-4.68-8.07-9.36,0-5.44,2.74-9.76,8.28-9.76,5.91,0,7.81,4.72,7.81,8.6,0,.58,0,1.05,0,1.52Zm9.72-2.2c0-3-1.55-5.43-4.64-5.43s-4.65,2.23-5,5.43Z"/>
    <path class="cls-7" d="M338.91,190.29c.69,3,2.74,4.64,6.38,4.64,3.88,0,5.43-1.83,5.43-4.21s-1.22-3.92-6.23-5.11c-5.9-1.44-7.95-3.45-7.95-7,0-3.75,2.73-6.77,8.31-6.77,6,0,8.43,3.46,8.79,6.73h-3.39c-.46-2.19-1.83-4-5.5-4-3.06,0-4.76,1.37-4.76,3.74s1.41,3.28,5.8,4.36c7.13,1.73,8.39,4.5,8.39,7.74,0,4-3,7.2-9.11,7.2-6.3,0-9-3.46-9.54-7.31Z"/>
    <path class="cls-7" d="M358.57,174.78v-3.93h3.17v3.93Zm0,4.24h3.17v18.25h-3.17Z"/>
    <path class="cls-7" d="M365.52,194.72l10.51-13h-10V179h13.57v2.63l-10.37,13h10.87l-.5,2.66H365.52Z"/>
    <path class="cls-7" d="M385.21,188.71c0,3.7,1.91,6.37,5,6.37a4.19,4.19,0,0,0,4.39-2.85h3.21c-.72,2.34-2.7,5.48-7.71,5.48-5.72,0-8.06-4.68-8.06-9.36,0-5.44,2.74-9.76,8.28-9.76,5.9,0,7.81,4.72,7.81,8.6,0,.58,0,1.05,0,1.52Zm9.72-2.2c0-3-1.55-5.43-4.65-5.43s-4.64,2.23-5,5.43Z"/>
  </g>
  <g>
    <path class="cls-5" d="M166.15,242.27c.68,3,2.73,4.64,6.37,4.64,3.88,0,5.43-1.83,5.43-4.21s-1.22-3.92-6.23-5.11c-5.9-1.44-7.95-3.46-7.95-7,0-3.75,2.73-6.77,8.31-6.77,6,0,8.43,3.45,8.79,6.73h-3.39c-.46-2.19-1.83-4-5.5-4-3.06,0-4.75,1.37-4.75,3.74s1.4,3.28,5.79,4.36c7.13,1.73,8.39,4.5,8.39,7.74,0,4-3,7.2-9.11,7.2-6.3,0-9-3.46-9.54-7.31Z"/>
    <path class="cls-5" d="M200.16,243.92c0,1.8,0,4.25,0,5.33h-3.06c-.07-.47-.11-1.58-.14-2.73-.9,2-2.63,3.16-5.51,3.16-3.1,0-6.05-1.54-6.05-6.69V231h3.13v11.34c0,2.38.76,4.61,3.78,4.61,3.35,0,4.65-1.87,4.65-6.45V231h3.16Z"/>
    <path class="cls-5" d="M206.86,244c.5,2,2,3.17,4.46,3.17,2.67,0,3.71-1.15,3.71-2.81s-.83-2.52-4.32-3.35c-5.22-1.25-6.3-2.87-6.3-5.36s1.91-5.11,6.59-5.11,6.66,2.74,6.88,5.26h-3c-.29-1.16-1.19-2.81-4-2.81-2.55,0-3.35,1.22-3.35,2.41,0,1.37.76,2,4.11,2.84,5.54,1.34,6.66,3.17,6.66,5.87,0,3.2-2.56,5.54-7.09,5.54-4.72,0-7.06-2.37-7.53-5.65Z"/>
    <path class="cls-5" d="M236.85,243.67c-.76,3.13-2.88,6-7.53,6-5,0-8.13-3.6-8.13-9.46,0-5.15,2.91-9.65,8.35-9.65,5.25,0,7.09,3.74,7.31,6.08h-3.13a4.05,4.05,0,0,0-4.25-3.45c-3.21,0-5,2.77-5,6.91s1.76,6.95,4.93,6.95c2.27,0,3.6-1.23,4.36-3.39Z"/>
    <path class="cls-5" d="M242.72,240.68c0,3.71,1.9,6.38,5,6.38a4.2,4.2,0,0,0,4.39-2.85h3.2c-.72,2.34-2.69,5.47-7.7,5.47-5.72,0-8.06-4.68-8.06-9.35,0-5.44,2.73-9.76,8.28-9.76,5.9,0,7.81,4.72,7.81,8.6,0,.58,0,1.05,0,1.51Zm9.71-2.19c0-3-1.54-5.44-4.64-5.44s-4.64,2.24-5,5.44Z"/>
    <path class="cls-5" d="M259.67,256.42v-21c0-1.52,0-3.06,0-4.47h3.06c.07.61.1,1.69.1,2.88a6.29,6.29,0,0,1,6-3.31c4.21,0,7.27,3.53,7.27,9.07,0,6.55-3.49,10-7.92,10-2.95,0-4.5-1.22-5.33-2.7v9.44ZM268,233.27c-3.78,0-5.29,2.38-5.29,6.84,0,4.28,1.22,6.91,5,6.91,3.35,0,5.11-2.74,5.11-7.23C272.81,235.9,271.05,233.27,268,233.27Z"/>
    <path class="cls-5" d="M277.85,231H281v-5.4h3.13V231h4v2.56h-4v10.69c0,1.8.43,2.7,2.09,2.7a8.17,8.17,0,0,0,1.58-.15v2.38a8.29,8.29,0,0,1-2.73.32c-2.85,0-4.07-1.47-4.07-4.5V233.56h-3.17Z"/>
    <path class="cls-5" d="M291.53,226.75v-3.92h3.17v3.92Zm0,4.25h3.17v18.25h-3.17Z"/>
    <path class="cls-5" d="M300.06,222.83h3.17v10.76c.79-1.54,2.48-3,5.8-3,4.6,0,7.48,3.78,7.48,9.18s-2.8,9.93-7.95,9.93c-2.92,0-4.47-1.08-5.37-2.84a20,20,0,0,1-.14,2.41h-3c0-2.05,0-4.1,0-6.12Zm8.25,10.4c-3.89,0-5.26,2.6-5.26,7,0,3.82,1.22,6.84,5.08,6.84,3.24,0,5.14-2.77,5.14-7.2C313.27,235.86,311.47,233.23,308.31,233.23Z"/>
    <path class="cls-5" d="M320.73,226.75v-3.92h3.16v3.92Zm0,4.25h3.16v18.25h-3.16Z"/>
    <path class="cls-5" d="M329.26,249.25V222.83h3.17v26.42Z"/>
    <path class="cls-5" d="M337.79,226.75v-3.92H341v3.92Zm0,4.25H341v18.25h-3.17Z"/>
    <path class="cls-5" d="M344.13,231h3.16v-5.4h3.14V231h4v2.56h-4v10.69c0,1.8.43,2.7,2.08,2.7a8.27,8.27,0,0,0,1.59-.15v2.38a8.39,8.39,0,0,1-2.74.32c-2.84,0-4.07-1.47-4.07-4.5V233.56h-3.16Z"/>
    <path class="cls-5" d="M359.89,231c3,8.75,4.57,13.57,5.08,15.44h0c.58-2.08,1.88-6.26,4.86-15.44H373l-6.55,19.08c-1.83,5.36-3.24,6.7-7,6.7-.57,0-1.26,0-2-.11v-2.74c.47,0,1,.07,1.52.07,2.3,0,3.16-1,4.24-4l-6.84-19Z"/>
  </g>
  <g>
    <path class="cls-7" d="M166.15,26.78c.68,3,2.73,4.64,6.37,4.64,3.88,0,5.43-1.84,5.43-4.21,0-2.52-1.22-3.92-6.23-5.11-5.9-1.44-7.95-3.46-7.95-7,0-3.75,2.73-6.77,8.31-6.77,6,0,8.43,3.45,8.79,6.73h-3.39c-.46-2.2-1.83-4-5.5-4-3.06,0-4.75,1.37-4.75,3.74s1.4,3.28,5.79,4.36c7.13,1.72,8.39,4.5,8.39,7.74,0,4-3,7.19-9.11,7.19-6.3,0-9-3.45-9.54-7.3Z"/>
    <path class="cls-7" d="M200.16,28.43c0,1.8,0,4.25,0,5.33h-3.06c-.07-.47-.11-1.58-.14-2.73-.9,2-2.63,3.16-5.51,3.16-3.1,0-6.05-1.55-6.05-6.69v-12h3.13V26.85c0,2.38.76,4.61,3.78,4.61,3.35,0,4.65-1.88,4.65-6.45v-9.5h3.16Z"/>
    <path class="cls-7" d="M206.86,28.54c.5,2,2,3.17,4.46,3.17,2.67,0,3.71-1.15,3.71-2.81s-.83-2.52-4.32-3.35c-5.22-1.26-6.3-2.88-6.3-5.36s1.91-5.11,6.59-5.11,6.66,2.73,6.88,5.25h-3c-.29-1.15-1.19-2.8-4-2.8-2.55,0-3.35,1.22-3.35,2.41,0,1.37.76,2,4.11,2.84,5.54,1.33,6.66,3.17,6.66,5.87,0,3.2-2.56,5.54-7.09,5.54-4.72,0-7.06-2.37-7.53-5.65Z"/>
    <path class="cls-7" d="M236.85,28.18c-.76,3.13-2.88,6-7.53,6-5,0-8.13-3.6-8.13-9.46,0-5.15,2.91-9.65,8.35-9.65,5.25,0,7.09,3.74,7.31,6.08h-3.13a4.05,4.05,0,0,0-4.25-3.45c-3.21,0-5,2.77-5,6.91s1.76,7,4.93,7c2.27,0,3.6-1.23,4.36-3.39Z"/>
    <path class="cls-7" d="M242.72,25.19c0,3.71,1.9,6.38,5,6.38a4.2,4.2,0,0,0,4.39-2.85h3.2c-.72,2.34-2.69,5.47-7.7,5.47-5.72,0-8.06-4.68-8.06-9.36,0-5.43,2.73-9.75,8.28-9.75,5.9,0,7.81,4.71,7.81,8.6,0,.58,0,1.05,0,1.51ZM252.43,23c0-3-1.54-5.44-4.64-5.44s-4.64,2.23-5,5.44Z"/>
    <path class="cls-7" d="M259.67,40.92V20c0-1.51,0-3,0-4.46h3.06c.07.61.1,1.69.1,2.88a6.29,6.29,0,0,1,6-3.31c4.21,0,7.27,3.53,7.27,9.07,0,6.55-3.49,10-7.92,10-2.95,0-4.5-1.22-5.33-2.7v9.43ZM268,17.78c-3.78,0-5.29,2.37-5.29,6.84,0,4.28,1.22,6.91,5,6.91,3.35,0,5.11-2.74,5.11-7.24C272.81,20.41,271.05,17.78,268,17.78Z"/>
    <path class="cls-7" d="M277.85,15.51H281v-5.4h3.13v5.4h4v2.56h-4V28.76c0,1.8.43,2.7,2.09,2.7a8.17,8.17,0,0,0,1.58-.15v2.38a8.29,8.29,0,0,1-2.73.32c-2.85,0-4.07-1.47-4.07-4.5V18.07h-3.17Z"/>
    <path class="cls-7" d="M291.53,11.26V7.34h3.17v3.92Zm0,4.25h3.17V33.76h-3.17Z"/>
    <path class="cls-7" d="M300.06,7.34h3.17V18.1c.79-1.55,2.48-3,5.8-3,4.6,0,7.48,3.78,7.48,9.18s-2.8,9.93-7.95,9.93c-2.92,0-4.47-1.08-5.37-2.84a20,20,0,0,1-.14,2.41h-3c0-2,0-4.1,0-6.12Zm8.25,10.4c-3.89,0-5.26,2.59-5.26,7,0,3.82,1.22,6.84,5.08,6.84,3.24,0,5.14-2.77,5.14-7.2C313.27,20.37,311.47,17.74,308.31,17.74Z"/>
    <path class="cls-7" d="M320.73,11.26V7.34h3.16v3.92Zm0,4.25h3.16V33.76h-3.16Z"/>
    <path class="cls-7" d="M329.26,33.76V7.34h3.17V33.76Z"/>
    <path class="cls-7" d="M337.79,11.26V7.34H341v3.92Zm0,4.25H341V33.76h-3.17Z"/>
    <path class="cls-7" d="M344.13,15.51h3.16v-5.4h3.14v5.4h4v2.56h-4V28.76c0,1.8.43,2.7,2.08,2.7a8.27,8.27,0,0,0,1.59-.15v2.38a8.39,8.39,0,0,1-2.74.32c-2.84,0-4.07-1.47-4.07-4.5V18.07h-3.16Z"/>
    <path class="cls-7" d="M359.89,15.51c3,8.75,4.57,13.57,5.08,15.44h0c.58-2.08,1.88-6.26,4.86-15.44H373l-6.55,19.08c-1.83,5.36-3.24,6.69-7,6.69-.57,0-1.26,0-2-.1V38.44c.47,0,1,.07,1.52.07,2.3,0,3.16-1,4.24-4l-6.84-19Z"/>
  </g>
  <polyline class="cls-8" points="123.92 126.03 123.92 237.46 145.44 237.46"/>
  <g>
    <polyline class="cls-6" points="159.27 56.87 171.67 56.87 171.69 56.87 171.69 146.78"/>
    <line class="cls-6" x1="159.27" y1="146.78" x2="171.67" y2="146.78"/>
  </g>
</svg>
