<svg id="Layer_4" data-name="Layer 4" xmlns="http://www.w3.org/2000/svg" xmlns:xlink="http://www.w3.org/1999/xlink" viewBox="0 0 448.5 151.26">
  <defs>
    <style>
      .cls-1 {
        fill: #231f20;
      }

      .cls-2 {
        fill: url(#linear-gradient);
      }
    </style>
    <linearGradient id="linear-gradient" x1="-24.8" y1="849.38" x2="413" y2="849.38" gradientTransform="translate(31.12 -762.5)" gradientUnits="userSpaceOnUse">
      <stop offset="0" stop-color="#eddfdc"/>
      <stop offset="0.5" stop-color="#e1cf75"/>
      <stop offset="1" stop-color="#7cc243"/>
    </linearGradient>
  </defs>
  <title>Artboard 1 copy</title>
  <g>
    <path class="cls-1" d="M24.64,131.9c0,5.87-1.66,12.46-8.28,12.46s-8.28-6.16-8.28-12.28,2-12.27,8.39-12.27S24.64,125.85,24.64,131.9Zm-13.21.18c0,4.5.79,9.58,5,9.58s4.94-4.83,4.94-9.72c0-4.57-.8-9.43-4.83-9.43S11.43,126.86,11.43,132.08Z"/>
    <path class="cls-1" d="M39.87,126.54c0,3.81-2.06,6.8-6.09,6.8-3.78,0-5.94-2.66-5.94-6.77,0-3.63,2.06-6.76,6-6.76C37.56,119.81,39.87,122.36,39.87,126.54Zm-9.33,0c0,2.7,1.15,4.5,3.35,4.5s3.35-1.69,3.35-4.5-1.26-4.43-3.42-4.43C31.84,122.11,30.54,123.69,30.54,126.54Zm2.81,17.38,15.41-23.68h2.7L36.05,143.92ZM57,137.59c0,3.81-2.05,6.77-6.08,6.8-3.85,0-6-2.81-6-6.77,0-3.67,2.05-6.76,6-6.76C54.66,130.86,57,133.41,57,137.59Zm-9.36,0c0,2.66,1.16,4.5,3.39,4.5s3.31-1.69,3.31-4.5-1.26-4.43-3.38-4.43C49,133.16,47.6,134.82,47.6,137.59Z"/>
  </g>
  <g>
    <path class="cls-1" d="M211.31,123h-9.9c-.22,1.91-.79,5.51-1,6.77a6.34,6.34,0,0,1,5-1.91c4.32,0,7.13,3,7.13,7.89,0,4.6-2.41,8.64-8.17,8.64-4.21,0-7.27-2.34-7.89-6.38h3.21a4.63,4.63,0,0,0,4.79,3.75c3.23,0,4.82-2.31,4.82-5.8,0-3.06-1.26-5.4-4.57-5.4-2.85,0-4,1.19-4.86,3.1l-2.95-.54c.72-3.1,1.62-9.86,1.94-12.85h13Z"/>
    <path class="cls-1" d="M232.65,131.9c0,5.87-1.65,12.46-8.27,12.46s-8.28-6.16-8.28-12.28,2-12.27,8.38-12.27S232.65,125.85,232.65,131.9Zm-13.21.18c0,4.5.8,9.58,5,9.58s4.93-4.83,4.93-9.72c0-4.57-.79-9.43-4.82-9.43S219.44,126.86,219.44,132.08Z"/>
    <path class="cls-1" d="M247.88,126.54c0,3.81-2,6.8-6.08,6.8-3.78,0-5.94-2.66-5.94-6.77,0-3.63,2-6.76,6-6.76C245.58,119.81,247.88,122.36,247.88,126.54Zm-9.32,0c0,2.7,1.15,4.5,3.35,4.5s3.34-1.69,3.34-4.5-1.25-4.43-3.42-4.43C239.86,122.11,238.56,123.69,238.56,126.54Zm2.81,17.38,15.4-23.68h2.7l-15.4,23.68ZM265,137.59c0,3.81-2.05,6.77-6.08,6.8-3.85,0-6-2.81-6-6.77,0-3.67,2.05-6.76,6-6.76C262.68,130.86,265,133.41,265,137.59Zm-9.36,0c0,2.66,1.15,4.5,3.38,4.5s3.32-1.69,3.32-4.5-1.26-4.43-3.39-4.43C257,133.16,255.62,134.82,255.62,137.59Z"/>
  </g>
  <g>
    <path class="cls-1" d="M365.73,143.92V124a15.62,15.62,0,0,1-4.89,2v-2.56a14.86,14.86,0,0,0,5.76-3.38H369v23.79Z"/>
    <path class="cls-1" d="M390.93,131.9c0,5.87-1.65,12.46-8.28,12.46-6.48,0-8.27-6.16-8.27-12.28s2-12.27,8.38-12.27S390.93,125.85,390.93,131.9Zm-13.21.18c0,4.5.79,9.58,5,9.58s4.93-4.83,4.93-9.72c0-4.57-.79-9.43-4.82-9.43S377.72,126.86,377.72,132.08Z"/>
    <path class="cls-1" d="M411.2,131.9c0,5.87-1.66,12.46-8.28,12.46s-8.28-6.16-8.28-12.28,2-12.27,8.39-12.27S411.2,125.85,411.2,131.9Zm-13.21.18c0,4.5.79,9.58,5,9.58s4.93-4.83,4.93-9.72c0-4.57-.79-9.43-4.82-9.43S398,126.86,398,132.08Z"/>
    <path class="cls-1" d="M426.43,126.54c0,3.81-2.05,6.8-6.09,6.8-3.77,0-5.93-2.66-5.93-6.77,0-3.63,2-6.76,6-6.76C424.12,119.81,426.43,122.36,426.43,126.54Zm-9.32,0c0,2.7,1.15,4.5,3.34,4.5s3.35-1.69,3.35-4.5-1.26-4.43-3.42-4.43C418.4,122.11,417.11,123.69,417.11,126.54Zm2.8,17.38,15.41-23.68H438l-15.41,23.68Zm23.62-6.33c0,3.81-2.06,6.77-6.09,6.8-3.85,0-6-2.81-6-6.77,0-3.67,2-6.76,6-6.76C441.22,130.86,443.53,133.41,443.53,137.59Zm-9.36,0c0,2.66,1.15,4.5,3.38,4.5s3.31-1.69,3.31-4.5-1.26-4.43-3.38-4.43C435.54,133.16,434.17,134.82,434.17,137.59Z"/>
  </g>
  <rect class="cls-2" x="6.32" y="66" width="437.8" height="41.76"/>
  <g>
    <path class="cls-1" d="M11.5,25c.69,3,2.74,4.64,6.38,4.64,3.88,0,5.43-1.84,5.43-4.21s-1.22-3.93-6.23-5.11c-5.9-1.44-7.95-3.46-7.95-7,0-3.74,2.73-6.76,8.31-6.76,6,0,8.43,3.45,8.79,6.73H22.84c-.47-2.2-1.83-4-5.51-4-3,0-4.75,1.36-4.75,3.74s1.41,3.28,5.8,4.35c7.13,1.73,8.39,4.5,8.39,7.74,0,4-3,7.2-9.11,7.2-6.3,0-9-3.45-9.54-7.3Z"/>
    <path class="cls-1" d="M45.52,26.63c0,1.8,0,4.25,0,5.33H42.5c-.07-.47-.11-1.58-.15-2.74-.9,2-2.62,3.17-5.5,3.17-3.1,0-6.05-1.55-6.05-6.69v-12h3.13V25.05c0,2.37.76,4.61,3.78,4.61,3.35,0,4.64-1.88,4.64-6.45v-9.5h3.17Z"/>
    <path class="cls-1" d="M52.22,26.74c.5,2,2,3.17,4.46,3.17,2.67,0,3.71-1.15,3.71-2.81s-.83-2.52-4.32-3.35c-5.22-1.26-6.3-2.88-6.3-5.36s1.91-5.11,6.59-5.11S63,16,63.23,18.53h-3c-.29-1.15-1.19-2.8-4-2.8-2.55,0-3.35,1.22-3.35,2.41,0,1.36.76,2.05,4.11,2.84,5.54,1.33,6.66,3.17,6.66,5.87,0,3.2-2.56,5.54-7.09,5.54-4.72,0-7.06-2.37-7.53-5.65Z"/>
    <path class="cls-1" d="M82.21,26.38c-.76,3.13-2.88,6-7.53,6-5,0-8.13-3.6-8.13-9.47,0-5.14,2.91-9.64,8.35-9.64,5.25,0,7.09,3.74,7.31,6.08H79.07a4,4,0,0,0-4.24-3.46c-3.21,0-5,2.78-5,6.92s1.76,6.94,4.93,6.94c2.27,0,3.6-1.22,4.35-3.38Z"/>
    <path class="cls-1" d="M88.07,23.39c0,3.71,1.91,6.37,5,6.37a4.2,4.2,0,0,0,4.39-2.84h3.2C100,29.26,98,32.39,93,32.39c-5.72,0-8.06-4.68-8.06-9.36,0-5.43,2.73-9.75,8.28-9.75,5.9,0,7.81,4.71,7.81,8.6,0,.58,0,1,0,1.51Zm9.72-2.19c0-3-1.54-5.44-4.64-5.44s-4.64,2.23-5,5.44Z"/>
    <path class="cls-1" d="M105,39.12V18.17c0-1.51,0-3.06,0-4.46h3a26.53,26.53,0,0,1,.11,2.88,6.29,6.29,0,0,1,6-3.31c4.21,0,7.27,3.52,7.27,9.07,0,6.55-3.49,10-7.92,10-2.95,0-4.5-1.22-5.33-2.7v9.43ZM113.31,16c-3.78,0-5.29,2.37-5.29,6.84,0,4.28,1.22,6.91,5,6.91,3.35,0,5.11-2.74,5.11-7.24C118.17,18.6,116.41,16,113.31,16Z"/>
    <path class="cls-1" d="M123.21,13.71h3.17V8.31h3.13v5.4h4v2.56h-4V27c0,1.8.43,2.7,2.09,2.7a8.17,8.17,0,0,0,1.58-.15v2.38a8.57,8.57,0,0,1-2.73.32c-2.85,0-4.07-1.47-4.07-4.5V16.27h-3.17Z"/>
    <path class="cls-1" d="M136.89,9.46V5.54h3.17V9.46Zm0,4.25h3.17V32h-3.17Z"/>
    <path class="cls-1" d="M145.42,5.54h3.17V16.3c.79-1.55,2.48-3,5.79-3,4.61,0,7.49,3.78,7.49,9.18s-2.81,9.93-8,9.93c-2.92,0-4.47-1.08-5.37-2.84a20.15,20.15,0,0,1-.14,2.41h-3c0-2.05,0-4.1,0-6.12Zm8.25,10.4c-3.89,0-5.26,2.59-5.26,7,0,3.81,1.22,6.84,5.08,6.84,3.23,0,5.14-2.77,5.14-7.2C158.63,18.57,156.83,15.94,153.67,15.94Z"/>
    <path class="cls-1" d="M166.08,9.46V5.54h3.17V9.46Zm0,4.25h3.17V32h-3.17Z"/>
    <path class="cls-1" d="M174.62,32V5.54h3.17V32Z"/>
    <path class="cls-1" d="M183.15,9.46V5.54h3.17V9.46Zm0,4.25h3.17V32h-3.17Z"/>
    <path class="cls-1" d="M189.49,13.71h3.16V8.31h3.14v5.4h4v2.56h-4V27c0,1.8.43,2.7,2.08,2.7a8.34,8.34,0,0,0,1.59-.15v2.38a8.67,8.67,0,0,1-2.74.32c-2.84,0-4.07-1.47-4.07-4.5V16.27h-3.16Z"/>
    <path class="cls-1" d="M205.25,13.71c2.95,8.75,4.57,13.57,5.08,15.44h0c.58-2.09,1.88-6.26,4.86-15.44h3.17l-6.55,19.08c-1.84,5.36-3.24,6.69-7,6.69a18.27,18.27,0,0,1-2-.11V36.64c.47,0,1,.07,1.51.07,2.31,0,3.17-1,4.25-4l-6.84-19Z"/>
  </g>
</svg>
