<?xml version="1.0" standalone="no"?>
<!DOCTYPE svg PUBLIC "-//W3C//DTD SVG 20010904//EN"
 "http://www.w3.org/TR/2001/REC-SVG-20010904/DTD/svg10.dtd">
<svg version="1.0" xmlns="http://www.w3.org/2000/svg"
 width="896.000000pt" height="896.000000pt" viewBox="0 0 896.000000 896.000000"
 preserveAspectRatio="xMidYMid meet">
<metadata>
Created by potrace 1.11, written by Peter Selinger 2001-2013
</metadata>
<g transform="translate(0.000000,896.000000) scale(0.100000,-0.100000)"
fill="#000000" stroke="none">
<path d="M4381 8783 c-36 -7 -107 -84 -118 -129 -26 -110 51 -221 159 -228 45
-3 112 18 139 44 36 34 59 97 54 150 -9 119 -107 187 -234 163z"/>
<path d="M5041 8513 c-59 -17 -108 -66 -125 -123 -16 -56 -11 -93 20 -147 92
-160 334 -87 334 100 0 114 -120 202 -229 170z"/>
<path d="M3725 8505 c-46 -25 -83 -65 -90 -96 -4 -16 -10 -29 -14 -29 -11 0
-3 -75 12 -111 21 -49 70 -96 119 -112 36 -12 49 -13 86 -2 154 47 194 240 69
330 -50 36 -135 45 -182 20z"/>
<path d="M4314 8274 c-159 -37 -284 -124 -368 -254 -36 -55 -74 -136 -82 -175
-29 -134 -19 -276 26 -372 11 -24 20 -46 20 -49 0 -14 90 -131 126 -164 205
-186 513 -208 739 -51 113 78 209 215 231 330 3 13 9 31 13 40 5 9 9 58 9 109
1 197 -77 361 -228 477 -77 59 -143 90 -235 111 -52 11 -201 10 -251 -2z"/>
<path d="M6808 7934 c-2 -1 -16 -5 -32 -8 -97 -18 -163 -133 -130 -229 54
-159 258 -176 334 -27 10 19 19 49 21 65 6 65 -44 153 -101 177 -31 13 -88 27
-92 22z"/>
<path d="M2050 7896 c-67 -30 -109 -85 -114 -151 -6 -65 9 -106 57 -154 30
-31 123 -66 133 -50 3 5 11 9 17 8 44 -5 104 37 134 94 41 80 1 202 -80 244
-38 19 -115 24 -147 9z"/>
<path d="M3505 7880 c-11 -4 -23 -6 -27 -3 -5 2 -8 -1 -8 -6 0 -6 -6 -11 -13
-11 -19 0 -72 -50 -89 -85 -23 -44 -20 -140 5 -182 58 -99 205 -120 286 -41
40 39 53 68 55 127 3 68 -19 121 -71 164 -27 24 -112 46 -138 37z"/>
<path d="M5260 7870 c-79 -45 -103 -83 -106 -169 -3 -79 15 -121 69 -165 32
-26 47 -30 104 -32 103 -4 170 40 193 125 19 73 -4 172 -49 209 -60 50 -156
64 -211 32z"/>
<path d="M6095 7648 c-65 -32 -95 -76 -101 -150 -4 -54 -2 -69 18 -103 74
-127 256 -123 324 8 8 15 13 27 11 27 -2 0 -1 20 3 45 4 25 3 48 -2 51 -4 3
-8 13 -8 23 0 10 -9 26 -20 36 -11 10 -18 20 -15 23 3 3 -12 16 -32 30 -48 33
-123 38 -178 10z"/>
<path d="M7377 7647 c-45 -27 -65 -50 -85 -99 -46 -112 28 -232 150 -245 111
-11 198 70 198 185 0 98 -94 186 -193 180 -21 -1 -53 -11 -70 -21z"/>
<path d="M1433 7625 c-41 -18 -86 -62 -102 -102 -16 -40 -12 -121 8 -153 31
-51 101 -94 151 -94 32 0 93 16 105 27 6 7 24 21 39 32 34 26 68 147 45 161
-5 3 -7 9 -4 13 7 12 -52 91 -73 98 -9 4 -20 11 -23 16 -11 15 -112 17 -146 2z"/>
<path d="M2735 7632 c-33 -8 -92 -60 -109 -97 -27 -57 -23 -120 11 -175 43
-68 80 -89 155 -86 57 2 98 21 130 60 10 12 23 27 29 34 6 7 13 39 16 71 8 81
-26 143 -99 182 -24 13 -99 20 -133 11z"/>
<path d="M6680 7432 c-69 -19 -167 -62 -203 -90 -50 -39 -144 -142 -162 -178
-11 -22 -25 -46 -32 -54 -6 -8 -11 -17 -11 -20 1 -3 -7 -30 -18 -60 -26 -78
-27 -273 0 -350 23 -68 57 -135 88 -175 33 -43 127 -135 138 -135 5 0 15 -6
22 -12 20 -20 97 -54 161 -72 269 -77 576 66 694 321 15 32 28 60 28 63 1 3 7
32 14 65 14 61 17 217 6 235 -4 6 -9 22 -11 37 -15 82 -92 211 -170 284 -73
68 -178 124 -271 145 -69 15 -209 13 -273 -4z"/>
<path d="M2098 7405 c-2 -2 -23 -5 -48 -8 -103 -12 -227 -71 -306 -145 -137
-129 -197 -266 -197 -457 0 -120 60 -279 135 -357 14 -15 28 -31 30 -35 6 -14
103 -88 145 -111 173 -94 405 -92 566 3 32 19 61 35 64 35 16 0 144 147 170
196 36 70 67 160 59 173 -4 5 -2 12 3 15 12 8 12 176 0 224 -54 208 -194 366
-382 432 -31 11 -71 22 -90 25 -38 6 -145 13 -149 10z"/>
<path d="M5070 7239 c-57 -10 -85 -25 -114 -60 -54 -64 -63 -136 -28 -206 52
-102 188 -126 283 -50 30 23 59 90 59 137 0 103 -105 197 -200 179z"/>
<path d="M3725 7222 c-119 -57 -142 -207 -45 -302 16 -16 44 -37 61 -46 114
-58 271 92 236 226 -28 110 -151 169 -252 122z"/>
<path d="M5853 7027 c-52 -16 -109 -76 -120 -127 -28 -124 76 -243 198 -226
91 13 161 90 161 177 -1 126 -118 213 -239 176z"/>
<path d="M7660 7012 c-92 -31 -138 -128 -107 -227 22 -73 119 -131 197 -119
115 19 176 118 144 233 -29 100 -128 148 -234 113z"/>
<path d="M1147 6973 c-62 -35 -91 -83 -92 -153 0 -68 23 -116 73 -151 20 -13
38 -24 41 -24 3 0 11 -3 16 -6 6 -4 32 -6 58 -4 88 4 167 81 172 168 4 79 -37
145 -112 179 -53 23 -101 21 -156 -9z"/>
<path d="M2958 6977 c-52 -26 -89 -90 -90 -155 0 -75 36 -134 103 -165 106
-49 228 13 246 125 24 156 -120 264 -259 195z"/>
<path d="M4415 6970 c-22 -4 -51 -13 -65 -21 -27 -15 -74 -59 -64 -59 4 0 -1
-11 -10 -25 -47 -71 6 -201 98 -240 44 -19 118 -10 165 19 49 32 89 104 85
157 -5 75 -68 154 -131 165 -15 3 -29 6 -32 8 -3 1 -24 -1 -46 -4z"/>
<path d="M7405 6397 c-28 -9 -115 -83 -113 -96 1 -3 -2 -13 -5 -21 -33 -80 16
-191 100 -226 80 -34 159 -12 216 59 38 47 48 126 23 179 -17 35 -91 97 -124
103 -9 2 -17 4 -17 5 0 7 -56 5 -80 -3z"/>
<path d="M6095 6384 c-149 -80 -137 -283 20 -336 137 -47 270 82 229 223 -14
46 -59 92 -114 115 -39 16 -102 15 -135 -2z"/>
<path d="M1416 6345 c-46 -16 -93 -59 -110 -100 -25 -60 3 -195 41 -195 8 0
27 -8 41 -18 56 -39 128 -47 167 -20 49 35 75 64 88 97 57 141 -82 286 -227
236z"/>
<path d="M2730 6354 c-102 -34 -144 -86 -144 -179 0 -49 5 -67 27 -100 15 -22
27 -36 27 -32 0 4 19 -3 43 -17 24 -14 54 -27 67 -29 60 -9 146 37 176 95 18
34 26 126 12 134 -4 3 -8 12 -8 21 0 26 -73 90 -116 102 -41 12 -60 12 -84 5z"/>
<path d="M4366 6213 c-1 -1 -33 -5 -72 -7 -100 -8 -156 -17 -298 -51 -30 -7
-150 -47 -161 -54 -5 -3 -14 -6 -20 -7 -5 -1 -31 -11 -58 -23 -26 -11 -51 -21
-55 -22 -4 -1 -19 -10 -34 -20 -14 -10 -30 -19 -34 -19 -9 0 -177 -105 -208
-130 -181 -144 -279 -247 -385 -400 -51 -73 -175 -295 -173 -310 0 -3 -6 -21
-14 -39 -8 -19 -24 -67 -35 -105 -11 -39 -23 -78 -26 -86 -3 -8 -7 -24 -9 -35
-1 -11 -7 -38 -13 -61 -10 -41 -17 -85 -27 -179 -7 -65 -7 -249 0 -300 3 -22
8 -62 11 -90 6 -53 12 -90 15 -90 1 0 3 -9 5 -20 2 -11 7 -35 10 -53 9 -48 51
-174 89 -266 30 -71 51 -111 117 -226 43 -76 165 -227 248 -310 143 -142 280
-240 452 -323 82 -40 184 -84 199 -85 6 -1 33 -10 70 -23 14 -5 59 -16 100
-25 41 -8 84 -17 95 -20 81 -17 389 -25 475 -11 19 3 58 8 85 12 28 4 77 13
110 22 33 8 65 16 70 17 159 35 478 196 580 294 8 6 16 12 20 12 7 0 24 15
120 108 170 163 286 332 395 576 21 47 77 223 86 270 2 11 6 32 9 46 12 57 15
78 22 140 9 82 9 306 1 385 -4 33 -14 96 -24 140 -9 44 -18 87 -19 95 0 8 -6
25 -13 36 -6 12 -9 24 -5 27 3 4 2 12 -4 19 -5 7 -20 45 -33 83 -13 39 -29 79
-37 90 -7 11 -13 27 -13 37 0 10 -5 18 -12 18 -6 0 -9 3 -5 6 3 3 -7 27 -21
52 -15 26 -33 58 -40 72 -24 47 -139 202 -203 272 -79 89 -206 200 -290 256
-35 23 -70 46 -76 52 -26 22 -232 121 -313 150 -95 34 -139 46 -270 75 -71 15
-374 37 -384 28z"/>
<path d="M6771 6132 c-73 -12 -141 -99 -141 -178 0 -99 88 -183 185 -178 25 2
51 6 58 11 6 4 17 8 24 9 19 3 71 64 83 98 7 17 15 38 19 46 9 19 -7 100 -20
100 -5 0 -9 6 -9 13 0 14 -31 43 -68 65 -24 13 -92 21 -131 14z"/>
<path d="M2051 6079 c-68 -27 -110 -85 -117 -161 -6 -54 28 -120 78 -155 35
-23 51 -28 103 -28 103 0 170 60 181 160 5 46 -14 105 -44 138 -44 49 -140 71
-201 46z"/>
<path d="M1028 5563 c-16 -2 -28 -9 -28 -14 0 -5 -4 -9 -10 -9 -21 0 -68 -59
-75 -96 -37 -172 82 -304 235 -260 85 24 133 87 136 179 6 146 -97 226 -258
200z"/>
<path d="M7774 5538 c-101 -68 -114 -163 -36 -255 41 -47 139 -67 199 -41 71
31 126 126 110 189 -19 75 -102 138 -183 139 -31 0 -55 -9 -90 -32z"/>
<path d="M7160 5324 c-131 -55 -161 -212 -60 -309 96 -92 272 -37 297 93 10
53 10 73 2 78 -5 3 -9 15 -9 27 -1 25 -30 62 -77 95 -39 28 -107 35 -153 16z"/>
<path d="M8451 5324 c-38 -14 -58 -30 -100 -80 -22 -27 -29 -112 -12 -156 5
-13 10 -27 12 -33 6 -18 54 -57 86 -71 42 -18 112 -18 149 1 115 57 140 212
47 295 -58 53 -116 66 -182 44z"/>
<path d="M411 5269 c-41 -9 -82 -29 -99 -49 -47 -56 -62 -142 -34 -201 16 -34
59 -78 77 -80 6 0 19 -2 30 -5 106 -23 172 -2 218 68 21 33 33 123 17 133 -5
3 -8 11 -4 16 9 15 -52 85 -89 102 -43 21 -75 25 -116 16z"/>
<path d="M1646 5258 c-70 -36 -109 -137 -84 -218 13 -44 55 -100 74 -100 7 0
14 -4 14 -8 0 -5 6 -9 13 -10 6 -1 33 -4 59 -8 40 -5 55 -2 91 19 111 65 133
198 50 293 -45 53 -148 68 -217 32z"/>
<path d="M7775 5091 c-4 -3 -10 -6 -13 -6 -84 -6 -201 -64 -298 -147 -34 -30
-106 -132 -128 -183 -10 -22 -22 -49 -27 -60 -12 -26 -29 -118 -23 -127 2 -3
0 -9 -5 -13 -6 -3 -8 -11 -6 -18 3 -7 6 -41 9 -77 11 -186 104 -343 270 -451
105 -69 190 -93 331 -92 101 1 211 31 288 80 23 14 42 25 43 22 0 -2 29 25 65
61 223 223 244 554 49 798 -112 139 -260 212 -445 217 -57 2 -107 0 -110 -4z"/>
<path d="M1078 5045 c-3 -3 -27 -8 -54 -10 -71 -7 -94 -13 -184 -49 -129 -52
-290 -241 -315 -370 -2 -12 -4 -21 -5 -21 -7 0 -12 -57 -12 -145 1 -102 2
-118 15 -150 4 -8 16 -40 27 -72 19 -52 108 -184 134 -200 6 -3 24 -18 41 -32
59 -51 190 -109 273 -122 116 -17 266 10 375 68 127 68 257 235 280 359 3 13
8 36 12 50 38 148 -31 380 -149 502 -66 69 -179 144 -226 152 -3 0 -11 4 -17
8 -7 5 -13 6 -13 3 0 -3 -12 -1 -27 5 -16 6 -51 12 -80 14 -28 1 -56 5 -61 9
-5 3 -11 3 -14 1z"/>
<path d="M8696 4675 c-24 -11 -50 -28 -58 -36 -45 -44 -61 -125 -39 -191 13
-39 71 -98 96 -98 8 0 15 -4 15 -9 0 -4 21 -8 48 -8 49 0 122 22 122 38 0 5 6
9 14 9 20 0 54 76 60 130 12 128 -137 224 -258 165z"/>
<path d="M6905 4681 c-130 -38 -170 -210 -71 -307 22 -21 90 -50 116 -49 120
7 195 90 191 213 -2 49 -66 127 -114 138 -36 9 -100 11 -122 5z"/>
<path d="M148 4629 c-16 -4 -28 -5 -28 -3 0 3 -6 0 -12 -5 -7 -6 -27 -22 -45
-36 -64 -52 -78 -151 -31 -221 38 -56 84 -79 155 -78 54 0 68 4 100 30 42 34
82 105 81 146 -3 99 -127 193 -220 167z"/>
<path d="M1952 4629 c-135 -28 -185 -197 -87 -296 76 -77 220 -62 281 30 23
34 28 52 27 99 -1 49 -6 64 -33 98 -48 61 -114 85 -188 69z"/>
<path d="M7170 4050 c-33 -9 -71 -31 -88 -50 -107 -125 -21 -315 140 -306 59
4 87 17 125 59 66 73 64 176 -5 252 -39 43 -111 62 -172 45z"/>
<path d="M8428 4041 c-74 -38 -107 -95 -104 -178 4 -128 143 -210 256 -151
126 65 140 220 27 311 -48 39 -124 47 -179 18z"/>
<path d="M455 3994 c-5 -1 -27 -5 -48 -9 -101 -17 -165 -145 -123 -246 28 -67
108 -111 186 -102 48 6 118 42 126 65 3 10 9 18 14 18 10 0 24 75 21 110 -3
33 -28 87 -50 108 -21 21 -81 55 -81 47 0 -3 -8 -2 -17 3 -10 5 -22 8 -28 6z"/>
<path d="M1715 3990 c-86 -13 -156 -90 -156 -173 -1 -53 3 -68 22 -98 9 -13
16 -28 15 -32 -1 -5 22 -19 49 -33 141 -69 301 38 273 184 -18 98 -109 166
-203 152z"/>
<path d="M7773 3769 c-44 -21 -78 -65 -86 -109 -3 -14 -6 -29 -7 -35 -13 -57
30 -140 89 -173 27 -15 51 -20 98 -18 63 2 76 8 131 65 20 20 38 69 32 87 -1
4 5 11 13 16 26 14 -2 99 -47 144 -47 47 -153 58 -223 23z"/>
<path d="M1019 3713 c-136 -57 -148 -249 -19 -322 38 -21 113 -30 160 -19 37
9 89 51 106 86 23 46 27 128 9 163 -22 41 -66 90 -76 83 -5 -3 -9 -1 -9 4 0
10 -6 11 -82 16 -33 2 -70 -3 -89 -11z"/>
<path d="M6718 3196 c-69 -52 -98 -133 -74 -202 37 -107 146 -156 246 -112 55
24 88 64 105 127 11 42 10 54 -6 96 -30 80 -84 118 -171 121 -53 1 -64 -2
-100 -30z"/>
<path d="M2118 3175 c-1 -2 -16 -5 -33 -7 -143 -18 -201 -202 -97 -306 40 -40
76 -55 135 -57 143 -2 235 134 178 265 -19 45 -69 87 -114 96 -12 2 -32 6 -44
8 -11 3 -23 3 -25 1z"/>
<path d="M6109 2970 c-19 -10 -44 -31 -55 -45 -10 -15 -24 -32 -29 -39 -22
-24 -37 -77 -33 -118 6 -61 9 -68 47 -110 100 -111 276 -62 309 87 11 49 -4
106 -39 156 -34 48 -41 54 -76 73 -41 21 -79 20 -124 -4z"/>
<path d="M7405 2957 c-40 -13 -102 -73 -115 -111 -13 -39 -19 -94 -12 -101 3
-3 7 -13 8 -21 9 -63 118 -138 185 -128 56 9 101 36 136 82 27 36 33 53 33 93
0 128 -120 224 -235 186z"/>
<path d="M1411 2919 c-46 -20 -57 -30 -84 -72 -23 -35 -37 -110 -25 -131 5 -9
11 -25 13 -36 4 -20 28 -50 40 -50 3 0 22 -11 43 -25 138 -92 315 58 254 215
-12 32 -59 81 -93 98 -41 21 -102 22 -148 1z"/>
<path d="M2728 2929 c-7 -5 -21 -9 -31 -9 -21 0 -71 -49 -93 -92 -23 -44 -20
-117 6 -161 12 -21 27 -37 33 -37 6 0 21 -9 33 -21 100 -94 265 -11 273 138 5
102 -64 178 -170 187 -21 2 -43 -1 -51 -5z"/>
<path d="M6755 2728 c-22 -3 -57 -10 -79 -13 -41 -7 -41 -7 -127 -50 -65 -32
-105 -63 -162 -122 -37 -40 -108 -146 -111 -168 -1 -5 -5 -15 -8 -20 -30 -47
-45 -274 -25 -354 34 -133 98 -233 210 -328 32 -27 151 -88 192 -98 17 -5 37
-10 45 -13 26 -9 254 -7 275 2 11 5 27 10 36 12 38 8 155 71 186 101 7 6 23
20 36 30 79 63 161 213 182 333 8 43 8 166 0 200 -3 14 -8 39 -11 55 -7 39
-83 195 -95 195 -5 0 -9 5 -9 10 0 14 -121 130 -136 130 -7 0 -14 3 -16 8 -5
11 -78 48 -131 66 -83 28 -181 37 -252 24z"/>
<path d="M2117 2704 c-1 -1 -23 -4 -48 -7 -133 -16 -262 -79 -352 -172 -49
-52 -60 -66 -91 -120 -28 -50 -69 -155 -60 -155 3 0 0 -9 -6 -21 -14 -26 -15
-195 -1 -230 5 -15 8 -29 5 -31 -8 -9 65 -178 77 -178 4 0 10 -8 13 -18 9 -26
95 -113 147 -150 43 -29 152 -79 193 -88 72 -16 195 -23 202 -12 3 5 10 6 15
3 5 -4 36 1 69 9 166 43 316 164 388 316 22 47 45 107 50 133 16 80 12 211 -8
283 -23 79 -81 189 -121 227 -16 15 -26 27 -23 27 3 0 -9 12 -28 27 -18 15
-35 31 -38 34 -9 13 -155 88 -180 93 -14 3 -43 10 -64 15 -22 5 -42 9 -45 9
-3 0 -8 0 -11 2 -6 2 -81 6 -83 4z"/>
<path d="M4445 2325 c-48 -27 -83 -77 -92 -128 -3 -20 -9 -40 -13 -42 -17 -10
16 -82 56 -121 113 -114 297 -27 290 138 -5 132 -133 213 -241 153z"/>
<path d="M5837 2335 c-71 -29 -117 -100 -117 -180 0 -135 114 -227 236 -190
70 21 118 79 131 160 3 17 6 31 8 33 8 9 -19 89 -41 117 -46 61 -147 88 -217
60z"/>
<path d="M7653 2343 c-13 -2 -23 -8 -23 -13 0 -4 -9 -10 -19 -13 -11 -2 -31
-23 -46 -46 -48 -71 -40 -167 20 -252 20 -29 67 -50 118 -54 103 -7 173 50
196 161 15 73 2 122 -44 168 -45 46 -123 64 -202 49z"/>
<path d="M1155 2284 c-21 -8 -50 -24 -63 -37 -42 -38 -70 -109 -54 -131 5 -6
14 -29 20 -51 12 -42 74 -120 85 -108 4 3 7 1 7 -4 0 -6 17 -14 39 -18 104
-17 199 61 206 170 9 124 -122 221 -240 179z"/>
<path d="M2966 2287 c-40 -14 -86 -56 -102 -94 -16 -38 -18 -83 -4 -83 6 0 10
-9 10 -20 0 -53 53 -118 120 -145 33 -14 115 -10 130 5 3 3 18 14 33 24 16 10
38 38 49 63 20 45 20 47 3 111 -18 65 -48 107 -92 130 -30 16 -112 21 -147 9z"/>
<path d="M3812 2063 c-100 -46 -137 -159 -84 -257 43 -79 114 -115 189 -94
142 38 195 207 98 309 -50 54 -138 72 -203 42z"/>
<path d="M5119 2070 c-70 -20 -129 -100 -129 -174 0 -60 47 -144 95 -168 87
-45 185 -16 241 73 31 49 35 128 10 177 -18 34 -73 83 -103 90 -35 8 -88 9
-114 2z"/>
<path d="M4456 1842 c-2 -2 -22 -5 -45 -7 -123 -12 -296 -121 -374 -234 -79
-115 -108 -203 -111 -341 -3 -117 47 -284 100 -338 8 -7 14 -17 14 -22 0 -17
116 -123 170 -154 49 -29 130 -62 180 -73 8 -2 49 -6 91 -10 163 -12 329 50
448 168 35 34 81 88 81 94 0 3 10 22 23 43 13 20 29 57 37 82 7 25 16 50 19
55 10 18 12 38 15 133 5 165 -50 306 -164 423 -120 122 -244 177 -418 183 -35
1 -64 0 -66 -2z"/>
<path d="M6116 1679 c-82 -22 -144 -113 -132 -195 12 -89 81 -155 168 -160 56
-3 90 9 128 43 14 13 27 23 30 23 10 0 34 74 35 110 1 35 -18 99 -34 110 -4 3
-10 12 -13 21 -14 37 -119 65 -182 48z"/>
<path d="M7395 1680 c-68 -21 -128 -110 -124 -183 10 -171 220 -235 327 -100
64 81 37 216 -52 267 -37 21 -109 29 -151 16z"/>
<path d="M1430 1648 c-49 -13 -94 -50 -115 -95 -19 -39 -28 -110 -17 -128 4
-5 7 -15 8 -21 3 -18 36 -65 42 -60 2 3 25 -6 49 -21 57 -33 93 -37 146 -16
106 42 146 168 83 263 -22 34 -69 69 -101 76 -45 9 -65 10 -95 2z"/>
<path d="M2736 1649 c-16 -4 -32 -6 -36 -4 -4 3 -28 -13 -52 -34 -68 -60 -85
-136 -49 -215 16 -33 31 -49 73 -70 51 -27 123 -41 143 -28 6 4 12 7 15 7 3 0
19 9 35 18 64 39 95 127 72 203 -26 84 -125 144 -201 123z"/>
<path d="M3539 1419 c-48 -24 -98 -88 -101 -128 -1 -18 -6 -34 -9 -37 -11 -7
8 -63 35 -104 46 -69 145 -95 226 -59 38 17 88 61 91 82 2 12 6 27 9 32 1 3 4
10 5 15 1 6 4 13 5 18 1 4 1 12 0 17 -1 6 -4 24 -7 40 -18 109 -155 176 -254
124z"/>
<path d="M5357 1425 c-116 -47 -147 -217 -55 -302 114 -105 300 -30 307 124 6
138 -124 230 -252 178z"/>
<path d="M6805 1420 c-4 -6 -11 -8 -16 -4 -17 10 -79 -17 -116 -52 -19 -19
-32 -34 -28 -34 4 0 2 -7 -5 -15 -7 -8 -14 -37 -15 -64 -12 -168 189 -254 311
-133 31 32 41 53 61 139 5 23 -43 123 -60 123 -6 0 -18 7 -26 14 -9 8 -32 18
-50 21 -19 3 -38 8 -42 11 -4 2 -10 0 -14 -6z"/>
<path d="M2044 1371 c-105 -42 -142 -172 -76 -266 33 -47 89 -77 146 -77 59 1
146 42 146 71 0 6 4 11 9 11 4 0 14 20 21 45 42 149 -101 274 -246 216z"/>
<path d="M3829 790 c-43 -12 -67 -29 -94 -64 -59 -77 -50 -172 23 -249 42 -45
115 -77 127 -57 3 5 12 7 19 4 8 -3 17 0 21 5 3 6 10 9 14 7 13 -8 92 74 107
110 36 86 -1 182 -90 236 -19 11 -99 16 -127 8z"/>
<path d="M5094 780 c-57 -27 -72 -42 -93 -91 -36 -84 -2 -192 78 -245 69 -45
134 -34 208 38 46 45 71 117 57 166 -4 15 -8 29 -9 32 -2 11 -29 55 -40 66
-45 46 -142 62 -201 34z"/>
<path d="M4458 521 c-55 -13 -114 -87 -122 -152 -12 -100 78 -199 180 -199 97
0 180 87 177 186 -3 119 -110 195 -235 165z"/>
</g>
</svg>
